<?xml version="1.0" standalone="no"?>
<!DOCTYPE svg PUBLIC "-//W3C//DTD SVG 1.1//EN" "http://www.w3.org/Graphics/SVG/1.1/DTD/svg11.dtd" >
<svg xmlns="http://www.w3.org/2000/svg">
<metadata>
This is a custom SVG webfont generated by Font Squirrel.
Designer    : Lee Martin McAuley
Foundry URL : httpwwwitcfontscom
</metadata>
<defs>
<font id="webfontfEjBneBF" horiz-adv-x="277" >
<font-face units-per-em="1000" ascent="800" descent="-200" />
<missing-glyph horiz-adv-x="133" />
<glyph unicode=" "  horiz-adv-x="133" />
<glyph unicode="&#x09;" horiz-adv-x="133" />
<glyph unicode="&#xa0;" horiz-adv-x="133" />
<glyph unicode="!" horiz-adv-x="177" d="M62 152v515h53v-515h-53zM88 68q15 0 25 -10t10 -25q0 -14 -10 -24.5t-25 -10.5q-14 0 -24.5 10.5t-10.5 24.5q0 15 10.5 25t24.5 10z" />
<glyph unicode="&#x22;" horiz-adv-x="217" d="M77 570h-13l-24 73q0 13 8.5 22t21.5 9t21.5 -8.5t8.5 -22.5zM154 570h-13l-24 73q0 13 8.5 22t21.5 9t21.5 -8.5t8.5 -22.5z" />
<glyph unicode="$" d="M149 673q39 -5 65 -34q23 -27 23 -81v-27h-53v28q0 29 -7.5 42t-27.5 19v-233h88v-278q0 -54 -23 -81q-26 -31 -65 -34v-43h-21v43q-39 3 -65 34q-23 27 -23 81v25h53v-26q0 -29 7.5 -42.5t27.5 -18.5v287h-88v224q0 54 23 81q26 29 65 34v43h21v-43zM149 334v-287 q20 5 27.5 18.5t7.5 42.5v226h-35zM128 387v233q-20 -6 -27.5 -19t-7.5 -42v-172h35z" />
<glyph unicode="%" horiz-adv-x="290" d="M247 667l-144 -646h35v-21h-94l144 646h-35v21h94zM250 244v-209q0 -42 -36 -42t-36 42v209q0 43 36 43t36 -43zM112 631v-209q0 -42 -36 -42t-36 42v209q0 43 36 43t36 -43zM199 245v-211q0 -20 15 -20t15 20v211q0 21 -15 21t-15 -21zM61 632v-211q0 -20 15 -20t15 20 v211q0 21 -15 21t-15 -21z" />
<glyph unicode="&#x26;" horiz-adv-x="319" d="M184 369v41h-35v21h88v-62h41v36h21v-89h-62v-207q0 -46 -15 -70q-28 -46 -83 -46q-59 0 -88 52q-11 22 -11 64v144q0 69 36 90q-36 21 -36 90v125q0 46 15 70q28 46 84 46q27 0 50.5 -14.5t36.5 -38.5q11 -21 11 -63v-25h-53v26q0 29 -5 38q-13 24 -40 24q-30 0 -42 -27 q-4 -9 -4 -35v-128q0 -31 9 -44q14 -18 44 -18h38zM184 316h-38q-30 0 -41.5 -13t-11.5 -48v-147q0 -28 5 -38q13 -24 41 -24q29 0 41 27q4 8 4 35v208z" />
<glyph unicode="'" horiz-adv-x="140" d="M77 570h-13l-24 73q0 13 8.5 22t21.5 9t21.5 -8.5t8.5 -22.5z" />
<glyph unicode="(" horiz-adv-x="201" d="M165 25v-53q-44 1 -68 31q-21 25 -21 73v515q0 48 21 73q24 29 68 30v-53q-21 -2 -28.5 -12t-7.5 -35v-521q0 -25 8 -34q9 -14 26 -14h2z" />
<glyph unicode=")" horiz-adv-x="201" d="M37 -28v53h1q15 0 27 14q7 10 7 34v521q0 25 -7.5 35t-27.5 12v53q43 -1 67 -30q21 -25 21 -73v-515q0 -48 -21 -73q-24 -30 -67 -31z" />
<glyph unicode="*" horiz-adv-x="195" d="M83 672q12 2 14 2q4 0 14 -2v-34l30 17q10 -12 14 -24l-30 -17l30 -17q-4 -12 -14 -24l-30 17v-34q-10 -2 -14 -2q-2 0 -14 2v34l-29 -17q-10 12 -14 24l29 17l-29 17q4 12 14 24l29 -17v34z" />
<glyph unicode="+" d="M254 266h-88v-162h-53v162h-88v54h88v164h53v-164h88v-54z" />
<glyph unicode="," horiz-adv-x="150" d="M86 0v-44h-21v44q-25 8 -25 33q0 15 10.5 25t24.5 10t24.5 -10t10.5 -25q0 -23 -24 -33z" />
<glyph unicode="-" horiz-adv-x="150" d="M40 275h70v-44h-70v44z" />
<glyph unicode="." horiz-adv-x="150" d="M75 68q14 0 24.5 -10t10.5 -25q0 -14 -10.5 -24.5t-24.5 -10.5t-24.5 10.5t-10.5 24.5q0 15 10.5 25t24.5 10z" />
<glyph unicode="/" horiz-adv-x="241" d="M201 733l-105 -779h37v-21h-93l106 779h-41v21h96z" />
<glyph unicode="0" d="M237 558v-449q0 -46 -15 -70q-28 -46 -83 -46q-59 0 -88 52q-11 22 -11 64v449q0 46 15 70q28 46 84 46q27 0 50.5 -14.5t36.5 -38.5q11 -21 11 -63zM93 559v-451q0 -28 5 -38q13 -24 41 -24q29 0 41 27q4 8 4 35v451q0 29 -5 38q-13 24 -40 24q-30 0 -42 -27 q-4 -9 -4 -35z" />
<glyph unicode="1" horiz-adv-x="156" d="M55 646h-35v21h88v-646h35v-21h-123v21h35v625z" />
<glyph unicode="2" horiz-adv-x="256" d="M226 134v-134h-216l154 537q8 25 8 36q0 21 -13 34.5t-33 13.5q-30 0 -42 -27q-4 -14 -4 -35v-26h-53v25q0 44 15 70q30 46 84 46q41 0 70 -29.5t29 -71.5q0 -17 -10 -51l-135 -469h93v81h53z" />
<glyph unicode="3" horiz-adv-x="278" d="M37 134h53v-26q0 -28 6 -38q11 -24 40 -24q30 0 42 27q4 12 4 35v200q0 26 -6 37q-13 25 -40 25q-31 0 -42 -29h-61l152 273h-95v-81h-53v134h238l-138 -248q2 0 5 0.5t5 0.5q37 0 64 -32q24 -29 24 -82v-197q0 -45 -16 -70q-28 -46 -83 -46q-28 0 -51.5 14.5t-35.5 37.5 q-12 22 -12 64v25z" />
<glyph unicode="4" d="M201 667l-114 -546h80v53h53v-53h35v-53h-35v-68h-53v68h-145l125 599h54z" />
<glyph unicode="5" d="M93 614v-206q17 14 45 14q60 0 88 -52q11 -22 11 -64v-197q0 -46 -15 -70q-28 -46 -83 -46q-59 0 -88 52q-11 22 -11 64v25h53v-26q0 -28 5 -38q13 -24 41 -24q29 0 41 27q4 8 4 35v200q0 28 -5 37q-13 24 -41 24q-32 0 -42 -30h-56v328h197v-134h-53v81h-91z" />
<glyph unicode="6" d="M237 533h-53v26q0 29 -5 38q-13 24 -40 24q-30 0 -42 -27q-4 -9 -4 -35v-151q17 14 45 14q60 0 88 -52q11 -22 11 -64v-197q0 -46 -15 -70q-28 -46 -83 -46q-59 0 -88 52q-11 22 -11 64v449q0 46 15 70q28 46 84 46q27 0 50.5 -14.5t36.5 -38.5q11 -21 11 -63v-25z M93 308v-200q0 -28 5 -38q13 -24 41 -24q29 0 41 27q4 8 4 35v200q0 28 -5 37q-13 24 -40 24q-30 0 -42 -27q-4 -9 -4 -34z" />
<glyph unicode="7" horiz-adv-x="247" d="M178 369h36l-9 -53h-36l-53 -295h36v-21h-124v21h35l52 295h-59l9 53h59l44 245h-99v-81h-53v134h214z" />
<glyph unicode="8" d="M201 344q36 -21 36 -90v-145q0 -46 -15 -70q-28 -46 -83 -46q-59 0 -88 52q-11 22 -11 64v145q0 69 36 90q-36 21 -36 90v124q0 46 15 70q28 46 84 46q27 0 50.5 -14.5t36.5 -38.5q11 -21 11 -63v-124q0 -69 -36 -90zM184 108v148q0 28 -5 38q-13 23 -40 23 q-31 0 -42 -27q-4 -9 -4 -34v-148q0 -28 5 -38q13 -24 41 -24q29 0 41 27q4 8 4 35zM93 559v-127q0 -27 5 -38q14 -24 41 -24q29 0 41 28q4 8 4 34v127q0 29 -5 38q-13 24 -40 24q-30 0 -42 -27q-4 -9 -4 -35z" />
<glyph unicode="9" d="M40 134h53v-26q0 -29 5 -38q13 -24 41 -24q29 0 41 27q4 9 4 35v151q-16 -15 -45 -15q-28 0 -51.5 14.5t-36.5 38.5q-11 21 -11 64v197q0 45 15 69q28 47 84 47q27 0 50.5 -14.5t36.5 -38.5q11 -21 11 -63v-449q0 -46 -15 -70q-28 -46 -83 -46q-59 0 -88 52 q-11 22 -11 64v25zM184 359v200q0 28 -5 38q-13 24 -40 24q-30 0 -42 -27q-4 -9 -4 -35v-200q0 -28 5 -38q14 -24 41 -24q29 0 41 28q4 8 4 34z" />
<glyph unicode=":" horiz-adv-x="150" d="M75 400q14 0 24.5 -10.5t10.5 -24.5t-10.5 -24.5t-24.5 -10.5t-24.5 10.5t-10.5 24.5t10.5 24.5t24.5 10.5zM75 68q14 0 24.5 -10t10.5 -25q0 -14 -10.5 -24.5t-24.5 -10.5t-24.5 10.5t-10.5 24.5q0 15 10.5 25t24.5 10z" />
<glyph unicode=";" horiz-adv-x="150" d="M75 400q14 0 24.5 -10.5t10.5 -24.5t-10.5 -24.5t-24.5 -10.5t-24.5 10.5t-10.5 24.5t10.5 24.5t24.5 10.5zM86 0v-44h-21v44q-25 8 -25 33q0 15 10.5 25t24.5 10t24.5 -10t10.5 -25q0 -23 -24 -33z" />
<glyph unicode="&#x3c;" d="M249 121l-220 146v39l220 148v-60l-159 -107v-1l159 -105v-60z" />
<glyph unicode="=" d="M254 369h-229v53h229v-53zM254 163h-229v53h229v-53z" />
<glyph unicode="&#x3e;" d="M249 268l-220 -148v60l160 106v1l-160 105v60l220 -145v-39z" />
<glyph unicode="?" horiz-adv-x="264" d="M152 316v-164h-53v217h72v190q0 26 -6 38q-11 24 -40 24q-30 0 -42 -27q-4 -14 -4 -35v-26h-53v25q0 44 15 70q30 46 84 46q27 0 51 -14.5t36 -38.5q12 -23 12 -63v-242h-72zM125 68q15 0 25 -10t10 -25q0 -14 -10.5 -24.5t-24.5 -10.5t-24.5 10.5t-10.5 24.5 q0 15 10.5 25t24.5 10z" />
<glyph unicode="A" horiz-adv-x="294" d="M193 334h-92v-334h-88v21h35v537q0 43 15 69q29 47 84 47q27 0 51 -14.5t36 -38.5q12 -23 12 -63v-537h35v-21h-88v334zM193 387v172q0 26 -6 38q-13 24 -40 24q-30 0 -42 -27q-4 -9 -4 -35v-172h92z" />
<glyph unicode="B" horiz-adv-x="292" d="M252 318v-202q0 -59 -28 -87q-29 -29 -87 -29h-117v21h35v625h-35v21h117q58 0 87 -29q28 -29 28 -87v-148l-42 -42zM162 334h-54v-281h30q36 0 48.5 12.5t12.5 48.5v183zM162 387l37 38v127q0 37 -12.5 49.5t-48.5 12.5h-30v-227h54z" />
<glyph unicode="C" horiz-adv-x="264" d="M237 533h-53v26q0 29 -5 38q-13 24 -40 24q-30 0 -42 -27q-4 -9 -4 -35v-451q0 -28 5 -38q13 -25 41 -25q29 0 41 28q4 8 4 35v26h53v-25q0 -46 -15 -70q-28 -46 -83 -46q-59 0 -88 52q-11 22 -11 64v449q0 46 15 70q27 45 84 45q59 0 87 -52q11 -21 11 -63v-25z" />
<glyph unicode="D" horiz-adv-x="292" d="M20 0v21h35v625h-35v21h117q58 0 87 -29q28 -29 28 -87v-435q0 -59 -28 -87q-29 -29 -87 -29h-117zM108 53h30q36 0 48.5 12.5t12.5 48.5v438q0 37 -12.5 49.5t-48.5 12.5h-30v-561z" />
<glyph unicode="E" horiz-adv-x="269" d="M252 667v-134h-53v81h-91v-227h70v-53h-70v-281h91v81h53v-134h-232v21h35v625h-35v21h232z" />
<glyph unicode="F" horiz-adv-x="266" d="M252 667v-134h-53v81h-91v-227h70v-53h-70v-313h35v-21h-123v21h35v625h-35v21h232z" />
<glyph unicode="G" d="M237 533h-53v26q0 29 -5 38q-13 24 -40 24q-30 0 -42 -27q-4 -9 -4 -35v-451q0 -28 5 -38q13 -24 41 -24q29 0 41 27q4 8 4 35v242h-35v21h88v-262q0 -46 -15 -70q-28 -46 -83 -46q-59 0 -88 52q-11 22 -11 64v449q0 46 15 70q28 46 84 46q27 0 50.5 -14.5t36.5 -38.5 q11 -21 11 -63v-25z" />
<glyph unicode="H" horiz-adv-x="307" d="M20 667h88v-280h91v280h88v-21h-35v-625h35v-21h-88v334h-91v-334h-88v21h35v625h-35v21z" />
<glyph unicode="I" horiz-adv-x="163" d="M55 646h-35v21h123v-21h-35v-625h35v-21h-123v21h35v625z" />
<glyph unicode="J" horiz-adv-x="246" d="M0 134h53v-26q0 -28 5 -38q13 -24 41 -24q29 0 41 27q4 8 4 35v538h-35v21h123v-21h-35v-537q0 -46 -15 -70q-28 -46 -83 -46q-59 0 -88 52q-11 22 -11 64v25z" />
<glyph unicode="K" horiz-adv-x="307" d="M153 387l46 46v234h88v-21h-35v-234l-64 -64l64 -70v-257h35v-21h-88v257l-91 100v-357h-88v21h35v625h-35v21h88v-232z" />
<glyph unicode="L" horiz-adv-x="262" d="M20 667h123v-21h-35v-593h91v98h53v-151h-232v21h35v625h-35v21z" />
<glyph unicode="M" horiz-adv-x="452" d="M20 646v21h56v-33q31 40 78 40q49 0 72 -36q23 36 71 36q28 0 52 -14.5t36 -38.5q11 -21 11 -63v-537h36v-21h-89v559q0 28 -5 38q-13 24 -40 24q-30 0 -42 -27q-4 -9 -4 -34v-561h-53v560q0 28 -5 38q-13 24 -40 24q-30 0 -42 -27q-4 -9 -4 -35v-559h-88v21h35v625h-35z " />
<glyph unicode="N" horiz-adv-x="307" d="M55 646h-35v21h56v-33q31 40 78 40q27 0 50.5 -14.5t36.5 -38.5q11 -21 11 -63v-537h35v-21h-88v559q0 28 -5 38q-13 24 -40 24q-30 0 -42 -27q-4 -9 -4 -35v-559h-88v21h35v625z" />
<glyph unicode="O" d="M237 558v-449q0 -46 -15 -70q-28 -46 -83 -46q-59 0 -88 52q-11 22 -11 64v449q0 46 15 70q28 46 84 46q27 0 50.5 -14.5t36.5 -38.5q11 -21 11 -63zM93 559v-451q0 -28 5 -38q13 -24 41 -24q29 0 41 27q4 8 4 35v451q0 29 -5 38q-13 24 -40 24q-30 0 -42 -27 q-4 -9 -4 -35z" />
<glyph unicode="P" horiz-adv-x="292" d="M108 178v-157h35v-21h-123v21h35v625h-35v21h56v-33q31 40 78 40q27 0 50.5 -14.5t36.5 -38.5q11 -21 11 -63v-278q0 -46 -15 -70q-28 -47 -84 -47q-27 0 -45 15zM108 559v-281q0 -28 5 -38q14 -24 41 -24q31 0 41 28q4 9 4 34v281q0 28 -5 38q-13 24 -40 24 q-30 0 -42 -27q-4 -9 -4 -35z" />
<glyph unicode="Q" d="M165 -3v-43h35v-21h-123v21h35v43q-29 8 -49 31q-23 27 -23 81v449q0 46 15 70q28 46 84 46q27 0 50.5 -14.5t36.5 -38.5q11 -21 11 -63v-449q0 -54 -23 -81q-20 -23 -49 -31zM93 559v-451q0 -28 5 -38q13 -24 41 -24q29 0 41 27q4 8 4 35v451q0 29 -5 38q-13 24 -40 24 q-30 0 -42 -27q-4 -9 -4 -35z" />
<glyph unicode="R" horiz-adv-x="301" d="M108 334v-334h-88v21h35v625h-35v21h117q58 0 87 -29q28 -29 28 -87v-148l-42 -42l42 -43v-297h35v-21h-88v297l-37 37h-54zM162 387l37 38v127q0 37 -12.5 49.5t-48.5 12.5h-30v-227h54z" />
<glyph unicode="S" d="M93 370h144v-261q0 -46 -15 -70q-28 -46 -83 -46q-59 0 -88 52q-11 22 -11 64v25h53v-26q0 -28 5 -38q13 -24 41 -24q29 0 41 27q4 8 4 35v209h-144v241q0 46 15 70q28 46 84 46q27 0 50.5 -14.5t36.5 -38.5q11 -21 11 -63v-27h-53v28q0 29 -5 38q-13 24 -40 24 q-30 0 -42 -27q-4 -9 -4 -35v-189z" />
<glyph unicode="T" d="M59 500h-53v167h265v-167h-53v114h-53v-593h35v-21h-123v21h35v593h-53v-114z" />
<glyph unicode="U" horiz-adv-x="301" d="M246 21h35v-21h-57v33q-28 -40 -77 -40q-27 0 -51 14.5t-36 37.5q-12 24 -12 64v537h-35v21h88v-559q0 -26 6 -38q13 -24 40 -24q30 0 42 27q4 9 4 35v559h88v-21h-35v-625z" />
<glyph unicode="V" horiz-adv-x="266" d="M177 667h89v-21h-35l-71 -646h-53l-72 646h-35v21h89l44 -476z" />
<glyph unicode="W" horiz-adv-x="438" d="M101 667v-559q0 -26 6 -38q13 -24 40 -24q30 0 42 27q4 9 4 34v507h53v-506q0 -28 5 -38q13 -24 40 -24q30 0 42 27q4 9 4 35v559h88v-21h-35v-537q0 -46 -15 -70q-30 -46 -84 -46q-49 0 -72 36q-23 -36 -71 -36q-28 0 -52 14t-36 38t-12 64v537h-35v21h88z" />
<glyph unicode="X" horiz-adv-x="307" d="M201 361l51 -51v-289h35v-21h-88v288l-45 45l-46 -45v-288h-88v21h35v289l51 51l-51 51v234h-35v21h88v-234l46 -45l45 45v234h88v-21h-35v-234z" />
<glyph unicode="Y" horiz-adv-x="294" d="M85 0v21h35v146q-28 8 -48 31q-23 28 -23 82v366h-36v21h89v-389q0 -28 5 -38q12 -24 40 -24q30 0 42 28q4 8 4 34v389h88v-21h-35v-366q0 -53 -24 -82q-17 -21 -49 -31v-146h36v-21h-124z" />
<glyph unicode="Z" horiz-adv-x="251" d="M245 667l-169 -614h100v94h53v-147h-222l168 614h-96v-81h-53v134h219z" />
<glyph unicode="[" horiz-adv-x="201" d="M73 -21v709h88v-21h-35v-667h35v-21h-88z" />
<glyph unicode="\" horiz-adv-x="241" d="M40 733h96v-21h-41l106 -779h-93v21h38z" />
<glyph unicode="]" horiz-adv-x="201" d="M128 -21h-88v21h35v667h-35v21h88v-709z" />
<glyph unicode="^" d="M282 414h-60l-84 222h-1l-82 -222h-60l132 298h20z" />
<glyph unicode="_" horiz-adv-x="500" d="M0 -133h500v-44h-500v44z" />
<glyph unicode="`" horiz-adv-x="210" d="M67 621h57l20 -58h-24z" />
<glyph unicode="a" horiz-adv-x="264" d="M251 0h-56v30q-18 -35 -67 -35q-54 0 -78 47q-10 19 -10 56v115q0 40 13 62q27 42 74 42q22 0 36 -11v91q0 48 -35 48t-35 -48v-28h-53v25q0 41 13 63q26 41 75 41q24 0 45.5 -13t32.5 -34q10 -19 10 -57v-373h35v-21zM93 216v-121q0 -47 35 -47t35 47v121q0 48 -35 48 t-35 -48z" />
<glyph unicode="b" horiz-adv-x="271" d="M20 0v21h35v625h-35v21h88v-180q16 11 36 11q24 0 45 -13t32 -34q10 -19 10 -57v-296q0 -40 -13 -62q-25 -41 -75 -41q-49 0 -67 35v-30h-56zM108 397v-302q0 -47 35 -47t35 47v302q0 48 -35 48t-35 -48z" />
<glyph unicode="c" horiz-adv-x="243" d="M216 369h-53v28q0 48 -35 48t-35 -48v-302q0 -47 35 -47t35 47v28h53v-25q0 -40 -13 -62q-26 -41 -75 -41q-54 0 -78 47q-10 19 -10 56v296q0 41 13 63q26 41 75 41q24 0 45.5 -13t32.5 -34q10 -19 10 -57v-25z" />
<glyph unicode="d" horiz-adv-x="264" d="M251 0h-56v30q-18 -35 -67 -35q-54 0 -78 47q-10 19 -10 56v296q0 41 13 63q27 41 74 41q20 0 36 -11v159h-35v21h88v-646h35v-21zM93 397v-302q0 -47 35 -47t35 47v302q0 48 -35 48t-35 -48z" />
<glyph unicode="e" horiz-adv-x="256" d="M93 228v-133q0 -47 35 -47t35 47v28h53v-25q0 -40 -13 -62q-26 -41 -75 -41q-54 0 -78 47q-10 19 -10 56v296q0 41 13 63q26 41 75 41q24 0 45.5 -13t32.5 -34q10 -19 10 -57v-166h-123zM163 281v116q0 48 -35 48t-35 -48v-116h70z" />
<glyph unicode="f" horiz-adv-x="191" d="M55 316h-35v53h35v199q0 41 13 63q26 41 75 41q24 0 45.5 -12.5t32.5 -34.5q10 -19 10 -57v-24h-53v28q0 47 -35 47t-35 -47v-203h70v-53h-70v-295h35v-21h-123v21h35v295z" />
<glyph unicode="g" horiz-adv-x="264" d="M216 471v-547q0 -40 -13 -62q-26 -41 -75 -41q-53 0 -78 46q-10 20 -10 57v23h53v-26q0 -47 35 -47t35 47v85q-12 -11 -36 -11t-45 13t-32 34q-10 19 -10 56v296q0 41 13 63q26 41 75 41q21 0 40 -10t27 -25v30h56v-22h-35zM163 94v303q0 48 -35 48t-35 -48v-302 q0 -47 35 -47q34 0 35 43v3z" />
<glyph unicode="h" horiz-adv-x="280" d="M55 646h-35v21h88v-180q16 11 36 11q24 0 45 -13t32 -34q10 -19 10 -57v-373h35v-21h-88v397q0 48 -35 48q-34 0 -35 -43v-3v-399h-88v21h35v625z" />
<glyph unicode="i" horiz-adv-x="156" d="M108 493v-472h35v-21h-123v21h35v451h-35v21h88zM82 619q14 0 24.5 -10t10.5 -25q0 -14 -10.5 -24.5t-24.5 -10.5q-15 0 -25 10.5t-10 24.5q0 15 10 25t25 10z" />
<glyph unicode="j" horiz-adv-x="141" d="M102 493v-569q0 -49 -22 -72q-25 -31 -66 -31h-1v52q36 1 36 48v551h-36v21h89zM75 619q14 0 24.5 -10t10.5 -25q0 -14 -10.5 -24.5t-24.5 -10.5t-24.5 10.5t-10.5 24.5q0 15 10.5 25t24.5 10z" />
<glyph unicode="k" horiz-adv-x="270" d="M171 300l53 -54v-225h36v-21h-89v224l-70 71v-295h-88v21h35v625h-35v21h88v-298l32 -32l38 38v118h89v-21h-36v-118z" />
<glyph unicode="l" horiz-adv-x="156" d="M108 667v-646h35v-21h-123v21h35v625h-35v21h88z" />
<glyph unicode="m" horiz-adv-x="403" d="M20 493h56v-30q8 15 27 25t40 10q41 0 62 -30q21 30 61 30q54 0 78 -47q10 -19 10 -57v-373h35v-21h-88v397q0 48 -35 48t-35 -48v-397h-53v397q0 48 -35 48t-35 -48v-397h-88v21h35v450h-35v22z" />
<glyph unicode="n" horiz-adv-x="280" d="M20 493h56v-30q8 15 27 25t40 10q54 0 78 -47q10 -19 10 -57v-373h35v-21h-88v397q0 48 -35 48t-35 -48v-397h-88v21h35v450h-35v22z" />
<glyph unicode="o" horiz-adv-x="256" d="M216 394v-296q0 -40 -13 -62q-26 -41 -75 -41q-54 0 -78 47q-10 19 -10 56v296q0 41 13 63q26 41 75 41q24 0 45.5 -13t32.5 -34q10 -19 10 -57zM93 397v-302q0 -47 35 -47t35 47v302q0 48 -35 48t-35 -48z" />
<glyph unicode="p" horiz-adv-x="264" d="M13 493h57v-30q8 15 26.5 25t39.5 10q54 0 78 -47q10 -19 10 -57v-296q0 -42 -13 -62q-25 -41 -74 -41q-23 0 -35 11v-159h34v-21h-123v21h36v624h-36v22zM171 95v302q0 48 -35 48q-34 0 -34 -48v-302q0 -47 34 -47q35 0 35 47z" />
<glyph unicode="q" horiz-adv-x="264" d="M251 493v-22h-35v-624h35v-21h-123v21h35v159q-14 -11 -36 -11q-53 0 -77 47q-10 19 -10 56v296q0 41 13 63q26 41 75 41q21 0 40 -10t27 -25v30h56zM163 95v302q0 48 -35 48t-35 -48v-302q0 -47 35 -47t35 47z" />
<glyph unicode="r" horiz-adv-x="234" d="M228 369h-53v28q0 48 -35 48t-35 -48v-376h35v-21h-123v21h35v450h-35v22h56v-30q8 15 26.5 25t39.5 10q25 0 46.5 -12.5t32.5 -34.5q10 -19 10 -57v-25z" />
<glyph unicode="s" horiz-adv-x="256" d="M93 281h123v-183q0 -40 -13 -62q-26 -41 -75 -41q-54 0 -78 47q-10 19 -10 56v25h53v-28q0 -47 35 -47t35 47v133h-123v166q0 41 13 63q26 41 75 41q24 0 45.5 -13t32.5 -34q10 -19 10 -57v-25h-53v28q0 48 -35 48t-35 -48v-116z" />
<glyph unicode="t" horiz-adv-x="154" d="M13 667h88v-71h53v-53h-53v-448q0 -47 35 -48v-52h-1q-38 0 -66 31q-21 25 -21 72v548h-35v21z" />
<glyph unicode="u" horiz-adv-x="280" d="M260 0h-57v30q-8 -16 -26.5 -25.5t-39.5 -9.5q-54 0 -78 47q-11 21 -11 56v374h-35v21h88v-398q0 -47 35 -47t35 47v398h89v-21h-36v-451h36v-21z" />
<glyph unicode="v" horiz-adv-x="244" d="M208 472l-60 -472h-53l-60 472h-35v21h86l36 -326l36 325l86 1v-21h-36z" />
<glyph unicode="w" horiz-adv-x="403" d="M383 0h-57v30q-8 -16 -26.5 -25.5t-39.5 -9.5q-41 0 -62 29q-21 -29 -61 -29q-54 0 -78 47q-11 21 -11 56v374h-35v21h88v-398q0 -47 35 -47t35 47v345h53v-345q0 -47 36 -47q35 0 35 47v398h88v-21h-35v-451h35v-21z" />
<glyph unicode="x" horiz-adv-x="280" d="M140 282l35 35v176h88v-21h-35v-176l-42 -43l42 -42v-190h35v-21h-88v189l-35 35l-35 -35v-189h-88v21h35v190l42 42l-42 43v176h-35v21h88v-176z" />
<glyph unicode="y" horiz-adv-x="273" d="M163 -1v-152h35v-21h-123v21h35v152q-25 8 -41 27q-20 24 -20 72v374h-36v21h89v-398q0 -47 34 -47q35 0 35 47v398h89v-21h-36v-374q0 -48 -20 -72q-16 -19 -41 -27z" />
<glyph unicode="z" horiz-adv-x="220" d="M197 493l-109 -440h59v70h53v-123h-180l110 440h-57v-71h-53v124h177z" />
<glyph unicode="|" horiz-adv-x="199" d="M126 -235h-53v1000h53v-1000z" />
<glyph unicode="~" d="M263 310q-11 -29 -28 -46.5t-34 -17.5q-38 0 -69 23q-30 22 -48 22q-7 0 -19.5 -13t-19.5 -35l-30 35q9 27 28 45.5t43 18.5q27 0 62 -24q29 -20 48 -20q7 0 19 12.5t19 36.5z" />
<glyph unicode="&#xa1;" horiz-adv-x="177" d="M115 514v-514h-53v514h53zM88 598q-14 0 -24.5 10.5t-10.5 24.5q0 15 10.5 25t24.5 10q15 0 25 -10t10 -25q0 -14 -10 -24.5t-25 -10.5z" />
<glyph unicode="&#xa2;" horiz-adv-x="256" d="M138 584q36 -4 57 -30q21 -25 21 -73v-25h-53v29q0 21 -5 30.5t-20 14.5v-394q15 5 20 15t5 31v28h53v-25q0 -47 -21 -72t-57 -31v-42h-21v42q-36 6 -56 31q-21 25 -21 72v296q0 48 21 73t56 30v43h21v-43zM117 531q-14 -5 -19.5 -14.5t-5.5 -31.5v-303q0 -14 0.5 -22 t3.5 -12.5t3.5 -5.5t8 -3t9.5 -3v395z" />
<glyph unicode="&#xa3;" horiz-adv-x="289" d="M52 369v189q0 46 15 70q30 46 84 46q27 0 50.5 -14.5t36.5 -38.5q11 -21 11 -63v-25h-53v26q0 28 -5 38q-13 24 -40 24q-30 0 -42 -27q-4 -9 -4 -35v-190h70v-53h-70v-263h91v81h53v-134h-197v316h-39v53h39z" />
<glyph unicode="&#xa4;" horiz-adv-x="519" d="M472 173q-10 -11 -31 -32l-66 66q-49 -41 -118 -41q-68 0 -118 41l-66 -66l-31 32l67 64q-40 54 -40 117q0 71 40 117l-67 65l31 32l66 -66q55 40 118 40q71 0 117 -40l67 66q21 -21 31 -32l-67 -65q41 -51 41 -117q0 -63 -41 -117zM402 355q0 62 -44 102.5t-100 40.5 q-62 0 -103.5 -42.5t-41.5 -100.5q0 -59 42.5 -102t101.5 -43t102 43t43 102z" />
<glyph unicode="&#xa5;" horiz-adv-x="294" d="M193 667h88v-21h-35v-231q0 -41 -17 -63h39v-49h-95v-28h95v-50h-95v-204h36v-21h-124v21h35v204h-94v50h94v28h-94v49h39q-17 22 -17 63v231h-35v21h88v-253q0 -26 6 -38q11 -24 40 -24q30 0 42 27q4 9 4 35v253z" />
<glyph unicode="&#xa6;" horiz-adv-x="198" d="M125 345h-53v420h53v-420zM125 -235h-53v422h53v-422z" />
<glyph unicode="&#xa8;" horiz-adv-x="299" d="M203 621q12 0 20.5 -8.5t8.5 -20.5t-8.5 -20.5t-20.5 -8.5q-11 0 -20 8.5t-9 20.5t9 20.5t20 8.5zM96 621q11 0 19.5 -8.5t8.5 -20.5t-8.5 -20.5t-19.5 -8.5q-12 0 -21 8.5t-9 20.5t9 20.5t21 8.5z" />
<glyph unicode="&#xaa;" horiz-adv-x="264" d="M251 0h-56v30q-18 -35 -67 -35q-54 0 -78 47q-10 19 -10 56v115q0 40 13 62q27 42 74 42q22 0 36 -11v91q0 48 -35 48t-35 -48v-28h-53v25q0 41 13 63q26 41 75 41q24 0 45.5 -13t32.5 -34q10 -19 10 -57v-373h35v-21zM93 216v-121q0 -47 35 -47t35 47v121q0 48 -35 48 t-35 -48z" />
<glyph unicode="&#xab;" horiz-adv-x="278" d="M238 376l-47 -123l47 -123h-57l-46 123l46 123h57zM143 376l-47 -123l47 -123h-57l-46 123l46 123h57z" />
<glyph unicode="&#xac;" d="M254 153h-53v203h-176v53h229v-256z" />
<glyph unicode="&#xad;" horiz-adv-x="150" d="M40 275h70v-44h-70v44z" />
<glyph unicode="&#xb1;" d="M254 0h-229v53h229v-53zM254 312h-88v-196h-53v196h-88v53h88v195h53v-195h88v-53z" />
<glyph unicode="&#xb2;" horiz-adv-x="256" d="M226 134v-134h-216l154 537q8 25 8 36q0 21 -13 34.5t-33 13.5q-30 0 -42 -27q-4 -14 -4 -35v-26h-53v25q0 44 15 70q30 46 84 46q41 0 70 -29.5t29 -71.5q0 -17 -10 -51l-135 -469h93v81h53z" />
<glyph unicode="&#xb3;" horiz-adv-x="278" d="M37 134h53v-26q0 -28 6 -38q11 -24 40 -24q30 0 42 27q4 12 4 35v200q0 26 -6 37q-13 25 -40 25q-31 0 -42 -29h-61l152 273h-95v-81h-53v134h238l-138 -248q2 0 5 0.5t5 0.5q37 0 64 -32q24 -29 24 -82v-197q0 -45 -16 -70q-28 -46 -83 -46q-28 0 -51.5 14.5t-35.5 37.5 q-12 22 -12 64v25z" />
<glyph unicode="&#xb4;" horiz-adv-x="210" d="M144 621l-54 -58h-23l19 58h58z" />
<glyph unicode="&#xb7;" horiz-adv-x="150" d="M75 368q14 0 24.5 -10t10.5 -25q0 -14 -10.5 -24.5t-24.5 -10.5t-24.5 10.5t-10.5 24.5q0 15 10.5 25t24.5 10z" />
<glyph unicode="&#xb9;" horiz-adv-x="156" d="M55 646h-35v21h88v-646h35v-21h-123v21h35v625z" />
<glyph unicode="&#xba;" horiz-adv-x="256" d="M216 394v-296q0 -40 -13 -62q-26 -41 -75 -41q-54 0 -78 47q-10 19 -10 56v296q0 41 13 63q26 41 75 41q24 0 45.5 -13t32.5 -34q10 -19 10 -57zM93 397v-302q0 -47 35 -47t35 47v302q0 48 -35 48t-35 -48z" />
<glyph unicode="&#xbb;" horiz-adv-x="278" d="M40 376h56l47 -123l-47 -123h-56l46 123zM135 376h53l50 -123l-47 -123h-56l46 123z" />
<glyph unicode="&#xbc;" horiz-adv-x="616" d="M540 667l-114 -546h80v53h53v-53h35v-53h-35v-68h-53v68h-145l125 599h54zM349 667l-144 -646h35v-21h-94l144 646h-35v21h94zM55 646h-35v21h88v-646h35v-21h-123v21h35v625z" />
<glyph unicode="&#xbd;" horiz-adv-x="595" d="M565 134v-134h-216l154 537q8 25 8 36q0 21 -13 34.5t-33 13.5q-30 0 -42 -27q-4 -14 -4 -35v-26h-53v25q0 44 15 70q30 46 84 46q41 0 70 -29.5t29 -71.5q0 -17 -10 -51l-135 -469h93v81h53zM349 667l-144 -646h35v-21h-94l144 646h-35v21h94zM55 646h-35v21h88v-646h35 v-21h-123v21h35v625z" />
<glyph unicode="&#xbe;" horiz-adv-x="738" d="M662 667l-114 -546h80v53h53v-53h35v-53h-35v-68h-53v68h-145l125 599h54zM471 667l-144 -646h35v-21h-94l144 646h-35v21h94zM37 134h53v-26q0 -28 6 -38q11 -24 40 -24q30 0 42 27q4 12 4 35v200q0 26 -6 37q-13 25 -40 25q-31 0 -42 -29h-61l152 273h-95v-81h-53v134 h238l-138 -248q2 0 5 0.5t5 0.5q37 0 64 -32q24 -29 24 -82v-197q0 -45 -16 -70q-28 -46 -83 -46q-28 0 -51.5 14.5t-35.5 37.5q-12 22 -12 64v25z" />
<glyph unicode="&#xbf;" horiz-adv-x="264" d="M112 350v164h53v-217h-72v-189q0 -29 5 -38q13 -24 40 -24q30 0 42 27q4 9 4 35v26h53v-25q0 -46 -15 -70q-28 -46 -84 -46q-58 0 -87 52q-11 22 -11 64v241h72zM139 598q-15 0 -25.5 10.5t-10.5 24.5q0 15 10.5 25t25.5 10q14 0 24 -10t10 -25q0 -14 -10 -24.5 t-24 -10.5z" />
<glyph unicode="&#xc0;" horiz-adv-x="294" d="M193 334h-92v-334h-88v21h35v537q0 43 15 69q29 47 84 47q27 0 51 -14.5t36 -38.5q12 -23 12 -63v-537h35v-21h-88v334zM193 387v172q0 26 -6 38q-13 24 -40 24q-30 0 -42 -27q-4 -9 -4 -35v-172h92zM86 797h57l20 -58h-24z" />
<glyph unicode="&#xc1;" horiz-adv-x="294" d="M193 334h-92v-334h-88v21h35v537q0 43 15 69q29 47 84 47q27 0 51 -14.5t36 -38.5q12 -23 12 -63v-537h35v-21h-88v334zM193 387v172q0 26 -6 38q-13 24 -40 24q-30 0 -42 -27q-4 -9 -4 -35v-172h92zM203 797l-54 -58h-23l19 58h58z" />
<glyph unicode="&#xc2;" horiz-adv-x="294" d="M193 334h-92v-334h-88v21h35v537q0 43 15 69q29 47 84 47q27 0 51 -14.5t36 -38.5q12 -23 12 -63v-537h35v-21h-88v334zM193 387v172q0 26 -6 38q-13 24 -40 24q-30 0 -42 -27q-4 -9 -4 -35v-172h92zM175 797l50 -58h-54l-25 28l-24 -28h-54l49 58h58z" />
<glyph unicode="&#xc3;" horiz-adv-x="294" d="M193 334h-92v-334h-88v21h35v537q0 43 15 69q29 47 84 47q27 0 51 -14.5t36 -38.5q12 -23 12 -63v-537h35v-21h-88v334zM193 387v172q0 26 -6 38q-13 24 -40 24q-30 0 -42 -27q-4 -9 -4 -35v-172h92zM216 792q-1 -22 -16.5 -36.5t-36.5 -14.5q-9 0 -27 8q-8 3 -11 3 q-7 0 -9 -9h-39q2 22 16.5 36.5t35.5 14.5q8 0 27 -7q8 -3 11 -3q8 0 9 8h40z" />
<glyph unicode="&#xc4;" horiz-adv-x="294" d="M193 334h-92v-334h-88v21h35v537q0 43 15 69q29 47 84 47q27 0 51 -14.5t36 -38.5q12 -23 12 -63v-537h35v-21h-88v334zM193 387v172q0 26 -6 38q-13 24 -40 24q-30 0 -42 -27q-4 -9 -4 -35v-172h92zM200 797q12 0 20.5 -8.5t8.5 -20.5t-8.5 -20.5t-20.5 -8.5 q-11 0 -20 8.5t-9 20.5t9 20.5t20 8.5zM93 797q11 0 19.5 -8.5t8.5 -20.5t-8.5 -20.5t-19.5 -8.5q-12 0 -21 8.5t-9 20.5t9 20.5t21 8.5z" />
<glyph unicode="&#xc5;" horiz-adv-x="294" d="M193 334h-92v-334h-88v21h35v537q0 43 15 69q29 47 84 47q27 0 51 -14.5t36 -38.5q12 -23 12 -63v-537h35v-21h-88v334zM193 387v172q0 26 -6 38q-13 24 -40 24q-30 0 -42 -27q-4 -9 -4 -35v-172h92zM147 822q22 0 38 -16t16 -38t-16 -38t-38 -16q-23 0 -38.5 16 t-15.5 38t16 38t38 16zM147 796q-12 0 -20 -8.5t-8 -19.5q0 -12 8 -20t20 -8q11 0 19.5 8t8.5 20q0 11 -8.5 19.5t-19.5 8.5z" />
<glyph unicode="&#xc6;" horiz-adv-x="406" d="M49 21v533q0 46 14 70q29 46 85 46q28 0 45 -14v11h197v-134h-53v81h-91v-227h70v-53h-70v-281h91v81h53v-134h-197v334h-91v-334h-89v21h36zM193 387v169q0 26 -6 37q-11 24 -40 24q-30 0 -42 -27q-3 -7 -3 -34v-169h91z" />
<glyph unicode="&#xc7;" horiz-adv-x="264" d="M150 -6v-15q16 -2 26.5 -16t10.5 -32q0 -20 -15 -35.5t-35 -15.5h-1v25q11 0 18.5 7.5t7.5 18.5t-7.5 19t-18.5 8q-1 0 -9 -2v38q-40 6 -64 34q-23 27 -23 81v449q0 46 15 70q28 46 84 46q27 0 50.5 -14.5t36.5 -38.5q11 -21 11 -63v-25h-53v26q0 29 -5 38q-13 24 -40 24 q-30 0 -42 -27q-4 -9 -4 -35v-451q0 -28 5 -38q13 -24 41 -24q29 0 41 27q4 8 4 35v26h53v-25q0 -54 -23 -81q-24 -28 -64 -34z" />
<glyph unicode="&#xc8;" horiz-adv-x="269" d="M252 667v-134h-53v81h-91v-227h70v-53h-70v-281h91v81h53v-134h-232v21h35v625h-35v21h232zM87 797h57l20 -58h-24z" />
<glyph unicode="&#xc9;" horiz-adv-x="269" d="M252 667v-134h-53v81h-91v-227h70v-53h-70v-281h91v81h53v-134h-232v21h35v625h-35v21h232zM190 797l-54 -58h-23l19 58h58z" />
<glyph unicode="&#xca;" horiz-adv-x="269" d="M252 667v-134h-53v81h-91v-227h70v-53h-70v-281h91v81h53v-134h-232v21h35v625h-35v21h232zM163 797l50 -58h-54l-25 28l-24 -28h-54l49 58h58z" />
<glyph unicode="&#xcb;" horiz-adv-x="269" d="M252 667v-134h-53v81h-91v-227h70v-53h-70v-281h91v81h53v-134h-232v21h35v625h-35v21h232zM188 797q12 0 20.5 -8.5t8.5 -20.5t-8.5 -20.5t-20.5 -8.5q-11 0 -20 8.5t-9 20.5t9 20.5t20 8.5zM81 797q11 0 19.5 -8.5t8.5 -20.5t-8.5 -20.5t-19.5 -8.5q-12 0 -21 8.5 t-9 20.5t9 20.5t21 8.5z" />
<glyph unicode="&#xcc;" horiz-adv-x="163" d="M55 646h-35v21h123v-21h-35v-625h35v-21h-123v21h35v625zM27 797h57l20 -58h-24z" />
<glyph unicode="&#xcd;" horiz-adv-x="163" d="M55 646h-35v21h123v-21h-35v-625h35v-21h-123v21h35v625zM137 797l-54 -58h-23l19 58h58z" />
<glyph unicode="&#xce;" horiz-adv-x="163" d="M55 646h-35v21h123v-21h-35v-625h35v-21h-123v21h35v625zM110 797l50 -58h-54l-25 28l-24 -28h-54l49 58h58z" />
<glyph unicode="&#xcf;" horiz-adv-x="163" d="M55 646h-35v21h123v-21h-35v-625h35v-21h-123v21h35v625zM135 797q12 0 20.5 -8.5t8.5 -20.5t-8.5 -20.5t-20.5 -8.5q-11 0 -20 8.5t-9 20.5t9 20.5t20 8.5zM28 797q11 0 19.5 -8.5t8.5 -20.5t-8.5 -20.5t-19.5 -8.5q-12 0 -21 8.5t-9 20.5t9 20.5t21 8.5z" />
<glyph unicode="&#xd1;" horiz-adv-x="307" d="M55 646h-35v21h56v-33q31 40 78 40q27 0 50.5 -14.5t36.5 -38.5q11 -21 11 -63v-537h35v-21h-88v559q0 28 -5 38q-13 24 -40 24q-30 0 -42 -27q-4 -9 -4 -35v-559h-88v21h35v625zM226 792q-1 -22 -16.5 -36.5t-36.5 -14.5q-9 0 -27 8q-8 3 -11 3q-7 0 -9 -9h-39 q2 22 16.5 36.5t35.5 14.5q8 0 27 -7q8 -3 11 -3q8 0 9 8h40z" />
<glyph unicode="&#xd2;" d="M237 558v-449q0 -46 -15 -70q-28 -46 -83 -46q-59 0 -88 52q-11 22 -11 64v449q0 46 15 70q28 46 84 46q27 0 50.5 -14.5t36.5 -38.5q11 -21 11 -63zM93 559v-451q0 -28 5 -38q13 -24 41 -24q29 0 41 27q4 8 4 35v451q0 29 -5 38q-13 24 -40 24q-30 0 -42 -27 q-4 -9 -4 -35zM80 797h57l20 -58h-24z" />
<glyph unicode="&#xd3;" d="M237 558v-449q0 -46 -15 -70q-28 -46 -83 -46q-59 0 -88 52q-11 22 -11 64v449q0 46 15 70q28 46 84 46q27 0 50.5 -14.5t36.5 -38.5q11 -21 11 -63zM93 559v-451q0 -28 5 -38q13 -24 41 -24q29 0 41 27q4 8 4 35v451q0 29 -5 38q-13 24 -40 24q-30 0 -42 -27 q-4 -9 -4 -35zM197 797l-54 -58h-23l19 58h58z" />
<glyph unicode="&#xd4;" d="M237 558v-449q0 -46 -15 -70q-28 -46 -83 -46q-59 0 -88 52q-11 22 -11 64v449q0 46 15 70q28 46 84 46q27 0 50.5 -14.5t36.5 -38.5q11 -21 11 -63zM93 559v-451q0 -28 5 -38q13 -24 41 -24q29 0 41 27q4 8 4 35v451q0 29 -5 38q-13 24 -40 24q-30 0 -42 -27 q-4 -9 -4 -35zM167 797l50 -58h-54l-25 28l-24 -28h-54l49 58h58z" />
<glyph unicode="&#xd5;" d="M237 558v-449q0 -46 -15 -70q-28 -46 -83 -46q-59 0 -88 52q-11 22 -11 64v449q0 46 15 70q28 46 84 46q27 0 50.5 -14.5t36.5 -38.5q11 -21 11 -63zM93 559v-451q0 -28 5 -38q13 -24 41 -24q29 0 41 27q4 8 4 35v451q0 29 -5 38q-13 24 -40 24q-30 0 -42 -27 q-4 -9 -4 -35zM208 792q-1 -22 -16.5 -36.5t-36.5 -14.5q-9 0 -27 8q-8 3 -11 3q-7 0 -9 -9h-39q2 22 16.5 36.5t35.5 14.5q8 0 27 -7q8 -3 11 -3q8 0 9 8h40z" />
<glyph unicode="&#xd6;" d="M237 558v-449q0 -46 -15 -70q-28 -46 -83 -46q-59 0 -88 52q-11 22 -11 64v449q0 46 15 70q28 46 84 46q27 0 50.5 -14.5t36.5 -38.5q11 -21 11 -63zM93 559v-451q0 -28 5 -38q13 -24 41 -24q29 0 41 27q4 8 4 35v451q0 29 -5 38q-13 24 -40 24q-30 0 -42 -27 q-4 -9 -4 -35zM192 797q12 0 20.5 -8.5t8.5 -20.5t-8.5 -20.5t-20.5 -8.5q-11 0 -20 8.5t-9 20.5t9 20.5t20 8.5zM85 797q11 0 19.5 -8.5t8.5 -20.5t-8.5 -20.5t-19.5 -8.5q-12 0 -21 8.5t-9 20.5t9 20.5t21 8.5z" />
<glyph unicode="&#xd7;" d="M296 191l-41 -41l-116 117l-116 -117l-41 41l116 115l-112 112l40 41l113 -112l114 112l40 -40l-113 -113z" />
<glyph unicode="&#xd8;" horiz-adv-x="259" d="M34 67q-3 17 -3 42v449q0 46 15 70q28 46 83 46q50 0 82 -43l1 -1l12 37h22l-21 -67q3 -18 3 -42v-449q0 -46 -15 -70q-28 -46 -84 -46q-52 0 -82 44l-12 -37h-22zM84 223l91 290v46q0 28 -5 38q-13 24 -41 24q-29 0 -41 -27q-4 -9 -4 -35v-336zM175 443l-91 -290v-45 q0 -28 5 -38q13 -24 40 -24q30 0 42 27q4 9 4 35v335z" />
<glyph unicode="&#xd9;" horiz-adv-x="301" d="M246 21h35v-21h-57v33q-28 -40 -77 -40q-27 0 -51 14.5t-36 37.5q-12 24 -12 64v537h-35v21h88v-559q0 -26 6 -38q13 -24 40 -24q30 0 42 27q4 9 4 35v559h88v-21h-35v-625zM93 797h57l20 -58h-24z" />
<glyph unicode="&#xda;" horiz-adv-x="301" d="M246 21h35v-21h-57v33q-28 -40 -77 -40q-27 0 -51 14.5t-36 37.5q-12 24 -12 64v537h-35v21h88v-559q0 -26 6 -38q13 -24 40 -24q30 0 42 27q4 9 4 35v559h88v-21h-35v-625zM197 797l-54 -58h-23l19 58h58z" />
<glyph unicode="&#xdb;" horiz-adv-x="301" d="M246 21h35v-21h-57v33q-28 -40 -77 -40q-27 0 -51 14.5t-36 37.5q-12 24 -12 64v537h-35v21h88v-559q0 -26 6 -38q13 -24 40 -24q30 0 42 27q4 9 4 35v559h88v-21h-35v-625zM179 797l50 -58h-54l-25 28l-24 -28h-54l49 58h58z" />
<glyph unicode="&#xdc;" horiz-adv-x="301" d="M246 21h35v-21h-57v33q-28 -40 -77 -40q-27 0 -51 14.5t-36 37.5q-12 24 -12 64v537h-35v21h88v-559q0 -26 6 -38q13 -24 40 -24q30 0 42 27q4 9 4 35v559h88v-21h-35v-625zM204 797q12 0 20.5 -8.5t8.5 -20.5t-8.5 -20.5t-20.5 -8.5q-11 0 -20 8.5t-9 20.5t9 20.5 t20 8.5zM97 797q11 0 19.5 -8.5t8.5 -20.5t-8.5 -20.5t-19.5 -8.5q-12 0 -21 8.5t-9 20.5t9 20.5t21 8.5z" />
<glyph unicode="&#xdd;" horiz-adv-x="294" d="M212 792l-54 -58h-23l19 58h58zM85 0v21h35v146q-28 8 -48 31q-23 28 -23 82v366h-36v21h89v-389q0 -28 5 -38q12 -24 40 -24q30 0 42 28q4 8 4 34v389h88v-21h-35v-366q0 -53 -24 -82q-17 -21 -49 -31v-146h36v-21h-124z" />
<glyph unicode="&#xdf;" horiz-adv-x="271" d="M108 0h-88v21h35v295h-35v53h35v199v20q2 35 27.5 59.5t60.5 24.5q24 0 45.5 -12.5t32.5 -34.5q10 -19 10 -57v-156v-9q-2 -41 -30 -60q30 -21 30 -60v-9v-170q0 -48 -21 -73q-26 -29 -67 -31v53h1q18 0 27 14q7 10 7 33v169q0 23 -7 34q-11 13 -27 13h-1v53h1 q16 0 27 14q7 11 7 34v155q0 47 -35 47t-35 -47v-572z" />
<glyph unicode="&#xe0;" horiz-adv-x="264" d="M251 0h-56v30q-18 -35 -67 -35q-54 0 -78 47q-10 19 -10 56v115q0 40 13 62q27 42 74 42q22 0 36 -11v91q0 48 -35 48t-35 -48v-28h-53v25q0 41 13 63q26 41 75 41q24 0 45.5 -13t32.5 -34q10 -19 10 -57v-373h35v-21zM93 216v-121q0 -47 35 -47t35 47v121q0 48 -35 48 t-35 -48zM73 621h57l20 -58h-24z" />
<glyph unicode="&#xe1;" horiz-adv-x="264" d="M251 0h-56v30q-18 -35 -67 -35q-54 0 -78 47q-10 19 -10 56v115q0 40 13 62q27 42 74 42q22 0 36 -11v91q0 48 -35 48t-35 -48v-28h-53v25q0 41 13 63q26 41 75 41q24 0 45.5 -13t32.5 -34q10 -19 10 -57v-373h35v-21zM93 216v-121q0 -47 35 -47t35 47v121q0 48 -35 48 t-35 -48zM190 621l-54 -58h-23l19 58h58z" />
<glyph unicode="&#xe2;" horiz-adv-x="264" d="M251 0h-56v30q-18 -35 -67 -35q-54 0 -78 47q-10 19 -10 56v115q0 40 13 62q27 42 74 42q22 0 36 -11v91q0 48 -35 48t-35 -48v-28h-53v25q0 41 13 63q26 41 75 41q24 0 45.5 -13t32.5 -34q10 -19 10 -57v-373h35v-21zM93 216v-121q0 -47 35 -47t35 47v121q0 48 -35 48 t-35 -48zM161 621l50 -58h-54l-25 28l-24 -28h-54l49 58h58z" />
<glyph unicode="&#xe3;" horiz-adv-x="264" d="M251 0h-56v30q-18 -35 -67 -35q-54 0 -78 47q-10 19 -10 56v115q0 40 13 62q27 42 74 42q22 0 36 -11v91q0 48 -35 48t-35 -48v-28h-53v25q0 41 13 63q26 41 75 41q24 0 45.5 -13t32.5 -34q10 -19 10 -57v-373h35v-21zM93 216v-121q0 -47 35 -47t35 47v121q0 48 -35 48 t-35 -48zM202 616q-1 -22 -16.5 -36.5t-36.5 -14.5q-9 0 -27 8q-8 3 -11 3q-7 0 -9 -9h-39q2 22 16.5 36.5t35.5 14.5q8 0 27 -7q8 -3 11 -3q8 0 9 8h40z" />
<glyph unicode="&#xe4;" horiz-adv-x="264" d="M251 0h-56v30q-18 -35 -67 -35q-54 0 -78 47q-10 19 -10 56v115q0 40 13 62q27 42 74 42q22 0 36 -11v91q0 48 -35 48t-35 -48v-28h-53v25q0 41 13 63q26 41 75 41q24 0 45.5 -13t32.5 -34q10 -19 10 -57v-373h35v-21zM93 216v-121q0 -47 35 -47t35 47v121q0 48 -35 48 t-35 -48zM185 621q12 0 20.5 -8.5t8.5 -20.5t-8.5 -20.5t-20.5 -8.5q-11 0 -20 8.5t-9 20.5t9 20.5t20 8.5zM78 621q11 0 19.5 -8.5t8.5 -20.5t-8.5 -20.5t-19.5 -8.5q-12 0 -21 8.5t-9 20.5t9 20.5t21 8.5z" />
<glyph unicode="&#xe5;" horiz-adv-x="264" d="M251 0h-56v30q-18 -35 -67 -35q-54 0 -78 47q-10 19 -10 56v115q0 40 13 62q27 42 74 42q22 0 36 -11v91q0 48 -35 48t-35 -48v-28h-53v25q0 41 13 63q26 41 75 41q24 0 45.5 -13t32.5 -34q10 -19 10 -57v-373h35v-21zM93 216v-121q0 -47 35 -47t35 47v121q0 48 -35 48 t-35 -48zM132 646q22 0 38 -16t16 -38t-16 -38t-38 -16t-38 16t-16 38t16 38t38 16zM132 620q-12 0 -20 -8.5t-8 -19.5q0 -12 8 -20t20 -8q11 0 19.5 8t8.5 20q0 11 -8.5 19.5t-19.5 8.5z" />
<glyph unicode="&#xe6;" horiz-adv-x="379" d="M93 369h-53v25q0 41 13 63q26 41 75 41q40 0 62 -30q21 30 61 30q54 0 78 -47q10 -20 10 -57v-165h-123v-134q0 -47 35 -47t35 47v28h53v-25q0 -40 -13 -62q-26 -41 -75 -41q-41 0 -61 29q-21 -29 -62 -29q-54 0 -78 47q-10 19 -10 56v115q0 40 13 62q27 42 74 42 q20 0 36 -11v91q0 48 -35 48t-35 -48v-28zM163 95v121q0 48 -35 48t-35 -48v-121q0 -47 35 -47t35 47zM286 281v116q0 48 -35 48t-35 -48v-116h70z" />
<glyph unicode="&#xe7;" horiz-adv-x="243" d="M139 -5v-14q16 -2 26.5 -16.5t10.5 -31.5q0 -21 -14.5 -35.5t-36.5 -15.5v25q11 0 19 7.5t8 18.5t-8 19t-19 8q-1 0 -9 -2v37q-35 6 -55 31q-21 25 -21 72v296q0 41 13 63q26 41 75 41q24 0 45.5 -13t32.5 -34q10 -19 10 -57v-25h-53v28q0 48 -35 48t-35 -48v-302 q0 -48 35 -48t35 48v28h53v-25q0 -47 -21 -72q-20 -25 -56 -31z" />
<glyph unicode="&#xe8;" horiz-adv-x="256" d="M93 228v-133q0 -47 35 -47t35 47v28h53v-25q0 -40 -13 -62q-26 -41 -75 -41q-54 0 -78 47q-10 19 -10 56v296q0 41 13 63q26 41 75 41q24 0 45.5 -13t32.5 -34q10 -19 10 -57v-166h-123zM163 281v116q0 48 -35 48t-35 -48v-116h70zM73 621h57l20 -58h-24z" />
<glyph unicode="&#xe9;" horiz-adv-x="256" d="M93 228v-133q0 -47 35 -47t35 47v28h53v-25q0 -40 -13 -62q-26 -41 -75 -41q-54 0 -78 47q-10 19 -10 56v296q0 41 13 63q26 41 75 41q24 0 45.5 -13t32.5 -34q10 -19 10 -57v-166h-123zM163 281v116q0 48 -35 48t-35 -48v-116h70zM190 621l-54 -58h-23l19 58h58z" />
<glyph unicode="&#xea;" horiz-adv-x="256" d="M93 228v-133q0 -47 35 -47t35 47v28h53v-25q0 -40 -13 -62q-26 -41 -75 -41q-54 0 -78 47q-10 19 -10 56v296q0 41 13 63q26 41 75 41q24 0 45.5 -13t32.5 -34q10 -19 10 -57v-166h-123zM163 281v116q0 48 -35 48t-35 -48v-116h70zM156 621l50 -58h-54l-25 28l-24 -28 h-54l49 58h58z" />
<glyph unicode="&#xeb;" horiz-adv-x="256" d="M93 228v-133q0 -47 35 -47t35 47v28h53v-25q0 -40 -13 -62q-26 -41 -75 -41q-54 0 -78 47q-10 19 -10 56v296q0 41 13 63q26 41 75 41q24 0 45.5 -13t32.5 -34q10 -19 10 -57v-166h-123zM163 281v116q0 48 -35 48t-35 -48v-116h70zM181 621q12 0 20.5 -8.5t8.5 -20.5 t-8.5 -20.5t-20.5 -8.5q-11 0 -20 8.5t-9 20.5t9 20.5t20 8.5zM74 621q11 0 19.5 -8.5t8.5 -20.5t-8.5 -20.5t-19.5 -8.5q-12 0 -21 8.5t-9 20.5t9 20.5t21 8.5z" />
<glyph unicode="&#xec;" horiz-adv-x="156" d="M108 493v-472h35v-21h-123v21h35v451h-35v21h88zM27 621h57l20 -58h-24z" />
<glyph unicode="&#xed;" horiz-adv-x="156" d="M108 493v-472h35v-21h-123v21h35v451h-35v21h88zM137 621l-54 -58h-23l19 58h58z" />
<glyph unicode="&#xee;" horiz-adv-x="156" d="M108 493v-472h35v-21h-123v21h35v451h-35v21h88zM107 621l50 -58h-54l-25 28l-24 -28h-54l49 58h58z" />
<glyph unicode="&#xef;" horiz-adv-x="156" d="M108 493v-472h35v-21h-123v21h35v451h-35v21h88zM131 621q12 0 20.5 -8.5t8.5 -20.5t-8.5 -20.5t-20.5 -8.5q-11 0 -20 8.5t-9 20.5t9 20.5t20 8.5zM24 621q11 0 19.5 -8.5t8.5 -20.5t-8.5 -20.5t-19.5 -8.5q-12 0 -21 8.5t-9 20.5t9 20.5t21 8.5z" />
<glyph unicode="&#xf1;" horiz-adv-x="280" d="M20 493h56v-30q8 15 27 25t40 10q54 0 78 -47q10 -19 10 -57v-373h35v-21h-88v397q0 48 -35 48t-35 -48v-397h-88v21h35v450h-35v22zM209 616q-1 -22 -16.5 -36.5t-36.5 -14.5q-9 0 -27 8q-7 3 -11 3q-7 0 -9 -9h-39q2 22 16.5 36.5t35.5 14.5q8 0 27 -7q7 -3 11 -3 q8 0 9 8h40z" />
<glyph unicode="&#xf2;" horiz-adv-x="256" d="M216 394v-296q0 -40 -13 -62q-26 -41 -75 -41q-54 0 -78 47q-10 19 -10 56v296q0 41 13 63q26 41 75 41q24 0 45.5 -13t32.5 -34q10 -19 10 -57zM93 397v-302q0 -47 35 -47t35 47v302q0 48 -35 48t-35 -48zM73 621h57l20 -58h-24z" />
<glyph unicode="&#xf3;" horiz-adv-x="256" d="M216 394v-296q0 -40 -13 -62q-26 -41 -75 -41q-54 0 -78 47q-10 19 -10 56v296q0 41 13 63q26 41 75 41q24 0 45.5 -13t32.5 -34q10 -19 10 -57zM93 397v-302q0 -47 35 -47t35 47v302q0 48 -35 48t-35 -48zM190 621l-54 -58h-23l19 58h58z" />
<glyph unicode="&#xf4;" horiz-adv-x="256" d="M216 394v-296q0 -40 -13 -62q-26 -41 -75 -41q-54 0 -78 47q-10 19 -10 56v296q0 41 13 63q26 41 75 41q24 0 45.5 -13t32.5 -34q10 -19 10 -57zM93 397v-302q0 -47 35 -47t35 47v302q0 48 -35 48t-35 -48zM156 621l50 -58h-54l-25 28l-24 -28h-54l49 58h58z" />
<glyph unicode="&#xf5;" horiz-adv-x="256" d="M216 394v-296q0 -40 -13 -62q-26 -41 -75 -41q-54 0 -78 47q-10 19 -10 56v296q0 41 13 63q26 41 75 41q24 0 45.5 -13t32.5 -34q10 -19 10 -57zM93 397v-302q0 -47 35 -47t35 47v302q0 48 -35 48t-35 -48zM198 616q-1 -22 -16.5 -36.5t-36.5 -14.5q-9 0 -27 8 q-8 3 -11 3q-7 0 -9 -9h-39q2 22 16.5 36.5t35.5 14.5q8 0 27 -7q8 -3 11 -3q8 0 9 8h40z" />
<glyph unicode="&#xf6;" horiz-adv-x="256" d="M216 394v-296q0 -40 -13 -62q-26 -41 -75 -41q-54 0 -78 47q-10 19 -10 56v296q0 41 13 63q26 41 75 41q24 0 45.5 -13t32.5 -34q10 -19 10 -57zM93 397v-302q0 -47 35 -47t35 47v302q0 48 -35 48t-35 -48zM181 621q12 0 20.5 -8.5t8.5 -20.5t-8.5 -20.5t-20.5 -8.5 q-11 0 -20 8.5t-9 20.5t9 20.5t20 8.5zM74 621q11 0 19.5 -8.5t8.5 -20.5t-8.5 -20.5t-19.5 -8.5q-12 0 -21 8.5t-9 20.5t9 20.5t21 8.5z" />
<glyph unicode="&#xf7;" d="M183 462q0 -19 -12.5 -31.5t-30.5 -12.5q-19 0 -32 12.5t-13 31.5q0 18 13 30.5t32 12.5t31 -12.5t12 -30.5zM254 267h-229v53h229v-53zM183 125q0 -19 -12.5 -31.5t-30.5 -12.5q-19 0 -32 12.5t-13 31.5q0 18 13 30.5t32 12.5t31 -12.5t12 -30.5z" />
<glyph unicode="&#xf8;" horiz-adv-x="238" d="M203 436q4 -13 4 -42v-296q0 -40 -13 -62q-26 -41 -75 -41q-45 0 -71 36l-12 -31h-23l22 57q-4 16 -4 41v296q0 40 13 63q26 41 75 41q44 0 72 -36l11 31h23zM154 309l-70 -184v-30q0 -47 35 -47t35 47v214zM84 184l70 183v30q0 48 -35 48t-35 -48v-213z" />
<glyph unicode="&#xf9;" horiz-adv-x="280" d="M260 0h-57v30q-8 -16 -26.5 -25.5t-39.5 -9.5q-54 0 -78 47q-11 21 -11 56v374h-35v21h88v-398q0 -47 35 -47t35 47v398h89v-21h-36v-451h36v-21zM80 621h57l20 -58h-24z" />
<glyph unicode="&#xfa;" horiz-adv-x="280" d="M260 0h-57v30q-8 -16 -26.5 -25.5t-39.5 -9.5q-54 0 -78 47q-11 21 -11 56v374h-35v21h88v-398q0 -47 35 -47t35 47v398h89v-21h-36v-451h36v-21zM190 621l-54 -58h-23l19 58h58z" />
<glyph unicode="&#xfb;" horiz-adv-x="280" d="M260 0h-57v30q-8 -16 -26.5 -25.5t-39.5 -9.5q-54 0 -78 47q-11 21 -11 56v374h-35v21h88v-398q0 -47 35 -47t35 47v398h89v-21h-36v-451h36v-21zM168 621l50 -58h-54l-25 28l-24 -28h-54l49 58h58z" />
<glyph unicode="&#xfc;" horiz-adv-x="280" d="M260 0h-57v30q-8 -16 -26.5 -25.5t-39.5 -9.5q-54 0 -78 47q-11 21 -11 56v374h-35v21h88v-398q0 -47 35 -47t35 47v398h89v-21h-36v-451h36v-21zM193 621q12 0 20.5 -8.5t8.5 -20.5t-8.5 -20.5t-20.5 -8.5q-11 0 -20 8.5t-9 20.5t9 20.5t20 8.5zM86 621q11 0 19.5 -8.5 t8.5 -20.5t-8.5 -20.5t-19.5 -8.5q-12 0 -21 8.5t-9 20.5t9 20.5t21 8.5z" />
<glyph unicode="&#xfd;" horiz-adv-x="273" d="M202 616l-54 -58h-23l19 58h58zM163 -1v-152h35v-21h-123v21h35v152q-25 8 -41 27q-20 24 -20 72v374h-36v21h89v-398q0 -47 34 -47q35 0 35 47v398h89v-21h-36v-374q0 -48 -20 -72q-16 -19 -41 -27z" />
<glyph unicode="&#xff;" horiz-adv-x="273" d="M163 -1v-152h35v-21h-123v21h35v152q-25 8 -41 27q-20 24 -20 72v374h-36v21h89v-398q0 -47 34 -47q35 0 35 47v398h89v-21h-36v-374q0 -48 -20 -72q-16 -19 -41 -27zM192 621q12 0 20.5 -8.5t8.5 -20.5t-8.5 -20.5t-20.5 -8.5q-11 0 -20 8.5t-9 20.5t9 20.5t20 8.5z M85 621q11 0 19.5 -8.5t8.5 -20.5t-8.5 -20.5t-19.5 -8.5q-12 0 -21 8.5t-9 20.5t9 20.5t21 8.5z" />
<glyph unicode="&#x152;" horiz-adv-x="398" d="M381 667v-134h-53v81h-91v-227h70v-53h-70v-281h91v81h53v-134h-197v11q-16 -15 -45 -15q-28 0 -51.5 14.5t-36.5 38.5q-11 21 -11 64v441q0 44 15 70q9 16 15.5 24t23.5 16q16 8 39 8h5q26 0 46 -16v11h197zM93 556v-445q0 -28 5 -38q14 -24 41 -24q29 0 41 28q4 8 4 34 v445q0 28 -5 37q-13 24 -40 24q-32 0 -42 -27q-4 -9 -4 -34z" />
<glyph unicode="&#x153;" horiz-adv-x="379" d="M339 228h-123v-133q0 -47 35 -47t35 47v28h53v-25q0 -40 -13 -62q-26 -41 -75 -41q-41 0 -61 29q-21 -29 -62 -29q-54 0 -78 47q-10 19 -10 56v296q0 41 13 63q26 41 75 41q40 0 62 -30q21 30 61 30q54 0 78 -47q10 -20 10 -57v-166zM93 397v-302q0 -47 35 -47t35 47v302 q0 48 -35 48t-35 -48zM286 281v116q0 48 -35 48t-35 -48v-116h70z" />
<glyph unicode="&#x178;" horiz-adv-x="294" d="M85 0v21h35v146q-28 8 -48 31q-23 28 -23 82v366h-36v21h89v-389q0 -28 5 -38q12 -24 40 -24q30 0 42 28q4 8 4 34v389h88v-21h-35v-366q0 -53 -24 -82q-17 -21 -49 -31v-146h36v-21h-124zM202 796q12 0 20.5 -8.5t8.5 -20.5t-8.5 -20.5t-20.5 -8.5q-11 0 -20 8.5 t-9 20.5t9 20.5t20 8.5zM95 796q11 0 19.5 -8.5t8.5 -20.5t-8.5 -20.5t-19.5 -8.5q-12 0 -21 8.5t-9 20.5t9 20.5t21 8.5z" />
<glyph unicode="&#x2c6;" horiz-adv-x="290" d="M174 621l50 -58h-54l-25 28l-24 -28h-54l49 58h58z" />
<glyph unicode="&#x2dc;" horiz-adv-x="272" d="M206 616q-1 -22 -16.5 -36.5t-36.5 -14.5q-9 0 -27 8q-8 3 -11 3q-7 0 -9 -9h-39q2 22 16.5 36.5t35.5 14.5q8 0 27 -7q8 -3 11 -3q8 0 9 8h40z" />
<glyph unicode="&#x2000;" horiz-adv-x="411" />
<glyph unicode="&#x2001;" horiz-adv-x="822" />
<glyph unicode="&#x2002;" horiz-adv-x="411" />
<glyph unicode="&#x2003;" horiz-adv-x="822" />
<glyph unicode="&#x2004;" horiz-adv-x="274" />
<glyph unicode="&#x2005;" horiz-adv-x="205" />
<glyph unicode="&#x2006;" horiz-adv-x="137" />
<glyph unicode="&#x2007;" horiz-adv-x="137" />
<glyph unicode="&#x2008;" horiz-adv-x="102" />
<glyph unicode="&#x2009;" horiz-adv-x="164" />
<glyph unicode="&#x200a;" horiz-adv-x="45" />
<glyph unicode="&#x2010;" horiz-adv-x="150" d="M40 275h70v-44h-70v44z" />
<glyph unicode="&#x2011;" horiz-adv-x="150" d="M40 275h70v-44h-70v44z" />
<glyph unicode="&#x2013;" horiz-adv-x="291" d="M40 275h211v-44h-211v44z" />
<glyph unicode="&#x2014;" horiz-adv-x="1080" d="M40 275h1000v-44h-1000v44z" />
<glyph unicode="&#x2018;" horiz-adv-x="142" d="M60 630v44h21v-44q21 -9 21 -29q0 -13 -9 -22t-22 -9t-22 9t-9 22q0 20 20 29z" />
<glyph unicode="&#x2019;" horiz-adv-x="142" d="M81 614v-44h-21v44q-20 9 -20 29q0 13 9 22t22 9t22 -9t9 -22q0 -20 -21 -29z" />
<glyph unicode="&#x201c;" horiz-adv-x="220" d="M139 630v44h21v-44q20 -9 20 -29q0 -13 -9 -22t-22 -9t-22 9t-9 22q0 20 21 29zM60 630v44h21v-44q21 -9 21 -29q0 -13 -9 -22t-22 -9t-22 9t-9 22q0 20 20 29z" />
<glyph unicode="&#x201d;" horiz-adv-x="220" d="M160 614v-44h-21v44q-21 9 -21 29q0 13 9 22t22 9t22 -9t9 -22q0 -20 -20 -29zM81 614v-44h-21v44q-20 9 -20 29q0 13 9 22t22 9t22 -9t9 -22q0 -20 -21 -29z" />
<glyph unicode="&#x201e;" horiz-adv-x="220" d="M160 8v-44h-21v44q-21 9 -21 29q0 13 9 22t22 9t22 -9t9 -22q0 -20 -20 -29zM81 8v-44h-21v44q-20 9 -20 29q0 13 9 22t22 9t22 -9t9 -22q0 -20 -21 -29z" />
<glyph unicode="&#x2022;" horiz-adv-x="220" d="M110 403q29 0 49.5 -20.5t20.5 -49.5t-20.5 -49.5t-49.5 -20.5t-49.5 20.5t-20.5 49.5t20.5 49.5t49.5 20.5z" />
<glyph unicode="&#x2026;" horiz-adv-x="1000" d="M167 68q14 0 24.5 -10t10.5 -25q0 -14 -10.5 -24.5t-24.5 -10.5q-15 0 -25 10.5t-10 24.5q0 15 10 25t25 10zM500 68q14 0 24.5 -10t10.5 -25q0 -14 -10.5 -24.5t-24.5 -10.5t-24.5 10.5t-10.5 24.5q0 15 10.5 25t24.5 10zM833 68q15 0 25 -10t10 -25q0 -14 -10 -24.5 t-25 -10.5q-14 0 -24.5 10.5t-10.5 24.5q0 15 10.5 25t24.5 10z" />
<glyph unicode="&#x202f;" horiz-adv-x="164" />
<glyph unicode="&#x2039;" horiz-adv-x="183" d="M143 376l-47 -123l47 -123h-57l-46 123l46 123h57z" />
<glyph unicode="&#x203a;" horiz-adv-x="183" d="M40 376h56l47 -123l-47 -123h-56l46 123z" />
<glyph unicode="&#x2044;" horiz-adv-x="183" d="M193 667l-144 -646h35v-21h-94l144 646h-35v21h94z" />
<glyph unicode="&#x205f;" horiz-adv-x="205" />
<glyph unicode="&#x20ac;" d="M208 275h-95v-167q0 -28 5 -38q13 -24 41 -24q29 0 41 27q4 8 4 35v26h53v-25q0 -46 -15 -70q-28 -46 -83 -46q-59 0 -88 52q-11 22 -11 64v166h-49v47h49v48h-49v47h49v141q0 46 15 70q27 44 84 44q60 0 87 -51q11 -21 11 -63v-25h-53v26q0 29 -5 38q-13 24 -40 24 q-30 0 -42 -27q-4 -9 -4 -35v-142h95v-47h-95v-48h95v-47z" />
<glyph unicode="&#x2122;" horiz-adv-x="729" d="M297 646v21h56v-33q31 40 78 40q49 0 72 -36q23 36 71 36q28 0 52 -14.5t36 -38.5q11 -21 11 -63v-537h36v-21h-89v559q0 28 -5 38q-13 24 -40 24q-30 0 -42 -27q-4 -9 -4 -34v-561h-53v560q0 28 -5 38q-13 24 -40 24q-30 0 -42 -27q-4 -9 -4 -35v-559h-88v21h35v625h-35 zM59 500h-53v167h265v-167h-53v114h-53v-593h35v-21h-123v21h35v593h-53v-114z" />
</font>
</defs>
</svg>
