<?xml version="1.0" standalone="no"?>
<!DOCTYPE svg PUBLIC "-//W3C//DTD SVG 1.1//EN" "http://www.w3.org/Graphics/SVG/1.1/DTD/svg11.dtd" >
<svg xmlns="http://www.w3.org/2000/svg">
<metadata></metadata>
<defs>
<font id="caudexbold" horiz-adv-x="1100" >
<font-face units-per-em="2048" ascent="1638" descent="-410" />
<missing-glyph horiz-adv-x="550" />
<glyph horiz-adv-x="0" />
<glyph unicode="&#xd;" horiz-adv-x="550" />
<glyph unicode=" "  horiz-adv-x="550" />
<glyph unicode="&#x09;" horiz-adv-x="550" />
<glyph unicode="&#xa0;" horiz-adv-x="550" />
<glyph unicode="!" horiz-adv-x="550" d="M157 31q0 14 4 30l19 82q25 107 160 107q114 0 114 -76q0 -14 -4 -31l-19 -82q-24 -106 -159 -106q-114 0 -115 76zM309 360q0 7 1 14l151 955l2 11q19 84 118 84h63q82 0 82 -58q0 -13 -3 -27l-2 -10l-291 -955q-10 -43 -60 -43h-21q-40 0 -40 29z" />
<glyph unicode="&#x22;" horiz-adv-x="849" d="M392 960q0 4 1 8l50 440l1 5q12 50 91 50h47q69 0 69 -37q0 -5 -2 -12l-1 -6l-153 -440q-7 -31 -51 -31h-15q-37 0 -37 23zM816 968l50 440l1 5q12 50 91 50h47q69 0 69 -37q0 -5 -2 -12l-1 -6l-153 -440q-7 -31 -51 -31h-15q-43 0 -36 31z" />
<glyph unicode="#" d="M109 382q0 3 1 8l1 4l35 86q12 27 47 27h257l95 235h-250q-38 0 -31 28l1 4l35 86q12 27 47 27h257l140 346q14 34 46 34h85q33 0 26 -29q-1 -5 -4 -11l-137 -340h136l140 346q14 34 47 34h84q34 0 27 -29q-1 -5 -4 -11l-137 -340h249q34 0 34 -19q0 -3 -1 -6 q-1 -4 -3 -8l-34 -84q-9 -28 -48 -28h-256l-95 -235h249q39 0 33 -25q-1 -4 -3 -8l-34 -84q-9 -28 -47 -28h-256l-140 -346q-14 -35 -47 -35h-84q-34 0 -27 31q1 5 3 10l138 340h-136l-140 -346q-14 -35 -46 -35h-85q-33 0 -26 31q1 4 3 10l138 340h-250q-32 0 -33 20z M606 507h136l95 235h-136z" />
<glyph unicode="$" d="M126 263q0 6 2 15q3 11 19 30t49 19q25 -7 35 -42q30 -133 103 -173q68 -37 175 -39l130 563q-6 2 -12 2q-109 12 -197 60q-90 48 -116 134q-14 46 -14 95q0 44 11 91q45 195 215 323q137 103 304 123l20 87q10 43 57 43h46q41 0 41 -30q0 -6 -2 -13l-19 -84 q206 -16 343 -120l-76 -221q-12 -36 -52 -36h-5q-30 2 -39 41q-21 86 -83 145q-52 49 -119 60l-115 -499q31 -5 68 -11q62 -10 139 -36q78 -26 112 -78q34 -50 47 -110q5 -24 5 -52q0 -41 -11 -91q-51 -222 -266 -370q-112 -77 -223 -110q-40 -12 -73 -20l-24 -102 q-10 -43 -59 -43h-46q-39 0 -39 29q0 6 2 14l20 85q-27 -1 -41 -1q-143 0 -276 44l-35 273q0 2 -1 5zM537 1020q0 -11 2 -21q5 -61 38 -90q34 -29 64 -37q23 -7 50 -12l108 468q-23 -6 -46 -15q-60 -26 -92 -52q-30 -27 -55 -61t-41 -70t-23 -68q-5 -21 -5 -42zM654 87 q33 9 74 27q77 34 136 104q60 69 83 170l2 11q5 26 5 49q0 68 -46 109q-29 25 -101 47q-15 5 -32 8z" />
<glyph unicode="%" horiz-adv-x="1300" d="M154 -52l1296 1492h147l-1295 -1492h-148zM260 897q0 29 7 61l60 257q21 89 92.5 154t177.5 65q105 0 139 -54t34 -108q0 -27 -6 -57l-60 -257q-21 -90 -99 -154.5t-181 -64.5t-133.5 53.5t-30.5 104.5zM372 859q0 -69 63 -69t102 51.5t57 127.5l54 235q10 43 10 78 q0 27 -9.5 64t-64.5 37h-1q-77 -1 -106 -66.5t-40 -112.5l-54 -235q-11 -46 -11 -110zM884 137q0 29 8 61l59 257q21 89 93 154t178 65q105 0 139 -54t34 -108q0 -27 -7 -57l-59 -257q-21 -90 -99.5 -154.5t-181.5 -64.5t-133.5 53.5t-30.5 104.5zM997 99q0 -69 63 -69 t102 51.5t56 127.5l55 235q9 39 9 72v6q0 27 -9 64t-64 37h-1q-77 -1 -106.5 -66.5t-39.5 -112.5l-55 -235q-10 -42 -10 -99v-11z" />
<glyph unicode="&#x26;" horiz-adv-x="1292" d="M159 165q0 35 9 75q3 13 7 25q35 124 128 223q87 95 249 188q-36 70 -52 153q-6 31 -6 64q0 43 11 89q3 14 7 28q37 138 145 225q107 87 248 87q138 0 197 -71q37 -45 37 -110q0 -29 -8 -62l-4 -17q-33 -111 -117 -197q-88 -89 -224 -164l161 -303l133 173q9 14 14 28 q2 5 3 9q2 8 1 13q-1 10 -5.5 18t-5.5 21q-1 6 1 11l1 3q1 3 5 12q20 34 53 34h258q23 0 32 -14q3 -4 3 -10q0 -3 -1 -6v-2q-1 -5 -5 -13q-14 -19 -53 -36q-18 -7 -37 -15t-36 -18q-80 -45 -149 -121t-158 -182l79 -138q32 -59 122 -107q31 -15 39 -34q0 -11 -2 -20 q-3 -4 -4 -8q-22 -18 -43 -18h-244q-50 0 -82 79q-21 50 -31 65q-81 -78 -188 -126q-109 -48 -231 -48q-148 0 -216 89q-40 54 -41 128zM387 247q0 -53 22 -95q38 -70 119 -70q72 0 139.5 40.5t118.5 91.5l-194 370q-147 -92 -191 -248l-6 -20q-8 -36 -8 -69zM696 956 q0 -88 45 -168q73 38 127 102q53 63 83 162l3 14q8 35 8 64q0 25 -5 46q-12 40 -83 40q-55 0 -95 -36q-46 -43 -67 -119q-4 -11 -6 -20q-10 -43 -10 -85z" />
<glyph unicode="'" horiz-adv-x="426" d="M392 960q0 4 1 8l50 440l1 5q12 50 91 50h47q69 0 69 -37q0 -5 -2 -12l-1 -6l-153 -440q-7 -31 -51 -31h-15q-37 0 -37 23z" />
<glyph unicode="(" horiz-adv-x="646" d="M153 288q0 142 32 280q55 237 211 488.5t512 426.5q15 8 28 8q9 0 20 -6q4 -5 4 -14q0 -13 -3 -29l-9 -38q-282 -203 -387 -379t-170 -457q-47 -202 -47 -349v-6q0 -55 15 -166.5t203 -314.5l-9 -38q-7 -32 -21 -43q-13 -6 -22 -6q-13 0 -24 8q-276 175 -304.5 353.5 t-28.5 281.5z" />
<glyph unicode=")" horiz-adv-x="646" d="M-20 -335q0 13 3 29l9 38q282 203 387 378.5t170 457.5q47 205 48 355q0 55 -15.5 166.5t-203.5 314.5l9 38q7 32 21 43q13 6 22 6q13 0 24 -8q276 -175 304.5 -354t28.5 -282q0 -142 -32 -279q-55 -238 -211 -489t-512 -426q-15 -8 -28 -8q-9 0 -20 6q-4 5 -4 14z" />
<glyph unicode="*" d="M310 455q0 29 47 56l213 121l-157 120q-25 19 -26 39q0 16 15 33l39 44q18 21 40 21q18 0 39 -16l141 -108l46 199q14 62 60 62h54q35 0 35 -36q0 -11 -3 -26l-46 -199l191 108q28 16 46 16q21 0 29 -21l19 -44q3 -8 4 -16q0 -30 -47 -56l-213 -120l157 -121 q25 -19 25 -40q0 -16 -15 -32l-39 -44q-18 -21 -39 -21q-18 0 -39 16l-141 108l-46 -198q-14 -62 -60 -62h-54q-35 0 -35 36q0 11 3 26l46 198l-191 -108q-28 -16 -46 -16q-21 0 -30 21l-19 44q-3 8 -3 16z" />
<glyph unicode="+" d="M301 593q0 6 2 12l12 53q11 46 73 46h259l60 260q14 62 60 62h54q35 0 35 -36q0 -11 -3 -26l-60 -260h259q52 0 52 -33q0 -7 -1 -13l-12 -53q-11 -46 -73 -46h-259l-60 -259q-14 -62 -60 -62h-54q-35 0 -35 36q0 11 3 26l60 259h-259q-53 0 -53 34z" />
<glyph unicode="," horiz-adv-x="480" d="M64 -233q0 6 1 10q3 12 16 24q28 24 58 40q96 52 123 114q-85 0 -86 70q0 16 5 36l19 82q25 107 160 107q114 0 114 -76q0 -14 -4 -31l-19 -83q-72 -196 -258 -301q-41 -28 -76 -28q-25 0 -46 15q-7 11 -7 21z" />
<glyph unicode="-" d="M301 593q0 6 2 12l12 53q11 46 73 46h664q52 0 52 -33q0 -7 -1 -13l-12 -53q-11 -46 -73 -46h-664q-53 0 -53 34z" />
<glyph unicode="." horiz-adv-x="480" d="M157 31q0 14 4 30l19 82q25 107 160 107q114 0 114 -76q0 -14 -4 -31l-19 -82q-24 -106 -159 -106q-114 0 -115 76z" />
<glyph unicode="/" d="M37 -90l1232 1584h194l-1230 -1584h-196z" />
<glyph unicode="0" d="M183 301q0 62 16 130l128 558q45 194 202 335.5t387 141.5q229 0 303.5 -118.5t74.5 -235.5q0 -59 -15 -123l-128 -558q-45 -196 -216.5 -336t-393.5 -140q-223 0 -290.5 116t-67.5 230zM428 139q0 -73 136 -73t221.5 112t123.5 276l118 512q22 94 22 171q0 57 -20 137 t-139 80h-2q-168 -3 -232 -145t-87 -243l-118 -512q-23 -100 -23 -239v-76z" />
<glyph unicode="1" d="M415 8q0 6 2 13l1 5q8 33 61 50q55 18 67 70l250 1086h-204l19 79l476 185l-311 -1350q-3 -11 -3 -21q0 -36 37.5 -49.5t37.5 -42.5q0 -5 -1 -11v-1q-9 -41 -55 -41h-340q-37 0 -37 28z" />
<glyph unicode="2" d="M147 -20l23 98q21 93 94 164q65 64 206 185q81 63 161 135t172 157.5t144.5 170t65.5 142.5q7 29 7 54t-6 47q-28 92 -112 128q-47 20 -98 20q-52 0 -102 -11q-115 -28 -210 -132q-31 -34 -56 -78h-48l35 153q18 31 34 52q62 72 153 128t206 73q45 6 89 6q141 0 250 -71 q111 -72 111 -213q0 -45 -11 -98l-1 -4q-33 -141 -137 -266t-231.5 -237.5t-258 -229.5t-185.5 -183h331q124 0 283 53l-42 -191q-83 -45 -154 -48.5t-129 -3.5h-584z" />
<glyph unicode="3" d="M180 34l39 195h47q39 -107 162 -137q45 -11 105 -11q58 0 128 33q107 50 164 144q31 53 42 102q8 35 8 68q0 12 -1 23q-8 97 -86 167.5t-262 73.5l10 61q90 27 183.5 64.5t149.5 105.5t70 130q4 18 6 37v13q0 70 -42.5 128t-131.5 58q-8 0 -16 -1q-102 -6 -186 -85 q-39 -37 -68 -95h-49l42 181q116 102 219.5 139.5t192.5 37.5q245 -3 282 -198q4 -25 4 -49q0 -31 -7 -62q-31 -135 -201 -267q-35 -28 -53 -39q108 -60 139 -149t31 -155q0 -44 -10 -89q-3 -15 -8 -31q-71 -224 -319 -377q-133 -81 -304 -98q-28 -3 -53 -3q-138 0 -227 85z " />
<glyph unicode="4" d="M159 395l32 139l798 890h220l-196 -848h202l-42 -181h-202l-57 -249q-2 -7 -2 -14q0 -38 58 -53.5t58 -49.5q0 -4 -1 -8l-1 -4q-9 -37 -54 -37h-425q-46 2 -37 38q0 2 2 4q11 39 85.5 56.5t86.5 67.5l57 249h-582zM395 576h388l136 589z" />
<glyph unicode="5" d="M122 61l50 218h45q31 -95 117 -136q83 -42 175 -42h12q11 0 23 1q106 9 202 94q119 97 158 254l6 28q2 6 4 11q3 14 3 31q0 28 -9 65q-15 89 -97 139q-64 32 -129 32q-103 0 -211 -80q-47 -43 -107 -43q-13 0 -23 2q-12 0 -37.5 2t-14.5 50l158 684q8 35 23 44t60 9h494 q36 0 113.5 -3.5t137.5 -47.5l-50 -215q-128 52 -251 52h-419l-94 -407q63 34 156 67q96 36 182 36q46 0 91 -11q123 -29 193 -113q79 -84 79 -211q0 -59 -14 -121q-6 -27 -15 -56q-67 -177 -218 -295q-177 -139 -444 -143q-211 0 -349 105z" />
<glyph unicode="6" d="M161 339q0 60 16 127l2 9q78 325 272 556t486 404q32 19 51 27.5t58 8.5l68 -1q63 0 64 -19q0 -23 -35 -39q-192 -115 -324.5 -226.5t-210.5 -213.5q38 19 172 19q34 0 68 -4q170 -19 260 -124q97 -113 98 -262q0 -56 -14 -117l-1 -3q-51 -220 -232 -371 q-186 -156 -391 -156h-15q-220 6 -306 131t-86 254zM375 324q0 -85 44 -173t147 -88h11q111 5 222.5 129.5t151.5 298.5q17 73 17 135q0 85 -43.5 173t-146.5 88h-11q-113 -6 -224 -130.5t-151 -297.5q-17 -73 -17 -135z" />
<glyph unicode="7" d="M157 -19q3 34 5 44q16 57 47 104q43 64 76 110q107 145 419 527q236 289 363 444h-359q-125 0 -275 -53l50 216q78 42 152 47q66 4 123 4h494q46 0 56 -9q5 -4 5 -15q0 -15 -4 -36l-1 -6q-18 -73 -64 -137q-196 -269 -390 -537.5t-388 -537.5q-54 -72 -97 -166z" />
<glyph unicode="8" d="M128 280q0 56 15 122q40 167 160.5 271.5t200.5 123.5q-136 34 -136 189v6q0 49 14 110q44 185 198 275.5t374 90.5q219 0 304 -106q55 -70 56 -167q0 -45 -12 -95l-3 -12q-64 -251 -272 -294q61 -16 130 -118q46 -66 46 -167q0 -61 -17 -135v-2q-46 -199 -219 -304 q-174 -108 -411 -108h-2q-237 0 -349 114q-77 79 -77 206zM382 267q0 -78 42 -135.5t177 -57.5q134 0 221.5 72t131.5 259q16 70 16 125v6q0 85 -51 142.5t-165 57.5q-115 0 -212 -75q-101 -77 -142 -255l-1 -4q-17 -77 -17 -135zM608 1009q0 -51 16 -92q26 -71 167 -71 l2 -1q126 0 188 74t88 185q10 45 10 85q0 57 -29 115.5t-146 58.5q-118 0 -188 -74.5t-96 -184.5l-2 -9q-10 -46 -10 -86z" />
<glyph unicode="9" d="M272 824q0 56 14 117l1 3q51 220 232 371q186 156 391 156h15q220 -6 306 -131t86 -254q0 -60 -16 -127l-2 -9q-78 -325 -272 -556t-486 -404q-32 -19 -51 -27.5t-58 -8.5l-68 1q-63 0 -64 19q0 23 35 39q192 115 324.5 226.5t210.5 213.5q-38 -19 -172 -19q-34 0 -68 4 q-170 19 -260 124q-97 113 -98 262zM510 799q0 -85 43.5 -173t146.5 -88h11q113 6 224 130.5t151 297.5q17 73 17 135q0 85 -44 173t-147 88h-11q-111 -5 -222.5 -129.5t-151.5 -298.5q-17 -73 -17 -135z" />
<glyph unicode=":" horiz-adv-x="480" d="M157 31q0 14 4 30l19 82q25 107 160 107q114 0 114 -76q0 -14 -4 -31l-19 -82q-24 -106 -159 -106q-114 0 -115 76zM323 748q0 14 4 30l19 82q24 107 159 107q114 0 114 -76q0 -14 -3 -31l-19 -82q-24 -106 -160 -106q-114 0 -114 76z" />
<glyph unicode=";" horiz-adv-x="480" d="M64 -233q0 6 1 10q3 12 16 24q28 24 58 40q96 52 123 114q-85 0 -86 70q0 16 5 36l19 82q25 107 160 107q114 0 114 -76q0 -14 -4 -31l-19 -83q-72 -196 -258 -301q-41 -28 -76 -28q-25 0 -46 15q-7 11 -7 21zM318 748q0 14 4 30l19 82q24 107 159 107q114 0 114 -76 q0 -14 -3 -31l-19 -82q-24 -106 -160 -106q-114 0 -114 76z" />
<glyph unicode="&#x3c;" d="M320 618v10v2q5 21 37 47l758 604q34 26 61 26q24 0 38 -18l37 -50q6 -10 6 -22q0 -5 -1 -10l-1 -3q-5 -22 -34 -46l-660 -527l417 -526q16 -23 12 -48l-1 -4q-4 -16 -20 -30l-61 -50q-20 -16 -44 -16q-27 0 -49 26l-487 612q-8 10 -8 23z" />
<glyph unicode="=" d="M266 443q0 6 2 12l12 53q11 46 73 46h664q53 0 53 -34q0 -6 -2 -12l-12 -53q-11 -46 -73 -46h-664q-53 0 -53 34zM336 743q0 6 1 12l13 53q10 46 72 46h664q53 0 53 -34q0 -6 -1 -12l-13 -53q-11 -46 -72 -46h-664q-53 0 -53 34z" />
<glyph unicode="&#x3e;" d="M186 44q0 4 1 9l1 4q8 25 34 48l661 526l-418 527q-17 24 -12 46l1 3q5 18 19 32l61 50q22 18 46 18q27 0 49 -26l478 -604q16 -21 16 -39q0 -4 -1 -8v-2q-7 -19 -24 -33l-769 -612q-34 -26 -61 -26q-24 0 -36 16l-39 50q-7 10 -7 21z" />
<glyph unicode="?" horiz-adv-x="784" d="M276 31q0 14 4 30l19 82q25 107 160 107q114 0 114 -76q0 -14 -4 -31l-19 -82q-24 -106 -159 -106q-114 0 -115 76zM332 1091q0 11 3 23q32 140 146 224q113 84 273 84q165 0 243 -81q52 -56 52 -139q0 -39 -9 -81q-40 -174 -243 -284q-21 -11 -49 -26q-63 -35 -84 -64 q-22 -28 -41 -97l-44 -172q-13 -55 -31 -89q-26 -40 -63 -40q-36 0 -41 45q-1 9 -1 19q0 27 9 66l73 316q150 91 209 160q60 70 83 165q10 42 10 76v6q0 44 -16 72q-27 45 -103 45q-65 0 -104 -40q-45 -48 -84 -174q-10 -32 -40 -49q-29 -18 -71 -18q-44 0 -65 19 q-12 13 -12 34z" />
<glyph unicode="@" horiz-adv-x="2119" d="M109 154q0 110 29 234q104 451 503 763q401 311 879 311q384 0 588 -208q145 -150 145 -368q0 -90 -22 -184q-68 -294 -307 -534q-68 -68 -150.5 -126t-170.5 -91q-103 -40 -196 -40q-69 0 -130 23q-80 30 -80 109q0 21 5 44l-6 -26l-295 -93q-40 -13 -67 -13h-42 q-154 8 -210 126q-26 53 -26 120q0 46 12 99q26 114 99 229t158 193q50 47 139 97q30 16 67 29q94 30 188.5 60t189.5 60q24 8 45 8h6q67 -3 147 -34q9 -3 13 -5q15 -8 42 -19q7 -2 11 -2q7 0 15 4q28 17 39 26q17 16 39 16q10 0 19 -4q29 -14 24 -36l-1 -4l-334 -722 q-18 -39 -24 -68q-4 -18 -5 -32q0 -44 39 -55q13 -4 29 -4q32 0 74 16q70 24 132 72q105 79 198 231q95 155 138 343q25 106 25 195q0 190 -113 296q-170 160 -464 160q-220 0 -460 -110q-240 -109 -426 -336q-188 -227 -256 -517q-27 -118 -27 -224q0 -97 23 -185 q47 -180 196 -282q145 -100 384 -100q202 0 398 71q179 65 329 170q14 11 31 11q18 0 28 -13q11 -14 7 -31q-3 -13 -13 -26q-18 -27 -39 -43q-183 -140 -390 -201t-425 -61q-412 0 -615 260q-139 178 -139 421zM815 273q0 -32 8 -59q24 -84 100 -109q31 -10 65 -10 q11 0 23 1q19 2 52 12q24 7 81 25t83 26l279 606q-18 28 -65.5 57.5t-92.5 31.5h-3q-15 0 -32 -6q-43 -13 -85 -26.5t-84 -26.5q-23 -8 -43 -22q-88 -63 -151 -154t-97 -180q-19 -46 -28 -87q-10 -43 -10 -79z" />
<glyph unicode="A" horiz-adv-x="1593" d="M62 2q0 4 1 8q1 6 6 14q12 28 50.5 43t79.5 32q36 22 57 53l872 1295h97q26 -132 60 -303t70.5 -352t70.5 -352t58 -288q6 -32 31 -51.5t45 -29.5t33 -20.5t15 -18.5t2 -13q0 -3 -1 -6q-2 -7 -11.5 -20t-35.5 -13h-338q-18 0 -31.5 11t-14.5 20.5t1 20.5q3 11 20 24 t30 21.5t18 17t7 19.5q3 12 1 27l-68 328h-547q-47 -72 -102 -157.5t-89 -137t-37 -61.5t-5 -17t-1 -15t6 -17t5 -20t-2 -16q-2 -7 -6 -13q-20 -35 -54 -35h-258q-35 0 -35 22zM718 590h445l-104 527q-62 -97 -161 -249t-180 -278z" />
<glyph unicode="B" horiz-adv-x="1240" d="M116 8q0 6 2 13q9 38 63 56t66 69l256 1112q2 10 3 19q0 35 -37.5 49.5t-37.5 44.5q0 6 1 12q9 41 56 41h570q103 0 208 -36.5t141 -144.5q15 -43 15 -95q0 -49 -14 -107q-28 -113 -111 -202q-63 -68 -119 -91q95 -33 138 -154q15 -47 16 -103q0 -55 -15 -119 q-31 -124 -122 -222q-81 -86 -201.5 -128t-212.5 -42h-627q-38 0 -38 28zM464 93h201q69 0 143 20t135 69q94 75 123 201q9 37 9 71q0 75 -43 130q-67 83 -213 83h-222zM626 794h249q110 12 191 75q84 67 110 181q8 34 8 65q0 68 -39 116q-60 74 -190 74h-211z" />
<glyph unicode="C" horiz-adv-x="1405" d="M205 507q0 90 24 194q80 345 365.5 554.5t616.5 209.5q118 0 245.5 -26.5t240.5 -110.5l-77 -222q-16 -35 -53 -35h-4q-28 2 -38 41q-28 119 -124 174q-90 50 -206 50h-20q-259 -11 -449 -206q-174 -178 -224 -395q-6 -24 -10 -49q-10 -62 -10 -120q0 -155 86.5 -312.5 t325.5 -168.5q24 -1 44 -1q121 0 208 36q98 42 190 175q28 41 65 41q8 0 16 -2q29 -12 22 -42q-3 -11 -10 -24l-148 -251q-119 -45 -224.5 -59.5t-196.5 -14.5q-317 0 -486 172.5t-169 391.5z" />
<glyph unicode="D" horiz-adv-x="1585" d="M109 -1q0 5 2 12q9 40 63 58t66 70l259 1123q2 10 3 19q0 35 -37.5 49.5t-37.5 44.5q0 6 1 12q9 41 56 41q41 -1 84 -1l315 6q154 0 323.5 -9.5t303 -74t197.5 -195.5q40 -83 40 -203q0 -99 -27 -224q-39 -169 -143 -318t-264 -254q-272 -178 -605 -182h-80q-58 0 -109 1 h-117q-84 0 -126 3h-23q-39 0 -105 -6q-39 0 -39 28zM476 116q99 -20 210 -20q42 0 84 3q342 29 537 288q104 137 153 349l8 33q15 80 15 147v8q0 184 -107 277q-124 113 -371 113h-26q-121 0 -231 -17z" />
<glyph unicode="E" horiz-adv-x="1251" d="M158 8q0 6 2 13q9 38 63 55.5t66 69.5l256 1111q2 11 3 20q0 36 -37.5 50t-37.5 44q0 6 1 12q9 41 56 41h953l-64 -277q-9 -41 -56 -41q-25 0 -47 50q-33 68 -57.5 101.5t-72.5 33.5h-402l-116 -503h204q46 0 78 51.5t76 51.5q37 0 37 -28q0 -6 -2 -13l-58 -254 q-9 -41 -55 -41q-43 0 -54 51t-58 51h-198l-126 -543h402q80 0 156 67t118 107q33 31 57 31q38 0 38 -28q0 -6 -2 -13q-3 -15 -9 -25l-140 -273h-939q-35 0 -35 28z" />
<glyph unicode="F" horiz-adv-x="1139" d="M158 8q0 6 2 13q5 22 40 41q16 10 37.5 21.5t35.5 28.5q12 16 16 34l256 1111q2 11 3 20q0 36 -37.5 50t-37.5 44q0 6 1 12q9 41 56 41h953l-64 -277q-9 -41 -56 -41q-25 0 -47 50q-33 68 -57.5 101.5t-72.5 33.5h-402l-116 -503h204q29 0 59 28q22 20 42 47.5t53 27.5 q37 0 37 -28q0 -6 -2 -13l-58 -254q-9 -41 -55 -41q-35 0 -43 31t-22 52q-15 20 -41 20h-204l-118 -512q-6 -24 0 -40q7 -14 20.5 -24t26.5 -19q28 -20 23 -42q-2 -8 -6 -16q-21 -25 -49 -25h-341q-36 0 -36 28z" />
<glyph unicode="G" horiz-adv-x="1563" d="M205 507q0 90 24 194q80 345 365.5 554.5t616.5 209.5q118 0 245.5 -26.5t240.5 -110.5l-77 -222q-16 -35 -53 -35h-4q-28 2 -38 41q-32 132 -112 175t-233 43q-212 0 -413.5 -148.5t-277.5 -480.5q-15 -65 -15 -128q0 -144 94.5 -310.5t325.5 -177.5q24 -1 44 -1 q108 0 188 28q93 33 172 132l43 184q4 20 -14 31q-22 14 -71.5 36.5t-49.5 50.5q0 4 1 8q9 41 55 41h401q38 0 39 -28q0 -6 -2 -13q-9 -39 -63 -57t-66 -69l-94 -408q-177 -8 -325 -43q-79 -20 -152.5 -27t-139.5 -7q-317 0 -486 172.5t-169 391.5z" />
<glyph unicode="H" horiz-adv-x="1638" d="M158 8q0 6 2 13q9 38 63 55.5t66 69.5l256 1111q2 10 3 19q0 35 -37.5 50t-37.5 45q0 6 1 12q9 41 56 41h339q37 0 37 -28q0 -6 -2 -13q-9 -39 -63 -57t-66 -69l-103 -448h795l103 448q2 10 3 19q0 35 -37.5 50t-37.5 45q0 6 1 12q9 41 56 41h339q38 0 38 -28 q0 -6 -2 -13q-9 -39 -63.5 -57t-66.5 -69l-256 -1111q-2 -11 -3 -20q0 -36 38 -50t38 -43q0 -6 -1 -12q-9 -41 -56 -41h-339q-38 0 -38 28q0 6 2 13q9 38 63 55.5t66 69.5l122 531h-795l-122 -531q-2 -11 -3 -20q0 -36 37.5 -50t37.5 -43q0 -6 -1 -12q-9 -41 -55 -41h-339 q-38 0 -38 28z" />
<glyph unicode="I" horiz-adv-x="690" d="M158 8q0 6 2 13q9 38 63 55.5t66 69.5l256 1111q2 11 3 20q0 36 -37.5 50t-37.5 44q0 6 1 12q9 41 56 41h338q38 0 38 -28q0 -6 -2 -13q-9 -39 -63 -56.5t-66 -69.5l-256 -1110q-3 -11 -3 -21q0 -36 37.5 -50t37.5 -43q0 -6 -1 -12q-9 -41 -56 -41h-339q-37 0 -37 28z " />
<glyph unicode="J" horiz-adv-x="682" d="M11 -427l21 88q52 28 91.5 62.5t70.5 91.5q20 39 37.5 112t57.5 247l250 1084q2 10 3 19q0 35 -37.5 50t-37.5 45q0 6 2 12q9 40 55 40h339q38 0 38 -28q0 -6 -1 -12q-9 -39 -63.5 -57t-66.5 -69l-248 -1078q-46 -199 -96.5 -298t-135.5 -171q-117 -97 -279 -138z" />
<glyph unicode="K" horiz-adv-x="1487" d="M158 8q0 6 2 12q9 39 63 56.5t66 69.5l256 1111q2 10 3 19q0 35 -37.5 50t-37.5 45q0 6 1 12q9 41 56 41h339q37 0 37 -28q0 -6 -2 -13q-9 -39 -63 -57t-66 -69l-105 -457l584 454q95 73 154.5 121t96.5 48q36 0 57 -12l95 -52q21 -15 21 -29t-11 -31l-99 -169l-87 40 q-31 14 -64 14q-34 0 -73 -31l-478 -381l582 -681q14 -18 39 -30.5t19 -39.5q-9 -41 -55 -41h-339q-38 0 -38 28q0 6 2 13q3 14 29 34q6 4 7 9v1q3 13 -16 33l-463 542l-114 -494q-2 -11 -3 -20q0 -36 37.5 -50t37.5 -44q0 -6 -1 -12q-9 -40 -55 -40h-339q-38 0 -38 28z" />
<glyph unicode="L" horiz-adv-x="1251" d="M158 8q0 6 2 13q9 38 63 55.5t66 69.5l256 1111q2 10 3 19q0 35 -37.5 50t-37.5 45q0 6 1 12q9 41 56 41h339q37 0 37 -28q0 -6 -2 -13q-9 -39 -63 -57t-66 -69l-263 -1143h402q80 0 156 67t118 107q33 31 57 31q38 0 38 -28q0 -6 -2 -13q-3 -15 -9 -25l-140 -273h-936 q-38 0 -38 28z" />
<glyph unicode="M" horiz-adv-x="1908" d="M137 8q0 6 2 13q9 38 63 55.5t66 69.5l256 1111q2 10 3 19q0 35 -37.5 50t-37.5 45q0 6 1 12q9 41 56 41h283l279 -1086l764 1086h296q38 0 38 -28q0 -6 -2 -13q-9 -39 -63.5 -57t-66.5 -69l-256 -1111q-2 -11 -3 -20q0 -36 38 -50t38 -43q0 -6 -1 -12q-9 -41 -56 -41 h-339q-38 0 -38 28q0 6 2 13q9 38 63 55.5t66 69.5l221 960l-802 -1156h-73l-272 1111l-211 -915q-2 -11 -3 -20q0 -36 37.5 -50t37.5 -43q0 -6 -1 -12q-9 -41 -56 -41h-254q-38 0 -38 28z" />
<glyph unicode="N" horiz-adv-x="1644" d="M137 8q0 6 2 13q9 38 63 55.5t66 69.5l256 1111q2 10 3 19q0 35 -37.5 50t-37.5 45q0 6 1 12q9 41 56 41h271l652 -1153l227 986q2 11 3 20q0 35 -37 49.5t-37 44.5q0 6 1 12q9 41 55 41h255q38 0 38 -28q0 -6 -2 -13q-9 -39 -63 -57t-66 -69l-307 -1327l-206 53 l-654 1138l-225 -975q-2 -11 -3 -20q0 -36 37.5 -50t37.5 -43q0 -6 -1 -12q-9 -41 -56 -41h-254q-38 0 -38 28z" />
<glyph unicode="O" horiz-adv-x="1610" d="M180 489q0 85 22 180q4 18 10 37q92 347 354 551.5t605 208.5h10q334 0 517 -205q119 -134 119 -327q0 -82 -22 -174q-6 -28 -14 -56q-102 -351 -372 -546t-590 -213q-23 -1 -47 -1q-289 0 -465 199q-127 143 -127 346zM447 518q0 -149 85.5 -299.5t315.5 -152.5h5 q225 0 417 194q193 197 249 436l1 6q22 100 22 193q0 132 -61.5 287.5t-338.5 155.5q-292 -1 -452 -186t-221 -450q-22 -94 -22 -177v-7z" />
<glyph unicode="P" horiz-adv-x="1237" d="M137 8q0 6 2 13q9 38 62 55.5t65 69.5l258 1111q2 10 3 19q0 35 -37.5 50t-37.5 45q0 6 1 12q9 41 56 41h590q108 0 217.5 -38.5t149.5 -151.5q15 -45 15 -99q0 -52 -14 -113q-29 -118 -117 -213q-77 -82 -192.5 -122t-202.5 -40h-342l-115 -501q-2 -11 -3 -20 q0 -36 37.5 -50t37.5 -43q0 -6 -1 -12q-9 -41 -55 -41h-339q-38 0 -38 28zM639 757h207q65 0 134.5 18.5t127.5 65.5q90 71 118 191q8 36 8 67q0 71 -41 124q-63 78 -202 78h-227z" />
<glyph unicode="Q" horiz-adv-x="1610" d="M180 489q0 85 22 180q4 18 10 37q92 348 354 552t605 208h10q334 0 517 -205q119 -134 119 -327q0 -82 -22 -174q-6 -28 -14 -56q-103 -351 -373 -546q-216 -156 -462 -199q48 -18 102 -45q155 -78 243 -78q30 0 131 27l-20 -88q-118 -60 -183 -117q-138 19 -317 100 t-239 81q-29 0 -197 -96l26 113q102 67 155 98q-204 35 -340 189q-127 143 -127 346zM446 516q0 -148 66 -264q106 -184 336 -186h5q225 0 417 194q193 197 249 436l1 6q22 100 22 193q0 132 -45 247q-78 196 -355 196q-292 -1 -452 -186t-221 -450q-23 -99 -23 -186z" />
<glyph unicode="R" horiz-adv-x="1368" d="M137 8q0 6 2 13q9 38 63 55.5t66 69.5l256 1111q2 10 3 19q0 35 -37.5 50t-37.5 45q0 6 1 12q9 41 56 41h590q108 0 217.5 -38.5t149.5 -151.5q15 -45 15 -99q0 -52 -14 -113q-29 -118 -117 -213q-72 -76 -175.5 -116t-149.5 -42l302 -567q15 -16 52 -19q42 -5 42 -32 q0 -4 -1 -9l-1 -4q-15 -40 -56 -40h-267q-23 0 -66.5 83t-96.5 191t-108.5 221t-90.5 172h-121l-115 -501q-2 -11 -3 -20q0 -36 37.5 -50t37.5 -43q0 -6 -1 -12q-9 -41 -55 -41h-339q-38 0 -38 28zM639 757h207q65 0 134.5 18.5t127.5 65.5q90 71 118 191q8 36 8 67 q0 71 -41 124q-63 78 -202 78h-227z" />
<glyph unicode="S" horiz-adv-x="1075" d="M126 263q0 6 2 15q3 11 19.5 30t48.5 19q25 -7 35 -42q30 -133 103 -172.5t189 -39.5q25 0 76.5 3.5t128.5 38t136.5 103.5t82.5 170l2 11q5 26 5 49q0 68 -46 109q-28 25 -100 46.5t-180.5 34t-197.5 60t-109.5 114t-20.5 116.5q0 44 11 90q45 195 214 323t384 128h31 q229 -10 376 -122l-76 -221q-12 -36 -52 -36h-5q-30 2 -39 41q-20 86 -83 145t-148 63h-15q-85 0 -145.5 -26t-91 -52t-55.5 -60.5t-41 -71t-23 -67.5q-7 -32 -3 -63q5 -61 38 -90t63.5 -37.5t64.5 -14.5t80.5 -13.5l108.5 -17.5t140.5 -36.5t112.5 -77t42.5 -93t8.5 -69.5 q0 -42 -11 -91q-51 -222 -266 -370q-112 -77 -222.5 -110t-174.5 -35.5t-86 -2.5q-143 0 -276 44l-35 273q0 2 -1 5z" />
<glyph unicode="T" horiz-adv-x="1255" d="M306 1134q0 6 2 13l43 185q15 64 45.5 80.5t115.5 16.5h944q92 0 107.5 -12t15.5 -37q0 -19 -6 -48l-43 -185q-9 -41 -56 -41q-23 0 -48 50q-34 68 -58.5 101.5t-72.5 33.5h-226l-264 -1145q-2 -11 -3 -20q0 -36 37.5 -50.5t37.5 -43.5q0 -6 -1 -12q-9 -40 -55 -40h-339 q-38 0 -38 28q0 6 2 12q9 38 63 56t66 70l264 1145h-230q-48 0 -88.5 -33.5t-105.5 -101.5q-47 -50 -71 -50q-38 0 -38 28z" />
<glyph unicode="U" horiz-adv-x="1554" d="M333 312q0 117 37 276l154 670q2 10 3 19q0 35 -37.5 49.5t-37.5 44.5q0 6 1 12q9 41 56 41h339q37 0 37 -28q0 -6 -2 -13q-9 -39 -61.5 -55.5t-64.5 -67.5l-125 -539q-35 -152 -47 -235.5t-12 -126.5q0 -56 13 -101q21 -75 90 -113.5t212 -38.5q247 0 379 195 q99 142 163 420l124 536q2 10 3 19q0 35 -37.5 50t-37.5 45q0 6 1 12q9 41 56 41h255q37 0 37 -28q0 -6 -2 -13q-9 -39 -62.5 -57t-65.5 -69l-154 -669q-36 -151 -92 -277t-151 -214q-171 -156 -454 -156q-175 0 -293 33.5t-174 123.5q-50 78 -50 214z" />
<glyph unicode="V" horiz-adv-x="1479" d="M377 1384q0 4 1 8q2 8 10 17q13 15 37 15h339q18 0 32 -12q11 -12 14 -23q0 -7 -1 -11q-4 -17 -24 -33l-26 -18t-20 -21q-3 -6 -6 -14q-2 -11 1 -23l165 -1032l630 877q16 23 20 40q3 13 0 23q-12 29 -41 76l-44 71l163 105q18 13 38 13t37 -17l63 -85q16 -22 17 -51 q0 -13 -4 -27q-6 -24 -21 -52q-41 -72 -111 -169l-723 -1015q-12 -19 -27 -33q-20 -13 -38 -13h-151q-24 0 -33 17q-4 5 -6.5 27t-3.5 31l-136 1050q-16 105 -24 146q-7 33 -38 59q-18 13 -38.5 22.5t-33.5 20.5q-14 9 -15 22q-2 4 -2 9z" />
<glyph unicode="W" horiz-adv-x="2119" d="M377 1384q0 4 1 8q2 8 10 17q13 15 37 15h339q18 0 32 -12q11 -12 14 -23q0 -7 -1 -11q-4 -17 -24 -33q-14 -9 -27 -18q-12 -9 -19 -21q-3 -6 -6 -14q-2 -11 1 -23l165 -1032l324 450l-55 418q-16 105 -24 146q-7 33 -38 59q-18 12 -38 22q-21 10 -34 21q-14 9 -15 22 q-3 7 -1 17q2 8 10 17q13 15 37 15h339q18 0 32 -12q11 -12 14 -23q0 -7 -1 -11q-4 -17 -24 -33q-14 -9 -27 -18q-12 -9 -19 -21q-3 -6 -6 -14q-3 -11 1 -23l49 -304l106 149q16 23 20 40q3 13 0 23q-12 29 -41 76l-44 71l163 105q18 13 38 13t37 -17l63 -85q16 -22 17 -51 q0 -13 -4 -27q-6 -24 -21 -52q-41 -72 -111 -169l-192 -271l85 -533l630 877q16 23 20 40q3 13 0 23q-12 29 -41 76l-44 71l163 105q18 13 38 13t37 -17l63 -85q16 -22 17 -51q0 -13 -4 -27q-6 -24 -21 -52q-41 -72 -111 -169l-723 -1015q-12 -19 -27 -33q-20 -13 -38 -13 h-151q-24 0 -33 17q-4 5 -6 27q-3 22 -4 31l-55 428l-326 -457q-12 -19 -27 -33q-20 -13 -38 -13h-151q-24 0 -33 17q-4 5 -6 27q-3 22 -4 31l-136 1050q-16 105 -24 146q-7 33 -38 59q-18 12 -38 22q-21 10 -34 21q-14 9 -15 22q-2 4 -2 9z" />
<glyph unicode="X" horiz-adv-x="1366" d="M37 5l2 6q6 28 57 48l56 21q75 29 120 76l513 542l-230 551q-23 52 -98 83q-25 8 -39 18q-30 20 -25 44l1 5q10 25 41 25h339q30 0 42.5 -20t9.5 -32t-15 -23t-21.5 -19.5t-12.5 -16.5l-1 -5q-4 -18 5 -36l168 -399l322 341q92 97 158 156.5t121 59.5q14 0 28 -4l93 -32 q25 -11 25 -29q0 -3 -1 -6q-3 -13 -8 -22l-91 -191l-87 21q-48 11 -78 13h-2q-17 0 -50 -36l-376 -402l246 -587q19 -45 100 -83q23 -11 36 -20q32 -21 28 -41q-7 -31 -44 -31h-339q-16 0 -32 9q-26 16 -21 38q4 17 26 37.5t24 27.5l2 6q4 16 -4 34l-185 435l-400 -430 q-35 -36 -40 -57v-39q-4 -19 -24.5 -40t-48.5 -21h-258q-34 0 -32 25z" />
<glyph unicode="Y" horiz-adv-x="1366" d="M368 1387q0 4 1 7l1 5q10 25 41 25h339q19 0 32 -10q12 -10 18 -22q4 -10 2 -19q-3 -13 -17 -26q-9 -9 -19 -17.5t-13 -16.5l-1 -5q-4 -17 5 -36l199 -499l321 360q36 41 47 70q2 3 2 7q2 9 2 20q0 21 -7 49l-23 86l179 71q14 5 26 5q28 0 39 -27l38 -102q4 -12 4 -23 q0 -13 -2 -23q-9 -41 -57 -81q-65 -55 -144 -140l-355 -388q-22 -24 -37.5 -70.5t-25.5 -89.5l-81 -351q-2 -11 -3 -20q0 -36 37.5 -50t37.5 -43q0 -6 -1 -12q-9 -41 -56 -41h-339q-38 0 -38 28q0 6 2 13q9 38 63 55.5t66 69.5l98 427q5 23 6 45q-1 27 -10 51l-214 580 q-13 30 -55 60q-23 13 -46.5 23t-39.5 21q-13 8 -19 20q-3 7 -3 14z" />
<glyph unicode="Z" horiz-adv-x="1366" d="M86 21v7q4 19 35 44l1229 1220l-563 -1q-48 0 -88.5 -33.5t-96.5 -92.5t-80 -59q-38 0 -38 28q0 6 2 13l43 185q15 64 45.5 80.5t115.5 16.5h924q96 0 110 -20q9 -14 9 -28q0 -6 -1 -12v-2q-5 -21 -30 -46l-1236 -1203l736 1q48 0 88.5 33t96.5 92t80 59q38 0 38 -28 q0 -6 -2 -13l-42 -185q-16 -68 -43.5 -82.5t-117.5 -14.5h-1071q-87 0 -112 7q-31 14 -31 34z" />
<glyph unicode="[" horiz-adv-x="682" d="M126 -412q0 6 2 12l424 1836q12 50 57 50h247q28 0 29 -28q0 -9 -3 -20q-11 -49 -53 -49h-120l-401 -1736h120q33 0 33 -30q0 -8 -2 -17q-11 -46 -48 -46h-247q-38 0 -38 28z" />
<glyph unicode="\" d="M403 1494h194l500 -1584h-196z" />
<glyph unicode="]" horiz-adv-x="682" d="M127 -414q0 10 2 20q11 47 53 47h120l401 1736h-120q-33 0 -33 30q0 8 2 19q11 48 48 48h247q37 0 37 -32q0 -8 -2 -18l-424 -1836q-9 -40 -56 -40h-247q-28 0 -28 26z" />
<glyph unicode="^" d="M390 892l465 558h139l207 -558h-109l-208 382l-387 -382h-107z" />
<glyph unicode="_" d="M-82 -356l36 158h1150l-36 -158h-1150z" />
<glyph unicode="`" horiz-adv-x="1000" d="M555 1300q0 12 3 26q22 94 121 94q31 0 52 -18l319 -260q6 -10 6 -20q0 -4 -1 -8q-9 -37 -51 -37q-11 0 -29 10q-5 0 -376 152q-44 17 -44 61z" />
<glyph unicode="a" horiz-adv-x="1155" d="M145 290q0 69 19 150q12 53 38 122.5t83.5 137t110.5 101t87 47.5q372 128 394 128h6q67 -3 115.5 -20t73.5 -28.5t40 -11.5q14 0 42 29q17 17 33 17t35.5 -7.5t19.5 -24.5q0 -5 -2 -10l-178 -774q-2 -11 -3 -20q0 -36 37.5 -50t37.5 -44q0 -6 -1 -12q-9 -40 -56 -40 h-243q-42 0 -34 33l10 43l-260 -88q-40 -13 -66 -13h-42q-152 8 -236 124q-61 86 -61 211zM389 350q0 -75 26 -126q65 -129 200 -129q34 0 82.5 16t135.5 47l140 604q-25 30 -80.5 60t-101.5 32h-3q-16 0 -81.5 -23t-95.5 -33.5t-44 -22.5q-72 -62 -109 -141.5t-42 -101.5 l-8 -32q-19 -81 -19 -144v-6z" />
<glyph unicode="b" horiz-adv-x="1139" d="M164 4q0 3 1 7l287 1246q2 10 3 19q0 35 -37.5 50t-37.5 45q0 6 1 12q9 41 55 41q63 3 129 19.5t173 49.5l-143 -619l260 89q36 12 65 14q11 0 21 -0.5t22 -0.5q152 -8 235 -124q62 -91 62 -211q0 -33 -5 -69q-6 -42 -15 -83q-12 -53 -31 -103q-34 -89 -109 -176 q-43 -50 -116 -98q-30 -19 -65 -31q-87 -29 -174 -59t-175 -59q-25 -8 -44 -8h-5q-66 3 -156 32q-9 4 -12 6q-18 8 -46 18q-8 3 -16 3q-5 0 -8 -3q-24 -17 -33 -25q-16 -17 -38 -17q-11 0 -19 4q-29 11 -29 31zM432 168q24 -31 79 -61t102 -31h6q11 0 28 6q41 14 79 26.5 t77 26.5q17 6 35 20q71 61 112 150q33 72 49 143q5 21 9 40q7 46 7 85q0 81 -29 138q-44 87 -130 114q-35 10 -70 10q-10 0 -19 -1q-19 -2 -48 -11q-25 -9 -78 -27t-70 -24z" />
<glyph unicode="c" horiz-adv-x="925" d="M164 300q0 67 18 146q13 56 35 119q98 230 319 342q125 63 268 69h22q172 0 303 -99l-59 -180q-12 -31 -44 -31h-3q-29 2 -35 34q-18 81 -68.5 115.5t-134.5 34.5h-23q-100 -5 -160 -53q-123 -95 -165 -278q-6 -28 -11 -60q-8 -48 -8 -91q0 -84 31 -144q61 -116 160 -132 q17 -2 35 -2q91 0 174.5 44.5t105.5 44.5t43 -4q3 -19 0 -33q-3 -15 -25.5 -43t-48.5 -48q-141 -96 -337 -96t-306 109q-86 90 -86 236z" />
<glyph unicode="d" horiz-adv-x="1231" d="M164 288q0 34 5 70q6 42 15 82q12 53 30 103q34 89 110 177q38 47 117 98q29 17 62 30q88 30 175.5 60t174.5 60q24 8 44 8h6q67 -3 156 -34h2q0 1 -23 14l69 301q2 10 3 19q0 35 -37.5 50t-37.5 45q0 6 1 12q9 41 55 41q63 3 129 19.5t173 49.5l-311 -1347 q-2 -11 -3 -20q0 -36 37.5 -50t37.5 -43q0 -6 -1 -12q-9 -41 -56 -41h-243q-42 0 -34 33l10 43l-260 -88q-40 -13 -66 -13h-42q-152 8 -234 122q-64 91 -64 211zM410 358q0 -82 30 -141q42 -87 128 -112q32 -10 67 -10q11 0 22 1q18 2 48 11q25 8 78 26.5t70 24.5l140 605 q-29 32 -83 60.5t-99 30.5h-3q-14 0 -31 -6q-39 -13 -77.5 -26.5t-77.5 -26.5q-21 -8 -35 -20q-72 -62 -113 -151q-33 -70 -49 -138q-5 -21 -8 -44q-7 -45 -7 -84z" />
<glyph unicode="e" horiz-adv-x="1004" d="M149 317q0 59 15 124q12 54 35 112q73 191 226 308t359 119h4q209 0 277.5 -99.5t68.5 -207.5q0 -57 -15 -122q-10 -41 -19 -67t-71 -26h-612q-10 -49 -11 -93q0 -80 42.5 -162.5t147.5 -104.5q30 -7 63 -7q88 0 177.5 43t110.5 43t29.5 -8.5t4.5 -23.5q-4 -16 -24 -43 t-30.5 -36t-18.5 -16q-140 -101 -339 -101q-276 2 -372 176q-48 86 -48 192zM444 571h476q10 43 10 86q0 53 -22 124t-147 71h-11q-126 -4 -203.5 -94.5t-102.5 -186.5z" />
<glyph unicode="f" horiz-adv-x="683" d="M110 8q0 6 2 12q9 39 63 56.5t66 69.5l156 678l-94 -4q-38 0 -37 30q0 5 1 10v2q6 27 42 42q21 9 65 30t58 26q5 2 5 3q0 2 -7 2l14 62q30 129 66 197.5t66 98t65 40.5l280 96l44 6q33 0 57.5 -19.5t28.5 -33t4 -22.5q0 -7 -1 -14q-4 -16 -14 -51t-43 -44h-7 q-20 0 -49.5 23t-59.5 23t-54 -9q-78 -30 -108 -121q-13 -37 -23 -80.5t-21 -89.5l-13 -58l215 4q40 0 33 -30q-7 -31 -17 -53q-29 -64 -84 -64l-180 1l-157 -681q-2 -11 -3 -20q0 -36 37.5 -50t37.5 -44q0 -6 -1 -12q-9 -40 -56 -40h-339q-38 0 -38 28z" />
<glyph unicode="g" horiz-adv-x="1103" d="M22 -305q117 42 243 85q9 -71 29 -110q43 -86 128 -112q32 -9 65 -9q13 0 24 1q19 2 47 10q12 5 33.5 12t43.5 15q41 18 71.5 86t35.5 90l67 293l-259 -88q-40 -13 -66 -13h-42q-152 8 -234 122q-64 91 -64 211q0 34 5 70q6 42 15 82q12 53 30 103q34 89 110 177 q38 47 117 98q29 17 62 30q88 30 175.5 60t174.5 60q24 8 44 8h6q67 -3 156 -34q9 -3 11 -5q18 -8 47 -18q7 -3 14 -3q6 0 11 3q23 16 32 26q17 17 39 17q11 0 19 -4q29 -11 29 -31q0 -3 -1 -7l-254 -1100q-40 -173 -102.5 -218.5t-161.5 -78.5l-299 -103q-40 -13 -66 -13 q-27 0 -43 1q-151 5 -234 124q-43 62 -58 163zM390 358q0 -82 30 -141q42 -87 128 -112q32 -10 67 -10q11 0 22 1q18 2 48 11q25 8 77.5 26t69.5 24l15 62h1l125 543q-25 30 -80.5 60t-101.5 32h-3q-14 0 -31 -6q-39 -13 -77.5 -26.5t-77.5 -26.5q-21 -8 -35 -20 q-72 -62 -113 -151q-33 -70 -49 -138q-5 -21 -8 -44q-7 -45 -7 -84z" />
<glyph unicode="h" horiz-adv-x="1207" d="M85 8q0 6 2 12q9 39 63 56.5t66 69.5l256 1111q2 10 3 19q0 35 -37.5 50t-37.5 45q0 6 1 12q9 41 55 41q63 3 129 19.5t172 49.5l-141 -608q22 7 67.5 23t118 39.5t132 29t73.5 5.5q94 0 162 -63q63 -59 63 -194q0 -92 -29 -219l-83 -360q-2 -11 -3 -20q0 -36 37.5 -50 t37.5 -44q0 -6 -1 -12q-9 -40 -55 -40h-243q-42 0 -34 33l114 493q21 90 21 157q0 90 -38 138q-39 50 -112 50q-43 0 -82.5 -12.5t-76 -25t-63.5 -22.5q-25 -8 -30 -10l-146 -635q-2 -11 -3 -20q0 -36 37.5 -50t37.5 -44q0 -6 -1 -12q-9 -40 -55 -40h-339q-38 0 -38 28z" />
<glyph unicode="i" horiz-adv-x="593" d="M115 8q0 6 2 12q9 38 63 56t66 70l147 640q2 10 3 19q0 35 -37 49q-38 15 -38 45q0 6 1 12q9 41 55 41q64 3 129 20q66 17 172 50l-202 -876q-2 -11 -3 -20q0 -36 37 -50q38 -15 38 -44q0 -6 -1 -12q-9 -40 -55 -40h-339q-38 0 -38 28zM464 1246q0 20 6 44 q30 130 165 130q110 0 110 -87q0 -19 -5 -43q-30 -131 -165 -131q-110 0 -111 87z" />
<glyph unicode="j" horiz-adv-x="487" d="M-115 -594l20 87q112 59 164 154q21 39 37 112q17 73 57 247l180 780q2 10 3 19q0 35 -37 49q-38 15 -38 45q0 6 1 12q9 41 55 41q64 3 129 20q66 17 173 50l-233 -1010q-47 -199 -97 -298t-135 -171q-121 -100 -279 -137zM464 1246q0 20 6 44q30 130 165 130 q110 0 110 -87q0 -19 -5 -43q-30 -131 -165 -131q-110 0 -111 87z" />
<glyph unicode="k" horiz-adv-x="1163" d="M105 8q0 6 2 13q9 38 63 55.5t66 69.5l256 1111q2 10 3 19q0 35 -37.5 50t-37.5 45q0 6 1 12q9 41 55 41q63 3 129 19.5t172 49.5l-207 -894l369 249q75 51 129 81q39 20 71 20q25 0 46 -13l64 -46q15 -12 15 -27v-7q-2 -9 -9 -17l-87 -128l-67 39q-21 12 -42 12 q-24 0 -51 -17q-170 -108 -281 -182l258 -325q81 -102 106 -115q16 -8 34 -8q7 0 15 1q11 3 21 3q37 0 45 -29q1 -10 -1 -16q-5 -22 -30 -32l-71 -30q-64 -26 -115 -26q-35 0 -63 13q-64 28 -108 84l-281 352q5 4 6 5q-2 0 -11 -6l-66 -288q-2 -11 -3 -20q0 -36 37.5 -50 t37.5 -43q0 -6 -1 -12q-9 -41 -55 -41h-339q-38 0 -38 28z" />
<glyph unicode="l" horiz-adv-x="597" d="M105 8q0 6 2 13q9 38 63 55.5t66 69.5l256 1111q2 10 3 19q0 35 -37.5 50t-37.5 45q0 6 1 12q9 41 55 41q63 3 129 19.5t172 49.5l-311 -1347q-2 -11 -3 -20q0 -36 37.5 -50t37.5 -43q0 -6 -1 -12q-9 -41 -55 -41h-339q-38 0 -38 28z" />
<glyph unicode="m" horiz-adv-x="1797" d="M102 8q0 6 2 12q9 39 63 56.5t66 69.5l147 640q2 10 3 19q0 35 -37.5 49.5t-37.5 44.5q0 6 1 12q9 41 55 41q63 3 129 20t172 50l-30 -129q13 4 54 18t111 37t129.5 28.5t73.5 5.5q94 0 162 -63q24 -23 28 -30q27 9 67 22.5t109.5 36.5t129 28.5t73.5 5.5q93 0 161 -62 q64 -60 64 -195q0 -92 -29 -219l-83 -360q-2 -11 -3 -20q0 -36 37.5 -50t37.5 -44q0 -6 -1 -12q-9 -40 -56 -40h-243q-41 0 -33 33l114 493q21 90 21 157q0 90 -38 138q-39 50 -112 50q-43 0 -81.5 -12t-69.5 -22.5t-33 -11.5q7 -28 7 -68q0 -87 -33 -231l-83 -360 q-2 -11 -3 -20q0 -36 37.5 -50t37.5 -44q0 -6 -1 -12q-9 -40 -55 -40h-339q-38 0 -38 28q0 6 2 12q9 39 63 56.5t66 69.5l83 360q21 90 21 157q0 90 -38 138q-39 50 -112 50q-43 0 -89.5 -14.5t-83 -27.5t-56.5 -20l-148 -643q-2 -11 -3 -20q0 -36 37.5 -50t37.5 -44 q0 -6 -1 -12q-9 -40 -55 -40h-339q-38 0 -38 28z" />
<glyph unicode="n" horiz-adv-x="1191" d="M85 8q0 6 2 12q9 39 63 56.5t66 69.5l147 640q2 10 3 19q0 35 -37.5 49.5t-37.5 44.5q0 6 1 12q9 41 55 41q63 3 129 20t172 50l-32 -137q22 7 67.5 23t118 39.5t132 29t73.5 5.5q94 0 162 -63q63 -59 63 -194q0 -92 -29 -219l-83 -360q-2 -11 -3 -20q0 -36 37.5 -50 t37.5 -44q0 -6 -1 -12q-9 -40 -55 -40h-243q-42 0 -34 33l114 493q21 90 21 157q0 90 -38 138q-39 50 -112 50q-43 0 -82.5 -12.5t-76 -25t-63.5 -22.5q-25 -8 -30 -10l-146 -635q-2 -11 -3 -20q0 -36 37.5 -50t37.5 -44q0 -6 -1 -12q-9 -40 -55 -40h-339q-38 0 -38 28z" />
<glyph unicode="o" horiz-adv-x="1107" d="M155 345q0 56 14 117v3q53 226 259 381q28 21 71.5 35t107.5 35.5t122 40.5t95 19h4q205 -8 296 -135t91 -260q0 -55 -13 -116l-1 -6q-48 -207 -230.5 -352.5t-402.5 -151.5h-16q-204 0 -300.5 128t-96.5 262zM399 347q0 -87 43 -183t153 -101h13q102 0 207.5 108.5 t144.5 278.5q16 71 16 133q0 87 -43.5 183.5t-151.5 102.5h-11q-103 0 -209.5 -109t-145.5 -279q-16 -71 -16 -134z" />
<glyph unicode="p" horiz-adv-x="1197" d="M-20 -578q0 6 1 12q9 39 63.5 57t65.5 69l283 1226q2 10 3 19q0 35 -37.5 49.5t-37.5 44.5q0 6 1 12q9 41 55 41q63 3 129 20t172 50l-33 -143l247 84q35 12 55.5 13t21.5 1h9q10 -1 21 -1q151 -7 236 -124q62 -91 62 -211q0 -34 -5 -69q-5 -41 -16 -88 q-11 -48 -37.5 -117.5t-84.5 -137t-110.5 -101.5t-85.5 -46q-191 -66 -282.5 -96.5t-112.5 -30.5h-5q-62 3 -121 22l-97 -417q-2 -10 -2 -19q0 -35 37.5 -50t37.5 -45q0 -6 -2 -12q-9 -40 -54 -40h-339q-38 0 -38 28zM478 158q27 -28 78 -54.5t94 -27.5h6q11 0 39 9.5 t66.5 22.5t67.5 23t46 24q70 61 107.5 140.5t47.5 125.5q10 45 14 67q6 39 6 74v10q0 82 -36.5 154.5t-121.5 98.5q-34 10 -55 10q-23 0 -38 -1.5t-40.5 -10t-71.5 -24t-66 -22.5z" />
<glyph unicode="q" horiz-adv-x="1173" d="M164 287q0 34 5 71q6 43 16 90q11 46 36.5 114.5t84.5 137.5t111 102.5t113 54.5t148 51t143 49t77 19h5q68 -3 113.5 -19t46.5 -16.5t22 -0.5l-2 -10q7 -3 24 -8.5t22 -5.5q4 0 18 9.5t27 23t29 13.5t35.5 -7.5t19.5 -24.5q0 -5 -2 -10l-314 -1360q-2 -10 -2 -19 q0 -35 37.5 -50t37.5 -45q0 -6 -2 -12q-9 -40 -55 -40h-339q-38 0 -38 28q0 6 1 12q9 39 63.5 57t65.5 69l115 495l-257 -87q-38 -13 -65 -13h-43q-153 8 -225 110t-72 222zM409 356q0 -81 35.5 -153t122.5 -98q33 -10 56 -10t38 1.5t41 10t77.5 26t69.5 24.5l140 607 q-26 29 -80 58.5t-99 31.5h-3q-15 0 -42 -9.5t-66 -23t-68 -23.5t-45 -23q-72 -62 -109 -141.5t-47 -123.5q-10 -45 -14 -68q-7 -46 -7 -86z" />
<glyph unicode="r" horiz-adv-x="831" d="M125 8q0 6 2 13q9 38 63 55.5t66 69.5l147 640q2 10 3 19q0 35 -37.5 49.5t-37.5 44.5q0 6 1 12q9 41 55 41q63 3 129 20t173 50l-30 -130l113 39q84 29 131 44q19 5 41 5q42 0 114 -27l-91 -284h-89q-5 146 -96 146q-10 0 -19 -1q-63 -7 -106 -68.5t-67 -150.5 l-103 -449q-3 -11 -3 -20q0 -35 37 -49.5t37 -43.5q0 -6 -1 -12q-9 -41 -55 -41h-339q-38 0 -38 28z" />
<glyph unicode="s" horiz-adv-x="884" d="M128 227l9 24q11 33 51 33h5q25 -5 33 -37q21 -94 73 -131.5t145 -40.5h11q66 0 152.5 31t107.5 112l2 6q4 18 4 34q0 65 -80.5 89.5t-166 50t-153.5 80t-68 133.5q0 28 7 61l1 5q39 165 178 233.5t278 68.5q14 0 26 -1q152 -8 280 -100l-66 -186q-12 -33 -49 -33h-4 q-29 2 -35 37q-18 71 -71 117t-122 49h-4q-54 0 -113.5 -27.5t-84.5 -84.5q-10 -21 -13 -37q-2 -10 -3 -19q0 -38 45 -63t150.5 -50t195.5 -71.5t90 -157.5q0 -32 -7 -69l-2 -10q-18 -79 -100.5 -161.5t-191 -117t-203.5 -37.5h-28q-127 0 -246 37z" />
<glyph unicode="t" horiz-adv-x="682" d="M250 138q0 47 15 112l132 574l-94 -4q-38 0 -37 30q0 5 1 10v2q6 27 42 42q21 9 65 30t58 26q5 2 5 3q0 2 -7 2l35 151q13 57 43.5 80.5t91.5 50t84 26.5q39 0 39 -31q0 -7 -2 -15l-59 -258l215 4q34 0 34 -22q0 -4 -1 -8q-7 -31 -17 -53q-29 -64 -84 -64l-180 1 l-140 -607q-5 -23 -6 -43q0 -50 40.5 -84.5t98.5 -42.5l-16 -69q-178 0 -267 26t-89 131z" />
<glyph unicode="u" horiz-adv-x="1239" d="M254 206q0 92 29 219l83 361q2 10 3 19q0 35 -37.5 49.5t-37.5 44.5q0 6 1 12q9 41 55 41q63 3 129 20t173 50l-138 -597q-21 -91 -21 -158q0 -90 38 -137q39 -50 111 -50q43 0 102 18q20 6 57 19t62 22l18 6l12 4l147 637q2 10 3 19q0 35 -37.5 49.5t-37.5 44.5 q0 6 1 12q9 41 55 41q63 3 129 20t173 50l-202 -876q-2 -11 -3 -20q0 -36 37.5 -50t37.5 -43q0 -6 -1 -12q-9 -41 -56 -41h-243q-42 0 -34 33l8 33q-21 -7 -68 -23.5t-88 -29.5q-102 -32 -205 -42q-16 -1 -31 -1q-93 0 -160 61q-64 59 -64 195z" />
<glyph unicode="v" horiz-adv-x="1036" d="M242 907q0 8 1 13t5 13q15 18 40 18h328q15 0 29 -10q11 -11 14 -22v-11q-4 -16 -24 -31q-36 -27 -39 -33t-5 -14q-3 -9 0 -19l104 -582l320 494q12 18 16 35q7 29 -11 57l-32 53l123 81q15 13 32 13q19 0 31 -16l43 -57q11 -16 12 -36q0 -9 -3 -20q-4 -17 -16 -39 q-27 -48 -74 -113l-465 -686q-9 -12 -18 -21q-16 -13 -34 -13h-84q-22 0 -29 15q-4 5 -5.5 19.5t-2.5 19.5l-147 779q-7 32 -29 50q-15 12 -34.5 21.5t-30.5 18.5q-9 7 -15 23z" />
<glyph unicode="w" horiz-adv-x="1647" d="M243 915q0 7 5 18q15 18 40 18h328q15 0 29 -10q11 -12 13 -20t-1 -18q-3 -11 -30.5 -32t-31 -27t-4.5 -14q-2 -9 0 -19l104 -582l290 447l-23 118q-7 32 -26 47t-37.5 24t-31.5 19.5t-13.5 20.5t0.5 15t5 13q15 18 40 18h328q15 0 29 -10q11 -12 13 -20t-1 -18 q-3 -11 -30.5 -32t-31 -27t-4.5 -14q-2 -9 0 -19l104 -582l320 494q12 18 17 41t-12 51l-32 52l121 82q15 12 34 12q18 0 31 -14l43 -58q12 -17 13 -35q0 -6 -2 -13q-6 -25 -25.5 -60t-66.5 -100l-465 -686q-9 -13 -21 -23.5t-31 -10.5h-84q-21 0 -26.5 10.5t-7.5 24 t-4 18.5l-92 490l-345 -509q-9 -13 -21 -23.5t-31 -10.5h-84q-21 0 -26.5 10.5t-7.5 24.5t-3 19l-147 779q-7 32 -26 47t-37.5 24t-29.5 18t-13 18t-2 14z" />
<glyph unicode="x" horiz-adv-x="1098" d="M24 -2q0 3 1 7q2 10 13 20q23 22 68.5 33t85.5 50l356 340l-171 375q-9 19 -36 35q-17 10 -33.5 17t-28.5 15q-29 19 -25 34q6 25 46 25h322q29 0 42 -24q4 -9 1 -19q-4 -16 -26 -27q-6 -3 -8 -11q-2 -10 4 -22l101 -220l188 181q118 112 150 135q19 15 47 15 q31 0 71 -23l56 -34q14 -10 14 -24q0 -4 -1 -7q-2 -9 -10 -18l-91 -127q-54 33 -82 48q-2 1 -3 1q-10 0 -37 -26l-249 -238l184 -403q10 -23 41 -37q13 -7 27 -14t29 -15q29 -20 26 -35q-6 -25 -46 -25h-322q-29 0 -41 24q-4 10 -2 18q3 15 26 28q6 3 8 11v1q2 9 -4 22 l-113 247l-257 -244q-20 -21 -22 -32l-1 -3q-2 -8 0 -13q1 -8 0 -13q-3 -12 -13 -22q-22 -24 -47 -24h-208q-30 0 -30 18z" />
<glyph unicode="y" horiz-adv-x="1036" d="M92 -553q0 4 1 9l24 133l77 2q51 2 83 46l231 324q4 0 4 2q1 3 -3 8q-7 10 -8.5 24.5t-2.5 19.5l-147 779q-7 32 -28 48.5t-49 29t-30.5 28t1.5 33.5t43 18h328q36 0 40.5 -19.5t2.5 -26.5q-5 -23 -29 -34t-31 -22.5t-9 -19.5t1 -18l104 -582l320 494q12 18 17 41t-12 51 l-32 53l123 81q15 13 33 13t30 -16l43 -57q12 -17 13 -35q0 -6 -2 -13q-6 -25 -25.5 -60t-66.5 -100l-748 -1102q-46 -66 -85 -115.5t-93 -49.5l-85 3q-33 6 -33 30z" />
<glyph unicode="z" horiz-adv-x="1019" d="M55 12q0 5 1 9q4 17 29 41l788 779h-307q-40 0 -74 -28.5t-88 -86.5q-43 -43 -64 -43q-44 0 -36 37l37 159q12 54 40 70t103 16h622q103 0 103 -43q0 -4 -1 -9q-4 -20 -29 -44l-792 -770h388q40 2 77 30.5t93 87.5q43 44 64 44q43 0 34 -38l-36 -158q-14 -59 -38.5 -72 t-103.5 -13l-685 -1q-77 1 -103 10q-22 6 -22 23z" />
<glyph unicode="{" horiz-adv-x="1024" d="M277 630q0 6 1 13q1 5 4 12q13 32 58 38q145 12 206 65q36 32 59.5 89.5t36.5 113.5l49 212q17 73 50.5 153t96.5 130q99 80 316 80q33 0 44 -19q7 -15 7 -27q0 -4 -1 -8q-8 -36 -63 -36q-120 -2 -171 -47q-33 -28 -54.5 -85.5t-33.5 -109.5l-33 -143q-18 -78 -50 -169 t-83 -146q-84 -90 -155 -104q64 -14 107 -103q18 -40 18 -98q0 -23 -6 -81t-25 -137l-33 -143q-17 -75 -17 -125q0 -47 16 -69q31 -44 149 -46q34 0 39 -30q1 -9 -1 -17q-3 -13 -16 -27q-19 -17 -51 -17q-214 0 -278 80q-37 46 -38 118q0 6 2 48.5t19 116.5l49 211 q13 56 14.5 89t1.5 40q0 49 -19 77q-23 31 -73 45.5t-101 18.5q-30 2 -37 21q-4 7 -4 16z" />
<glyph unicode="|" horiz-adv-x="1024" d="M393 -247l406 1757h191l-406 -1757h-191z" />
<glyph unicode="}" horiz-adv-x="1024" d="M87 -215q0 4 1 8q2 8 7 17q19 30 53 30q119 2 171 46q54 47 87 194l33 143q18 79 50.5 169.5t82.5 146.5q85 89 155 103q-65 14 -107 104q-18 39 -18 97q0 23 6.5 81.5t24.5 136.5l33 143q12 52 15 86.5t3 45.5q0 41 -16 63q-30 45 -149 47q-48 0 -48 27q0 4 1 9 q3 15 22 35q20 19 54 19q216 0 278 -80q37 -46 37 -118q0 -6 -1.5 -49t-18.5 -116l-49 -212q-13 -56 -15 -88.5t-2 -39.5q0 -47 19 -75q37 -53 176 -65q40 -6 40 -36q0 -6 -2 -14q-4 -18 -15 -29q-17 -19 -47 -21q-53 -4 -110 -18.5t-94 -45.5q-37 -33 -61 -91.5t-36 -114.5 l-49 -211q-17 -74 -50.5 -153.5t-96.5 -129.5q-101 -80 -316 -80q-32 0 -43 17q-5 10 -5 19z" />
<glyph unicode="~" horiz-adv-x="1024" d="M174 497q0 4 1 9q3 14 18 32q64 72 134.5 153.5t187.5 81.5q135 0 250 -92q52 -42 112 -42q51 0 109 31q57 29 111 99q20 24 49 24q8 0 13 -2q31 -5 31 -32q0 -8 -1 -14q-2 -10 -11 -23q-90 -117 -160 -170q-82 -62 -158 -62q-121 0 -243 88q-58 42 -117 42 q-44 0 -90 -25q-14 -8 -32 -18t-40 -26q-40 -31 -74 -69q-19 -21 -44 -21q-16 0 -29 10q-17 10 -17 26z" />
<glyph unicode="&#xa1;" horiz-adv-x="550" d="M50 -461q0 12 3 25l3 11l290 955q10 43 59 43h21q42 0 42 -30q0 -6 -2 -13l-150 -955l-2 -10q-20 -85 -119 -85h-63q-82 0 -82 59zM319 730q0 14 4 31l19 82q24 106 159 106q114 0 114 -76q0 -14 -3 -30l-19 -82q-25 -107 -160 -107q-114 0 -114 76z" />
<glyph unicode="&#xa2;" horiz-adv-x="925" d="M164 300q0 67 18 146q13 56 35 119q98 230 319 342q102 51 216 65l38 163h134l-37 -162q136 -15 242 -96l-59 -180q-12 -31 -44 -31h-3q-29 2 -35 34q-18 82 -69 116q-27 18 -63 26l-173 -750q70 8 136 42q84 44 105 45q22 0 43 -4q3 -19 0 -33q-3 -15 -26 -43 q-22 -28 -48 -48q-104 -71 -240 -90l-45 -193h-134l44 188q-169 10 -268 108q-86 90 -86 236zM418 368q0 -84 31 -144q43 -81 104 -114l170 736q-74 -11 -121 -49q-123 -95 -165 -278q-6 -28 -11 -60q-8 -48 -8 -91z" />
<glyph unicode="&#xa3;" horiz-adv-x="1024" d="M26 59q0 15 4 31q6 26 23 57q33 64 78 95q66 44 117 44h7q42 -3 74 -5q11 29 21 76l7 30q11 61 24 123q13 74 23 154h-162q-40 0 -32 35l17 70q8 35 48 35h149q7 57 22 124q13 58 31 107q41 122 107 210q163 218 417 218q77 0 140.5 -38.5t83.5 -109.5q5 -20 5 -42 q0 -17 -3 -35l-2 -8q-10 -42 -49 -74q-41 -33 -81 -33q-35 0 -62 28q-24 21 -24 59q0 6 2.5 33.5t5.5 56.5v6q0 49 -54 57q-16 2 -30 2q-44 0 -80 -25q-67 -48 -98 -116.5t-49 -144.5q-17 -74 -27.5 -147.5t-18.5 -127.5h238q40 0 32 -35l-17 -70q-8 -35 -48 -35h-229 q-2 -14 -10 -49t-18 -71q-25 -83 -61.5 -157.5t-64.5 -137.5q33 -13 82 -31t101 -32q55 -14 103 -14q38 0 73 9q71 18 125 79q15 16 25.5 45t60.5 29q37 0 37 -29q0 -6 -2 -14q-8 -36 -27 -67t-37 -60q-62 -100 -164 -162q-91 -53 -179 -53q-12 0 -24 1q-96 8 -166 64 q-16 13 -63 48l-45 33q-57 -64 -141 -120q-43 -27 -88 -27q-25 0 -48 9q-65 23 -77 82q-2 10 -2 20zM143 81q0 -32 28 -32q39 0 67 38.5t47 71.5q-17 22 -44 22q-77 0 -94 -73q-4 -16 -4 -27z" />
<glyph unicode="&#xa4;" horiz-adv-x="1024" d="M113 106q0 3 1 6q3 12 19 25l162 132q-28 52 -28 119q0 41 11 88q28 121 113 207l-102 134q-10 10 -7 23q3 12 17 24l57 46q14 11 31 11t26 -12l98 -129q95 62 221 62t193 -62l159 129q15 12 32 12q19 0 26 -13l36 -46q5 -8 5 -16q0 -3 -1 -6q-3 -12 -18 -24l-163 -132 q29 -53 29 -121q0 -41 -11 -87q-29 -124 -114 -208l104 -133q7 -12 5 -23q-3 -11 -14 -22l-59 -46q-15 -13 -32 -13q-18 0 -27 14l-97 127q-94 -61 -221 -61t-193 61l-158 -129q-15 -12 -32 -12t-25 11l-36 46q-7 9 -7 18zM409 418q0 -63 44.5 -121t139.5 -58q93 0 178 68.5 t108 167.5q7 30 7 57q0 63 -45.5 121.5t-138.5 58.5q-95 0 -179 -69t-107 -168q-7 -30 -7 -57z" />
<glyph unicode="&#xa5;" horiz-adv-x="1366" d="M368 1387q0 4 1 7l1 5q10 25 41 25h339q19 0 32 -10q12 -10 18 -22q4 -10 2 -19q-3 -13 -17 -26q-9 -9 -19 -17t-13 -17l-1 -5q-4 -17 5 -36l199 -499l321 360q36 41 47 70q2 3 2 7q2 9 2 20q0 21 -7 49l-23 86l179 71q14 5 26 5q28 0 39 -27l38 -102q4 -12 4 -23 q0 -13 -2 -23q-9 -41 -57 -81q-65 -55 -144 -140l-278 -304h257l-27 -119h-330q-8 -16 -15 -36q-12 -34 -20 -66h341l-27 -119h-341l-59 -255q-2 -11 -3 -20q0 -36 37 -50q39 -15 38 -44q0 -5 -1 -11q-9 -41 -56 -41h-339q-38 0 -38 28q0 6 2 13q9 37 63 55t66 70l59 255 h-302l27 119h302l12 53q6 26 6 49h-296l27 119h233l-188 508q-13 30 -55 60q-23 13 -46 23q-24 10 -40 21q-13 8 -19 20q-3 7 -3 14z" />
<glyph unicode="&#xa6;" horiz-adv-x="1024" d="M284 -243l165 716h182l-165 -716h-182zM523 793l166 717h182l-166 -717h-182z" />
<glyph unicode="&#xa7;" horiz-adv-x="1024" d="M25 -172q0 4 1 9q4 16 17 28q17 22 43 22h4q25 -3 36 -39q29 -121 103 -161q60 -34 166 -34q23 0 47 2q70 5 141 36.5t124 93.5q55 65 77 157l2 11q5 23 5 44q0 62 -43 99q-26 24 -68 37q-90 26 -190 37.5t-186 58.5q-79 42 -98 103.5t-19 107.5q0 41 10 84 q40 175 169 276q-59 56 -60 153q0 44 13 98q42 180 194 297q161 122 359 122q15 0 30 -1q211 -9 349 -113l-71 -205q-12 -36 -49 -36q-8 0 -11 1q-26 2 -32 40q-18 78 -76.5 132t-135.5 58h-14q-78 0 -146 -28q-41 -18 -72 -44q-28 -23 -51 -59q-23 -32 -38 -66 q-12 -28 -18 -55q-8 -33 -5 -60q4 -56 40 -86q23 -22 60 -33q22 -6 53 -11t66 -11q50 -9 107.5 -18.5t111.5 -25.5q93 -34 129 -86q26 -38 39 -89q4 -25 4 -52q0 -42 -11 -88q-39 -169 -166 -280q2 -1 13 -17q27 -41 38 -90q4 -25 4 -52q0 -42 -10 -88q-47 -203 -247 -342 q-102 -69 -218 -105q-85 -27 -187 -33q-20 -1 -40 -1q-135 0 -261 42l-31 254q0 3 -1 6zM409 522q0 -8 1 -15q5 -57 40 -85q22 -23 61 -33q33 -9 118 -23q50 -9 107.5 -18.5t111.5 -25.5q36 53 57 146l3 11q4 20 4 38v7q0 62 -41 99q-30 24 -70 37q-76 21 -160 32t-144 33 q-8 -7 -26 -36q-23 -31 -37 -67q-12 -28 -19 -55q-6 -24 -6 -45z" />
<glyph unicode="&#xa8;" horiz-adv-x="1000" d="M472 1246q0 20 6 44q30 130 165 130q110 0 110 -87q0 -19 -5 -43q-30 -131 -165 -131q-110 0 -111 87zM942 1246q0 20 6 44q30 130 165 130q110 0 110 -87q0 -19 -5 -43q-30 -131 -165 -131q-110 0 -111 87z" />
<glyph unicode="&#xa9;" horiz-adv-x="1532" d="M162 529q0 85 21 179q73 315 350.5 539.5t598.5 224.5t469 -191.5t148 -394.5q0 -85 -22 -178q-73 -316 -350 -540t-598 -224t-469 191t-148 394zM296 554q0 -171 123.5 -330.5t387.5 -159.5t496 187.5t294 456.5q18 80 19 153q0 171 -124 331t-388 160t-496 -188 t-294 -456q-18 -77 -18 -147v-7zM545 570q0 61 15 129q11 48 31 102q85 198 274 294q107 54 231 60h19q148 0 260 -86l-51 -154q-10 -27 -38 -27h-3q-25 2 -30 29q-16 70 -59 99.5t-116 29.5h-19q-86 -4 -138 -45q-106 -82 -141 -239q-6 -24 -10 -52q-7 -42 -7 -78 q0 -72 26 -124q53 -100 139 -114q15 -2 30 -1q78 0 149.5 38t90.5 38t38 -3q2 -16 -1 -29t-22 -37t-41 -41q-121 -83 -290 -83t-264 94q-73 77 -73 200z" />
<glyph unicode="&#xaa;" d="M301 593q0 6 2 12l12 53q11 46 73 46h664q52 0 52 -33q0 -7 -1 -13l-12 -53q-11 -46 -73 -46h-664q-53 0 -53 34zM417 969q0 46 13 100q8 35 25 80.5t55 90t73 67t58 31.5q245 84 260 84h4q45 -2 76.5 -13t48 -18.5t26.5 -7.5q9 0 28 19q12 11 21 11q11 0 24 -5t13 -16 q0 -3 -1 -7l-118 -510q-8 -34 22.5 -46t24.5 -38t-37 -26h-160q-28 0 -23 22l6 28l-171 -58q-27 -8 -44 -8h-27q-101 5 -156 81q-40 57 -41 139zM579 1009q0 -50 17 -83q43 -85 132 -85q22 0 54.5 10.5t89.5 31.5l92 398q-16 20 -52.5 40t-67.5 21h-2q-11 0 -54 -15 t-62.5 -22t-29.5 -15q-47 -41 -71.5 -93.5t-27.5 -67.5l-5 -21q-13 -56 -13 -99z" />
<glyph unicode="&#xab;" horiz-adv-x="1074" d="M241 617q0 5 1 9q3 11 13 24q78 74 209 174t223 176q15 12 30 12t21 -8l31 -26q6 -8 6 -15q0 -13 -11 -21l-317 -313l176 -318q2 -7 1 -12q-3 -15 -20 -24l-40 -24q-10 -8 -25 -8t-23 12q-66 84 -135 172q-70 88 -134 176q-6 6 -6 14zM702 626q3 11 13 24q78 74 209 174 t223 176q15 12 30 12t21 -8l31 -26q6 -8 6 -15q0 -13 -11 -21l-317 -313l176 -318q2 -7 1 -12q-3 -15 -20 -24l-40 -24q-10 -8 -25 -8t-23 12q-66 84 -135 172q-70 88 -134 176q-9 9 -5 23z" />
<glyph unicode="&#xac;" d="M240 755l35 152h1018l-135 -586h-167l100 434h-851z" />
<glyph unicode="&#xad;" horiz-adv-x="680" d="M220 424q0 6 2 13l19 83q11 49 77 49h356q56 0 57 -36q0 -6 -2 -13l-19 -83q-11 -48 -76 -48h-358q-56 0 -56 35z" />
<glyph unicode="&#xae;" horiz-adv-x="1532" d="M162 529q0 85 21 179q73 315 350.5 539.5t598.5 224.5t469 -191.5t148 -394.5q0 -85 -22 -178q-73 -316 -350 -540t-598 -224t-469 191t-148 394zM296 554q0 -171 123.5 -330.5t387.5 -159.5t496 187.5t294 456.5q18 80 19 153q0 171 -124 331t-388 160t-496 -188 t-294 -456q-18 -77 -18 -147v-7zM507 286q0 3 1 7q5 23 37.5 33.5t39.5 41.5l154 667q7 31 -20.5 41.5t-22.5 34.5q6 24 32 24h2h354q65 0 130.5 -23t89.5 -91q9 -27 9 -59q0 -31 -9 -68q-17 -71 -70 -128q-43 -46 -105 -69.5t-89 -25.5l180 -340q9 -10 32 -11q29 -4 24 -25 v-2q-10 -24 -34 -24h-160q-14 0 -40 49.5t-58 114.5t-65.5 133t-53.5 103h-73l-69 -301q-7 -31 20.5 -41.5t22.5 -33.5q-6 -24 -31 -24h-2h-203q-23 0 -23 17zM808 735h124q39 0 81 11t76 39q54 43 71 115q5 21 5 41q0 43 -25 74q-37 46 -118 46h-3h-136z" />
<glyph unicode="&#xaf;" horiz-adv-x="1000" d="M478 1241q0 4 1 10l20 86q7 30 42 30h600q29 0 29 -21q0 -4 -1 -9l-20 -86q-7 -31 -42 -31h-600q-29 0 -29 21z" />
<glyph unicode="&#xb0;" horiz-adv-x="819" d="M337 1001q0 37 9 77q31 135 150 232t260 97q140 0 203.5 -82.5t63.5 -170.5q0 -36 -9 -76q-31 -135 -150.5 -232t-259.5 -97q-141 0 -204 82.5t-63 169.5zM473 1027q0 -55 38.5 -105t120.5 -50q81 0 155 59.5t94 146.5q6 26 6 50q0 55 -39 106t-120 51 q-82 0 -155.5 -60.5t-93.5 -146.5q-6 -27 -6 -51z" />
<glyph unicode="&#xb1;" d="M198 147q0 6 2 12l12 53q11 46 73 46h664q52 0 52 -33q0 -7 -1 -13l-12 -53q-11 -46 -73 -46h-664q-53 0 -53 34zM329 715q0 6 2 12l12 53q11 46 73 46h259l60 260q14 62 60 62h54q35 0 35 -36q0 -11 -3 -26l-60 -260h259q53 0 53 -34q0 -6 -2 -12l-12 -53 q-11 -46 -73 -46h-259l-60 -259q-14 -62 -60 -62h-54q-35 0 -35 36q0 11 3 26l60 259h-259q-53 0 -53 34z" />
<glyph unicode="&#xb2;" horiz-adv-x="880" d="M223 437l15 64q14 61 69 109q50 42 159 122q63 42 124.5 89t132 103.5t110 112.5t48.5 94q4 17 4 31q0 19 -6 36q-25 61 -94 84q-39 13 -80 13q-42 0 -81 -7q-91 -18 -164 -87q-23 -22 -42 -51h-39l24 101q14 20 26 34q47 48 118 84.5t162 48.5q36 4 71 4q113 0 203 -47 q95 -50 95 -150q0 -26 -6 -56l-1 -2q-21 -93 -100 -175.5t-178 -157t-199 -151.5t-142 -121h265q99 0 225 35l-27 -126q-65 -30 -122 -32t-103 -2h-467z" />
<glyph unicode="&#xb3;" horiz-adv-x="880" d="M247 472l25 129h37q35 -71 135 -90q36 -7 83 -8q46 0 102 22q84 33 126 95q23 35 31 68q7 32 3 60q-9 64 -74 110.5t-213 48.5l7 40q71 18 144.5 42.5t116 69.5t51.5 86q3 12 3 27q0 49 -37 89t-109 40q-6 0 -12 -1q-82 -4 -146 -56q-30 -24 -51 -63h-39l27 120 q89 67 171 92t153 25q197 -2 232 -131q5 -20 5 -39q0 -17 -4 -34q-21 -89 -152 -177q-27 -18 -40 -25q89 -40 117 -101t28 -110q0 -25 -5 -49q-2 -10 -6 -20q-49 -148 -242 -249q-103 -53 -240 -65q-23 -2 -43 -2q-110 0 -184 56z" />
<glyph unicode="&#xb4;" horiz-adv-x="1000" d="M508 1103q0 5 1 11q3 14 19 28l439 260q29 18 60 18q81 0 81 -63q0 -14 -4 -31q-15 -65 -81 -87q-441 -152 -446 -152q-22 -10 -33 -10q-36 0 -36 26z" />
<glyph unicode="&#xb5;" horiz-adv-x="1325" d="M71 -545q0 6 1 13l309 1336q-12 15 -42 29t-24 44q9 41 55 41q56 3 114 17q37 7 71.5 18t110.5 35l-130 -564q-17 -72 -17 -130q0 -80 32 -134q42 -73 127 -73q46 0 106 20l142 49l138 596q2 10 2 19q0 35 -38.5 49.5t-38.5 44.5q0 6 1 12q9 41 55 41q52 2 113 16 q71 15 190 55l-195 -847q-2 -10 -3 -19q0 -35 39.5 -48t39.5 -42q0 -6 -1 -12q-9 -41 -56 -41h-288l18 75l-187 -67q-72 -25 -136 -25q-18 0 -34 2q-79 9 -132 43q-63 39 -75 39l-3 -4v-20l-81 -554v-3q-9 -39 -54 -39h-92q-37 0 -37 28z" />
<glyph unicode="&#xb6;" horiz-adv-x="1266" d="M342 -289q0 6 2 14q10 44 76 66t81 87l205 889q-19 -6 -72 -6q-136 0 -196 83t-60 169q0 38 9 80q31 135 147.5 232.5t251.5 98.5h749q42 0 42 -31q0 -6 -2 -14q-10 -44 -76 -66t-81 -87l-311 -1348q-3 -14 -3 -26q0 -44 45.5 -62t45.5 -52q0 -6 -1 -13q-10 -45 -62 -45 h-748q-42 0 -42 31zM678 -214h210l353 1531h-210z" />
<glyph unicode="&#xb7;" horiz-adv-x="512" d="M272 585q0 16 4 33q13 57 64.5 99.5t114.5 42.5t90.5 -36.5t27.5 -73.5q0 -15 -3 -32q-13 -58 -65 -100t-115 -42t-90.5 36t-27.5 73z" />
<glyph unicode="&#xb8;" horiz-adv-x="1000" d="M288 -416l2 138q76 -70 112 -70q27 0 56 16q24 13 30 38q1 4 1 8q0 23 -28.5 58.5t-44.5 82.5q-8 23 -3 47q8 31 33 58q3 15 118 15q-27 -43 -30 -58q-6 -28 12 -49q23 -27 55 -60q37 -38 37 -94q0 -21 -5 -45l-2 -7q-28 -100 -174 -111h-11q-70 0 -158 33z" />
<glyph unicode="&#xb9;" horiz-adv-x="880" d="M436 457q0 3 1 7l1 3q5 22 46 33q44 12 52 46l166 717h-164l12 52l376 122l-206 -891q-8 -35 29.5 -46t31.5 -35v-1q-6 -27 -42 -27h-272q-31 0 -31 20z" />
<glyph unicode="&#xba;" d="M301 593q0 6 2 12l12 53q11 46 73 46h664q52 0 52 -33q0 -7 -1 -13l-12 -53q-11 -46 -73 -46h-664q-53 0 -53 34zM419 1006q0 37 9 77v2q35 149 171 252q18 14 46.5 23t71 23t81 26.5t62.5 12.5h3q136 -5 195.5 -89t59.5 -172q0 -37 -9 -76v-4q-32 -137 -152 -232.5 t-266 -99.5h-10q-135 0 -198.5 84.5t-63.5 172.5zM579 1008q0 -57 28.5 -121t100.5 -67h9q67 0 137 71.5t96 183.5q11 47 11 88q0 58 -29 121.5t-101 67.5h-7q-68 0 -138 -72t-96 -184q-11 -47 -11 -88z" />
<glyph unicode="&#xbb;" horiz-adv-x="1074" d="M165 293q0 3 1 6q1 5 7 12l322 318l-173 313q-6 6 -3 15q2 10 16 21l43 26q10 8 25 8t24 -12q56 -76 141 -176t129 -174q5 -13 3 -24q-4 -14 -17 -23q-104 -88 -214 -176l-215 -172q-14 -12 -29 -12t-21 8l-30 24q-9 7 -9 18zM625 293q0 3 1 6q1 5 7 12l322 318l-173 313 q-6 6 -3 15q2 10 16 21l43 26q10 8 25 8t24 -12q56 -76 141 -176t129 -174q3 -9 3 -16v-8q-4 -14 -17 -23q-104 -88 -214 -176l-215 -172q-14 -12 -29 -12t-21 8l-30 24q-9 7 -9 18z" />
<glyph unicode="&#xbc;" horiz-adv-x="1300" d="M154 -52l1296 1492h147l-1295 -1492h-148zM367 764q0 3 1 6v2q3 15 28 23t31 32l115 500h-94l9 36l218 85l-143 -621q-6 -24 15.5 -32t17.5 -25q-4 -19 -25 -19h-157q-16 0 -16 13zM873 182l15 64l367 409h101l-90 -390h93l-19 -83h-93l-27 -115q-5 -23 25 -31t27 -26v-2 q-4 -17 -25 -17h-195q-21 1 -17 17v2q5 18 39.5 26t39.5 31l27 115h-268zM982 265h178l63 271z" />
<glyph unicode="&#xbd;" horiz-adv-x="1300" d="M154 -52l1296 1492h147l-1295 -1492h-148zM367 764q0 3 1 6v2q3 15 28 23t31 32l115 500h-94l9 36l218 85l-143 -621q-6 -24 15.5 -32t17.5 -25q-4 -19 -25 -19h-157q-16 0 -16 13zM868 -9l10 45q10 43 44 75q30 29 94 85q37 29 74 62.5t79 72.5t66 78t31 66q6 26 0 46 q-13 42 -51 59q-22 9 -45 9q-24 0 -47 -5q-53 -13 -97 -61q-15 -16 -25 -35h-22l16 70q8 14 15 24q29 33 70.5 59t95.5 33q21 3 40 3q65 0 116 -33q50 -33 50 -98q0 -21 -5 -45l-1 -1q-15 -65 -62.5 -122.5t-106 -109.5t-118.5 -105.5t-86 -84.5h153q57 0 130 25l-20 -88 q-39 -21 -71 -22.5t-58 -1.5h-269z" />
<glyph unicode="&#xbe;" horiz-adv-x="1300" d="M154 -52l1296 1492h147l-1295 -1492h-148zM258 776l18 89h22q18 -49 74 -63q21 -5 48 -5t59 15q49 23 76 67q15 24 20 47q5 22 2 41q-4 45 -39.5 77.5t-120.5 33.5l5 28q42 12 84.5 29.5t68.5 49t32 59.5q2 8 3 17v7q0 32 -19.5 58.5t-60.5 26.5q-4 0 -7 -1 q-47 -3 -86 -39q-18 -17 -31 -43h-23l19 83q53 47 101 64t89 17q113 -1 130 -91q5 -26 -2 -51q-14 -62 -92 -123q-16 -13 -24 -18q50 -28 64 -68.5t14 -71.5q0 -20 -5 -40q-2 -7 -3 -15q-33 -103 -147 -173q-61 -37 -140 -45q-12 -1 -24 -1q-63 0 -105 39zM873 182l15 64 l367 409h101l-90 -390h93l-19 -83h-93l-27 -115q-5 -23 25 -31t27 -26v-2q-4 -17 -25 -17h-195q-21 1 -17 17v2q5 18 39.5 26t39.5 31l27 115h-268zM982 265h178l63 271z" />
<glyph unicode="&#xbf;" horiz-adv-x="784" d="M2 -293q0 35 9 77q38 177 243 284q39 20 49 26q63 35 83 64q22 28 42 97l44 172q13 55 31 89q25 39 63 40q36 1 41 -45q1 -9 1 -19v-4q1 -20 -9 -62l-73 -316q-148 -91 -210 -160q-57 -64 -82 -165q-11 -44 -11 -76v-5q0 -43 17 -73q26 -45 100 -45h3q65 0 104 40 q49 50 84 174q9 32 40 49q29 18 71 18h4q39 1 61 -19q19 -19 9 -57q-36 -142 -146 -224q-113 -84 -269 -84h-4q-165 0 -243 81q-52 56 -52 143zM478 731q0 14 4 31l19 82q24 106 159 106q115 0 115 -76q0 -14 -4 -30l-19 -82q-25 -107 -160 -107q-114 0 -114 76z" />
<glyph unicode="&#xc0;" horiz-adv-x="1593" d="M62 2q0 4 1 8q1 6 6 14q12 28 50 43t80 32q36 22 57 53l872 1295h97q25 -132 59 -303q35 -171 71 -352t71 -352t58 -288q6 -32 31 -52t45 -29q19 -11 34 -21q14 -10 15 -20q1 -5 1 -9q0 -5 -1 -8q-2 -7 -11 -20t-36 -13h-338q-18 0 -31 11q-12 11 -14 21t0 20q3 11 20 24 q17 14 30 22t18 16t7 20q3 12 1 27l-68 328h-547q-46 -71 -102 -157t-89 -138q-34 -52 -37 -61q-3 -10 -5 -17q-1 -7 0 -15q0 -8 5 -17t4 -20t-1 -16q-2 -7 -6 -13q-20 -35 -54 -35h-258q-35 0 -35 22zM718 590h445l-104 527q-61 -97 -161 -249q-99 -152 -180 -278z M968 1750q0 12 3 26q22 94 121 94q31 0 52 -18l319 -260q9 -14 5 -28q-9 -37 -51 -37q-11 0 -29 10q-5 0 -376 152q-44 17 -44 61z" />
<glyph unicode="&#xc1;" horiz-adv-x="1593" d="M62 2q0 4 1 8q1 6 6 14q12 28 50 43t80 32q36 22 57 53l872 1295h97q25 -132 59 -303q35 -171 71 -352t71 -352t58 -288q6 -32 31 -52t45 -29q19 -11 34 -21q14 -10 15 -20q1 -5 1 -9q0 -5 -1 -8q-2 -7 -11 -20t-36 -13h-338q-18 0 -31 11q-12 11 -14 21t0 20q3 11 20 24 q17 14 30 22t18 16t7 20q3 12 1 27l-68 328h-547q-46 -71 -102 -157t-89 -138q-34 -52 -37 -61q-3 -10 -5 -17q-1 -7 0 -15q0 -8 5 -17t4 -20t-1 -16q-2 -7 -6 -13q-20 -35 -54 -35h-258q-35 0 -35 22zM718 590h445l-104 527q-61 -97 -161 -249q-99 -152 -180 -278z M922 1564q3 14 19 28l439 260q29 18 60 18q81 0 81 -63q0 -14 -4 -31q-15 -65 -81 -87q-441 -152 -446 -152q-22 -10 -33 -10q-43 0 -35 37z" />
<glyph unicode="&#xc2;" horiz-adv-x="1593" d="M62 2q0 4 1 8q1 6 6 14q12 28 50 43t80 32q36 22 57 53l872 1295h97q25 -132 59 -303q35 -171 71 -352t71 -352t58 -288q6 -32 31 -52t45 -29q19 -11 34 -21q14 -10 15 -20q1 -5 1 -9q0 -5 -1 -8q-2 -7 -11 -20t-36 -13h-338q-18 0 -31 11q-12 11 -14 21t0 20q3 11 20 24 q17 14 30 22t18 16t7 20q3 12 1 27l-68 328h-547q-46 -71 -102 -157t-89 -138q-34 -52 -37 -61q-3 -10 -5 -17q-1 -7 0 -15q0 -8 5 -17t4 -20t-1 -16q-2 -7 -6 -13q-20 -35 -54 -35h-258q-35 0 -35 22zM718 590h445l-104 527q-61 -97 -161 -249q-99 -152 -180 -278z M857 1526l347 387h145l166 -387h-110l-173 199l-264 -199h-111z" />
<glyph unicode="&#xc3;" horiz-adv-x="1593" d="M62 2q0 4 1 8q1 6 6 14q12 28 50 43t80 32q36 22 57 53l872 1295h97q25 -132 59 -303q35 -171 71 -352t71 -352t58 -288q6 -32 31 -52t45 -29q19 -11 34 -21q14 -10 15 -20q1 -5 1 -9q0 -5 -1 -8q-2 -7 -11 -20t-36 -13h-338q-18 0 -31 11q-12 11 -14 21t0 20q3 11 20 24 q17 14 30 22t18 16t7 20q3 12 1 27l-68 328h-547q-46 -71 -102 -157t-89 -138q-34 -52 -37 -61q-3 -10 -5 -17q-1 -7 0 -15q0 -8 5 -17t4 -20t-1 -16q-2 -7 -6 -13q-20 -35 -54 -35h-258q-35 0 -35 22zM718 590h445l-104 527q-61 -97 -161 -249q-99 -152 -180 -278z M868 1627v3q5 21 35 63l80 117q61 90 156 90q94 0 170 -95q29 -39 65 -39q31 0 71 29q40 28 84 97q16 27 44 27q5 0 11 -1q28 -8 28 -27q0 -3 -1 -6l-2 -8q-4 -18 -10 -26q-69 -116 -128 -175q-60 -59 -118 -59q-90 0 -170 91q-31 39 -67 39q-27 0 -61 -23l-24 -17 q-44 -34 -86 -96q-17 -23 -45 -23q-37 9 -32 39z" />
<glyph unicode="&#xc4;" horiz-adv-x="1593" d="M62 2q0 4 1 8q1 6 6 14q12 28 50 43t80 32q36 22 57 53l872 1295h97q25 -132 59 -303q35 -171 71 -352t71 -352t58 -288q6 -32 31 -52t45 -29q19 -11 34 -21q14 -10 15 -20q1 -5 1 -9q0 -5 -1 -8q-2 -7 -11 -20t-36 -13h-338q-18 0 -31 11q-12 11 -14 21t0 20q3 11 20 24 q17 14 30 22t18 16t7 20q3 12 1 27l-68 328h-547q-46 -71 -102 -157t-89 -138q-34 -52 -37 -61q-3 -10 -5 -17q-1 -7 0 -15q0 -8 5 -17t4 -20t-1 -16q-2 -7 -6 -13q-20 -35 -54 -35h-258q-35 0 -35 22zM718 590h445l-104 527q-61 -97 -161 -249q-99 -152 -180 -278z M860 1696q0 20 6 44q30 130 165 130q110 0 110 -87q0 -19 -5 -43q-30 -131 -166 -131q-110 0 -110 87zM1330 1696q0 20 6 44q30 130 165 130q110 0 110 -87q0 -19 -5 -43q-30 -131 -166 -131q-110 0 -110 87z" />
<glyph unicode="&#xc5;" horiz-adv-x="1593" d="M62 2q0 4 1 8q1 6 6 14q12 28 50 43t80 32q36 22 57 53l872 1295h97q25 -132 59 -303q35 -171 71 -352t71 -352t58 -288q6 -32 31 -52t45 -29q19 -11 34 -21q14 -10 15 -20q1 -5 1 -9q0 -5 -1 -8q-2 -7 -11 -20t-36 -13h-338q-18 0 -31 11q-12 11 -14 21t0 20q3 11 20 24 q17 14 30 22t18 16t7 20q3 12 1 27l-68 328h-547q-46 -71 -102 -157t-89 -138q-34 -52 -37 -61q-3 -10 -5 -17q-1 -7 0 -15q0 -8 5 -17t4 -20t-1 -16q-2 -7 -6 -13q-20 -35 -54 -35h-258q-35 0 -35 22zM718 590h445l-104 527q-61 -97 -161 -249q-99 -152 -180 -278z M1015 1713q0 24 6 51q20 88 100 154q79 66 171 66t141 -66q34 -47 34 -104q0 -24 -6 -50q-21 -90 -99 -154q-79 -64 -171 -65q-92 1 -141 65q-35 45 -35 103zM1143 1721q0 -37 14 -65q22 -43 58 -43q35 0 67 36q41 55 52 107q5 22 6 44q-1 39 -16 76q-21 40 -56 40t-66 -37 q-38 -43 -52 -102l-3 -12q-4 -24 -4 -44z" />
<glyph unicode="&#xc6;" horiz-adv-x="1933" d="M-93 2l3 9q2 8 9 19q17 16 56 34l38 16t40 19q40 23 68 55l958 1169q-11 3 -48.5 15.5t-30.5 44.5q9 41 56 41h1080l-64 -277q-9 -41 -56 -41q-25 0 -47 50q-33 68 -57.5 101.5t-71.5 33.5h-403l-116 -503h204q46 0 78 51.5t76 51.5q37 0 37 -28q0 -6 -2 -13l-58 -254 q-9 -41 -55 -41q-43 0 -54 51t-58 51h-198l-126 -543h403q79 0 155 67t118 107q33 31 57 31q38 0 38 -28q0 -6 -2 -13q-3 -15 -9 -25l-140 -273h-939q-35 0 -35 28q0 6 2 13q9 38 63 55.5t66 69.5l74 323h-464q-58 -74 -126 -159.5t-136 -170.5q-11 -14 -22 -33 q-5 -9 -7 -18q-1 -4 0 -7q-2 -11 1 -19t3.5 -16t-0.5 -13q-1 -4 -8 -16q-28 -37 -59 -37h-257q-28 0 -34 22zM648 590h399l163 715q-99 -140 -281 -365.5t-281 -349.5z" />
<glyph unicode="&#xc7;" horiz-adv-x="1405" d="M205 508q0 90 24 193q79 345 365 555q285 209 614 209h3q117 -1 245 -27t241 -110l-77 -222q-16 -35 -53 -35h-4q-28 2 -38 41q-28 119 -124 174q-90 50 -206 50h-20q-259 -11 -449 -206q-174 -178 -224 -395q-6 -24 -10 -49q-10 -57 -10 -112v-10q0 -155 72 -286 q100 -182 340 -193q24 -1 44 -1q121 0 208 36q98 42 190 175q28 41 65 41q8 0 16 -2q29 -12 22 -42q-3 -11 -10 -24l-148 -251q-119 -45 -225 -59q-105 -14 -196 -15q-59 0 -114 7q-13 -23 -15 -33q-6 -28 12 -49q23 -27 55 -60q37 -38 37 -94q0 -21 -5 -45l-2 -7 q-28 -100 -174 -111h-11q-70 0 -158 33l2 138q76 -70 112 -70q27 0 56 16q24 13 30 38q1 4 1 9q0 23 -26 55q-31 38 -47 85q-8 23 -3 47q7 31 33 58q0 4 10 7q-178 46 -308 178q-140 143 -140 363z" />
<glyph unicode="&#xc8;" horiz-adv-x="1251" d="M158 8q0 6 2 13q9 37 63 55t66 70l256 1111q2 10 3 19q0 35 -37 50q-38 15 -38 45q0 6 1 12q9 41 56 41h953l-64 -277q-9 -41 -56 -41q-25 0 -47 50q-33 68 -58 102q-23 33 -69 33h-3h-402l-116 -503h204q46 0 78 52q31 51 74 51h2q37 0 37 -28q0 -6 -2 -13l-58 -254 q-9 -41 -55 -41q-43 0 -54 51t-58 51h-198l-126 -543h402q80 0 156 67q75 67 118 107q33 31 57 31q38 0 38 -28q0 -6 -2 -13q-3 -15 -9 -25l-140 -273h-939q-35 0 -35 28zM820 1750q0 12 3 26q22 94 121 94q31 0 52 -18l319 -260q9 -14 5 -28q-9 -37 -51 -37q-11 0 -29 10 q-5 0 -376 152q-44 17 -44 61z" />
<glyph unicode="&#xc9;" horiz-adv-x="1251" d="M158 8q0 6 2 13q9 37 63 55t66 70l256 1111q2 10 3 19q0 35 -37 50q-38 15 -38 45q0 6 1 12q9 41 56 41h953l-64 -277q-9 -41 -56 -41q-25 0 -47 50q-33 68 -58 102q-23 33 -69 33h-3h-402l-116 -503h204q46 0 78 52q31 51 74 51h2q37 0 37 -28q0 -6 -2 -13l-58 -254 q-9 -41 -55 -41q-43 0 -54 51t-58 51h-198l-126 -543h402q80 0 156 67q75 67 118 107q33 31 57 31q38 0 38 -28q0 -6 -2 -13q-3 -15 -9 -25l-140 -273h-939q-35 0 -35 28zM774 1564q3 14 19 28l439 260q29 18 60 18q81 0 81 -63q0 -14 -4 -31q-15 -65 -81 -87 q-441 -152 -446 -152q-22 -10 -33 -10q-43 0 -35 37z" />
<glyph unicode="&#xca;" horiz-adv-x="1251" d="M158 8q0 6 2 13q9 37 63 55t66 70l256 1111q2 10 3 19q0 35 -37 50q-38 15 -38 45q0 6 1 12q9 41 56 41h953l-64 -277q-9 -41 -56 -41q-25 0 -47 50q-33 68 -58 102q-23 33 -69 33h-3h-402l-116 -503h204q46 0 78 52q31 51 74 51h2q37 0 37 -28q0 -6 -2 -13l-58 -254 q-9 -41 -55 -41q-43 0 -54 51t-58 51h-198l-126 -543h402q80 0 156 67q75 67 118 107q33 31 57 31q38 0 38 -28q0 -6 -2 -13q-3 -15 -9 -25l-140 -273h-939q-35 0 -35 28zM709 1526l347 387h145l166 -387h-110l-173 199l-264 -199h-111z" />
<glyph unicode="&#xcb;" horiz-adv-x="1251" d="M158 8q0 6 2 13q9 37 63 55t66 70l256 1111q2 10 3 19q0 35 -37 50q-38 15 -38 45q0 6 1 12q9 41 56 41h953l-64 -277q-9 -41 -56 -41q-25 0 -47 50q-33 68 -58 102q-23 33 -69 33h-3h-402l-116 -503h204q46 0 78 52q31 51 74 51h2q37 0 37 -28q0 -6 -2 -13l-58 -254 q-9 -41 -55 -41q-43 0 -54 51t-58 51h-198l-126 -543h402q80 0 156 67q75 67 118 107q33 31 57 31q38 0 38 -28q0 -6 -2 -13q-3 -15 -9 -25l-140 -273h-939q-35 0 -35 28zM712 1696q0 20 6 44q30 130 165 130q110 0 110 -87q0 -19 -5 -43q-30 -131 -166 -131q-110 0 -110 87 zM1182 1696q0 20 6 44q30 130 165 130q110 0 110 -87q0 -19 -5 -43q-30 -131 -166 -131q-110 0 -110 87z" />
<glyph unicode="&#xcc;" horiz-adv-x="690" d="M158 8q0 6 2 13q9 37 63 55t66 70l256 1111q2 10 3 19q0 35 -37 50q-38 15 -38 45q0 6 1 12q9 41 56 41h338q38 0 38 -28q0 -6 -2 -13q-9 -39 -63 -57t-66 -69l-256 -1110q-3 -11 -3 -21q0 -36 37 -50q39 -15 38 -44q0 -5 -1 -11q-9 -41 -56 -41h-339q-37 0 -37 28z M504 1750q0 12 3 26q22 94 121 94q31 0 52 -18l319 -260q6 -10 6 -20q0 -4 -1 -8q-9 -37 -51 -37q-11 0 -29 10q-5 0 -376 152q-44 17 -44 61z" />
<glyph unicode="&#xcd;" horiz-adv-x="690" d="M158 8q0 6 2 13q9 37 63 55t66 70l256 1111q2 10 3 19q0 35 -37 50q-38 15 -38 45q0 6 1 12q9 41 56 41h338q38 0 38 -28q0 -6 -2 -13q-9 -39 -63 -57t-66 -69l-256 -1110q-3 -11 -3 -21q0 -36 37 -50q39 -15 38 -44q0 -5 -1 -11q-9 -41 -56 -41h-339q-37 0 -37 28z M458 1564q3 14 19 28l439 260q29 18 60 18q81 0 81 -63q0 -14 -4 -31q-15 -65 -81 -87q-441 -152 -446 -152q-22 -10 -33 -10q-43 0 -35 37z" />
<glyph unicode="&#xce;" horiz-adv-x="690" d="M158 8q0 6 2 13q9 37 63 55t66 70l256 1111q2 10 3 19q0 35 -37 50q-38 15 -38 45q0 6 1 12q9 41 56 41h338q38 0 38 -28q0 -6 -2 -13q-9 -39 -63 -57t-66 -69l-256 -1110q-3 -11 -3 -21q0 -36 37 -50q39 -15 38 -44q0 -5 -1 -11q-9 -41 -56 -41h-339q-37 0 -37 28z M393 1526l347 387h145l166 -387h-110l-173 199l-264 -199h-111z" />
<glyph unicode="&#xcf;" horiz-adv-x="690" d="M158 8q0 6 2 13q9 37 63 55t66 70l256 1111q2 10 3 19q0 35 -37 50q-38 15 -38 45q0 6 1 12q9 41 56 41h338q38 0 38 -28q0 -6 -2 -13q-9 -39 -63 -57t-66 -69l-256 -1110q-3 -11 -3 -21q0 -36 37 -50q39 -15 38 -44q0 -5 -1 -11q-9 -41 -56 -41h-339q-37 0 -37 28z M396 1696q0 20 6 44q30 130 165 130q110 0 110 -87q0 -19 -5 -43q-30 -131 -166 -131q-110 0 -110 87zM866 1696q0 20 6 44q30 130 165 130q110 0 110 -87q0 -19 -5 -43q-30 -131 -166 -131q-110 0 -110 87z" />
<glyph unicode="&#xd0;" horiz-adv-x="1585" d="M109 -1q0 5 2 12q9 40 63 58t66 70l122 526h-137q-38 0 -39 27q0 5 2 12l9 39q9 40 30 40h162l110 479q2 10 3 19q0 35 -37 49q-38 15 -38 45q0 6 1 12q9 41 56 41q41 -1 84 -1l315 6h28q141 0 296 -9q170 -10 303 -74t197 -196q40 -83 40 -203q0 -99 -27 -224 q-39 -169 -144 -318q-104 -149 -263 -254q-272 -178 -605 -182h-80q-58 0 -109 1h-117q-84 0 -126 3h-23q-39 0 -105 -6q-39 0 -39 28zM476 116q99 -20 210 -20q42 0 84 3q342 29 537 288q104 137 153 349l8 33q15 80 15 147v8q0 184 -107 277q-124 113 -371 113h-26 q-121 0 -231 -17l-118 -514h292q37 0 37 -28q0 -6 -1 -12l-9 -39q-9 -39 -54 -39h-292z" />
<glyph unicode="&#xd1;" horiz-adv-x="1644" d="M137 8q0 6 2 13q9 37 63 55t66 70l256 1111q2 10 3 19q0 35 -37 50q-38 15 -38 45q0 6 1 12q9 41 56 41h271l652 -1153l227 986q3 11 3 21q0 34 -36 48q-38 15 -38 45q0 6 1 12q9 41 55 41h255q38 0 38 -28q0 -6 -2 -13q-9 -39 -63 -57t-66 -69l-307 -1327l-206 53 l-654 1138l-225 -975q-2 -11 -3 -20q0 -36 37 -50q39 -15 38 -44q0 -5 -1 -11q-9 -41 -56 -41h-254q-38 0 -38 28zM909 1627v3q5 21 35 63l80 117q61 90 156 90q94 0 170 -95q29 -39 65 -39q31 0 71 29q40 28 84 97q16 27 44 27q5 0 11 -1q32 -9 27 -33l-2 -8 q-4 -18 -10 -26q-68 -116 -127 -175q-60 -59 -119 -59q-90 0 -170 91q-31 39 -67 39q-27 0 -61 -23l-24 -17q-44 -34 -86 -96q-17 -23 -45 -23q-37 9 -32 39z" />
<glyph unicode="&#xd2;" horiz-adv-x="1610" d="M180 489q0 85 22 180q4 18 10 37q92 348 354 552t605 208h10q334 0 517 -205q119 -134 119 -327q0 -82 -22 -174q-6 -28 -14 -56q-103 -351 -373 -546q-269 -195 -589 -213q-23 -1 -47 -1q-289 0 -465 199q-127 143 -127 346zM446 516q0 -148 66 -264q106 -184 336 -186 h5q225 0 417 194q193 197 249 436l1 6q22 100 22 193q0 132 -45 247q-78 196 -355 196q-292 -1 -452 -186t-221 -450q-23 -99 -23 -186zM968 1750q0 12 3 26q22 94 121 94q31 0 52 -18l319 -260q9 -14 5 -28q-9 -37 -51 -37q-11 0 -29 10q-5 0 -376 152q-44 17 -44 61z" />
<glyph unicode="&#xd3;" horiz-adv-x="1610" d="M180 489q0 85 22 180q4 18 10 37q92 348 354 552t605 208h10q334 0 517 -205q119 -134 119 -327q0 -82 -22 -174q-6 -28 -14 -56q-103 -351 -373 -546q-269 -195 -589 -213q-23 -1 -47 -1q-289 0 -465 199q-127 143 -127 346zM446 516q0 -148 66 -264q106 -184 336 -186 h5q225 0 417 194q193 197 249 436l1 6q22 100 22 193q0 132 -45 247q-78 196 -355 196q-292 -1 -452 -186t-221 -450q-23 -99 -23 -186zM922 1564q3 14 19 28l439 260q29 18 60 18q81 0 81 -63q0 -14 -4 -31q-15 -65 -81 -87q-441 -152 -446 -152q-22 -10 -33 -10 q-43 0 -35 37z" />
<glyph unicode="&#xd4;" horiz-adv-x="1610" d="M180 489q0 85 22 180q4 18 10 37q92 348 354 552t605 208h10q334 0 517 -205q119 -134 119 -327q0 -82 -22 -174q-6 -28 -14 -56q-103 -351 -373 -546q-269 -195 -589 -213q-23 -1 -47 -1q-289 0 -465 199q-127 143 -127 346zM446 516q0 -148 66 -264q106 -184 336 -186 h5q225 0 417 194q193 197 249 436l1 6q22 100 22 193q0 132 -45 247q-78 196 -355 196q-292 -1 -452 -186t-221 -450q-23 -99 -23 -186zM857 1526l347 387h145l166 -387h-110l-173 199l-264 -199h-111z" />
<glyph unicode="&#xd5;" horiz-adv-x="1610" d="M180 489q0 85 22 180q4 18 10 37q92 348 354 552t605 208h10q334 0 517 -205q119 -134 119 -327q0 -82 -22 -174q-6 -28 -14 -56q-103 -351 -373 -546q-269 -195 -589 -213q-23 -1 -47 -1q-289 0 -465 199q-127 143 -127 346zM446 516q0 -148 66 -264q106 -184 336 -186 h5q225 0 417 194q193 197 249 436l1 6q22 100 22 193q0 132 -45 247q-78 196 -355 196q-292 -1 -452 -186t-221 -450q-23 -99 -23 -186zM868 1627v3q5 21 35 63l80 117q61 90 156 90q94 0 170 -95q29 -39 65 -39q31 0 71 29q40 28 84 97q16 27 44 27q5 0 11 -1q32 -9 27 -33 l-2 -8q-4 -18 -10 -26q-69 -116 -128 -175q-60 -59 -118 -59q-90 0 -170 91q-31 39 -67 39q-27 0 -61 -23l-24 -17q-44 -34 -86 -96q-17 -23 -45 -23q-37 9 -32 39z" />
<glyph unicode="&#xd6;" horiz-adv-x="1610" d="M180 489q0 85 22 180q4 18 10 37q92 348 354 552t605 208h10q334 0 517 -205q119 -134 119 -327q0 -82 -22 -174q-6 -28 -14 -56q-103 -351 -373 -546q-269 -195 -589 -213q-23 -1 -47 -1q-289 0 -465 199q-127 143 -127 346zM446 516q0 -148 66 -264q106 -184 336 -186 h5q225 0 417 194q193 197 249 436l1 6q22 100 22 193q0 132 -45 247q-78 196 -355 196q-292 -1 -452 -186t-221 -450q-23 -99 -23 -186zM860 1696q0 20 6 44q30 130 165 130q110 0 110 -87q0 -19 -5 -43q-30 -131 -166 -131q-110 0 -110 87zM1330 1696q0 20 6 44 q30 130 165 130q110 0 110 -87q0 -19 -5 -43q-30 -131 -166 -131q-110 0 -110 87z" />
<glyph unicode="&#xd7;" d="M338 394q0 25 36 54l226 183l-141 184q-16 20 -15 38q0 21 21 39l47 38q17 14 33 14q22 0 41 -26l142 -183l225 183q31 25 52 25q16 0 26 -14l30 -37q8 -10 8 -22q0 -25 -38 -55l-225 -183l141 -183q16 -20 15 -38q0 -21 -21 -39l-47 -38q-17 -14 -33 -14q-22 0 -41 26 l-141 183l-225 -183q-31 -25 -53 -25q-16 0 -27 13l-28 38q-8 11 -8 22z" />
<glyph unicode="&#xd8;" horiz-adv-x="1610" d="M87 15q0 4 1 8q3 14 18 26l171 132q-96 131 -96 308q0 85 21 180q4 18 10 37q92 348 354 552t605 208h10q322 0 504 -191l216 168q17 12 33 12q18 0 30 -13l26 -38q8 -8 8 -19q0 -3 -1 -7q-3 -13 -19 -26l-222 -172q60 -108 61 -246q0 -82 -22 -174q-6 -28 -14 -56 q-103 -351 -373 -546q-269 -195 -589 -213q-23 -1 -47 -1q-250 0 -416 149l-171 -133q-16 -13 -35 -13q-18 0 -30 15l-26 36q-6 8 -7 17zM447 518q0 -98 29 -182l1024 796q-2 5 -3 10q-78 196 -355 196q-292 -1 -452 -186t-221 -450q-22 -97 -22 -184zM528 227 q105 -159 320 -161h5q225 0 417 194q193 197 249 436l1 6q22 100 22 192q0 58 -9 113z" />
<glyph unicode="&#xd9;" horiz-adv-x="1554" d="M333 312q0 117 37 276l154 670q2 10 3 19q0 35 -37 49q-38 15 -38 45q0 6 1 12q9 41 56 41h339q37 0 37 -28q0 -6 -2 -13q-9 -39 -61 -55q-53 -16 -65 -68l-125 -539q-35 -153 -52 -269q-7 -50 -7 -93q0 -56 13 -101q20 -76 89 -114t213 -38q247 0 379 195 q99 142 163 420l124 536q2 10 3 19q0 35 -37 50q-38 15 -38 45q0 6 1 12q9 41 56 41h255q37 0 37 -28q0 -6 -2 -13q-9 -39 -63 -57t-65 -69l-154 -669q-36 -151 -92 -277t-151 -214q-171 -156 -454 -156h-10q-169 0 -283 33q-118 34 -174 124q-50 78 -50 214zM956 1750 q0 12 3 26q22 94 121 94q31 0 52 -18l319 -260q9 -14 5 -28q-9 -37 -51 -37q-11 0 -29 10q-5 0 -376 152q-44 17 -44 61z" />
<glyph unicode="&#xda;" horiz-adv-x="1554" d="M333 312q0 117 37 276l154 670q2 10 3 19q0 35 -37 49q-38 15 -38 45q0 6 1 12q9 41 56 41h339q37 0 37 -28q0 -6 -2 -13q-9 -39 -61 -55q-53 -16 -65 -68l-125 -539q-35 -153 -52 -269q-7 -50 -7 -93q0 -56 13 -101q20 -76 89 -114t213 -38q247 0 379 195 q99 142 163 420l124 536q2 10 3 19q0 35 -37 50q-38 15 -38 45q0 6 1 12q9 41 56 41h255q37 0 37 -28q0 -6 -2 -13q-9 -39 -63 -57t-65 -69l-154 -669q-36 -151 -92 -277t-151 -214q-171 -156 -454 -156h-10q-169 0 -283 33q-118 34 -174 124q-50 78 -50 214zM910 1564 q3 14 19 28l439 260q29 18 60 18q81 0 81 -63q0 -14 -4 -31q-15 -65 -81 -87q-441 -152 -446 -152q-22 -10 -33 -10q-43 0 -35 37z" />
<glyph unicode="&#xdb;" horiz-adv-x="1554" d="M333 312q0 117 37 276l154 670q2 10 3 19q0 35 -37 49q-38 15 -38 45q0 6 1 12q9 41 56 41h339q37 0 37 -28q0 -6 -2 -13q-9 -39 -61 -55q-53 -16 -65 -68l-125 -539q-35 -153 -52 -269q-7 -50 -7 -93q0 -56 13 -101q20 -76 89 -114t213 -38q247 0 379 195 q99 142 163 420l124 536q2 10 3 19q0 35 -37 50q-38 15 -38 45q0 6 1 12q9 41 56 41h255q37 0 37 -28q0 -6 -2 -13q-9 -39 -63 -57t-65 -69l-154 -669q-36 -151 -92 -277t-151 -214q-171 -156 -454 -156h-10q-169 0 -283 33q-118 34 -174 124q-50 78 -50 214zM845 1526 l347 387h145l166 -387h-110l-173 199l-264 -199h-111z" />
<glyph unicode="&#xdc;" horiz-adv-x="1554" d="M333 312q0 117 37 276l154 670q2 10 3 19q0 35 -37 49q-38 15 -38 45q0 6 1 12q9 41 56 41h339q37 0 37 -28q0 -6 -2 -13q-9 -39 -61 -55q-53 -16 -65 -68l-125 -539q-35 -153 -52 -269q-7 -50 -7 -93q0 -56 13 -101q20 -76 89 -114t213 -38q247 0 379 195 q99 142 163 420l124 536q2 10 3 19q0 35 -37 50q-38 15 -38 45q0 6 1 12q9 41 56 41h255q37 0 37 -28q0 -6 -2 -13q-9 -39 -63 -57t-65 -69l-154 -669q-36 -151 -92 -277t-151 -214q-171 -156 -454 -156h-10q-169 0 -283 33q-118 34 -174 124q-50 78 -50 214zM848 1696 q0 20 6 44q30 130 165 130q110 0 110 -87q0 -19 -5 -43q-30 -131 -166 -131q-110 0 -110 87zM1318 1696q0 20 6 44q30 130 165 130q110 0 110 -87q0 -19 -5 -43q-30 -131 -166 -131q-110 0 -110 87z" />
<glyph unicode="&#xdd;" horiz-adv-x="1366" d="M368 1387q0 4 1 7l1 5q10 25 41 25h339q19 0 32 -10q12 -10 18 -22q4 -10 2 -19q-3 -13 -17 -26q-9 -9 -19 -17t-13 -17l-1 -5q-4 -17 5 -36l199 -499l321 360q36 41 47 70q2 3 2 7q2 9 2 20q0 21 -7 49l-23 86l179 71q14 5 26 5q28 0 39 -27l38 -102q4 -12 4 -23 q0 -13 -2 -23q-9 -41 -57 -81q-65 -55 -144 -140l-355 -388q-22 -25 -38 -71t-25 -89l-81 -351q-2 -11 -3 -20q0 -36 37 -50q39 -15 38 -44q0 -5 -1 -11q-9 -41 -56 -41h-339q-38 0 -38 28q0 6 2 13q9 37 63 55t66 70l98 427q5 23 6 45q-1 27 -10 51l-214 580q-13 30 -55 60 q-23 13 -46 23q-24 10 -40 21q-13 8 -19 20q-3 7 -3 14zM757 1564q3 14 19 28l439 260q29 18 60 18q81 0 81 -63q0 -14 -4 -31q-15 -65 -81 -87q-441 -152 -446 -152q-22 -10 -33 -10q-43 0 -35 37z" />
<glyph unicode="&#xde;" horiz-adv-x="1151" d="M74 8q0 6 2 13q9 38 63 55.5t66 69.5l256 1111q2 10 3 19q0 35 -37.5 50t-37.5 45q0 6 1 12q9 41 56 41h338q38 0 38 -28q0 -6 -2 -13q-9 -39 -63 -57t-66 -69l-34 -149h285q108 0 217.5 -38.5t149.5 -151.5q15 -45 15 -99q0 -52 -14 -113q-29 -118 -117 -213 q-77 -82 -192.5 -122t-202.5 -40h-321l-42 -185q-2 -11 -3 -20q0 -36 37.5 -50t37.5 -43q0 -6 -1 -12q-9 -41 -56 -41h-339q-37 0 -37 28zM503 441h186q65 0 134.5 18.5t127.5 65.5q90 71 118 191q7 35 8 66q0 73 -41 125q-63 78 -202 78h-206z" />
<glyph unicode="&#xdf;" horiz-adv-x="1269" d="M110 8q0 6 2 13q9 38 63 55.5t66 69.5l203 881q21 92 65 180.5t118 154.5q137 124 296 124q35 0 71 -6q179 -33 228 -208q10 -38 10 -74q0 -29 -7 -58q-23 -100 -128 -190q-70 -60 -140.5 -102.5t-95.5 -99.5q-10 -21 -14 -37q-3 -12 -3 -23q0 -34 30 -50q60 -34 147 -55 q125 -29 214.5 -75.5t89.5 -157.5q0 -32 -6 -69l-3 -12q-18 -79 -97 -156q-86 -86 -221 -129q-83 -26 -176 -29h-28q-126 0 -247 37l-4 30v-1q-9 -41 -56 -41h-339q-38 0 -38 28zM469 126q0 -36 37 -49q24 -10 33 -25l-23 173l7 23q10 34 51 34h5q24 -5 33 -37 q22 -94 74 -131.5t144 -40.5h12q66 0 153 31q85 31 107 112l1 6q5 20 5 37q0 62 -63 81q-99 30 -173 53q-97 28 -173 90q-59 47 -59 127q0 29 7 62l1 3q25 107 106.5 160.5t157.5 111.5q73 55 106 148q6 19 11 38q6 27 6 52q0 36 -14 66q-27 56 -112 65q-11 1 -22 1 q-68 0 -116 -49q-41 -42 -60.5 -108t-35.5 -133l-203 -881q-2 -11 -3 -20z" />
<glyph unicode="&#xe0;" horiz-adv-x="1155" d="M145 290q0 69 19 150q12 52 38 122t84 138t110 100q53 34 87 48q372 128 394 128h6q67 -3 116 -20q48 -16 73 -28t40 -12q14 0 42 29q17 17 33 17q15 0 37 -8q17 -6 18 -24q0 -5 -2 -10l-178 -774q-2 -11 -3 -20q0 -36 37 -50q38 -15 38 -44q0 -6 -1 -12q-9 -40 -56 -40 h-243q-42 0 -34 33l10 43l-260 -88q-40 -13 -66 -13h-42q-152 8 -236 124q-61 86 -61 211zM389 350q0 -75 26 -126q65 -129 200 -129q34 0 83 16t135 47l140 604q-26 30 -81 60t-101 32h-3q-17 0 -82 -23t-96 -33q-30 -10 -43 -23q-72 -61 -109 -141q-36 -80 -42 -102 l-8 -32q-19 -81 -19 -144v-6zM625 1300q0 12 3 26q22 94 121 94q31 0 52 -18l319 -260q9 -14 5 -28q-9 -37 -51 -37q-11 0 -29 10q-5 0 -376 152q-44 17 -44 61z" />
<glyph unicode="&#xe1;" horiz-adv-x="1155" d="M145 290q0 69 19 150q12 52 38 122t84 138t110 100q53 34 87 48q372 128 394 128h6q67 -3 116 -20q48 -16 73 -28t40 -12q14 0 42 29q17 17 33 17q15 0 37 -8q17 -6 18 -24q0 -5 -2 -10l-178 -774q-2 -11 -3 -20q0 -36 37 -50q38 -15 38 -44q0 -6 -1 -12q-9 -40 -56 -40 h-243q-42 0 -34 33l10 43l-260 -88q-40 -13 -66 -13h-42q-152 8 -236 124q-61 86 -61 211zM389 350q0 -75 26 -126q65 -129 200 -129q34 0 83 16t135 47l140 604q-26 30 -81 60t-101 32h-3q-17 0 -82 -23t-96 -33q-30 -10 -43 -23q-72 -61 -109 -141q-36 -80 -42 -102 l-8 -32q-19 -81 -19 -144v-6zM579 1114q3 14 19 28l439 260q29 18 60 18q81 0 81 -63q0 -14 -4 -31q-15 -65 -81 -87q-441 -152 -446 -152q-22 -10 -33 -10q-43 0 -35 37z" />
<glyph unicode="&#xe2;" horiz-adv-x="1155" d="M145 290q0 69 19 150q12 52 38 122t84 138t110 100q53 34 87 48q372 128 394 128h6q67 -3 116 -20q48 -16 73 -28t40 -12q14 0 42 29q17 17 33 17q15 0 37 -8q17 -6 18 -24q0 -5 -2 -10l-178 -774q-2 -11 -3 -20q0 -36 37 -50q38 -15 38 -44q0 -6 -1 -12q-9 -40 -56 -40 h-243q-42 0 -34 33l10 43l-260 -88q-40 -13 -66 -13h-42q-152 8 -236 124q-61 86 -61 211zM389 350q0 -75 26 -126q65 -129 200 -129q34 0 83 16t135 47l140 604q-26 30 -81 60t-101 32h-3q-17 0 -82 -23t-96 -33q-30 -10 -43 -23q-72 -61 -109 -141q-36 -80 -42 -102 l-8 -32q-19 -81 -19 -144v-6zM514 1076l347 387h145l166 -387h-110l-173 199l-264 -199h-111z" />
<glyph unicode="&#xe3;" horiz-adv-x="1155" d="M145 290q0 69 19 150q12 52 38 122t84 138t110 100q53 34 87 48q372 128 394 128h6q67 -3 116 -20q48 -16 73 -28t40 -12q14 0 42 29q17 17 33 17q15 0 37 -8q17 -6 18 -24q0 -5 -2 -10l-178 -774q-2 -11 -3 -20q0 -36 37 -50q38 -15 38 -44q0 -6 -1 -12q-9 -40 -56 -40 h-243q-42 0 -34 33l10 43l-260 -88q-40 -13 -66 -13h-42q-152 8 -236 124q-61 86 -61 211zM389 350q0 -75 26 -126q65 -129 200 -129q34 0 83 16t135 47l140 604q-26 30 -81 60t-101 32h-3q-17 0 -82 -23t-96 -33q-30 -10 -43 -23q-72 -61 -109 -141q-36 -80 -42 -102 l-8 -32q-19 -81 -19 -144v-6zM525 1177v3q5 21 35 63l80 117q61 90 156 90q94 0 170 -95q29 -39 65 -39q31 0 72 29q40 28 83 97q16 27 44 27q5 0 11 -1q28 -8 28 -27q0 -3 -1 -6l-2 -8q-4 -18 -10 -26q-68 -116 -127 -175q-60 -59 -119 -59q-90 0 -170 91q-31 39 -67 39 q-27 0 -61 -23l-24 -17q-44 -34 -86 -96q-17 -23 -45 -23q-37 9 -32 39z" />
<glyph unicode="&#xe4;" horiz-adv-x="1155" d="M145 290q0 69 19 150q12 52 38 122t84 138t110 100q53 34 87 48q372 128 394 128h6q67 -3 116 -20q48 -16 73 -28t40 -12q14 0 42 29q17 17 33 17q15 0 37 -8q17 -6 18 -24q0 -5 -2 -10l-178 -774q-2 -11 -3 -20q0 -36 37 -50q38 -15 38 -44q0 -6 -1 -12q-9 -40 -56 -40 h-243q-42 0 -34 33l10 43l-260 -88q-40 -13 -66 -13h-42q-152 8 -236 124q-61 86 -61 211zM389 350q0 -75 26 -126q65 -129 200 -129q34 0 83 16t135 47l140 604q-26 30 -81 60t-101 32h-3q-17 0 -82 -23t-96 -33q-30 -10 -43 -23q-72 -61 -109 -141q-36 -80 -42 -102 l-8 -32q-19 -81 -19 -144v-6zM517 1246q0 20 6 44q30 130 165 130q110 0 110 -87q0 -19 -5 -43q-30 -131 -165 -131q-110 0 -111 87zM987 1246q0 20 6 44q30 130 165 130q110 0 110 -87q0 -19 -5 -43q-30 -131 -165 -131q-110 0 -111 87z" />
<glyph unicode="&#xe5;" horiz-adv-x="1155" d="M145 290q0 69 19 150q12 52 38 122t84 138t110 100q53 34 87 48q372 128 394 128h6q67 -3 116 -20q48 -16 73 -28t40 -12q14 0 42 29q17 17 33 17q15 0 37 -8q17 -6 18 -24q0 -5 -2 -10l-178 -774q-2 -11 -3 -20q0 -36 37 -50q38 -15 38 -44q0 -6 -1 -12q-9 -40 -56 -40 h-243q-42 0 -34 33l10 43l-260 -88q-40 -13 -66 -13h-42q-152 8 -236 124q-61 86 -61 211zM389 350q0 -75 26 -126q65 -129 200 -129q34 0 83 16t135 47l140 604q-26 30 -81 60t-101 32h-3q-17 0 -82 -23t-96 -33q-30 -10 -43 -23q-72 -61 -109 -141q-36 -80 -42 -102 l-8 -32q-19 -81 -19 -144v-6zM672 1261q0 25 6 53q19 88 99 154q79 66 172 66t142 -66q34 -46 34 -103q0 -25 -7 -51q-20 -90 -98 -154q-79 -64 -172 -65q-93 1 -142 65q-34 44 -34 101zM800 1271q0 -37 14 -65q22 -43 58 -43q35 0 67 36q41 55 53 107q5 22 5 44 q-1 39 -16 76q-21 40 -56 40t-66 -37q-38 -43 -52 -102l-2 -12q-4 -24 -5 -44z" />
<glyph unicode="&#xe6;" horiz-adv-x="1762" d="M144 288q0 34 5 70q6 42 16 89q11 46 37 115.5t83.5 137t110.5 101t87 47.5q88 30 175.5 60t143 49t75.5 19h6q67 -3 156 -34q102 -41 145 -65q137 101 337 103h4q209 0 277.5 -99.5t68.5 -207.5q0 -57 -15 -122q-9 -41 -19 -67t-70 -26h-613q-10 -48 -10 -91 q0 -81 42.5 -164t146.5 -105q30 -7 63 -7q89 0 179 43t112 43q21 0 28 -9t3 -24q-3 -15 -27 -46t-47 -48q-139 -101 -337 -101q-260 2 -355 149l-402 -130q-40 -13 -66 -13h-42q-152 8 -234 122q-64 91 -64 211zM390 356q0 -82 36 -154t122 -97q32 -10 55 -10t38.5 1.5 t42 10t79.5 27t70 24.5l140 604q-25 30 -80.5 60t-101.5 32h-3q-15 0 -42.5 -9.5t-66 -23t-68.5 -24t-44 -22.5q-72 -62 -109 -141.5t-47 -123.5q-10 -45 -14 -68q-7 -46 -7 -86zM1181 571h477q10 43 10 85q0 53 -22.5 124.5t-147.5 71.5h-11q-126 -4 -203.5 -94.5 t-102.5 -186.5z" />
<glyph unicode="&#xe7;" horiz-adv-x="925" d="M164 300q0 67 18 146q13 56 35 119q98 230 319 342q125 63 268 69h22q172 0 303 -99l-59 -180q-12 -31 -44 -31h-3q-29 2 -35 34q-18 82 -69 116q-50 34 -134 34h-23q-100 -5 -160 -53q-123 -95 -165 -278q-6 -28 -11 -60q-8 -48 -8 -91q0 -84 31 -144q61 -116 160 -132 q17 -2 35 -2q91 0 175 44t105 45q22 0 43 -4q3 -19 0 -33q-3 -15 -26 -43q-22 -28 -48 -48q-141 -96 -337 -96q-14 0 -28 1q-16 -27 -19 -39q-6 -28 12 -49q23 -27 55 -60q37 -38 37 -94q0 -21 -5 -45l-2 -7q-28 -100 -174 -111h-11q-70 0 -158 33l2 138q76 -70 112 -70 q27 0 56 16q24 13 30 38q1 4 1 9q0 23 -26 55q-31 38 -47 85q-8 23 -3 47q7 31 33 58q1 4 12 8q-110 24 -183 96q-86 90 -86 236z" />
<glyph unicode="&#xe8;" horiz-adv-x="1004" d="M149 317q0 59 15 124q12 54 35 112q73 191 226 308t359 119h4q210 0 293 -120q53 -77 53 -182q0 -61 -15 -127q-10 -41 -19 -67t-71 -26h-612q-10 -50 -11 -95q0 -79 33 -143q51 -100 157 -122q30 -7 63 -7q88 0 178 43t110 43q22 -1 30 -9t4 -23q-4 -16 -23 -43 q-20 -27 -31 -36q-10 -9 -19 -16q-140 -101 -339 -101q-276 2 -372 176q-48 86 -48 192zM444 571h476q10 42 10 84q0 53 -17 105q-29 92 -152 92h-11q-126 -4 -203 -94t-103 -187zM557 1300q0 12 3 26q22 94 121 94q31 0 52 -18l319 -260q9 -14 5 -28q-9 -37 -51 -37 q-11 0 -29 10q-5 0 -376 152q-44 17 -44 61z" />
<glyph unicode="&#xe9;" horiz-adv-x="1004" d="M149 317q0 59 15 124q12 54 35 112q73 191 226 308t359 119h4q210 0 293 -120q53 -77 53 -182q0 -61 -15 -127q-10 -41 -19 -67t-71 -26h-612q-10 -50 -11 -95q0 -79 33 -143q51 -100 157 -122q30 -7 63 -7q88 0 178 43t110 43q22 -1 30 -9t4 -23q-4 -16 -23 -43 q-20 -27 -31 -36q-10 -9 -19 -16q-140 -101 -339 -101q-276 2 -372 176q-48 86 -48 192zM444 571h476q10 42 10 84q0 53 -17 105q-29 92 -152 92h-11q-126 -4 -203 -94t-103 -187zM511 1114q3 14 19 28l439 260q29 18 60 18q81 0 81 -63q0 -14 -4 -31q-15 -65 -81 -87 q-441 -152 -446 -152q-22 -10 -33 -10q-43 0 -35 37z" />
<glyph unicode="&#xea;" horiz-adv-x="1004" d="M149 317q0 59 15 124q12 54 35 112q73 191 226 308t359 119h4q210 0 293 -120q53 -77 53 -182q0 -61 -15 -127q-10 -41 -19 -67t-71 -26h-612q-10 -50 -11 -95q0 -79 33 -143q51 -100 157 -122q30 -7 63 -7q88 0 178 43t110 43q22 -1 30 -9t4 -23q-4 -16 -23 -43 q-20 -27 -31 -36q-10 -9 -19 -16q-140 -101 -339 -101q-276 2 -372 176q-48 86 -48 192zM444 571h476q10 42 10 84q0 53 -17 105q-29 92 -152 92h-11q-126 -4 -203 -94t-103 -187zM446 1076l347 387h145l166 -387h-110l-173 199l-264 -199h-111z" />
<glyph unicode="&#xeb;" horiz-adv-x="1004" d="M149 317q0 59 15 124q12 54 35 112q73 191 226 308t359 119h4q210 0 293 -120q53 -77 53 -182q0 -61 -15 -127q-10 -41 -19 -67t-71 -26h-612q-10 -50 -11 -95q0 -79 33 -143q51 -100 157 -122q30 -7 63 -7q88 0 178 43t110 43q22 -1 30 -9t4 -23q-4 -16 -23 -43 q-20 -27 -31 -36q-10 -9 -19 -16q-140 -101 -339 -101q-276 2 -372 176q-48 86 -48 192zM444 571h476q10 42 10 84q0 53 -17 105q-29 92 -152 92h-11q-126 -4 -203 -94t-103 -187zM449 1246q0 20 6 44q30 130 165 130q110 0 110 -87q0 -19 -5 -43q-30 -131 -165 -131 q-110 0 -111 87zM919 1246q0 20 6 44q30 130 165 130q110 0 110 -87q0 -19 -5 -43q-30 -131 -165 -131q-110 0 -111 87z" />
<glyph unicode="&#xec;" horiz-adv-x="593" d="M115 8q0 6 2 12q9 38 63 56t66 70l147 640q2 10 3 19q0 35 -37 49q-38 15 -38 45q0 6 1 12q9 41 55 41q64 3 129 20q66 17 172 50l-202 -876q-2 -11 -3 -20q0 -36 37 -50q38 -15 38 -44q0 -6 -1 -12q-9 -40 -55 -40h-339q-38 0 -38 28zM357 1300q0 12 3 26q22 94 121 94 q31 0 52 -18l319 -260q6 -10 6 -20q0 -4 -1 -8q-9 -37 -51 -37q-11 0 -29 10q-5 0 -376 152q-44 17 -44 61z" />
<glyph unicode="&#xed;" horiz-adv-x="593" d="M115 8q0 6 2 12q9 38 63 56t66 70l147 640q2 10 3 19q0 35 -37 49q-38 15 -38 45q0 6 1 12q9 41 55 41q64 3 129 20q66 17 172 50l-202 -876q-2 -11 -3 -20q0 -36 37 -50q38 -15 38 -44q0 -6 -1 -12q-9 -40 -55 -40h-339q-38 0 -38 28zM311 1114q3 14 19 28l439 260 q29 18 60 18q81 0 81 -63q0 -14 -4 -31q-15 -65 -81 -87q-441 -152 -446 -152q-22 -10 -33 -10q-43 0 -35 37z" />
<glyph unicode="&#xee;" horiz-adv-x="593" d="M115 8q0 6 2 12q9 38 63 56t66 70l147 640q2 10 3 19q0 35 -37 49q-38 15 -38 45q0 6 1 12q9 41 55 41q64 3 129 20q66 17 172 50l-202 -876q-2 -11 -3 -20q0 -36 37 -50q38 -15 38 -44q0 -6 -1 -12q-9 -40 -55 -40h-339q-38 0 -38 28zM246 1076l347 387h145l166 -387 h-110l-173 199l-264 -199h-111z" />
<glyph unicode="&#xef;" horiz-adv-x="593" d="M115 8q0 6 2 12q9 38 63 56t66 70l147 640q2 10 3 19q0 35 -37 49q-38 15 -38 45q0 6 1 12q9 41 55 41q64 3 129 20q66 17 172 50l-202 -876q-2 -11 -3 -20q0 -36 37 -50q38 -15 38 -44q0 -6 -1 -12q-9 -40 -55 -40h-339q-38 0 -38 28zM249 1246q0 20 6 44 q30 130 165 130q110 0 110 -87q0 -19 -5 -43q-30 -131 -165 -131q-110 0 -111 87zM719 1246q0 20 6 44q30 130 165 130q110 0 110 -87q0 -19 -5 -43q-30 -131 -165 -131q-110 0 -111 87z" />
<glyph unicode="&#xf0;" horiz-adv-x="1105" d="M159 336q0 58 15 122v3q54 231 262 389q28 21 71.5 35t123.5 43l105 35q60 20 96 20h4q121 -5 151 -25q-8 26 -38 101t-64 123q-130 -66 -325 -131q-12 29 -18.5 44t-18.5 48q173 62 296 125q-55 63 -163 129q-27 18 -23 38q2 8 9 15q10 12 27 34q24 30 57 30q15 0 31 -8 q132 -91 204 -162q126 72 280 186q23 -32 31.5 -45t26.5 -37q-145 -115 -263 -183q123 -142 162.5 -289.5t39.5 -257.5q0 -120 -31 -257l-1 -6q-49 -211 -229 -357q-185 -152 -406 -158h-13q-207 0 -320 153q-79 108 -79 243zM404 338q0 -89 32 -162q53 -121 163 -126h12 q102 0 202 105q112 116 153 291q17 73 17 138q0 88 -42.5 186t-152.5 103h-11q-103 0 -204 -105q-112 -117 -152 -290l-1 -4q-16 -68 -16 -129v-7z" />
<glyph unicode="&#xf1;" horiz-adv-x="1191" d="M85 8q0 6 2 12q9 38 63 56t66 70l147 640q2 10 3 19q0 35 -37 49q-38 15 -38 45q0 6 1 12q9 41 55 41q64 3 129 20q66 17 172 50l-32 -137q22 7 68 23t118 40q73 24 131 28q60 6 74 6q94 0 162 -63q63 -59 63 -194q0 -92 -29 -219l-83 -360q-2 -11 -3 -20q0 -36 37 -50 q38 -15 38 -44q0 -6 -1 -12q-9 -40 -55 -40h-243q-42 0 -34 33l114 493q21 90 21 157q0 90 -38 138q-39 50 -112 50q-43 -1 -83 -13q-39 -12 -75 -24q-37 -12 -64 -23q-25 -8 -30 -10l-146 -635q-2 -11 -3 -20q0 -36 37 -50q38 -15 38 -44q0 -6 -1 -12q-9 -40 -55 -40h-339 q-38 0 -38 28zM564 1177v3q5 21 35 63l80 117q61 90 156 90q94 0 170 -95q29 -39 65 -39q31 0 72 29q40 28 83 97q16 27 44 27q5 0 11 -1q28 -8 28 -27q0 -3 -1 -6l-2 -8q-4 -18 -10 -26q-69 -116 -128 -175q-60 -59 -118 -59q-90 0 -170 91q-31 39 -67 39q-27 0 -61 -23 l-24 -17q-44 -34 -86 -96q-17 -23 -45 -23q-37 9 -32 39z" />
<glyph unicode="&#xf2;" horiz-adv-x="1107" d="M155 342q0 59 14 120v3q53 226 259 381q28 21 71 35q43 13 107 35t123 41q58 19 95 19h4q205 -8 312 -157q75 -105 75 -238q0 -55 -13 -116l-1 -6q-48 -207 -231 -353t-402 -151h-16q-204 1 -318 151q-79 105 -79 236zM399 347q0 -87 31 -157q54 -122 165 -127h13 q103 1 208 109t144 278q16 71 16 133q0 87 -32 159q-55 122 -163 127h-11q-103 0 -210 -109q-106 -109 -145 -279q-16 -71 -16 -134zM609 1300q0 12 3 26q22 94 121 94q31 0 52 -18l319 -260q9 -14 5 -28q-9 -37 -51 -37q-11 0 -29 10q-5 0 -376 152q-44 17 -44 61z" />
<glyph unicode="&#xf3;" horiz-adv-x="1107" d="M155 342q0 59 14 120v3q53 226 259 381q28 21 71 35q43 13 107 35t123 41q58 19 95 19h4q205 -8 312 -157q75 -105 75 -238q0 -55 -13 -116l-1 -6q-48 -207 -231 -353t-402 -151h-16q-204 1 -318 151q-79 105 -79 236zM399 347q0 -87 31 -157q54 -122 165 -127h13 q103 1 208 109t144 278q16 71 16 133q0 87 -32 159q-55 122 -163 127h-11q-103 0 -210 -109q-106 -109 -145 -279q-16 -71 -16 -134zM563 1114q3 14 19 28l439 260q29 18 60 18q81 0 81 -63q0 -14 -4 -31q-15 -65 -81 -87q-441 -152 -446 -152q-22 -10 -33 -10q-43 0 -35 37 z" />
<glyph unicode="&#xf4;" horiz-adv-x="1107" d="M155 342q0 59 14 120v3q53 226 259 381q28 21 71 35q43 13 107 35t123 41q58 19 95 19h4q205 -8 312 -157q75 -105 75 -238q0 -55 -13 -116l-1 -6q-48 -207 -231 -353t-402 -151h-16q-204 1 -318 151q-79 105 -79 236zM399 347q0 -87 31 -157q54 -122 165 -127h13 q103 1 208 109t144 278q16 71 16 133q0 87 -32 159q-55 122 -163 127h-11q-103 0 -210 -109q-106 -109 -145 -279q-16 -71 -16 -134zM498 1076l347 387h145l166 -387h-110l-173 199l-264 -199h-111z" />
<glyph unicode="&#xf5;" horiz-adv-x="1107" d="M155 342q0 59 14 120v3q53 226 259 381q28 21 71 35q43 13 107 35t123 41q58 19 95 19h4q205 -8 312 -157q75 -105 75 -238q0 -55 -13 -116l-1 -6q-48 -207 -231 -353t-402 -151h-16q-204 1 -318 151q-79 105 -79 236zM399 347q0 -87 31 -157q54 -122 165 -127h13 q103 1 208 109t144 278q16 71 16 133q0 87 -32 159q-55 122 -163 127h-11q-103 0 -210 -109q-106 -109 -145 -279q-16 -71 -16 -134zM509 1177v3q5 21 35 63l80 117q61 90 156 90q94 0 170 -95q29 -39 65 -39q31 0 72 29q40 28 83 97q16 27 44 27q5 0 11 -1q28 -8 28 -27 q0 -3 -1 -6l-2 -8q-4 -18 -10 -26q-68 -116 -127 -175q-60 -59 -119 -59q-90 0 -170 91q-31 39 -67 39q-27 0 -61 -23l-24 -17q-44 -34 -86 -96q-17 -23 -45 -23q-37 9 -32 39z" />
<glyph unicode="&#xf6;" horiz-adv-x="1107" d="M155 342q0 59 14 120v3q53 226 259 381q28 21 71 35q43 13 107 35t123 41q58 19 95 19h4q205 -8 312 -157q75 -105 75 -238q0 -55 -13 -116l-1 -6q-48 -207 -231 -353t-402 -151h-16q-204 1 -318 151q-79 105 -79 236zM399 347q0 -87 31 -157q54 -122 165 -127h13 q103 1 208 109t144 278q16 71 16 133q0 87 -32 159q-55 122 -163 127h-11q-103 0 -210 -109q-106 -109 -145 -279q-16 -71 -16 -134zM501 1246q0 20 6 44q30 130 165 130q110 0 110 -87q0 -19 -5 -43q-30 -131 -165 -131q-110 0 -111 87zM971 1246q0 20 6 44q30 130 165 130 q110 0 110 -87q0 -19 -5 -43q-30 -131 -165 -131q-110 0 -111 87z" />
<glyph unicode="&#xf7;" d="M301 593q0 6 2 12l12 53q11 46 73 46h664q52 0 52 -33q0 -7 -1 -13l-12 -53q-11 -46 -73 -46h-664q-53 0 -53 34zM493 289q0 20 6 44q30 130 165 130q110 0 110 -87q0 -19 -5 -43q-30 -131 -165 -131q-110 0 -111 87zM631 886q0 20 6 44q30 130 165 130q110 0 110 -87 q0 -19 -5 -43q-30 -131 -166 -131q-110 0 -110 87z" />
<glyph unicode="&#xf8;" horiz-adv-x="1107" d="M42 3q0 3 1 5q3 15 18 24l145 116q-51 87 -51 193q0 60 14 121v3q53 226 259 381q28 21 71 35q43 13 107 35t123 41q58 19 95 19h4q171 -7 274 -112l146 117q13 11 31 11q17 0 25 -11l28 -39q6 -8 6 -15v-5q-2 -10 -16 -20l-156 -125q49 -89 50 -196q0 -56 -14 -116 l-1 -6q-48 -207 -231 -353t-402 -151h-16q-172 0 -281 107l-140 -112q-14 -12 -29 -12q-16 0 -24 10l-29 38q-7 8 -7 17zM399 348q0 -23 2 -45l545 436q-1 1 -2 3q-55 122 -163 127h-11q-103 0 -210 -109q-106 -109 -145 -279q-16 -71 -16 -133zM431 189q54 -121 164 -126 h13q103 1 208 109t144 278q16 70 16 132q0 22 -2 42z" />
<glyph unicode="&#xf9;" horiz-adv-x="1239" d="M254 206q0 92 29 219l83 361q2 10 3 19q0 35 -37 49q-38 15 -38 45q0 6 1 12q9 41 55 41q63 3 128 20q66 17 174 50l-138 -597q-21 -91 -21 -158q0 -90 38 -137q39 -50 111 -50q43 0 102 18q20 6 57 19t62 22l18 6l12 4l147 637q2 10 3 19q0 35 -37 49q-38 15 -38 45 q0 6 1 12q9 41 55 41q63 3 128 20q66 17 174 50l-202 -876q-2 -11 -3 -20q0 -36 37 -50q39 -15 38 -44q0 -5 -1 -11q-9 -41 -56 -41h-243q-42 0 -34 33l8 33q-21 -8 -68 -24t-88 -29q-102 -32 -205 -42q-16 -1 -31 -1q-93 0 -160 61q-64 59 -64 195zM668 1300q0 12 3 26 q22 94 121 94q31 0 52 -18l319 -260q9 -14 5 -28q-9 -37 -51 -37q-11 0 -29 10q-5 0 -376 152q-44 17 -44 61z" />
<glyph unicode="&#xfa;" horiz-adv-x="1239" d="M254 206q0 92 29 219l83 361q2 10 3 19q0 35 -37 49q-38 15 -38 45q0 6 1 12q9 41 55 41q63 3 128 20q66 17 174 50l-138 -597q-21 -91 -21 -158q0 -90 38 -137q39 -50 111 -50q43 0 102 18q20 6 57 19t62 22l18 6l12 4l147 637q2 10 3 19q0 35 -37 49q-38 15 -38 45 q0 6 1 12q9 41 55 41q63 3 128 20q66 17 174 50l-202 -876q-2 -11 -3 -20q0 -36 37 -50q39 -15 38 -44q0 -5 -1 -11q-9 -41 -56 -41h-243q-42 0 -34 33l8 33q-21 -8 -68 -24t-88 -29q-102 -32 -205 -42q-16 -1 -31 -1q-93 0 -160 61q-64 59 -64 195zM622 1114q3 14 19 28 l439 260q29 18 60 18q81 0 81 -63q0 -14 -4 -31q-15 -65 -81 -87q-441 -152 -446 -152q-22 -10 -33 -10q-43 0 -35 37z" />
<glyph unicode="&#xfb;" horiz-adv-x="1239" d="M254 206q0 92 29 219l83 361q2 10 3 19q0 35 -37 49q-38 15 -38 45q0 6 1 12q9 41 55 41q63 3 128 20q66 17 174 50l-138 -597q-21 -91 -21 -158q0 -90 38 -137q39 -50 111 -50q43 0 102 18q20 6 57 19t62 22l18 6l12 4l147 637q2 10 3 19q0 35 -37 49q-38 15 -38 45 q0 6 1 12q9 41 55 41q63 3 128 20q66 17 174 50l-202 -876q-2 -11 -3 -20q0 -36 37 -50q39 -15 38 -44q0 -5 -1 -11q-9 -41 -56 -41h-243q-42 0 -34 33l8 33q-21 -8 -68 -24t-88 -29q-102 -32 -205 -42q-16 -1 -31 -1q-93 0 -160 61q-64 59 -64 195zM557 1076l347 387h145 l166 -387h-110l-173 199l-264 -199h-111z" />
<glyph unicode="&#xfc;" horiz-adv-x="1239" d="M254 206q0 92 29 219l83 361q2 10 3 19q0 35 -37 49q-38 15 -38 45q0 6 1 12q9 41 55 41q63 3 128 20q66 17 174 50l-138 -597q-21 -91 -21 -158q0 -90 38 -137q39 -50 111 -50q43 0 102 18q20 6 57 19t62 22l18 6l12 4l147 637q2 10 3 19q0 35 -37 49q-38 15 -38 45 q0 6 1 12q9 41 55 41q63 3 128 20q66 17 174 50l-202 -876q-2 -11 -3 -20q0 -36 37 -50q39 -15 38 -44q0 -5 -1 -11q-9 -41 -56 -41h-243q-42 0 -34 33l8 33q-21 -8 -68 -24t-88 -29q-102 -32 -205 -42q-16 -1 -31 -1q-93 0 -160 61q-64 59 -64 195zM560 1246q0 20 6 44 q30 130 165 130q110 0 110 -87q0 -19 -5 -43q-30 -131 -165 -131q-110 0 -111 87zM1030 1246q0 20 6 44q30 130 165 130q110 0 110 -87q0 -19 -5 -43q-30 -131 -165 -131q-110 0 -111 87z" />
<glyph unicode="&#xfd;" horiz-adv-x="1036" d="M92 -553q0 4 1 9l24 133l77 2q51 2 83 46l231 324q4 0 4 2q1 3 -3 8q-6 11 -8 25t-3 19l-147 779q-7 32 -28 48q-21 18 -49 30t-30 28t1 33q4 18 43 18h328q36 1 40 -19t3 -27q-5 -23 -30 -34t-30 -23q-7 -12 -9 -19q-2 -8 1 -18l104 -582l320 494q12 18 17 41t-12 51 l-32 53l123 81q15 13 33 13t30 -16l43 -57q12 -17 13 -35q0 -6 -2 -13q-6 -25 -26 -60t-66 -100l-748 -1102q-46 -65 -86 -115t-92 -50l-85 3q-33 6 -33 30zM516 1114q3 14 19 28l439 260q29 18 60 18q81 0 81 -63q0 -14 -4 -31q-15 -65 -81 -87q-441 -152 -446 -152 q-22 -10 -33 -10q-43 0 -35 37z" />
<glyph unicode="&#xfe;" horiz-adv-x="1180" d="M7 -458q0 6 2 12q9 39 63.5 57t66.5 69l364 1577q2 10 3 19q0 35 -38 50t-38 45q0 6 1 12q9 41 56 41q63 3 129 19.5t172 49.5l-143 -617l251 87q38 12 56 13q12 1 22 1h8q11 -1 22 -1q152 -8 225 -113t73 -225q-1 -32 -5 -66q-5 -41 -16 -88q-11 -48 -37.5 -117.5 t-85.5 -138t-111 -101t-84 -45.5q-89 -30 -176.5 -60t-142.5 -48.5t-76 -18.5h-6q-67 3 -122 31l-125 -542q-90 33 -149 50t-120 20q-38 0 -39 28zM480 162q25 -30 77 -57.5t97 -28.5h6q11 0 39 9.5t67 22.5t68.5 23.5t44.5 23.5q71 61 108 141.5t48 126.5t14 65q6 38 6 74 v10q0 82 -29 141q-61 122 -193 122q-11 0 -28.5 -1.5t-43 -10.5t-74 -28t-66.5 -25z" />
<glyph unicode="&#xff;" horiz-adv-x="1036" d="M92 -553q0 4 1 9l24 133l77 2q51 2 83 46l231 324q4 0 4 2q1 3 -3 8q-6 11 -8 25t-3 19l-147 779q-7 32 -28 48q-21 18 -49 30t-30 28t1 33q4 18 43 18h328q36 1 40 -19t3 -27q-5 -23 -30 -34t-30 -23q-7 -12 -9 -19q-2 -8 1 -18l104 -582l320 494q12 18 17 41t-12 51 l-32 53l123 81q15 13 33 13t30 -16l43 -57q12 -17 13 -35q0 -6 -2 -13q-6 -25 -26 -60t-66 -100l-748 -1102q-46 -65 -86 -115t-92 -50l-85 3q-33 6 -33 30zM454 1246q0 20 6 44q30 130 165 130q110 0 110 -87q0 -19 -5 -43q-30 -131 -165 -131q-110 0 -111 87zM924 1246 q0 20 6 44q30 130 165 130q110 0 110 -87q0 -19 -5 -43q-30 -131 -165 -131q-110 0 -111 87z" />
<glyph unicode="&#x152;" horiz-adv-x="2044" d="M201 489q0 85 22 180q4 18 10 37q92 347 354.5 551.5t605.5 208.5h8q173 0 283 -42h876l-64 -277q-9 -41 -56 -41q-25 0 -47 50q-33 68 -58 101.5t-72 33.5h-403l-116 -503h205q46 0 77.5 51.5t75.5 51.5q38 0 38 -28q0 -6 -2 -13l-58 -254q-9 -41 -56 -41q-43 0 -54 51 t-58 51h-198l-126 -543h403q79 0 155.5 67t118.5 107q33 31 57 31q38 0 38 -28q0 -6 -2 -13q-3 -15 -9 -25l-140 -273h-942q-112 -29 -227 -35q-23 -1 -47 -1q-289 0 -465 199q-127 143 -127 346zM468 518q0 -149 85.5 -299.5t315.5 -152.5h6q152 0 293 95l255 1100 q-94 77 -260 77q-292 -1 -452 -186t-221 -450q-22 -94 -22 -177v-7z" />
<glyph unicode="&#x153;" horiz-adv-x="1899" d="M155 342q0 59 14 120v3q53 226 259 381q28 21 71 35q43 13 107 35t123 41q58 19 95 19h4q205 -8 312 -157q31 -43 49 -90q55 75 131 132q153 117 359 119h4q209 0 292 -120q54 -79 54 -188q0 -56 -15 -121q-10 -41 -19 -67t-71 -26h-612q-10 -49 -10 -93q0 -81 33 -145 q51 -100 156 -122q30 -7 63 -7q87 0 177 43t111 43q21 -1 29 -9t5 -23q-4 -16 -23 -43q-21 -27 -32 -36q-10 -9 -18 -16q-140 -101 -339 -101q-276 2 -372 176q-18 33 -29 68q-41 -47 -93 -87q-183 -146 -402 -151h-16q-204 1 -318 151q-79 105 -79 236zM399 347 q0 -87 31 -157q54 -122 165 -127h13q103 1 208 109t144 278q16 71 16 133q0 87 -32 159q-55 122 -163 127h-11q-103 0 -210 -109q-106 -109 -145 -279q-16 -71 -16 -134zM1339 571h476q10 44 10 86q0 52 -16 103q-29 92 -153 92h-11q-127 -4 -204 -94t-102 -187z" />
<glyph unicode="&#x178;" horiz-adv-x="1366" d="M368 1387q0 4 1 7l1 5q10 25 41 25h339q19 0 32 -10q12 -10 18 -22q4 -10 2 -19q-3 -13 -17 -26q-9 -9 -19 -17t-13 -17l-1 -5q-4 -17 5 -36l199 -499l321 360q36 41 47 70q2 3 2 7q2 9 2 20q0 21 -7 49l-23 86l179 71q14 5 26 5q28 0 39 -27l38 -102q4 -12 4 -23 q0 -13 -2 -23q-9 -41 -57 -81q-65 -55 -144 -140l-355 -388q-22 -25 -38 -71t-25 -89l-81 -351q-2 -11 -3 -20q0 -36 37 -50q39 -15 38 -44q0 -5 -1 -11q-9 -41 -56 -41h-339q-38 0 -38 28q0 6 2 13q9 37 63 55t66 70l98 427q5 23 6 45q-1 27 -10 51l-214 580q-13 30 -55 60 q-23 13 -46 23q-24 10 -40 21q-13 8 -19 20q-3 7 -3 14zM695 1696q0 20 6 44q30 130 165 130q110 0 110 -87q0 -19 -5 -43q-30 -131 -166 -131q-110 0 -110 87zM1165 1696q0 20 6 44q30 130 165 130q110 0 110 -87q0 -19 -5 -43q-30 -131 -166 -131q-110 0 -110 87z" />
<glyph unicode="&#x2c6;" horiz-adv-x="1000" d="M460 1076l347 387h145l166 -387h-110l-173 199l-264 -199h-111z" />
<glyph unicode="&#x2dc;" horiz-adv-x="1000" d="M456 1170q0 3 1 7v3q5 21 35 63l80 117q61 90 156 90q94 0 170 -95q29 -39 65 -39q31 0 72 29q40 28 83 97q16 27 44 27q5 0 11 -1q28 -8 28 -27q0 -3 -1 -6l-2 -8q-4 -18 -10 -26q-69 -116 -128 -175t-118 -59q-90 0 -170 91q-31 39 -67 39q-27 0 -61 -23l-24 -17 q-44 -34 -86 -96q-17 -23 -45 -23q-33 8 -33 32z" />
<glyph unicode="&#x2000;" horiz-adv-x="992" />
<glyph unicode="&#x2001;" horiz-adv-x="1984" />
<glyph unicode="&#x2002;" horiz-adv-x="992" />
<glyph unicode="&#x2003;" horiz-adv-x="1984" />
<glyph unicode="&#x2004;" horiz-adv-x="661" />
<glyph unicode="&#x2005;" horiz-adv-x="496" />
<glyph unicode="&#x2006;" horiz-adv-x="330" />
<glyph unicode="&#x2007;" horiz-adv-x="330" />
<glyph unicode="&#x2008;" horiz-adv-x="248" />
<glyph unicode="&#x2009;" horiz-adv-x="396" />
<glyph unicode="&#x200a;" horiz-adv-x="110" />
<glyph unicode="&#x2010;" d="M301 593q0 6 2 12l12 53q11 46 73 46h664q52 0 52 -33q0 -7 -1 -13l-12 -53q-11 -46 -73 -46h-664q-53 0 -53 34z" />
<glyph unicode="&#x2011;" d="M301 593q0 6 2 12l12 53q11 46 73 46h664q52 0 52 -33q0 -7 -1 -13l-12 -53q-11 -46 -73 -46h-664q-53 0 -53 34z" />
<glyph unicode="&#x2012;" d="M301 593q0 6 2 12l12 53q11 46 73 46h664q52 0 52 -33q0 -7 -1 -13l-12 -53q-11 -46 -73 -46h-664q-53 0 -53 34z" />
<glyph unicode="&#x2013;" horiz-adv-x="1024" d="M96 416l37 159h1078l-37 -159h-1078z" />
<glyph unicode="&#x2014;" horiz-adv-x="2048" d="M362 417l37 158h1574l-37 -158h-1574z" />
<glyph unicode="&#x2018;" horiz-adv-x="429" d="M346 1022q0 13 3 27l2 9l25 86q5 19 30 59.5t29 45.5q79 118 224 194q49 25 69 25h16q44 -6 44 -37q0 -6 -1 -12q-7 -19 -26.5 -33.5t-54.5 -30.5q-102 -48 -132 -110h-29q110 -8 111 -82q0 -13 -4 -28l-2 -7l-25 -85q-25 -87 -150 -103q-7 0 -20 1q-109 9 -109 81z" />
<glyph unicode="&#x2019;" horiz-adv-x="433" d="M333 979q0 4 1 8q9 34 81 66q101 48 133 112q-83 6 -83 73q0 15 4 33l3 9l24 85q33 100 169 102q111 -8 111 -83q0 -13 -4 -28l-2 -7l-25 -86q-23 -54 -57 -103q-80 -119 -225 -195q-47 -25 -76 -25h-4q-30 2 -41 16q-9 11 -9 23z" />
<glyph unicode="&#x201a;" horiz-adv-x="463" d="M108 -246q0 4 1 7q3 15 19 29q23 22 57 39q99 54 127 119h28q-118 0 -118 78q0 14 4 30l19 85q25 109 163 111q119 0 119 -79q0 -14 -4 -31l-19 -84q-5 -22 -24 -56q-8 -14 -14.5 -25.5t-12.5 -23.5q-74 -124 -213 -207q-55 -30 -85 -30q-26 0 -41 17q-6 11 -6 21z" />
<glyph unicode="&#x201c;" horiz-adv-x="837" d="M346 1022q0 12 3 27l2 9l25 86q5 19 31 60q87 156 250 238q41 27 76 27q28 -2 50 -21q5 -15 2 -26q-4 -18 -21 -32q-20 -17 -57 -35q-103 -48 -134 -112q83 -6 83 -74q0 -16 -4 -34l-2 -7l-25 -85q-31 -97 -168 -102q-111 8 -111 81zM734 1018q0 14 4 31l2 9l25 86 q5 19 27 55l31 49q80 119 223 194q41 27 77 27q29 -2 49 -21q4 -10 4 -19q0 -4 -1 -8q-4 -17 -24 -33q-18 -15 -55 -33q-103 -48 -134 -112q84 -6 84 -73q0 -15 -5 -34l-1 -7l-25 -86q-33 -103 -155 -103q-9 1 -14 1q-112 0 -112 77z" />
<glyph unicode="&#x201d;" horiz-adv-x="842" d="M334 979q0 3 1 7l1 5q28 42 81 62q100 48 132 112q-83 6 -83 73q0 15 4 33l3 9l24 85q33 100 169 102q111 -8 111 -83q0 -13 -4 -28l-2 -7l-25 -86q-23 -54 -57 -103q-80 -119 -224 -194q-41 -27 -76 -27q-27 0 -46 17q-9 12 -9 23zM723 979q0 3 1 7l1 5q28 42 81 62 q100 48 132 112q-83 4 -83 72q0 15 4 34l3 9l24 85q33 103 150 103q11 0 21 -1q108 -15 108 -84q0 -14 -3 -27l-2 -7l-25 -86q-23 -54 -57 -103q-80 -119 -224 -195q-43 -25 -77 -25q-26 0 -46 16q-8 12 -8 23z" />
<glyph unicode="&#x201e;" horiz-adv-x="842" d="M72 -219q4 17 23 30q23 21 58 35q101 47 134 112q-84 7 -84 73q0 14 4 31l2 9l25 86q33 100 169 102q111 -8 111 -83q0 -13 -4 -28l-1 -7l-26 -85q-8 -27 -25 -51.5t-32 -51.5q-80 -119 -225 -195q-46 -26 -75 -26q-14 0 -14 2q-23 1 -34 19q-6 10 -6 20v8zM460 -227 q0 4 1 8q4 17 23 30q23 21 58 35q101 47 133 112q-83 6 -83 72q0 15 4 32l2 9l25 86q33 103 150 103q11 0 21 -1q108 -15 108 -84q0 -14 -3 -27l-1 -7l-26 -85q-8 -27 -25 -51.5t-32 -51.5q-80 -118 -224 -195q-49 -26 -77 -26q-13 0 -13 2q-22 1 -35 19q-5 10 -6 20z" />
<glyph unicode="&#x2022;" horiz-adv-x="1241" d="M424 613q0 42 11 87q36 154 171.5 265t294.5 111t232 -94.5t73 -194.5q0 -42 -10 -87q-36 -154 -172.5 -264.5t-295.5 -110.5t-231.5 94t-72.5 194z" />
<glyph unicode="&#x2026;" horiz-adv-x="1914" d="M337 89q0 16 4 33q13 58 65 100t115 42t95 -42q23 -30 23 -67q0 -16 -4 -33q-13 -58 -65 -100t-115 -42t-95 42q-23 30 -23 67zM944 89q0 16 4 33q13 58 65 100t115 42t95 -42q23 -30 23 -67q0 -16 -4 -33q-13 -58 -65 -100t-115 -42t-95 42q-23 30 -23 67zM1551 89 q0 16 4 33q13 58 65 100t115 42t95 -42q23 -30 23 -67q0 -16 -4 -33q-13 -58 -65 -100t-115 -42t-95 42q-23 30 -23 67z" />
<glyph unicode="&#x202f;" horiz-adv-x="396" />
<glyph unicode="&#x2039;" horiz-adv-x="678" d="M305 617q0 5 1 9q3 11 13 24q79 74 209.5 173.5t222.5 176.5q15 12 30 12t21 -8l31 -26q6 -8 6 -15q0 -13 -11 -21l-317 -313l176 -318q2 -7 1 -12q-3 -15 -20 -24l-40 -24q-10 -8 -25 -8t-23 12q-66 84 -135.5 172t-133.5 176q-6 6 -6 14z" />
<glyph unicode="&#x203a;" horiz-adv-x="678" d="M229 290q0 4 1 7q2 10 10 16l320 316l-174 313q-6 6 -3 15q2 10 16 21l43 26q10 8 25 8t24 -12q56 -77 140 -176.5t129 -172.5q5 -9 6 -17q0 -3 -1 -7q-4 -14 -18 -24q-105 -88 -215 -176t-214 -172q-14 -12 -29 -12t-21 8l-30 24q-9 6 -9 15z" />
<glyph unicode="&#x205f;" horiz-adv-x="496" />
<glyph unicode="&#x20ac;" horiz-adv-x="1141" d="M170 541l24 103h123l8 37q16 70 28 105h-127l24 104h143q98 234 292 384.5t401 150.5q87 0 179.5 -26t170.5 -109l-68 -213q-13 -37 -47 -37q-9 0 -11 2q-22 2 -25 41q-15 129 -69 169.5t-160 40.5q-125 0 -255.5 -100.5t-209.5 -302.5h670l-24 -104h-683 q-13 -40 -28 -105q-6 -28 -7 -37h686l-24 -103h-673q-1 -21 -1 -41q0 -137 66.5 -272.5t204.5 -144.5q16 -1 32 -1q83 0 144 34q72 40 147 169q19 35 48 43h5q37 0 32 -37l-4 -26l-123 -247q-92 -46 -170 -60t-145 -14q-213 0 -330.5 147.5t-117.5 348.5q0 48 6 101h-132z " />
<glyph unicode="&#x2122;" horiz-adv-x="2290" d="M336 1174q0 6 2 13l28 122q9 41 33 67q22 25 84 25h4h624q70 0 81 -25q5 -12 5 -29t-6 -38l-28 -122q-8 -34 -37 -34q-30 0 -51 40t-35 61q-15 21 -43 21h-115l-156 -679q-2 -11 -3 -20q0 -36 36 -50q38 -15 39 -44q0 -6 -1 -12q-9 -40 -56 -40h-332q-38 0 -38 28 q0 6 2 12q9 38 62 56q54 18 67 70l156 679h-114q-28 0 -52 -21q-25 -21 -65 -61q-39 -40 -68 -40q-23 0 -23 21zM1079 458q0 6 2 13q9 37 62 55q54 18 67 70l147 639q2 10 3 19q0 35 -37 50q-38 15 -38 45q0 6 1 12q9 40 55 40h282l173 -672l473 672h282q38 0 39 -28 q0 -6 -2 -12q-9 -39 -63 -57t-66 -69l-147 -639q-2 -11 -3 -20q0 -36 36 -50q39 -15 39 -44q0 -5 -1 -11q-9 -41 -56 -41h-333q-37 0 -37 28q0 6 2 13q9 37 62 55q54 18 67 70l115 502l-485 -698h-81l-168 686l-113 -490q-2 -11 -3 -20q0 -36 36 -50q39 -15 39 -44 q0 -5 -1 -11q-9 -41 -55 -41h-255q-38 0 -38 28z" />
<glyph unicode="&#x25fc;" horiz-adv-x="955" d="M0 0v955h955v-955h-955z" />
<glyph unicode="&#xfb01;" horiz-adv-x="1129" d="M110 8q0 6 2 12q9 38 63 56t66 70l156 678l-94 -4q-38 0 -37 30q0 5 1 10v2q6 27 42 42q20 9 65 30t58 26q5 2 5 3q0 2 -7 2l14 62q30 129 66 197q35 68 65 98q31 30 66 41l280 96l44 6h3q31 0 55 -19q24 -20 29 -37t2 -33q-4 -16 -14 -51t-43 -44h-7q-20 0 -49 23 t-60 23q-30 0 -54 -9q-78 -30 -108 -121q-14 -37 -23 -81q-10 -44 -21 -89l-13 -58l215 4q33 0 34 -21h2q64 3 129 20q66 17 172 50l-202 -876q-2 -11 -3 -20q0 -36 37 -50q38 -15 38 -44q0 -6 -1 -12q-9 -40 -55 -40h-339q-38 0 -38 28q0 6 2 12q9 38 63 56t66 70l147 640 q2 10 3 19q0 35 -37 49q-10 4 -17 9q-27 -37 -69 -37l-180 1l-157 -681q-2 -11 -3 -20q0 -36 37 -50q38 -15 38 -44q0 -6 -1 -12q-9 -40 -56 -40h-339q-38 0 -38 28z" />
<glyph unicode="&#xfb02;" horiz-adv-x="1133" d="M110 8q0 6 2 12q9 38 63 56t66 70l156 678l-94 -4q-38 0 -37 30q0 5 1 10v2q6 27 42 42q20 9 65 30t58 26q5 2 5 3q0 2 -7 2l14 62q30 129 66 197q35 68 65 98q31 30 66 41l280 96l44 6q33 1 58 -19q13 -10 19 -20q48 6 99 18q66 16 172 49l-311 -1347q-2 -11 -3 -20 q0 -36 37 -50q39 -15 38 -44q0 -5 -1 -11q-9 -41 -55 -41h-339q-38 0 -38 28q0 6 2 13q9 37 63 55t66 70l256 1111q6 25 -2 42q-11 -13 -29 -18h-7q-20 0 -49 23t-60 23q-30 0 -54 -9q-78 -30 -108 -121q-14 -37 -23 -81q-10 -44 -21 -89l-13 -58l215 4q40 0 33 -30 q-7 -31 -17 -53q-29 -64 -84 -64l-180 1l-157 -681q-2 -11 -3 -20q0 -36 37 -50q38 -15 38 -44q0 -6 -1 -12q-9 -40 -56 -40h-339q-38 0 -38 28z" />
<glyph unicode="&#xfb03;" horiz-adv-x="1665" d="M110 8q0 4 2 12q9 38 63 56t66 70l156 678l-94 -4q-38 0 -37 30q0 5 1 10v2q0 23 42 42q23 11 65 30q45 21 58 26q5 2 5 3q0 2 -7 2l14 62q28 126 66 197t65 98q29 28 66 41l280 96l44 6h3q31 0 55 -19q24 -20 29 -37t2 -33q-4 -16 -14 -51t-43 -44h-7q-20 0 -49 23 t-60 23q-30 0 -54 -9q-77 -29 -108 -121q-16 -49 -23 -81q-10 -44 -21 -89l-13 -58l304 -4l14 62q28 126 66 197t65 98q29 28 66 41l280 96l44 6h3q31 0 55 -19q24 -20 29 -37t2 -33q-4 -16 -14 -51t-43 -44h-7q-20 0 -49 23t-60 23q-30 0 -54 -9q-77 -29 -108 -121 q-16 -49 -23 -81q-10 -44 -21 -89l-13 -58l215 4q12 -21 34 -21h2q64 3 129 20q66 17 172 50l-202 -876q-3 -12 -3 -20q0 -36 37 -50q38 -15 38 -44q0 -6 -1 -12q-9 -40 -55 -40h-339q-38 0 -38 28q0 4 2 12q9 38 63 56t66 70l147 640q3 13 3 19q0 34 -37 49q-10 4 -17 9 q-27 -37 -69 -37l-180 1l-157 -681q-3 -12 -3 -20q0 -36 37 -50q38 -15 38 -44q0 -6 -1 -12q-9 -40 -56 -40h-339q-38 0 -38 28q0 4 2 12q9 38 63 56t66 70l156 678l-304 3l-157 -681q-3 -12 -3 -20q0 -36 37 -50q38 -15 38 -44q0 -6 -1 -12q-9 -40 -56 -40h-339 q-38 0 -38 28z" />
<glyph unicode="&#xfb04;" horiz-adv-x="1669" d="M110 8q0 6 2 12q9 38 63 56t66 70l156 678l-94 -4q-38 0 -37 30q0 5 1 10v2q6 27 42 42q20 9 65 30t58 26q5 2 5 3q0 2 -7 2l14 62q30 129 66 197q35 68 65 98q31 30 66 41l280 96l44 6q33 1 58 -19q24 -20 29 -37t2 -33q-4 -16 -14 -51t-43 -44h-7q-20 0 -49 23t-60 23 q-30 0 -54 -9q-78 -30 -108 -121q-14 -37 -23 -81q-10 -44 -21 -89l-13 -58l306 -9q5 2 5 3q0 2 -7 2l14 62q30 129 66 197q35 68 65 98q31 30 66 41l280 96l44 6q33 1 58 -19q13 -10 19 -20q48 6 99 18q66 16 172 49l-311 -1347q-2 -11 -3 -20q0 -36 37 -50q39 -15 38 -44 q0 -5 -1 -11q-9 -41 -55 -41h-339q-38 0 -38 28q0 6 2 13q9 37 63 55t66 70l256 1111q6 25 -2 42q-11 -13 -29 -18h-7q-20 0 -49 23t-60 23q-30 0 -54 -9q-78 -30 -108 -121q-14 -37 -23 -81q-10 -44 -21 -89l-13 -58l215 4q40 0 33 -30q-7 -31 -17 -53q-29 -64 -84 -64 l-180 1l-157 -681q-2 -11 -3 -20q0 -36 37 -50q38 -15 38 -44q0 -6 -1 -12q-9 -40 -56 -40h-339q-38 0 -38 28q0 6 2 12q9 38 63 56t66 70l156 678l-304 3l-157 -681q-2 -11 -3 -20q0 -36 37 -50q38 -15 38 -44q0 -6 -1 -12q-9 -40 -56 -40h-339q-38 0 -38 28z" />
</font>
</defs>
</svg>
