<?xml version="1.0" standalone="no"?>
<!DOCTYPE svg PUBLIC "-//W3C//DTD SVG 1.1//EN" "http://www.w3.org/Graphics/SVG/1.1/DTD/svg11.dtd" >
<svg xmlns="http://www.w3.org/2000/svg">
<metadata></metadata>
<defs>
<font id="caudexbold" horiz-adv-x="1100" >
<font-face units-per-em="2048" ascent="1638" descent="-410" />
<missing-glyph horiz-adv-x="550" />
<glyph horiz-adv-x="0" />
<glyph unicode="&#xd;" horiz-adv-x="550" />
<glyph unicode=" "  horiz-adv-x="550" />
<glyph unicode="&#x09;" horiz-adv-x="550" />
<glyph unicode="&#xa0;" horiz-adv-x="550" />
<glyph unicode="!" horiz-adv-x="550" d="M147 61v82q0 107 135 107t135 -107v-82q0 -106 -135 -106t-135 106zM154 1329v11q0 84 98 84h63q99 0 99 -85v-10l-70 -955q0 -43 -50 -43h-21q-49 0 -49 43z" />
<glyph unicode="&#x22;" horiz-adv-x="849" d="M118 1408v5q0 50 79 50h47q79 0 79 -49v-6l-51 -440q0 -31 -44 -31h-15q-43 0 -43 31zM541 1408v5q0 50 79 50h47q79 0 79 -49v-6l-51 -440q0 -31 -44 -31h-15q-43 0 -43 31z" />
<glyph unicode="#" d="M20 390v4l15 86q6 27 41 27h257l41 235h-250q-38 0 -38 28v4l15 86q6 27 41 27h257l60 346q6 34 38 34h85q33 0 33 -29q0 -5 -1 -11l-59 -340h136l60 346q6 34 39 34h84q34 0 34 -29q0 -5 -1 -11l-59 -340h249q39 0 39 -25q0 -4 -1 -8l-15 -84q-3 -28 -41 -28h-256 l-41 -235h249q39 0 39 -25q0 -4 -1 -8l-15 -84q-3 -28 -41 -28h-256l-60 -346q-6 -35 -39 -35h-84q-34 0 -34 31q0 5 1 10l59 340h-136l-60 -346q-6 -35 -38 -35h-85q-33 0 -33 31q0 4 1 10l59 340h-250q-38 0 -38 28zM489 507h136l41 235h-136z" />
<glyph unicode="$" d="M64 278q0 11 12 30t45 19q27 -7 44 -42q61 -133 143 -173q77 -37 184 -39v563q-6 2 -12 2q-112 12 -211 60q-101 48 -147 134t-46 186q0 195 140 323q113 103 276 123v87q0 43 47 43h46q49 0 49 -43v-84q210 -16 371 -120l-25 -221q-4 -36 -44 -36h-5q-30 2 -48 41 q-41 86 -117 145q-63 49 -132 60v-499q32 -5 70 -11q64 -10 148 -36t130 -78q46 -50 72 -110t27 -143q0 -222 -181 -370q-94 -77 -197 -110q-37 -12 -69 -20v-102q0 -43 -49 -43h-46q-47 0 -47 43v85q-27 -1 -40 -1q-143 0 -287 44l-98 273q-3 8 -3 20zM297 1062 q0 -32 11 -63q19 -61 59 -90q41 -29 73 -37q25 -7 52 -12v468q-22 -6 -42 -15q-54 -26 -80 -52q-24 -27 -41 -61t-25 -70q-7 -32 -7 -61v-7zM634 87q31 9 68 27q69 34 112 104q43 69 43 170v11q-3 104 -78 158q-35 25 -111 47q-16 5 -34 8v-525z" />
<glyph unicode="%" horiz-adv-x="1300" d="M46 958v257q0 89 57 154t163 65q105 0 161 -65t56 -154v-257q0 -90 -63.5 -154.5t-166.5 -64.5t-155 65t-52 154zM159 969q0 -47 15.5 -113t78.5 -66t90 51.5t27 127.5v235q0 75 -25 127t-80 52h-1q-77 -1 -91 -66.5t-14 -112.5v-235zM166 -52l952 1492h147l-951 -1492 h-148zM846 198v257q0 89 57 154t163 65q105 0 161 -65t56 -154v-257q0 -90 -63.5 -154.5t-166.5 -64.5t-155 65t-52 154zM959 209q0 -47 15.5 -113t78.5 -66t90 51.5t27 127.5v235q0 75 -25 127t-80 52h-1q-77 -1 -91 -66.5t-14 -112.5v-235z" />
<glyph unicode="&#x26;" horiz-adv-x="1292" d="M113 240q0 13 1 25q6 124 76 223q65 95 206 188q-52 70 -87 153q-31 72 -31 153q0 14 1 28q5 138 93 225q87 87 228 87q138 0 213 -71q69 -66 69 -172v-17q-7 -111 -72 -197q-67 -89 -186 -164l231 -303l93 173q6 14 8 28q1 5 1 9q0 8 -2 13q-3 10 -9.5 18t-10.5 21 q-2 6 -2 11v3q0 3 3 12q12 34 45 34h258q23 0 35 -14q6 -6 6 -16v-2q0 -5 -2 -13q-10 -19 -45 -36q-16 -7 -33 -15t-32 -18q-70 -45 -121 -121t-116 -182l111 -138q46 -59 147 -107q34 -15 46 -34q3 -11 3 -20q-2 -4 -2 -8q-18 -18 -39 -18h-244q-50 0 -100 79 q-33 50 -46 65q-63 -78 -159 -126q-98 -48 -220 -48q-148 0 -237 89q-78 80 -78 203zM322 316q0 -96 52 -164q54 -70 135 -70q72 0 130.5 40.5t97.5 91.5l-280 370q-126 -92 -134 -248q-1 -10 -1 -20zM466 1041q0 -135 93 -253q64 38 104 102q38 63 45 162v14q0 64 -23 110 q-21 40 -92 40q-55 0 -86 -36q-36 -43 -40 -119q-1 -11 -1 -20z" />
<glyph unicode="'" horiz-adv-x="426" d="M118 1408v5q0 50 79 50h47q79 0 79 -49v-6l-51 -440q0 -31 -44 -31h-15q-43 0 -43 31z" />
<glyph unicode="(" horiz-adv-x="646" d="M54 568q0 237 98 488.5t414 426.5q13 8 26 8q9 0 21 -6q11 -11 11 -43v-38q-235 -203 -299.5 -379t-64.5 -457q0 -282 64.5 -457.5t299.5 -378.5v-38q0 -32 -11 -43q-12 -6 -21 -6q-13 0 -26 8q-316 175 -414 426t-98 489z" />
<glyph unicode=")" horiz-adv-x="646" d="M54 -268q235 203 299.5 378.5t64.5 457.5q0 281 -64.5 457t-299.5 379v38q0 32 11 43q12 6 21 6q13 0 26 -8q316 -175 414 -426.5t98 -488.5q0 -238 -98 -489t-414 -426q-13 -8 -26 -8q-9 0 -21 6q-11 11 -11 43v38z" />
<glyph unicode="*" d="M204 463q0 25 35 48l185 121l-185 120q-35 22 -35 47q0 12 8 25l29 44q13 21 34 21q18 0 43 -16l166 -108v199q0 62 46 62h54q46 0 46 -62v-199l166 108q24 16 43 16q21 0 34 -21l29 -44q8 -13 8 -25q0 -25 -35 -47l-185 -120l185 -121q35 -23 35 -48q0 -12 -8 -24 l-29 -44q-13 -21 -34 -21q-18 0 -43 16l-166 108v-198q0 -62 -46 -62h-54q-46 0 -46 62v198l-166 -108q-24 -16 -43 -16q-21 0 -34 21l-29 44q-8 12 -8 24z" />
<glyph unicode="+" d="M163 605v53q0 46 62 46h259v260q0 62 46 62h54q46 0 46 -62v-260h259q62 0 62 -46v-53q0 -46 -62 -46h-259v-259q0 -62 -46 -62h-54q-46 0 -46 62v259h-259q-62 0 -62 46z" />
<glyph unicode="," horiz-adv-x="480" d="M116 -223q0 12 11 24q22 24 49 40q84 52 96 114q-105 0 -105 106v82q0 107 135 107t135 -107v-83q-26 -196 -188 -301q-35 -28 -70 -28q-25 0 -49 15q-14 16 -14 31z" />
<glyph unicode="-" d="M163 605v53q0 46 62 46h664q62 0 62 -46v-53q0 -46 -62 -46h-664q-62 0 -62 46z" />
<glyph unicode="." horiz-adv-x="480" d="M147 61v82q0 107 135 107t135 -107v-82q0 -106 -135 -106t-135 106z" />
<glyph unicode="/" d="M58 -90l866 1584h194l-864 -1584h-196z" />
<glyph unicode="0" d="M99 431v558q0 194 124.5 335.5t354.5 141.5q229 0 351 -142t122 -335v-558q0 -196 -139 -336t-361 -140q-223 0 -337.5 141t-114.5 335zM346 454q0 -102 33.5 -245t169.5 -143t195.5 112t59.5 276v512q0 164 -54 276t-173 112h-2q-167 -3 -198 -145t-31 -243v-512z" />
<glyph unicode="1" d="M308 1232v79l434 185v-1350q0 -53 50 -70t50 -54v-1q0 -41 -45 -41h-340q-45 0 -45 41v5q0 33 49 50q51 18 51 70v1086h-204z" />
<glyph unicode="2" d="M143 1060v153q11 31 22 52q45 72 123 128t190 73q44 6 87 6q141 0 267 -71q168 -95 171 -311v-4q0 -141 -75 -266t-177 -237.5t-205 -229.5t-143 -183h331q124 0 271 53l2 -191q-73 -45 -143 -48.5t-128 -3.5h-584v98q0 93 56 164q50 64 163 185q66 63 130 135t136 157.5 t105 170t33 142.5q0 57 -23 101q-49 92 -141 128q-52 20 -103 20q-52 0 -99 -11q-109 -28 -180 -132q-23 -34 -38 -78h-48z" />
<glyph unicode="3" d="M166 229h47q64 -107 194 -137q48 -11 107 -11q58 0 121 33q95 50 130 144q19 53 19 102q0 48 -14 91q-30 97 -124.5 167.5t-279.5 73.5l-4 61q84 27 169 64.5t125 105.5t40 130q0 18 -3 37q-14 78 -72.5 138.5t-147.5 60.5q-8 0 -15 -1q-101 -6 -167 -85q-30 -37 -46 -95 h-49v181q92 102 187.5 139.5t184.5 37.5q246 -3 327 -198q23 -56 23 -111q0 -135 -139 -267q-29 -28 -44 -39q122 -60 186 -171t64 -222q0 -15 -1 -31q-19 -224 -232 -377q-114 -81 -281 -98q-27 -3 -52 -3q-138 0 -247 85z" />
<glyph unicode="4" d="M68 395v139l592 890h220v-848h202v-181h-202v-249q0 -49 70 -67t72 -58v-4q0 -37 -45 -37h-425q-46 2 -46 38q0 2 1 4q2 39 72.5 56.5t70.5 67.5v249h-582zM262 576h388v589z" />
<glyph unicode="5" d="M108 61v218h45q53 -95 148 -136q93 -42 185 -42h12q11 0 22 1q104 9 181 94q96 97 99 254v28q1 6 1 11q0 37 -28 96q-36 89 -129 139q-71 32 -137 32q-103 0 -192 -80q-37 -43 -97 -43q-13 0 -24 2q-12 0 -38 2t-26 50v684q0 35 13 44t58 9h494q36 0 114.5 -3.5 t148.5 -47.5v-215q-140 52 -263 52h-419v-407q55 34 140 67q88 36 174 36q46 0 93 -11q130 -29 219 -113q142 -121 142 -332q0 -27 -2 -56q-26 -177 -150 -295q-145 -139 -411 -143q-211 0 -373 105z" />
<glyph unicode="6" d="M69 466v9q3 325 144 556t393 404q28 19 44.5 27.5t55.5 8.5l69 -1q68 0 68 -22q0 -23 -26 -36q-165 -115 -272 -226.5t-161 -213.5q33 19 167 19q34 0 69 -4q174 -19 289 -124q170 -156 171 -379v-3q0 -220 -146 -371q-150 -156 -355 -156h-15q-221 6 -358 155t-137 357z M286 459q0 -174 81 -285t184 -111h11q110 5 193 129.5t83 298.5t-81 285t-184 111h-11q-111 -6 -193.5 -130.5t-82.5 -297.5z" />
<glyph unicode="7" d="M156 25q3 57 23 104q28 64 51 110q74 145 297 527q169 289 261 444h-359q-125 0 -263 -53v216q68 42 141 47q65 4 122 4h494q46 0 58 -9q13 -9 13 -51v-6q-1 -73 -32 -137q-134 -269 -266 -537.5t-264 -537.5q-37 -72 -58 -166l-213 1q-5 34 -5 44z" />
<glyph unicode="8" d="M50 402q1 167 97.5 271.5t172.5 123.5q-192 45 -192 305q1 185 134 275.5t353 90.5q219 0 329 -106q104 -102 104 -262v-12q-6 -251 -204 -294q65 -16 157 -118q99 -106 99 -302v-2q0 -199 -149 -304q-149 -108 -386 -108h-2q-237 0 -375 114t-138 328zM306 402 q2 -181 72.5 -254.5t205.5 -73.5q134 0 205 72t71 259q-1 187 -81.5 259t-194.5 72q-115 0 -195 -75q-83 -77 -83 -255v-4zM365 1095q1 -104 47 -178q42 -71 184 -71l2 -1q126 0 171 74t45 185t-54 185t-171 74q-118 0 -170.5 -74.5t-53.5 -184.5v-9z" />
<glyph unicode="9" d="M69 941v3q0 220 146 371q150 156 355 156h15q221 -6 358 -155t137 -357v-9q-3 -325 -144 -556t-393 -404q-28 -19 -44.5 -27.5t-55.5 -8.5l-69 1q-68 0 -68 22q0 23 26 36q165 115 272 226.5t161 213.5q-33 -19 -167 -19q-34 0 -69 4q-174 19 -289 124q-170 156 -171 379 zM311 934q0 -174 81 -285t184 -111h11q111 6 193.5 130.5t82.5 297.5q0 174 -81 285t-184 111h-11q-110 -5 -193 -129.5t-83 -298.5z" />
<glyph unicode=":" horiz-adv-x="480" d="M147 61v82q0 107 135 107t135 -107v-82q0 -106 -135 -106t-135 106zM147 778v82q0 107 135 107t135 -107v-82q0 -106 -135 -106t-135 106z" />
<glyph unicode=";" horiz-adv-x="480" d="M116 -223q0 12 11 24q22 24 49 40q84 52 96 114q-105 0 -105 106v82q0 107 135 107t135 -107v-83q-26 -196 -188 -301q-35 -28 -70 -28q-25 0 -49 15q-14 16 -14 31zM142 778v82q0 107 135 107t135 -107v-82q0 -106 -135 -106t-135 106z" />
<glyph unicode="&#x3c;" d="M175 628v2q0 21 26 47l618 604q28 26 55 26q24 0 42 -18l49 -50q11 -14 12 -32v-3q0 -22 -23 -46l-539 -527l539 -526q21 -23 23 -48v-4q0 -16 -13 -30l-50 -50q-16 -16 -40 -16q-27 0 -55 26l-628 612q-14 14 -16 33z" />
<glyph unicode="=" d="M163 455v53q0 46 62 46h664q62 0 62 -46v-53q0 -46 -62 -46h-664q-62 0 -62 46zM163 755v53q0 46 62 46h664q62 0 62 -46v-53q0 -46 -62 -46h-664q-62 0 -62 46z" />
<glyph unicode="&#x3e;" d="M175 53v4q2 25 23 48l539 526l-539 527q-23 24 -23 46v3q1 18 12 32l49 50q18 18 42 18q27 0 55 -26l618 -604q26 -26 26 -47v-2q-2 -19 -16 -33l-628 -612q-28 -26 -55 -26q-24 0 -40 16l-50 50q-13 14 -13 30z" />
<glyph unicode="?" horiz-adv-x="784" d="M78 1114q0 140 94 224t254 84q165 0 261 -81q94 -81 94 -220q0 -174 -177 -284q-18 -11 -43 -26q-55 -35 -69 -64q-16 -28 -19 -97l-4 -172q0 -55 -11 -89q-17 -40 -54 -40q-36 0 -51 45q-12 31 -12 85v316q129 91 173 160q44 70 44 165q0 103 -41 154q-37 45 -114 45 q-65 0 -94 -40q-34 -48 -44 -174q-3 -32 -29 -49q-25 -18 -67 -18q-44 0 -69 19q-22 19 -22 57zM266 61v82q0 107 135 107t135 -107v-82q0 -106 -135 -106t-135 106z" />
<glyph unicode="@" horiz-adv-x="2119" d="M48 388q0 451 327 763q329 311 807 311q384 0 636 -208q251 -210 251 -552q0 -294 -184 -534q-52 -68 -121 -126t-150 -91q-94 -40 -186 -40q-69 0 -136 23q-110 38 -110 153v-26l-274 -93q-37 -13 -64 -13h-42q-156 8 -239 126q-64 90 -64 219q0 114 46 229t113 193 q39 47 117 97q26 16 60 29q87 30 174.5 60t176.5 60q22 8 43 8h6q68 -3 155 -34q10 -3 14 -5q17 -8 46 -19q7 -2 12 -2q7 0 14 4q24 17 33 26q13 16 35 16q10 0 20 -4q32 -14 32 -36v-4l-167 -722q-9 -39 -9 -68q0 -73 55 -87q14 -4 29 -4q32 0 71 16q64 24 115 72 q87 79 145 231q59 155 59 343q0 335 -202 491q-207 160 -501 160q-220 0 -434 -110q-215 -109 -349 -336q-136 -227 -136 -517q0 -225 90 -409q89 -180 261 -282q168 -100 407 -100q202 0 382 71q164 65 290 170q11 11 28 11q18 0 31 -13q14 -14 14 -31q0 -13 -7 -26 q-12 -27 -29 -43q-151 -140 -343.5 -201t-410.5 -61q-412 0 -675 260q-262 258 -262 655zM744 352q0 -81 30 -138q43 -84 125 -109q33 -10 67 -10q11 0 23 1q19 2 49 12q22 7 75 25t77 26l139 606q-24 28 -78.5 57.5t-99.5 31.5h-3q-15 0 -31 -6q-40 -13 -79 -26.5 t-78 -26.5q-21 -8 -37 -22q-73 -63 -115.5 -154t-55.5 -180q-8 -46 -8 -87z" />
<glyph unicode="A" horiz-adv-x="1593" d="M61 10q0 6 2 14q6 28 41 43t72 32q31 22 45 53l573 1295h97q56 -132 129.5 -303t152 -352t152 -352t124.5 -288q13 -32 42.5 -51.5t52 -29.5t38 -20.5t20 -20.5t4.5 -17t-6.5 -20t-32.5 -13h-338q-18 0 -34 11t-19.5 20.5t-3.5 20.5t14 24t25 21.5t14 17t3 19.5 q0 12 -6 27l-143 328h-547q-30 -72 -65.5 -157.5t-57.5 -137t-23 -61.5t-1 -17t2.5 -15t9.5 -17t9.5 -20t2.5 -16q0 -7 -3 -13q-12 -35 -46 -35h-258q-41 0 -41 30zM582 590h445l-226 527q-40 -97 -103.5 -249t-115.5 -278z" />
<glyph unicode="B" horiz-adv-x="1240" d="M113 21q0 38 50 56t50 69v1112q0 50 -50 68t-50 57q0 41 46 41h570q103 0 216.5 -36.5t174.5 -144.5q48 -84 48 -202q-2 -113 -65 -202q-47 -68 -98 -91q103 -33 174 -154q52 -93 52 -222q-2 -124 -71 -222q-61 -86 -171.5 -128t-202.5 -42h-627q-46 0 -46 41zM443 93 h201q69 0 138 20t119 69q77 75 77 201q0 121 -81 201q-86 83 -232 83h-222v-574zM443 794h249q107 12 173 75q69 67 69 181q0 111 -73 181q-77 74 -207 74h-211v-511z" />
<glyph unicode="C" horiz-adv-x="1405" d="M67 701q0 345 237.5 554.5t568.5 209.5q118 0 251.5 -26.5t265.5 -110.5l-25 -222q-8 -35 -45 -35h-4q-28 2 -48 41q-55 119 -164 174q-102 50 -217 50h-20q-256 -11 -402 -206q-133 -178 -133 -395q0 -24 2 -49q14 -225 156.5 -407.5t383.5 -193.5q24 -1 45 -1 q121 0 199 36q88 42 150 175q19 41 55 41q8 0 17 -2q32 -12 32 -42q0 -11 -5 -24l-90 -251q-109 -45 -211 -59.5t-193 -14.5q-317 0 -561.5 202t-244.5 556z" />
<glyph unicode="D" horiz-adv-x="1585" d="M108 11q0 40 50 58t50 70v1123q0 51 -50 68.5t-50 56.5q0 41 46 41q42 -1 85 -1l313 6q154 0 326 -9.5t320 -74t243 -195.5q108 -152 111 -427q0 -169 -69.5 -318t-205.5 -254q-231 -178 -563 -182h-80q-58 0 -109 1h-117q-84 0 -127 3h-23q-39 0 -103 -6q-47 0 -47 40z M449 116q104 -20 215 -20q42 0 83 3q335 29 471 288q72 137 72 349v33q-13 304 -191 432q-150 113 -397 113h-26q-121 0 -227 -17v-1181z" />
<glyph unicode="E" horiz-adv-x="1251" d="M155 21q0 38 50 55.5t50 69.5v1111q0 52 -50 69.5t-50 56.5q0 41 46 41h953v-277q0 -41 -46 -41q-25 0 -59 50q-49 68 -81 101.5t-80 33.5h-402v-503h204q46 0 66 51.5t64 51.5q45 0 45 -41v-254q0 -41 -45 -41q-43 0 -66 51t-70 51h-198v-543h402q80 0 140.5 67 t93.5 107q26 31 49 31q46 0 46 -41q0 -15 -3 -25l-77 -273h-939q-43 0 -43 41z" />
<glyph unicode="F" horiz-adv-x="1139" d="M155 21q0 22 31 41q14 10 32.5 21.5t28.5 28.5q8 16 8 34v1111q0 52 -50 69.5t-50 56.5q0 41 46 41h953v-277q0 -41 -46 -41q-25 0 -59 50q-49 68 -81 101.5t-80 33.5h-402v-503h204q29 0 53 28q17 20 30.5 47.5t46.5 27.5q45 0 45 -41v-254q0 -41 -45 -41q-35 0 -50 31 t-34 52q-20 20 -46 20h-204v-512q0 -24 10 -40q10 -14 25.5 -24t30.5 -19q33 -20 33 -42q0 -8 -2 -16q-15 -25 -43 -25h-341q-44 0 -44 41z" />
<glyph unicode="G" horiz-adv-x="1563" d="M67 701q0 345 237.5 554.5t568.5 209.5q118 0 251.5 -26.5t265.5 -110.5l-25 -222q-8 -35 -45 -35h-4q-28 2 -48 41q-62 132 -152 175t-243 43q-212 0 -379 -148.5t-167 -480.5q0 -212 157 -408.5t390 -207.5q24 -1 45 -1q108 0 181 28q85 33 142 132v184q-1 20 -21 31 q-25 14 -83.5 38t-58.5 57q0 41 46 41h401q46 0 46 -41q0 -39 -50 -57t-50 -69v-408q-175 -8 -315 -43q-74 -20 -146 -27t-138 -7q-317 0 -561.5 202t-244.5 556z" />
<glyph unicode="H" horiz-adv-x="1638" d="M155 21q0 38 50 55.5t50 69.5v1111q0 51 -50 69t-50 57q0 41 46 41h339q45 0 45 -41q0 -39 -50 -57t-50 -69v-448h795v448q0 51 -50 69t-50 57q0 41 46 41h339q46 0 46 -41q0 -39 -50.5 -57t-50.5 -69v-1111q0 -52 50.5 -69.5t50.5 -55.5q0 -41 -46 -41h-339 q-46 0 -46 41q0 38 50 55.5t50 69.5v531h-795v-531q0 -52 50 -69.5t50 -55.5q0 -41 -45 -41h-339q-46 0 -46 41z" />
<glyph unicode="I" horiz-adv-x="690" d="M155 21q0 38 50 55.5t50 69.5v1111q0 52 -50 69.5t-50 56.5q0 41 46 41h338q46 0 46 -41q0 -39 -50 -56.5t-50 -69.5v-1110q0 -53 50 -70.5t50 -55.5q0 -41 -46 -41h-339q-45 0 -45 41z" />
<glyph unicode="J" horiz-adv-x="682" d="M110 -339q46 28 77.5 62.5t49.5 91.5q11 39 11.5 112t0.5 247v1084q0 51 -50 69t-50 57q0 40 46 40h339q46 0 46 -40q0 -39 -50 -57t-50 -69v-1078q0 -199 -27.5 -298t-95.5 -171q-95 -97 -247 -138v88z" />
<glyph unicode="K" horiz-adv-x="1487" d="M155 20q0 39 50 56.5t50 69.5v1111q0 51 -50 69t-50 57q0 41 46 41h339q45 0 45 -41q0 -39 -50 -57t-50 -69v-457l479 454q78 73 126.5 121t85.5 48q36 0 60 -12l107 -52q28 -17 28 -33q0 -17 -4 -27l-60 -169l-96 40q-34 14 -67 14q-34 0 -66 -31l-390 -381l739 -681 q18 -18 46 -30.5t28 -39.5q0 -41 -45 -41h-339q-46 0 -46 41q0 14 21 34q5 4 5 9v1q0 13 -24 33l-588 542v-494q0 -52 50 -69.5t50 -56.5q0 -40 -45 -40h-339q-46 0 -46 40z" />
<glyph unicode="L" horiz-adv-x="1251" d="M155 21q0 38 50 55.5t50 69.5v1111q0 51 -50 69t-50 57q0 41 46 41h339q45 0 45 -41q0 -39 -50 -57t-50 -69l1 -1143h402q80 0 140.5 67t93.5 107q26 31 49 31q46 0 46 -41q0 -15 -3 -25l-77 -273h-936q-46 0 -46 41z" />
<glyph unicode="M" horiz-adv-x="1908" d="M134 21q0 38 50 55.5t50 69.5v1111q0 51 -50 69t-50 57q0 41 46 41h283l530 -1086l513 1086h296q46 0 46 -41q0 -39 -50.5 -57t-50.5 -69v-1111q0 -52 50.5 -69.5t50.5 -55.5q0 -41 -46 -41h-339q-46 0 -46 41q0 38 50 55.5t50 69.5v960l-535 -1156h-73l-529 1111v-915 q0 -52 50 -69.5t50 -55.5q0 -41 -46 -41h-254q-46 0 -46 41z" />
<glyph unicode="N" horiz-adv-x="1644" d="M134 21q0 38 50 55.5t50 69.5v1111q0 51 -50 69t-50 57q0 41 46 41h271l918 -1153v986q0 51 -49.5 69t-49.5 57q0 41 45 41h255q46 0 46 -41q0 -39 -50 -57t-50 -69l-1 -1327l-218 53l-917 1138v-975q0 -52 50 -69.5t50 -55.5q0 -41 -46 -41h-254q-46 0 -46 41z" />
<glyph unicode="O" horiz-adv-x="1610" d="M48 669q0 18 1 37q12 347 227 551.5t557 208.5h10q334 0 564 -205q213 -191 213 -501q0 -28 -2 -56q-21 -351 -245.5 -546t-540.5 -213q-23 -1 -47 -1q-289 0 -511 199q-226 202 -226 526zM307 702q0 -265 147.5 -449.5t378.5 -186.5h5q225 0 372 194q148 197 148 436v6 q-2 244 -125 440t-400 196q-292 -1 -409 -186t-117 -450z" />
<glyph unicode="P" horiz-adv-x="1237" d="M134 21q0 38 49 55.5t49 69.5l2 1111q0 51 -50 69t-50 57q0 41 46 41h590q108 0 226.5 -38.5t184.5 -151.5q50 -89 50 -212q-2 -118 -68 -213q-58 -82 -164 -122t-193 -40h-342v-501q0 -52 50 -69.5t50 -55.5q0 -41 -45 -41h-339q-46 0 -46 41zM464 757h207 q65 0 130.5 18.5t112.5 65.5q74 71 74 191q0 115 -77 191q-81 78 -220 78h-227v-544z" />
<glyph unicode="Q" horiz-adv-x="1610" d="M48 669q0 18 1 37q12 348 227 552t557 208h10q334 0 564 -205q213 -191 213 -501q0 -28 -2 -56q-22 -351 -246 -546q-180 -156 -417 -199q52 -18 113 -45q173 -78 261 -78q30 0 125 27v-88q-104 -60 -156 -117q-142 19 -340 100t-258 81q-29 0 -175 -96v113q87 67 133 98 q-212 35 -384 189q-226 202 -226 526zM307 698q0 -264 147 -446q148 -184 379 -186h5q225 0 372 194q148 197 148 436v6q-2 244 -125 440t-400 196q-292 -1 -409 -186t-117 -454z" />
<glyph unicode="R" horiz-adv-x="1368" d="M134 21q0 38 50 55.5t50 69.5v1111q0 51 -50 69t-50 57q0 41 46 41h590q108 0 226.5 -38.5t184.5 -151.5q50 -89 50 -212q-2 -118 -68 -213q-54 -76 -148.5 -116t-139.5 -42l433 -567q19 -16 56 -19q50 -6 50 -41v-4q-6 -40 -46 -40h-267q-23 0 -86 83t-141 191 t-159.5 221t-129.5 172h-121v-501q0 -52 50 -69.5t50 -55.5q0 -41 -45 -41h-339q-46 0 -46 41zM464 757h207q65 0 130.5 18.5t112.5 65.5q74 71 74 191q0 115 -77 191q-81 78 -220 78h-227v-544z" />
<glyph unicode="S" horiz-adv-x="1075" d="M64 278q0 11 12.5 30t44.5 19q27 -7 44 -42q61 -133 143 -172.5t198 -39.5q25 0 76 3.5t120 38t112 103.5t43 170v11q-3 104 -78 158q-34 25 -110.5 46.5t-188 34t-211.5 60t-146.5 134t-46.5 186.5q0 195 139.5 323t354.5 128h31q231 -10 404 -122l-25 -221 q-4 -36 -44 -36h-5q-30 2 -48 41q-40 86 -116.5 145t-162.5 63h-15q-85 0 -139.5 -26t-79 -52t-41.5 -60.5t-24.5 -71t-7.5 -67.5q0 -32 11 -63q19 -61 59 -90t72.5 -37.5t68 -14.5t83.5 -13.5t112.5 -17.5t149 -36.5t130 -77t72 -111t26.5 -142.5q0 -222 -181 -370 q-94 -77 -197 -110t-166 -35.5t-85 -2.5q-143 0 -287 44l-98 273q-3 8 -3 20z" />
<glyph unicode="T" horiz-adv-x="1255" d="M43 1147v185q0 64 27 80.5t112 16.5h944q92 0 115.5 -15.5t23.5 -81.5v-185q0 -41 -46 -41q-23 0 -60 50q-50 68 -82 101.5t-80 33.5h-226v-1145q0 -52 50 -70t50 -56q0 -40 -45 -40h-339q-46 0 -46 40q0 38 50 56t50 70v1145h-230q-48 0 -81 -33.5t-82 -101.5 q-35 -50 -59 -50q-46 0 -46 41z" />
<glyph unicode="U" horiz-adv-x="1554" d="M134 1383q0 41 46 41h339q45 0 45 -41q0 -39 -49 -55.5t-49 -67.5v-539q0 -152 10 -268.5t50 -194.5q38 -75 116.5 -113.5t221.5 -38.5q247 0 334 195q66 142 66 420v536q0 51 -50 69t-50 57q0 41 46 41h255q45 0 45 -41q0 -39 -49.5 -57t-49.5 -69v-669 q-1 -151 -28 -277t-101 -214q-135 -156 -418 -156q-175 0 -301 33.5t-203 123.5q-126 146 -126 490v670q0 51 -50 68.5t-50 56.5z" />
<glyph unicode="V" horiz-adv-x="1479" d="M57 1392q0 8 6 17q10 15 33 15h339q18 0 35 -12q14 -12 19 -23q2 -7 2 -11q0 -17 -17 -33q-11 -9 -21.5 -18t-15.5 -21q-2 -6 -2 -14q0 -11 6 -23l403 -1032l428 877q11 23 11 40q0 13 -6 23q-19 29 -58 76l-61 71l139 105q15 13 35 13t41 -17l83 -85q31 -32 31 -78 q0 -24 -9 -52q-24 -72 -72 -169l-489 -1015q-8 -19 -19 -33q-17 -13 -35 -13h-151q-24 0 -37 17q-5 5 -13 27t-11 31l-378 1050q-40 105 -58 146q-15 33 -51 59q-21 13 -44 22.5t-38 20.5q-16 9 -20 22q-5 7 -5 17z" />
<glyph unicode="W" horiz-adv-x="2119" d="M57 1392q0 8 6 17q10 15 33 15h339q18 0 35 -12q14 -12 19 -23q2 -7 2 -11q0 -17 -17 -33q-12 -9 -22 -18t-15 -21q-2 -6 -2 -14q0 -11 6 -23l403 -1032l220 450l-151 418q-40 105 -58 146q-15 33 -51 59q-21 12 -44 22t-38 21q-16 9 -20 22q-5 7 -5 17q0 8 6 17 q10 15 33 15h339q18 0 35 -12q14 -12 19 -23q2 -7 2 -11q0 -17 -17 -33q-12 -9 -22 -18t-15 -21q-2 -6 -2 -14q0 -11 6 -23l119 -304l72 149q11 23 11 40q0 13 -6 23q-19 29 -58 76l-61 71l139 105q15 13 35 13t41 -17l83 -85q31 -32 31 -78q0 -24 -9 -52q-24 -72 -72 -169 l-130 -271l208 -533l428 877q11 23 11 40q0 13 -6 23q-19 29 -58 76l-61 71l139 105q15 13 35 13t41 -17l83 -85q31 -32 31 -78q0 -24 -9 -52q-24 -72 -72 -169l-489 -1015q-8 -19 -19 -33q-17 -13 -35 -13h-151q-24 0 -37 17q-5 5 -13 27t-11 31l-154 428l-220 -457 q-8 -19 -19 -33q-17 -13 -35 -13h-151q-24 0 -37 17q-5 5 -13 27t-11 31l-378 1050q-40 105 -58 146q-15 33 -51 59q-21 12 -44 22t-38 21q-16 9 -20 22q-5 7 -5 17z" />
<glyph unicode="X" horiz-adv-x="1366" d="M36 5v6q0 28 46 48l52 21q68 29 102 76l388 542l-357 551q-35 52 -118 83q-27 8 -43 18q-35 20 -35 44v5q4 25 35 25h339q30 0 47 -20t17 -32t-9.5 -23t-17 -19.5t-8.5 -16.5v-5q0 -18 13 -36l260 -399l244 341q70 97 122 156.5t107 59.5q14 0 29 -4l100 -32 q32 -13 32 -35q0 -13 -3 -22l-47 -191l-91 21q-51 11 -81 13h-2q-17 0 -42 -36l-283 -402l381 -587q29 -45 119 -83q26 -11 41 -20q37 -21 37 -41q0 -31 -36 -31h-339q-16 0 -34 9q-30 16 -30 38q0 17 17 37.5t18 27.5v6q0 16 -11 34l-286 435l-301 -430q-26 -36 -26 -57 l9 -39q0 -19 -15.5 -40t-43.5 -21h-258q-34 0 -38 25z" />
<glyph unicode="Y" horiz-adv-x="1366" d="M47 1394v5q4 25 35 25h339q19 0 35 -10q14 -10 23 -22q6 -10 6 -19q0 -13 -11 -26q-7 -9 -15 -17.5t-9 -16.5v-5q0 -17 13 -36l315 -499l237 360q27 41 31 70q1 3 1 7q0 26 -21 69l-43 86l162 71q13 5 25 5q28 0 46 -27l61 -102q13 -23 13 -46q0 -41 -39 -81 q-52 -55 -111 -140l-266 -388q-16 -24 -21 -70.5t-5 -89.5v-351q0 -52 50 -69.5t50 -55.5q0 -41 -46 -41h-339q-46 0 -46 41q0 38 50 55.5t50 69.5v427q0 54 -26 96l-348 580q-20 30 -69 60q-26 13 -52 23t-44 21q-15 8 -24 20q-7 11 -7 21z" />
<glyph unicode="Z" horiz-adv-x="1366" d="M80 28q0 19 24 44l948 1220l-563 -1q-48 0 -81 -33.5t-75 -92.5t-66 -59q-46 0 -46 41v185q0 64 27 80.5t112 16.5h924q96 0 115 -20q17 -19 17 -40v-2q0 -21 -19 -46l-958 -1203l736 1q48 0 80.5 33t75 92t66.5 59q46 0 46 -41v-185q0 -68 -24 -82.5t-114 -14.5h-1071 q-87 0 -114 7q-40 16 -40 41z" />
<glyph unicode="[" horiz-adv-x="682" d="M220 -400v1836q0 50 46 50h247q37 0 37 -48q0 -49 -42 -49h-120v-1736h120q42 0 42 -47q0 -46 -37 -46h-247q-46 0 -46 40z" />
<glyph unicode="\" d="M58 1494h194l866 -1584h-196z" />
<glyph unicode="]" horiz-adv-x="682" d="M220 -394q0 47 42 47h120v1736h-120q-42 0 -42 49q0 48 37 48h247q46 0 46 -50v-1836q0 -40 -46 -40h-247q-37 0 -37 46z" />
<glyph unicode="^" d="M184 892l336 558h139l336 -558h-109l-296 382l-299 -382h-107z" />
<glyph unicode="_" d="M0 -198h1150v-158h-1150v158z" />
<glyph unicode="`" horiz-adv-x="1000" d="M252 1326q0 94 99 94q31 0 56 -18l379 -260q12 -14 12 -28q0 -37 -43 -37q-11 0 -31 10q-5 0 -411 152q-61 22 -61 87z" />
<glyph unicode="a" horiz-adv-x="1155" d="M62 440q0 53 10 122.5t52 137t87 101t76 47.5q342 128 365 128h6q68 -3 120 -20t80 -28.5t43 -11.5q14 0 35 29q13 17 29 17t39.5 -8.5t23.5 -33.5v-774q0 -52 50 -69.5t50 -56.5q0 -40 -46 -40h-243q-42 0 -42 33v43l-240 -88q-37 -13 -63 -13h-42q-154 8 -264 124 q-126 133 -126 361zM293 500q0 -182 70 -276q95 -129 230 -129q34 0 79 16t125 47v604q-32 30 -94.5 60t-108.5 32h-3q-16 0 -76.5 -23t-88 -33.5t-38.5 -22.5q-58 -62 -76.5 -141.5t-18.5 -101.5v-32z" />
<glyph unicode="b" horiz-adv-x="1139" d="M62 1383q0 41 45 41q62 3 124.5 19.5t161.5 49.5v-619l240 89q33 12 61 14q11 0 21.5 -0.5t22.5 -0.5q154 -8 263 -124q106 -116 122 -280q4 -42 4 -83q0 -53 -7 -103q-13 -89 -68 -176q-31 -50 -94 -98q-26 -19 -58 -31q-80 -29 -160 -59t-161 -59q-23 -8 -43 -8h-5 q-67 3 -163 32q-10 4 -13 6q-20 8 -51 18q-9 3 -16 3q-5 0 -8 -3q-20 -17 -27 -25q-12 -17 -34 -17q-11 0 -20 4q-37 13 -37 38v1246q0 51 -50 69t-50 57zM393 168q31 -31 93 -61t109 -31h6q11 0 27 6q38 14 73 26.5t71 26.5q16 6 30 20q57 61 78 150q16 72 16 143 q0 21 -1 40q-11 138 -73 223q-64 87 -156 114q-37 10 -73 10q-10 0 -19 -1q-19 -2 -45 -11q-23 -9 -72 -27t-64 -24v-604z" />
<glyph unicode="c" horiz-adv-x="925" d="M79 446q0 56 8 119q45 230 240 342q110 63 252 69h22q172 0 326 -99l-18 -180q-5 -31 -37 -31h-3q-29 2 -43 34q-37 81 -95 115.5t-142 34.5h-23q-99 -5 -148 -53q-101 -95 -101 -278q0 -28 3 -60q10 -144 77 -235q88 -116 191 -132q17 -2 35 -2q91 0 164.5 44.5 t95.5 44.5t44 -4q7 -19 7 -33q0 -15 -15.5 -43t-37.5 -48q-119 -96 -315 -96t-331 109q-156 132 -156 382z" />
<glyph unicode="d" horiz-adv-x="1231" d="M82 440q0 53 7 103q13 89 69 177q27 47 94 98q25 17 55 30q81 30 161.5 60t161.5 60q22 8 42 8h6q68 -3 164 -34h2q0 1 -27 14v301q0 51 -50 69t-50 57q0 41 45 41q62 3 124.5 19.5t161.5 49.5v-1347q0 -52 50 -69.5t50 -55.5q0 -41 -46 -41h-243q-42 0 -42 33v43 l-240 -88q-37 -13 -63 -13h-42q-154 8 -262 122q-109 116 -124 281q-4 42 -4 82zM313 486q0 -21 2 -44q11 -139 75 -225q62 -87 154 -112q34 -10 69 -10q11 0 22 1q18 2 45 11q23 8 72 26.5t65 24.5v605q-36 32 -97 60.5t-106 30.5h-3q-14 0 -30 -6q-36 -13 -71.5 -26.5 t-71.5 -26.5q-19 -8 -30 -20q-58 -62 -78 -151q-17 -70 -17 -138z" />
<glyph unicode="e" horiz-adv-x="1004" d="M62 441q0 54 9 112q29 191 155 308t332 119h4q209 0 319.5 -120t110.5 -309q-1 -41 -4 -67t-65 -26h-612q3 -137 77.5 -237.5t184.5 -122.5q32 -7 65 -7q88 0 167.5 43t100.5 43t31.5 -8.5t10.5 -23.5q0 -16 -14 -43t-22.5 -36t-15.5 -16q-117 -101 -315 -101 q-276 2 -413 176q-106 134 -106 316zM312 571h476q0 98 -49.5 189.5t-174.5 91.5h-11q-125 -4 -181.5 -94.5t-59.5 -186.5z" />
<glyph unicode="f" horiz-adv-x="683" d="M68 860v2q0 27 32 42q19 9 58.5 30t51.5 26q5 2 5 3q0 2 -8 2v62q0 129 20 197.5t43.5 98t55.5 40.5l258 96l43 6q33 0 62 -19.5t38 -36.5t9 -33t-2 -51t-33 -44h-7q-20 0 -54.5 23t-64.5 23t-52 -9q-71 -30 -80 -121q-4 -37 -4.5 -80.5t-0.5 -89.5v-58l214 4 q40 0 40 -30q0 -31 -4 -53q-14 -64 -70 -64l-180 1v-681q0 -52 50 -69.5t50 -56.5q0 -40 -46 -40h-339q-46 0 -46 40q0 39 50 56.5t50 69.5v678l-93 -4q-44 0 -46 40z" />
<glyph unicode="g" horiz-adv-x="1103" d="M62 440q0 53 7 103q13 89 69 177q27 47 94 98q25 17 55 30q81 30 161.5 60t161.5 60q22 8 42 8h6q68 -3 164 -34q10 -3 12 -5q20 -8 51 -18q8 -3 15 -3q6 0 10 3q19 16 26 26q13 17 35 17q11 0 20 -4q37 -13 37 -38v-1100q0 -173 -52 -218.5t-144 -78.5l-275 -103 q-37 -13 -63 -13q-27 0 -43 1q-152 5 -263 124q-57 62 -96 163q107 42 224 85q25 -71 54 -110q63 -86 154 -112q34 -9 67 -9q13 0 24 1q19 2 45 10q11 5 30.5 12t39.5 15q37 18 52 86t15 90l-1 293l-239 -88q-37 -13 -63 -13h-42q-154 8 -262 122q-109 116 -124 281 q-4 42 -4 82zM293 486q0 -21 2 -44q11 -139 75 -225q62 -87 154 -112q34 -10 69 -10q11 0 22 1q18 2 45 11q23 8 71.5 26t64.5 24v62h1v543q-32 30 -94.5 60t-108.5 32h-3q-14 0 -30 -6q-36 -13 -71.5 -26.5t-71.5 -26.5q-19 -8 -30 -20q-58 -62 -78 -151q-17 -70 -17 -138z " />
<glyph unicode="h" horiz-adv-x="1207" d="M82 20q0 39 50 56.5t50 69.5v1111q0 51 -50 69t-50 57q0 41 45 41q62 3 124.5 19.5t160.5 49.5v-608q20 7 62 23t109 39.5t125 29t72 5.5q94 0 177 -63q129 -99 129 -413v-360q0 -52 50 -69.5t50 -56.5q0 -40 -45 -40h-243q-42 0 -42 33v493q0 212 -85 295 q-51 50 -123 50q-43 0 -80 -12.5t-70.5 -25t-58.5 -22.5q-23 -8 -27 -10v-635q0 -52 50 -69.5t50 -56.5q0 -40 -45 -40h-339q-46 0 -46 40z" />
<glyph unicode="i" horiz-adv-x="593" d="M112 20q0 39 50 56.5t50 69.5v640q0 50 -50 68t-50 57q0 41 45 41q62 3 124.5 20t160.5 50v-876q0 -52 50 -69.5t50 -56.5q0 -40 -45 -40h-339q-46 0 -46 40zM172 1290q0 130 135 130t135 -130q0 -131 -135 -131t-135 131z" />
<glyph unicode="j" horiz-adv-x="487" d="M22 -507q98 59 128 154q11 39 11.5 112t0.5 247v780q0 50 -50 68t-50 57q0 41 45 41q62 3 124.5 20t161.5 50v-1010q-1 -199 -28 -298t-95 -171q-98 -100 -248 -137v87zM172 1290q0 130 135 130t135 -130q0 -131 -135 -131t-135 131z" />
<glyph unicode="k" horiz-adv-x="1163" d="M102 21q0 38 50 55.5t50 69.5v1111q0 51 -50 69t-50 57q0 41 45 41q62 3 124.5 19.5t160.5 49.5v-894l311 249q63 51 111 81q34 20 66 20q25 0 49 -13l75 -46q22 -15 22 -34q0 -9 -5 -17l-57 -128l-76 39q-24 12 -45 12q-24 0 -47 -17q-145 -108 -239 -182l333 -325 q105 -102 133 -115q18 -8 35 -8q7 0 15 1q10 3 21 3q37 0 51 -29q3 -10 3 -16q0 -22 -23 -32l-64 -30q-58 -26 -109 -26q-35 0 -66 13q-70 28 -127 84l-362 352q4 4 4 5q-1 0 -9 -6v-288q0 -52 50 -69.5t50 -55.5q0 -41 -45 -41h-339q-46 0 -46 41z" />
<glyph unicode="l" horiz-adv-x="597" d="M102 21q0 38 50 55.5t50 69.5v1111q0 51 -50 69t-50 57q0 41 45 41q62 3 124.5 19.5t160.5 49.5v-1347q0 -52 50 -69.5t50 -55.5q0 -41 -45 -41h-339q-46 0 -46 41z" />
<glyph unicode="m" horiz-adv-x="1797" d="M99 20q0 39 50 56.5t50 69.5v640q0 50 -50 68t-50 57q0 41 45 41q62 3 124.5 20t160.5 50v-129q12 4 49.5 18t102.5 37t123 28.5t72 5.5q94 0 177 -63q29 -23 35 -30q25 9 61.5 22.5t101 36.5t122.5 28.5t72 5.5q93 0 176 -62q130 -100 130 -414v-360q0 -52 50 -69.5 t50 -56.5q0 -40 -46 -40h-243q-41 0 -41 33v493q0 212 -85 295q-51 50 -123 50q-43 0 -79 -12t-64.5 -22.5t-30.5 -11.5q43 -89 43 -299v-360q0 -52 50 -69.5t50 -56.5q0 -40 -45 -40h-339q-46 0 -46 40q0 39 50 56.5t50 69.5v360q0 212 -85 295q-51 50 -123 50 q-43 0 -86.5 -14.5t-77 -27.5t-51.5 -20v-643q0 -52 50 -69.5t50 -56.5q0 -40 -45 -40h-339q-46 0 -46 40z" />
<glyph unicode="n" horiz-adv-x="1191" d="M82 20q0 39 50 56.5t50 69.5v640q0 50 -50 68t-50 57q0 41 45 41q62 3 124.5 20t160.5 50v-137q20 7 62 23t109 39.5t125 29t72 5.5q94 0 177 -63q129 -99 129 -413v-360q0 -52 50 -69.5t50 -56.5q0 -40 -45 -40h-243q-42 0 -42 33v493q0 212 -85 295q-51 50 -123 50 q-43 0 -80 -12.5t-70.5 -25t-58.5 -22.5q-23 -8 -27 -10v-635q0 -52 50 -69.5t50 -56.5q0 -40 -45 -40h-339q-46 0 -46 40z" />
<glyph unicode="o" horiz-adv-x="1107" d="M62 462v3q1 226 171 381q23 21 63 35t99 35.5t113 40.5t91 19h4q207 -8 348 -157t144 -354v-6q0 -207 -149 -352.5t-368 -151.5h-16q-204 0 -352 150.5t-148 356.5zM304 481q0 -170 82.5 -291.5t193.5 -126.5h13q102 0 182.5 108.5t80.5 278.5t-83 291.5t-193 127.5h-11 q-103 0 -184 -109t-81 -279z" />
<glyph unicode="p" horiz-adv-x="1197" d="M112 -566q0 39 50 57t50 69v1226q0 50 -50 68t-50 57q0 41 45 41q62 3 124.5 20t160.5 50v-143l228 84q32 12 52 13t21 1h9q10 -1 22 -1q153 -7 264 -124q106 -116 122 -280q4 -41 4 -88q0 -48 -10.5 -117.5t-52.5 -137t-87 -101.5t-75 -46q-176 -66 -260.5 -96.5 t-105.5 -30.5h-5q-63 3 -126 22v-417q0 -51 50 -69t50 -57q0 -40 -45 -40h-339q-46 0 -46 40zM442 158q33 -28 90 -54.5t100 -27.5h6q11 0 37 9.5t61.5 22.5t62 23t40.5 24q56 61 75 140.5t19 125.5q0 45 -2 67q-11 138 -74.5 224.5t-154.5 112.5q-36 10 -58 10 q-23 0 -37.5 -1.5t-38 -10t-66 -24t-60.5 -22.5v-619z" />
<glyph unicode="q" horiz-adv-x="1173" d="M82 448q0 46 9.5 114.5t52.5 137.5t87.5 102.5t100.5 54.5l136 51t132 49t73 19h5q69 -3 118 -19t50 -16.5t22 -0.5v-10q8 -3 26.5 -8.5t23.5 -5.5q4 0 15.5 9.5t21.5 23t26 13.5t39.5 -8.5t23.5 -33.5v-1360q0 -51 50 -69t50 -57q0 -40 -46 -40h-339q-46 0 -46 40 q0 39 50 57t50 69v495l-237 -87q-35 -13 -62 -13h-43q-155 8 -262.5 123t-122.5 280q-4 43 -4 90zM312 510q0 -45 2 -68q11 -139 73.5 -225t155.5 -112q35 -10 58 -10t37.5 1.5t38.5 10t71.5 26t64.5 24.5v607q-33 29 -94 58.5t-106 31.5h-3q-15 0 -40 -9.5t-61 -23 t-62.5 -23.5t-39.5 -23q-58 -62 -76.5 -141.5t-18.5 -123.5z" />
<glyph unicode="r" horiz-adv-x="831" d="M122 21q0 38 50 55.5t50 69.5v640q0 50 -50 68t-50 57q0 41 45 41q62 3 124.5 20t161.5 50v-130l104 39q77 29 121 44q18 5 40 5q42 0 120 -27l-25 -284h-89q-39 146 -130 146q-10 0 -19 -1q-61 -7 -90 -68.5t-32 -150.5v-449q0 -52 49.5 -69.5t49.5 -55.5q0 -41 -45 -41 h-339q-46 0 -46 41z" />
<glyph unicode="s" horiz-adv-x="884" d="M76 227l3 24q3 33 43 33h5q26 -5 42 -37q43 -94 103.5 -131.5t154.5 -40.5h11q66 0 145 31t82 112v6q0 94 -95.5 121t-187 52.5t-184.5 88.5t-93 186v5q1 165 124 233.5t262 68.5q14 0 26 -1q154 -8 303 -100l-23 -186q-4 -33 -41 -33h-4q-29 2 -44 37q-34 71 -97.5 117 t-133.5 49h-4q-54 0 -107 -27.5t-65 -84.5q-5 -21 -5 -37q0 -52 56 -79.5t167.5 -52.5t224.5 -77.5t123 -220.5v-10q0 -79 -63.5 -161.5t-164 -117t-194.5 -37.5h-28q-127 0 -255 37z" />
<glyph unicode="t" horiz-adv-x="682" d="M68 860v2q0 27 32 42q19 9 58.5 30t51.5 26q5 2 5 3q0 2 -8 2v151q0 57 25 80.5t80 50t78 26.5q48 0 48 -46v-258l214 4q40 0 40 -30q0 -31 -4 -53q-14 -64 -70 -64l-180 1v-607q0 -82 56.5 -122t115.5 -48v-69q-178 0 -290.5 31t-112.5 238v574l-93 -4q-44 0 -46 40z " />
<glyph unicode="u" horiz-adv-x="1239" d="M85 911q0 41 45 41q62 3 124.5 20t161.5 50v-597q0 -213 85 -295q51 -50 123 -50q43 0 97 18q19 6 53 19t57 22q6 2 17 6l11 4v637q0 50 -50 68t-50 57q0 41 45 41q62 3 124.5 20t161.5 50v-876q0 -52 50 -69.5t50 -55.5q0 -41 -46 -41h-243q-42 0 -42 33v33 q-19 -7 -62 -23.5t-81 -29.5q-95 -32 -196 -42q-16 -1 -30 -1q-93 0 -175 61q-130 99 -130 414v361q0 50 -50 68t-50 57z" />
<glyph unicode="v" horiz-adv-x="1036" d="M31 920q0 5 2 13q11 18 35 18h328q15 0 32 -10q14 -11 19 -22q2 -7 2 -11q0 -16 -16 -31q-30 -27 -32 -33t-2 -14q0 -9 5 -19l238 -582l206 494q8 18 8 35q0 29 -24 57l-44 53l104 81q12 13 29 13q19 0 35 -16l56 -57q22 -23 22 -56q0 -17 -7 -39q-16 -48 -48 -113 l-307 -686q-6 -12 -13 -21q-13 -13 -31 -13h-84q-22 0 -32 15q-5 5 -10 19.5t-7 19.5l-327 779q-14 32 -41 50q-18 12 -39.5 21.5t-34.5 18.5q-11 7 -20 23q-2 8 -2 13z" />
<glyph unicode="w" horiz-adv-x="1647" d="M31 920q0 5 2 13q11 18 35 18h328q15 0 32 -10q14 -12 17.5 -20t3.5 -18q0 -11 -23 -32t-25 -27t-2 -14q0 -9 5 -19l238 -582l187 447l-50 118q-14 32 -37 47t-43.5 24t-36 19.5t-18 20.5t-2.5 15t2 13q11 18 35 18h328q15 0 32 -10q14 -12 17.5 -20t3.5 -18 q0 -11 -23 -32t-25 -27t-2 -14q0 -9 5 -19l238 -582l206 494q8 18 8 41t-24 51l-44 52l102 82q12 12 31 12q18 0 34 -14l57 -58q22 -23 22 -48t-11.5 -60t-43.5 -100l-307 -686q-6 -13 -15.5 -23.5t-28.5 -10.5h-84q-21 0 -29 10.5t-13 24t-8 18.5l-205 490l-228 -509 q-6 -13 -15.5 -23.5t-28.5 -10.5h-84q-21 0 -29 10.5t-13 24.5t-7 19l-327 779q-14 32 -37 47t-43.5 24t-33.5 18t-18 20t-5 17z" />
<glyph unicode="x" horiz-adv-x="1098" d="M24 5q0 10 8 20q18 22 61 33t74 50l278 340l-258 375q-13 19 -44 35q-19 10 -37.5 17t-31.5 15q-33 19 -33 34q0 25 40 25h322q29 0 47 -24q6 -9 6 -19q0 -16 -20 -27q-5 -3 -5 -11q0 -10 9 -22l151 -220l147 181q92 112 119 135q16 15 43 15q31 0 76 -23l64 -34 q20 -12 20 -31q0 -9 -5 -18l-62 -127q-62 33 -93 48q-2 1 -3 1q-10 0 -31 -26l-195 -238l278 -403q15 -23 49 -37q15 -7 30.5 -14t32.5 -15q34 -20 34 -35q0 -25 -40 -25h-322q-29 0 -47 24q-6 10 -6 18q0 15 19 28q5 3 6 11v1q0 9 -9 22l-170 247l-201 -244 q-15 -21 -15 -32v-3q0 -8 3 -13q3 -8 3 -13q0 -12 -8 -22q-16 -24 -41 -24h-208q-35 0 -35 25z" />
<glyph unicode="y" horiz-adv-x="1036" d="M30 933q0 18 38 18h328q36 0 45 -19.5t9 -26.5q0 -23 -21.5 -34t-25.5 -22.5t-4 -19.5t5 -18l238 -582l206 494q8 18 8 41t-24 51l-44 53l104 81q12 13 30 13t34 -16l56 -57q22 -23 22 -48t-11.5 -60t-43.5 -100l-494 -1102q-31 -66 -58.5 -115.5t-81.5 -49.5l-85 3 q-41 7 -41 39l-7 133l76 2q51 2 73 46l156 324q4 0 4 2q0 3 -5 8q-9 10 -14 24.5t-7 19.5l-327 779q-14 32 -39 48.5t-56 29t-37 28t-6 33.5z" />
<glyph unicode="z" horiz-adv-x="1019" d="M51 21q0 17 20 41l608 779h-307q-40 0 -67.5 -28.5t-68.5 -86.5q-33 -43 -54 -43q-44 0 -44 37v159q0 54 24 70t99 16h622q114 0 114 -52q0 -20 -19 -44l-614 -770h388q40 2 70.5 30.5t72.5 87.5q33 44 54 44q43 0 43 -38v-158q0 -59 -21.5 -72t-100.5 -13l-685 -1 q-77 1 -105 10q-29 7 -29 32z" />
<glyph unicode="{" horiz-adv-x="1024" d="M130 643q0 5 1 12q6 32 49 38q142 12 191 65q29 32 39 89.5t10 113.5v212q0 73 15 153t67 130q81 80 297 80q33 0 49 -19q14 -20 14 -35q0 -36 -55 -36q-120 -2 -160 -47q-27 -28 -35 -85.5t-8 -109.5v-143q0 -78 -11 -169t-49 -146q-63 -90 -131 -104q67 -14 131 -103 q38 -56 49 -146.5t11 -169.5v-143q0 -147 43 -194q41 -44 160 -46q34 0 46 -30q3 -9 3 -17q0 -13 -10 -27q-15 -17 -47 -17q-214 0 -297 80q-52 50 -67 129.5t-15 153.5v211q0 56 -10.5 114.5t-39.5 91.5q-30 31 -83.5 45.5t-105.5 18.5q-30 2 -42 21q-9 11 -9 29z" />
<glyph unicode="|" horiz-adv-x="1024" d="M450 -247v1757h191v-1757h-191z" />
<glyph unicode="}" horiz-adv-x="1024" d="M130 1482q0 15 14 35q16 19 49 19q216 0 297 -80q52 -50 67 -130t15 -153v-212q0 -56 10 -113.5t39 -89.5q49 -53 191 -65q43 -6 49 -38q1 -7 1 -12q0 -18 -9 -29q-12 -19 -42 -21q-52 -4 -105.5 -18.5t-83.5 -45.5q-29 -33 -39.5 -91.5t-10.5 -114.5v-211 q0 -74 -15 -153.5t-67 -129.5q-83 -80 -297 -80q-32 0 -47 17q-10 14 -10 27q0 8 3 17q12 30 46 30q119 2 160 46q43 47 43 194v143q0 79 11 169.5t49 146.5q64 89 131 103q-68 14 -131 104q-38 55 -49 146t-11 169v143q0 52 -8 109.5t-35 85.5q-40 45 -160 47q-55 0 -55 36 z" />
<glyph unicode="~" horiz-adv-x="1024" d="M58 506q0 14 11 32q47 72 99 153.5t169 81.5q135 0 271 -92q62 -42 121 -42q51 0 102 31q50 29 88 99q14 24 44 24q8 0 13 -2q34 -5 40 -36q1 -5 1 -10q0 -10 -6 -23q-63 -117 -120 -170q-68 -62 -144 -62q-121 0 -263 88q-68 42 -127 42q-44 0 -84 -25q-12 -8 -28 -18 t-34 -26q-33 -31 -58 -69q-14 -21 -39 -21q-16 0 -32 10q-24 12 -24 35z" />
<glyph unicode="&#xa1;" horiz-adv-x="550" d="M147 761v82q0 106 135 106t135 -106v-82q0 -107 -135 -107t-135 107zM154 -425l70 955q0 43 49 43h21q50 0 50 -43l70 -955v-10q0 -85 -99 -85h-63q-98 0 -98 84v11z" />
<glyph unicode="&#xa2;" horiz-adv-x="925" d="M79 446q0 56 8 119q45 230 240 342q90 51 201 65v163h134v-162q139 -15 265 -96l-18 -180q-5 -31 -37 -31h-3q-29 2 -43 34q-37 82 -95 116q-31 18 -69 26v-750q68 8 126 42q74 44 95 45q22 0 44 -4q7 -19 7 -33q0 -15 -16 -43t-37 -48q-88 -71 -219 -90v-193h-134v188 q-171 10 -293 108q-156 132 -156 382zM317 519q0 -28 3 -60q10 -144 77 -235q62 -81 131 -114v736q-71 -11 -110 -49q-101 -95 -101 -278z" />
<glyph unicode="&#xa3;" horiz-adv-x="1024" d="M9 90q0 26 10 57q18 64 56 95q56 44 107 44h7q43 -3 75 -5q4 29 4 76v30q-3 61 -5 123q-4 74 -12 154h-162q-40 0 -40 35v70q0 35 40 35h149q-6 57 -6 124q0 58 6 107q13 122 59 210q113 218 366 218q77 0 149.5 -38.5t108.5 -109.5q17 -35 20 -77v-8q0 -42 -32 -74 q-33 -33 -73 -33q-35 0 -69 28q-33 24 -39.5 72t-10.5 77q-9 54 -69 63q-16 2 -30 2q-44 0 -74 -25q-56 -48 -71.5 -116.5t-15.5 -144.5q0 -74 6.5 -147.5t10.5 -127.5h238q40 0 40 -35v-70q0 -35 -40 -35h-229q1 -14 1 -49t-2 -71q-6 -83 -25 -157.5t-32 -137.5 q36 -13 89 -31t108 -32q58 -14 106 -14q38 0 71 9q67 18 107 79q11 16 15 45t54 29q45 0 45 -43q0 -36 -12 -67t-23 -60q-39 -100 -126 -162q-79 -53 -167 -53q-12 0 -24 1q-98 8 -181 64q-19 13 -74 48l-53 33q-42 -64 -113 -120q-37 -27 -82 -27q-25 0 -50 9 q-70 23 -96 82q-10 23 -10 51zM122 108q0 -59 38 -59q39 0 58 38.5t30 71.5q-22 22 -49 22q-77 0 -77 -73z" />
<glyph unicode="&#xa4;" horiz-adv-x="1024" d="M88 112q0 12 13 25l132 132q-65 85 -65 207q0 121 65 207l-133 134q-12 10 -12 23q0 12 12 24l46 46q11 11 28 11t29 -12l128 -129q81 62 207 62t207 -62l129 129q12 12 29 12q19 0 29 -13l47 -46q9 -11 9 -22q0 -12 -12 -24l-133 -132q66 -86 66 -208q0 -124 -66 -208 l135 -133q10 -12 10 -23t-9 -22l-48 -46q-12 -13 -29 -13q-18 0 -30 14l-127 127q-80 -61 -207 -61t-207 61l-128 -129q-12 -12 -29 -12t-28 11l-46 46q-12 12 -12 24zM306 475q0 -99 68.5 -167.5t163.5 -68.5q93 0 162 68.5t69 167.5t-69 168t-162 69q-95 0 -163.5 -69 t-68.5 -168z" />
<glyph unicode="&#xa5;" horiz-adv-x="1366" d="M47 1394v5q4 25 35 25h339q19 0 35 -10q14 -10 23 -22q6 -10 6 -19q0 -13 -11 -26q-7 -9 -15 -17t-9 -17v-5q0 -17 13 -36l315 -499l237 360q27 41 31 70q1 3 1 7q0 26 -21 69l-43 86l162 71q13 5 25 5q28 0 46 -27l61 -102q13 -23 13 -46q0 -41 -39 -81 q-52 -55 -111 -140l-208 -304h257v-119h-330q-4 -16 -6 -36q-4 -34 -5 -66h341v-119h-341v-255q0 -52 50 -70t50 -55q0 -41 -46 -41h-339q-46 0 -46 41q0 37 50 55t50 70v255h-302v119h302v53q0 26 -6 49h-296v119h233l-305 508q-20 30 -69 60q-26 13 -52 23t-44 21 q-15 8 -24 20q-7 11 -7 21z" />
<glyph unicode="&#xa6;" horiz-adv-x="1024" d="M340 -243v716h182v-716h-182zM340 793v717h182v-717h-182z" />
<glyph unicode="&#xa7;" horiz-adv-x="1024" d="M64 -163q0 16 10 28q12 22 38 22h4q26 -3 45 -39q57 -121 140 -161q68 -34 174 -34q23 0 47 2q69 5 132.5 36.5t102.5 93.5q40 65 40 157v11q-3 94 -71 143q-32 24 -77 37q-96 26 -198.5 37.5t-199.5 58.5q-89 42 -132 122t-43 173q0 175 105 276q-105 81 -105 251 q0 180 126 297q133 122 331 122q15 0 30 -1q213 -9 375 -113l-24 -205q-4 -36 -40 -36q-8 0 -12 1q-26 2 -41 40q-36 78 -107 132t-149 58h-14q-78 0 -139 -28q-37 -18 -62 -44q-23 -23 -38 -59q-16 -32 -22 -66q-6 -28 -6 -55q0 -33 9 -60q17 -56 60 -86q28 -22 68 -33 q23 -6 55 -11t69 -11q52 -9 111.5 -18.5t117.5 -25.5q101 -34 149 -86q35 -38 59 -89q26 -64 26 -140q0 -169 -102 -280q2 -1 17 -17q36 -41 59 -90q26 -64 26 -140q0 -203 -168 -342q-86 -69 -193 -105q-79 -27 -180 -33q-20 -1 -40 -1q-135 0 -270 42l-90 254q-3 8 -3 15z M284 567q0 -33 9 -60q18 -57 60 -85q27 -23 68 -33q35 -9 124 -23q52 -9 111.5 -18.5t117.5 -25.5q23 53 23 146v11q-3 95 -70 144q-36 24 -78 37q-81 21 -167.5 32t-151.5 33q-6 -7 -18 -36q-16 -31 -22 -67q-6 -28 -6 -55z" />
<glyph unicode="&#xa8;" horiz-adv-x="1000" d="M180 1290q0 130 135 130t135 -130q0 -131 -135 -131t-135 131zM650 1290q0 130 135 130t135 -130q0 -131 -135 -131t-135 131z" />
<glyph unicode="&#xa9;" horiz-adv-x="1532" d="M20 708q0 315 225.5 539.5t546.5 224.5t546.5 -224.5t225.5 -539.5q0 -316 -225.5 -540t-546.5 -224t-546.5 224t-225.5 540zM151 708q0 -269 188.5 -456.5t452.5 -187.5t453 187.5t189 456.5q0 268 -189 456t-453 188t-452.5 -188t-188.5 -456zM399 699q0 48 7 102 q39 198 206 294q95 54 217 60h19q148 0 280 -86l-15 -154q-4 -27 -32 -27h-3q-25 2 -37 29q-32 70 -81.5 99.5t-122.5 29.5h-19q-85 -4 -128 -45q-86 -81 -86 -235q0 -27 2 -56q9 -124 66 -202q76 -100 165 -114q15 -2 30 -1q78 0 141 38t82 38t38 -3q6 -16 6 -29t-13.5 -37 t-31.5 -41q-102 -83 -271 -83t-285 94q-134 114 -134 329z" />
<glyph unicode="&#xaa;" d="M163 605v53q0 46 62 46h664q62 0 62 -46v-53q0 -46 -62 -46h-664q-62 0 -62 46zM183 1069q0 35 6.5 80.5t34.5 90t57.5 67t50.5 31.5q226 84 241 84h4q45 -2 79 -13t52.5 -18.5t28.5 -7.5q9 0 23 19q9 11 19 11q11 0 26.5 -5.5t15.5 -22.5v-510q0 -34 33 -46t33 -38 t-31 -26h-160q-28 0 -28 22v28l-158 -58q-25 -8 -42 -8h-27q-102 5 -175 81q-83 88 -83 239zM336 1108q0 -120 46 -182q63 -85 152 -85q22 0 52 10.5t82 31.5v398q-21 20 -62 40t-72 21h-2q-11 0 -50.5 -15t-57.5 -22t-26 -15q-38 -41 -50 -93.5t-12 -67.5v-21z" />
<glyph unicode="&#xab;" horiz-adv-x="1074" d="M97 626q0 11 8 24q62 74 169.5 173.5t181.5 176.5q12 12 27 12t23 -8l37 -26q11 -11 11 -21q0 -9 -7 -15l-245 -313l249 -318q4 -7 4 -12q0 -15 -14 -24l-35 -24q-8 -8 -23 -8t-26 12q-85 84 -175 172t-174 176q-11 9 -11 23zM557 626q0 11 8 24q62 74 169.5 173.5 t181.5 176.5q12 12 27 12t23 -8l37 -26q11 -11 11 -21q0 -9 -7 -15l-245 -313l249 -318q4 -7 4 -12q0 -15 -14 -24l-35 -24q-8 -8 -23 -8t-26 12q-85 84 -175 172t-174 176q-11 9 -11 23z" />
<glyph unicode="&#xac;" d="M66 755v152h1018v-586h-167v434h-851z" />
<glyph unicode="&#xad;" horiz-adv-x="680" d="M121 437v83q0 49 66 49h356q66 0 66 -49v-83q0 -48 -65 -48h-358q-65 0 -65 48z" />
<glyph unicode="&#xae;" horiz-adv-x="1532" d="M20 708q0 315 225.5 539.5t546.5 224.5t546.5 -224.5t225.5 -539.5q0 -316 -225.5 -540t-546.5 -224t-546.5 224t-225.5 540zM151 708q0 -269 188.5 -456.5t452.5 -187.5t453 187.5t189 456.5q0 268 -189 456t-453 188t-452.5 -188t-188.5 -456zM440 293q0 23 30 33.5 t30 41.5v667q0 31 -30 41.5t-30 34.5t26 24h2h354q65 0 136 -23t110 -91q30 -53 30 -127q-1 -71 -41 -128q-32 -46 -88.5 -69.5t-83.5 -25.5l259 -340q11 -10 34 -11q30 -4 30 -25v-2q-4 -24 -28 -24h-160q-14 0 -51.5 49.5t-84.5 114.5t-96 133t-77 103h-73v-301 q0 -31 30 -41.5t30 -33.5q0 -24 -25 -24h-2h-203q-28 0 -28 24zM638 735h124q39 0 78.5 11t67.5 39q44 43 44 115q0 69 -46 115q-48 46 -129 46h-3h-136v-326z" />
<glyph unicode="&#xaf;" horiz-adv-x="1000" d="M190 1251v86q0 30 35 30h600q35 0 35 -30v-86q0 -31 -35 -31h-600q-35 0 -35 31z" />
<glyph unicode="&#xb0;" horiz-adv-x="819" d="M97 1078q0 135 96.5 232t237.5 97q140 0 237 -97t97 -232t-97 -232t-237 -97q-141 0 -237.5 97t-96.5 232zM230 1078q0 -87 59.5 -146.5t141.5 -59.5q81 0 141 59.5t60 146.5q0 86 -60 146.5t-141 60.5q-82 0 -141.5 -60.5t-59.5 -146.5z" />
<glyph unicode="&#xb1;" d="M163 159v53q0 46 62 46h664q62 0 62 -46v-53q0 -46 -62 -46h-664q-62 0 -62 46zM163 727v53q0 46 62 46h259v260q0 62 46 62h54q46 0 46 -62v-260h259q62 0 62 -46v-53q0 -46 -62 -46h-259v-259q0 -62 -46 -62h-54q-46 0 -46 62v259h-259q-62 0 -62 46z" />
<glyph unicode="&#xb2;" horiz-adv-x="880" d="M114 1150v101q9 20 18 34q36 48 98.5 84.5t151.5 48.5q35 4 70 4q113 0 214 -47q134 -63 136 -206v-2q0 -93 -60 -175.5t-141.5 -157t-164 -151.5t-114.5 -121h265q99 0 217 35l2 -126q-58 -30 -114.5 -32t-102.5 -2h-467v64q0 61 44 109q40 42 131 122q53 42 104 89 t108.5 103.5t84 112.5t26.5 94t-18 67q-39 61 -113 84q-42 13 -83 13q-42 0 -79 -7q-87 -18 -144 -87q-18 -22 -30 -51h-39z" />
<glyph unicode="&#xb3;" horiz-adv-x="880" d="M133 601h37q51 -71 156 -90q38 -7 85 -8q46 0 97 22q76 33 104 95q15 35 15 68q0 32 -11 60q-24 64 -99.5 110.5t-223.5 48.5l-3 40q67 18 135 42.5t100 69.5t32 86q0 12 -3 24q-11 51 -57.5 91.5t-118.5 40.5q-6 0 -12 -1q-81 -4 -133 -56q-24 -24 -37 -63h-39v120 q74 67 150 92t147 25q197 -2 262 -131q18 -37 18 -73q0 -89 -111 -177q-23 -18 -35 -25q98 -40 149 -113t51 -147q0 -10 -1 -20q-15 -148 -185 -249q-91 -53 -225 -65q-22 -2 -42 -2q-110 0 -197 56z" />
<glyph unicode="&#xb4;" horiz-adv-x="1000" d="M252 1114q0 14 12 28l379 260q25 18 56 18q99 0 99 -94q0 -65 -61 -87q-406 -152 -411 -152q-20 -10 -31 -10q-43 0 -43 37z" />
<glyph unicode="&#xb5;" horiz-adv-x="1325" d="M113 877q0 41 45 41q55 3 110 17q35 7 67 18t103 35v-564q0 -172 76 -264q59 -73 144 -73q46 0 101 20l131 49v596q0 50 -51 68t-51 57q0 41 45 41q52 2 109 16q68 15 178 55v-847q0 -51 51.5 -66.5t51.5 -54.5q0 -41 -46 -41h-288v75l-171 -67q-66 -25 -130 -25 q-18 0 -35 2q-81 9 -142 43q-72 39 -84 39l-2 -4l5 -20l47 -554v-3q0 -39 -45 -39h-92q-45 0 -45 41v1336q-15 15 -48.5 29t-33.5 44z" />
<glyph unicode="&#xb6;" horiz-adv-x="1266" d="M135 1093q0 135 93.5 232.5t228.5 98.5h749q51 0 51 -45q0 -44 -61 -66t-61 -87v-1348q0 -65 61 -87t61 -66q0 -45 -51 -45h-748q-51 0 -51 45q0 44 61 66t61 87v889q-18 -6 -71 -6q-136 0 -229.5 98t-93.5 234zM727 -214h210v1531h-210v-1531z" />
<glyph unicode="&#xb7;" horiz-adv-x="512" d="M133 618q0 57 42 99.5t105 42.5t105 -42.5t42 -99.5q0 -58 -42 -100t-105 -42t-105 42t-42 100z" />
<glyph unicode="&#xb8;" horiz-adv-x="1000" d="M354 -278q92 -70 128 -70q27 0 53 16q21 13 21 38t-40 63.5t-67 85.5q-13 23 -13 47q0 31 19 58q0 15 115 15q-17 -43 -17 -58q0 -28 23 -49q29 -27 69 -60q64 -53 64 -139v-7q-5 -100 -148 -111h-11q-70 0 -166 33z" />
<glyph unicode="&#xb9;" horiz-adv-x="880" d="M246 1263v52l348 122v-891q0 -35 40 -46t40 -35v-1q0 -27 -36 -27h-272q-36 0 -36 27v3q0 22 39 33q41 12 41 46v717h-164z" />
<glyph unicode="&#xba;" d="M163 605v53q0 46 62 46h664q62 0 62 -46v-53q0 -46 -62 -46h-664q-62 0 -62 46zM178 1083v2q1 149 112 252q15 14 41.5 23t65.5 23t75 26.5t60 12.5h3q137 -5 229.5 -103.5t94.5 -233.5v-4q0 -137 -98 -232.5t-243 -99.5h-10q-135 0 -232.5 99t-97.5 235zM337 1096 q0 -112 54.5 -192.5t127.5 -83.5h9q67 0 120.5 71.5t53.5 183.5t-55 192.5t-128 84.5h-7q-68 0 -121.5 -72t-53.5 -184z" />
<glyph unicode="&#xbb;" horiz-adv-x="1074" d="M97 299q0 5 4 12l249 318l-245 313q-7 6 -7 15q0 10 11 21l37 26q8 8 23 8t27 -12q74 -76 182 -176t169 -174q8 -13 8 -24q0 -14 -11 -23q-84 -88 -174 -176t-175 -172q-11 -12 -26 -12t-23 8l-35 24q-14 9 -14 24zM557 299q0 5 4 12l249 318l-245 313q-7 6 -7 15 q0 10 11 21l37 26q8 8 23 8t27 -12q74 -76 182 -176t169 -174q8 -13 8 -24q0 -14 -11 -23q-84 -88 -174 -176t-175 -172q-11 -12 -26 -12t-23 8l-35 24q-14 9 -14 24z" />
<glyph unicode="&#xbc;" horiz-adv-x="1300" d="M142 1327v36l199 85v-621q0 -24 23 -32t23 -25q0 -19 -20 -19h-157q-20 0 -20 19v2q0 15 22 23q23 8 24 32v500h-94zM166 -52l952 1492h147l-951 -1492h-148zM831 182v64l273 409h101v-390h93v-83h-93v-115q0 -23 32 -31t33 -26v-2q0 -17 -21 -17h-195q-21 1 -21 17v2 q1 18 33.5 26t32.5 31v115h-268zM921 265h178v271z" />
<glyph unicode="&#xbd;" horiz-adv-x="1300" d="M142 1327v36l199 85v-621q0 -24 23 -32t23 -25q0 -19 -20 -19h-157q-20 0 -20 19v2q0 15 22 23q23 8 24 32v500h-94zM166 -52l952 1492h147l-951 -1492h-148zM866 488v70q5 14 10 24q21 33 56.5 59t87.5 33q20 3 40 3q65 0 123 -33q77 -44 78 -143v-1q0 -65 -34.5 -122.5 t-81 -109.5t-94 -105.5t-66.5 -84.5h153q57 0 124 25l1 -88q-34 -21 -66 -22.5t-58 -1.5h-269v45q0 43 26 75q23 29 75 85q30 29 59.5 62.5t62.5 72.5t48 78t15 66q0 26 -10 46q-23 42 -65 59q-24 9 -47 9q-24 0 -46 -5q-50 -13 -83 -61q-11 -16 -17 -35h-22z" />
<glyph unicode="&#xbe;" horiz-adv-x="1300" d="M76 865h22q29 -49 89 -63q22 -5 49 -5t56 15q44 23 60 67q9 24 9 47q0 22 -7 41q-14 45 -57.5 77.5t-128.5 33.5l-1 28q39 12 77.5 29.5t57 49t18.5 59.5q0 8 -1 17q-6 36 -33 64t-68 28q-4 0 -7 -1q-46 -3 -77 -39q-14 -17 -21 -43h-23v83q42 47 86 64t85 17 q113 -1 151 -91q11 -26 10 -51q0 -62 -64 -123q-13 -13 -20 -18q56 -28 85.5 -78.5t29.5 -101.5v-15q-9 -103 -107 -173q-52 -37 -129 -45q-12 -1 -24 -1q-63 0 -114 39zM166 -52l952 1492h147l-951 -1492h-148zM831 182v64l273 409h101v-390h93v-83h-93v-115q0 -23 32 -31 t33 -26v-2q0 -17 -21 -17h-195q-21 1 -21 17v2q1 18 33.5 26t32.5 31v115h-268zM921 265h178v271z" />
<glyph unicode="&#xbf;" horiz-adv-x="784" d="M78 -219q0 174 177 284q18 11 43 26q55 35 69 64q16 28 19 97l4 172q0 55 11 89q17 40 54 40q36 0 51 -45q12 -31 12 -85v-316q-129 -91 -173 -160q-44 -70 -44 -165q0 -103 41 -154q37 -45 114 -45q65 0 94 40q34 48 44 174q3 32 29 49q25 18 67 18q44 0 69 -19 q22 -19 22 -57q0 -140 -94 -224t-254 -84q-165 0 -261 81q-94 81 -94 220zM323 759v82q0 106 135 106t135 -106v-82q0 -107 -135 -107t-135 107z" />
<glyph unicode="&#xc0;" horiz-adv-x="1593" d="M61 10q0 6 2 14q6 28 41 43t72 32q31 22 45 53l573 1295h97q56 -132 129.5 -303t152 -352t152 -352t124.5 -288q13 -32 42.5 -51.5t52 -29.5t38 -20.5t20 -20.5t4.5 -17t-6.5 -20t-32.5 -13h-338q-18 0 -34 11t-19.5 20.5t-3.5 20.5t14 24t25 21.5t14 17t3 19.5 q0 12 -6 27l-143 328h-547q-30 -72 -65.5 -157.5t-57.5 -137t-23 -61.5t-1 -17t2.5 -15t9.5 -17t9.5 -20t2.5 -16q0 -7 -3 -13q-12 -35 -46 -35h-258q-41 0 -41 30zM561 1776q0 94 99 94q31 0 56 -18l379 -260q12 -14 12 -28q0 -37 -43 -37q-11 0 -31 10q-5 0 -411 152 q-61 22 -61 87zM582 590h445l-226 527q-40 -97 -103.5 -249t-115.5 -278z" />
<glyph unicode="&#xc1;" horiz-adv-x="1593" d="M61 10q0 6 2 14q6 28 41 43t72 32q31 22 45 53l573 1295h97q56 -132 129.5 -303t152 -352t152 -352t124.5 -288q13 -32 42.5 -51.5t52 -29.5t38 -20.5t20 -20.5t4.5 -17t-6.5 -20t-32.5 -13h-338q-18 0 -34 11t-19.5 20.5t-3.5 20.5t14 24t25 21.5t14 17t3 19.5 q0 12 -6 27l-143 328h-547q-30 -72 -65.5 -157.5t-57.5 -137t-23 -61.5t-1 -17t2.5 -15t9.5 -17t9.5 -20t2.5 -16q0 -7 -3 -13q-12 -35 -46 -35h-258q-41 0 -41 30zM561 1564q0 14 12 28l379 260q25 18 56 18q99 0 99 -94q0 -65 -61 -87q-406 -152 -411 -152 q-20 -10 -31 -10q-43 0 -43 37zM582 590h445l-226 527q-40 -97 -103.5 -249t-115.5 -278z" />
<glyph unicode="&#xc2;" horiz-adv-x="1593" d="M61 10q0 6 2 14q6 28 41 43t72 32q31 22 45 53l573 1295h97q56 -132 129.5 -303t152 -352t152 -352t124.5 -288q13 -32 42.5 -51.5t52 -29.5t38 -20.5t20 -20.5t4.5 -17t-6.5 -20t-32.5 -13h-338q-18 0 -34 11t-19.5 20.5t-3.5 20.5t14 24t25 21.5t14 17t3 19.5 q0 12 -6 27l-143 328h-547q-30 -72 -65.5 -157.5t-57.5 -137t-23 -61.5t-1 -17t2.5 -15t9.5 -17t9.5 -20t2.5 -16q0 -7 -3 -13q-12 -35 -46 -35h-258q-41 0 -41 30zM505 1526l257 387h145l256 -387h-110l-219 199l-218 -199h-111zM582 590h445l-226 527q-40 -97 -103.5 -249 t-115.5 -278z" />
<glyph unicode="&#xc3;" horiz-adv-x="1593" d="M61 10q0 6 2 14q6 28 41 43t72 32q31 22 45 53l573 1295h97q56 -132 129.5 -303t152 -352t152 -352t124.5 -288q13 -32 42.5 -51.5t52 -29.5t38 -20.5t20 -20.5t4.5 -17t-6.5 -20t-32.5 -13h-338q-18 0 -34 11t-19.5 20.5t-3.5 20.5t14 24t25 21.5t14 17t3 19.5 q0 12 -6 27l-143 328h-547q-30 -72 -65.5 -157.5t-57.5 -137t-23 -61.5t-1 -17t2.5 -15t9.5 -17t9.5 -20t2.5 -16q0 -7 -3 -13q-12 -35 -46 -35h-258q-41 0 -41 30zM492 1627v3q0 21 20 63l53 117q40 90 135 90q94 0 192 -95q38 -39 74 -39q31 0 65 29q34 28 61 97 q10 27 38 27q5 0 11 -1q34 -9 35 -33v-8q0 -18 -4 -26q-42 -116 -87.5 -175t-104.5 -59q-90 0 -191 91q-40 39 -76 39q-27 0 -56 -23l-20 -17q-36 -34 -64 -96q-12 -23 -40 -23q-39 9 -41 39zM582 590h445l-226 527q-40 -97 -103.5 -249t-115.5 -278z" />
<glyph unicode="&#xc4;" horiz-adv-x="1593" d="M61 10q0 6 2 14q6 28 41 43t72 32q31 22 45 53l573 1295h97q56 -132 129.5 -303t152 -352t152 -352t124.5 -288q13 -32 42.5 -51.5t52 -29.5t38 -20.5t20 -20.5t4.5 -17t-6.5 -20t-32.5 -13h-338q-18 0 -34 11t-19.5 20.5t-3.5 20.5t14 24t25 21.5t14 17t3 19.5 q0 12 -6 27l-143 328h-547q-30 -72 -65.5 -157.5t-57.5 -137t-23 -61.5t-1 -17t2.5 -15t9.5 -17t9.5 -20t2.5 -16q0 -7 -3 -13q-12 -35 -46 -35h-258q-41 0 -41 30zM464 1740q0 130 135 130t135 -130q0 -131 -135 -131t-135 131zM582 590h445l-226 527q-40 -97 -103.5 -249 t-115.5 -278zM934 1740q0 130 135 130t135 -130q0 -131 -135 -131t-135 131z" />
<glyph unicode="&#xc5;" horiz-adv-x="1593" d="M61 10q0 6 2 14q6 28 41 43t72 32q31 22 45 53l573 1295h97q56 -132 129.5 -303t152 -352t152 -352t124.5 -288q13 -32 42.5 -51.5t52 -29.5t38 -20.5t20 -20.5t4.5 -17t-6.5 -20t-32.5 -13h-338q-18 0 -34 11t-19.5 20.5t-3.5 20.5t14 24t25 21.5t14 17t3 19.5 q0 12 -6 27l-143 328h-547q-30 -72 -65.5 -157.5t-57.5 -137t-23 -61.5t-1 -17t2.5 -15t9.5 -17t9.5 -20t2.5 -16q0 -7 -3 -13q-12 -35 -46 -35h-258q-41 0 -41 30zM582 590h445l-226 527q-40 -97 -103.5 -249t-115.5 -278zM614 1764q0 89 63.5 154.5t156.5 65.5 t156.5 -65.5t63.5 -154.5q0 -90 -63.5 -154.5t-156.5 -64.5t-156.5 64.5t-63.5 154.5zM740 1765q3 -66 35 -109t68 -43q35 0 58 36q28 55 28 107q0 61 -38 120q-30 40 -65 40t-58 -37q-28 -43 -28 -102v-12z" />
<glyph unicode="&#xc6;" horiz-adv-x="1933" d="M-93 2v9q0 8 5 19q13 16 48 34q17 8 34.5 16t35.5 19q35 23 55 55l689 1169q-12 3 -52.5 15.5t-40.5 44.5q0 41 46 41h1080v-277q0 -41 -46 -41q-25 0 -59 50q-49 68 -81 101.5t-79 33.5h-403v-503h204q46 0 66 51.5t64 51.5q45 0 45 -41v-254q0 -41 -45 -41 q-43 0 -66 51t-70 51h-198v-543h403q79 0 139.5 67t93.5 107q26 31 49 31q46 0 46 -41q0 -15 -3 -25l-77 -273h-939q-43 0 -43 41q0 38 50 55.5t50 69.5v323h-464q-41 -74 -89.5 -159.5t-96.5 -170.5q-8 -14 -14 -33q-3 -9 -3 -18q0 -4 1 -7q1 -11 6 -19t7 -16t2 -13 q0 -4 -4 -16q-19 -37 -50 -37h-257q-28 0 -39 22zM512 590h399l-2 715q-67 -140 -197 -365.5t-200 -349.5z" />
<glyph unicode="&#xc7;" horiz-adv-x="1405" d="M67 704q0 343 237 552t566 209h3q117 -1 251 -27t266 -110l-25 -222q-8 -35 -45 -35h-4q-28 2 -48 41q-55 119 -164 174q-102 50 -217 50h-20q-256 -11 -402 -206q-133 -178 -133 -395q0 -24 2 -49q14 -226 156 -408t384 -193q24 -1 45 -1q121 0 199 36q88 42 150 175 q19 41 55 41q8 0 17 -2q32 -12 32 -42q0 -11 -5 -24l-90 -251q-109 -45 -211 -59t-193 -15q-59 0 -115 7q-8 -23 -8 -33q0 -28 23 -49q29 -27 69 -60q64 -53 64 -139v-7q-5 -100 -148 -111h-11q-70 0 -166 33l-30 138q92 -70 128 -70q27 0 53 16q21 13 21 38q0 26 -40 64 t-67 85q-13 23 -13 47q0 31 19 58q0 4 9 7q-189 46 -349 178q-245 203 -245 559z" />
<glyph unicode="&#xc8;" horiz-adv-x="1251" d="M155 21q0 38 50 55.5t50 69.5v1111q0 52 -50 69.5t-50 56.5q0 41 46 41h953v-277q0 -41 -46 -41q-25 0 -59 50q-49 68 -81 101.5t-80 33.5h-402v-503h204q46 0 66 51.5t64 51.5q45 0 45 -41v-254q0 -41 -45 -41q-43 0 -66 51t-70 51h-198v-543h402q80 0 140.5 67 t93.5 107q26 31 49 31q46 0 46 -41q0 -15 -3 -25l-77 -273h-939q-43 0 -43 41zM413 1776q0 94 99 94q31 0 56 -18l379 -260q12 -14 12 -28q0 -37 -43 -37q-11 0 -31 10q-5 0 -411 152q-61 22 -61 87z" />
<glyph unicode="&#xc9;" horiz-adv-x="1251" d="M155 21q0 38 50 55.5t50 69.5v1111q0 52 -50 69.5t-50 56.5q0 41 46 41h953v-277q0 -41 -46 -41q-25 0 -59 50q-49 68 -81 101.5t-80 33.5h-402v-503h204q46 0 66 51.5t64 51.5q45 0 45 -41v-254q0 -41 -45 -41q-43 0 -66 51t-70 51h-198v-543h402q80 0 140.5 67 t93.5 107q26 31 49 31q46 0 46 -41q0 -15 -3 -25l-77 -273h-939q-43 0 -43 41zM413 1564q0 14 12 28l379 260q25 18 56 18q99 0 99 -94q0 -65 -61 -87q-406 -152 -411 -152q-20 -10 -31 -10q-43 0 -43 37z" />
<glyph unicode="&#xca;" horiz-adv-x="1251" d="M155 21q0 38 50 55.5t50 69.5v1111q0 52 -50 69.5t-50 56.5q0 41 46 41h953v-277q0 -41 -46 -41q-25 0 -59 50q-49 68 -81 101.5t-80 33.5h-402v-503h204q46 0 66 51.5t64 51.5q45 0 45 -41v-254q0 -41 -45 -41q-43 0 -66 51t-70 51h-198v-543h402q80 0 140.5 67 t93.5 107q26 31 49 31q46 0 46 -41q0 -15 -3 -25l-77 -273h-939q-43 0 -43 41zM357 1526l257 387h145l256 -387h-110l-219 199l-218 -199h-111z" />
<glyph unicode="&#xcb;" horiz-adv-x="1251" d="M155 21q0 38 50 55.5t50 69.5v1111q0 52 -50 69.5t-50 56.5q0 41 46 41h953v-277q0 -41 -46 -41q-25 0 -59 50q-49 68 -81 101.5t-80 33.5h-402v-503h204q46 0 66 51.5t64 51.5q45 0 45 -41v-254q0 -41 -45 -41q-43 0 -66 51t-70 51h-198v-543h402q80 0 140.5 67 t93.5 107q26 31 49 31q46 0 46 -41q0 -15 -3 -25l-77 -273h-939q-43 0 -43 41zM316 1740q0 130 135 130t135 -130q0 -131 -135 -131t-135 131zM786 1740q0 130 135 130t135 -130q0 -131 -135 -131t-135 131z" />
<glyph unicode="&#xcc;" horiz-adv-x="690" d="M97 1776q0 94 99 94q31 0 56 -18l379 -260q12 -14 12 -28q0 -37 -43 -37q-11 0 -31 10q-5 0 -411 152q-61 22 -61 87zM155 21q0 38 50 55.5t50 69.5v1111q0 52 -50 69.5t-50 56.5q0 41 46 41h338q46 0 46 -41q0 -39 -50 -56.5t-50 -69.5v-1110q0 -53 50 -70.5t50 -55.5 q0 -41 -46 -41h-339q-45 0 -45 41z" />
<glyph unicode="&#xcd;" horiz-adv-x="690" d="M97 1564q0 14 12 28l379 260q25 18 56 18q99 0 99 -94q0 -65 -61 -87q-406 -152 -411 -152q-20 -10 -31 -10q-43 0 -43 37zM155 21q0 38 50 55.5t50 69.5v1111q0 52 -50 69.5t-50 56.5q0 41 46 41h338q46 0 46 -41q0 -39 -50 -56.5t-50 -69.5v-1110q0 -53 50 -70.5 t50 -55.5q0 -41 -46 -41h-339q-45 0 -45 41z" />
<glyph unicode="&#xce;" horiz-adv-x="690" d="M41 1526l257 387h145l256 -387h-110l-219 199l-218 -199h-111zM155 21q0 38 50 55.5t50 69.5v1111q0 52 -50 69.5t-50 56.5q0 41 46 41h338q46 0 46 -41q0 -39 -50 -56.5t-50 -69.5v-1110q0 -53 50 -70.5t50 -55.5q0 -41 -46 -41h-339q-45 0 -45 41z" />
<glyph unicode="&#xcf;" horiz-adv-x="690" d="M0 1740q0 130 135 130t135 -130q0 -131 -135 -131t-135 131zM155 21q0 38 50 55.5t50 69.5v1111q0 52 -50 69.5t-50 56.5q0 41 46 41h338q46 0 46 -41q0 -39 -50 -56.5t-50 -69.5v-1110q0 -53 50 -70.5t50 -55.5q0 -41 -46 -41h-339q-45 0 -45 41zM470 1740 q0 130 135 130t135 -130q0 -131 -135 -131t-135 131z" />
<glyph unicode="&#xd0;" horiz-adv-x="1585" d="M25 704v39q0 40 21 40h162v479q0 51 -50 68.5t-50 56.5q0 41 46 41q42 -1 85 -1l313 6q154 0 326 -9.5t320 -74t243 -195.5q108 -152 111 -427q0 -169 -69.5 -318t-205.5 -254q-231 -178 -563 -182h-80q-58 0 -109 1h-117q-84 0 -127 3h-23q-39 0 -103 -6q-47 0 -47 40 t50 58t50 70v526h-137q-46 0 -46 39zM449 116q104 -20 215 -20q42 0 83 3q335 29 471 288q72 137 72 349v33q-13 304 -191 432q-150 113 -397 113h-26q-121 0 -227 -17v-514h292q45 0 45 -40v-39q0 -39 -45 -39h-292v-549z" />
<glyph unicode="&#xd1;" horiz-adv-x="1644" d="M134 21q0 38 50 55.5t50 69.5v1111q0 51 -50 69t-50 57q0 41 46 41h271l918 -1153v986q0 51 -49.5 69t-49.5 57q0 41 45 41h255q46 0 46 -41q0 -39 -50 -57t-50 -69l-1 -1327l-218 53l-917 1138v-975q0 -52 50 -69.5t50 -55.5q0 -41 -46 -41h-254q-46 0 -46 41zM533 1627 v3q0 21 20 63l53 117q40 90 135 90q94 0 192 -95q38 -39 74 -39q31 0 65 29q34 28 61 97q10 27 38 27q5 0 11 -1q34 -9 35 -33v-8q0 -18 -4 -26q-42 -116 -87.5 -175t-104.5 -59q-90 0 -191 91q-40 39 -76 39q-27 0 -56 -23l-20 -17q-36 -34 -64 -96q-12 -23 -40 -23 q-39 9 -41 39z" />
<glyph unicode="&#xd2;" horiz-adv-x="1610" d="M48 669q0 18 1 37q12 347 227 551.5t557 208.5h10q334 0 564 -205q213 -191 213 -501q0 -28 -2 -56q-21 -351 -245.5 -546t-540.5 -213q-23 -1 -47 -1q-289 0 -511 199q-226 202 -226 526zM307 702q0 -265 147.5 -449.5t378.5 -186.5h5q225 0 372 194q148 197 148 436v6 q-2 244 -125 440t-400 196q-292 -1 -409 -186t-117 -450zM561 1776q0 94 99 94q31 0 56 -18l379 -260q12 -14 12 -28q0 -37 -43 -37q-11 0 -31 10q-5 0 -411 152q-61 22 -61 87z" />
<glyph unicode="&#xd3;" horiz-adv-x="1610" d="M48 669q0 18 1 37q12 347 227 551.5t557 208.5h10q334 0 564 -205q213 -191 213 -501q0 -28 -2 -56q-21 -351 -245.5 -546t-540.5 -213q-23 -1 -47 -1q-289 0 -511 199q-226 202 -226 526zM307 702q0 -265 147.5 -449.5t378.5 -186.5h5q225 0 372 194q148 197 148 436v6 q-2 244 -125 440t-400 196q-292 -1 -409 -186t-117 -450zM561 1564q0 14 12 28l379 260q25 18 56 18q99 0 99 -94q0 -65 -61 -87q-406 -152 -411 -152q-20 -10 -31 -10q-43 0 -43 37z" />
<glyph unicode="&#xd4;" horiz-adv-x="1610" d="M48 669q0 18 1 37q12 347 227 551.5t557 208.5h10q334 0 564 -205q213 -191 213 -501q0 -28 -2 -56q-21 -351 -245.5 -546t-540.5 -213q-23 -1 -47 -1q-289 0 -511 199q-226 202 -226 526zM307 702q0 -265 147.5 -449.5t378.5 -186.5h5q225 0 372 194q148 197 148 436v6 q-2 244 -125 440t-400 196q-292 -1 -409 -186t-117 -450zM505 1526l257 387h145l256 -387h-110l-219 199l-218 -199h-111z" />
<glyph unicode="&#xd5;" horiz-adv-x="1610" d="M48 669q0 18 1 37q12 347 227 551.5t557 208.5h10q334 0 564 -205q213 -191 213 -501q0 -28 -2 -56q-21 -351 -245.5 -546t-540.5 -213q-23 -1 -47 -1q-289 0 -511 199q-226 202 -226 526zM307 702q0 -265 147.5 -449.5t378.5 -186.5h5q225 0 372 194q148 197 148 436v6 q-2 244 -125 440t-400 196q-292 -1 -409 -186t-117 -450zM492 1627v3q0 21 20 63l53 117q40 90 135 90q94 0 192 -95q38 -39 74 -39q31 0 65 29q34 28 61 97q10 27 38 27q5 0 11 -1q34 -9 35 -33v-8q0 -18 -4 -26q-42 -116 -87.5 -175t-104.5 -59q-90 0 -191 91 q-40 39 -76 39q-27 0 -56 -23l-20 -17q-36 -34 -64 -96q-12 -23 -40 -23q-39 9 -41 39z" />
<glyph unicode="&#xd6;" horiz-adv-x="1610" d="M48 669q0 18 1 37q12 347 227 551.5t557 208.5h10q334 0 564 -205q213 -191 213 -501q0 -28 -2 -56q-21 -351 -245.5 -546t-540.5 -213q-23 -1 -47 -1q-289 0 -511 199q-226 202 -226 526zM307 702q0 -265 147.5 -449.5t378.5 -186.5h5q225 0 372 194q148 197 148 436v6 q-2 244 -125 440t-400 196q-292 -1 -409 -186t-117 -450zM464 1740q0 130 135 130t135 -130q0 -131 -135 -131t-135 131zM934 1740q0 130 135 130t135 -130q0 -131 -135 -131t-135 131z" />
<glyph unicode="&#xd7;" d="M246 402q0 21 25 46l183 183l-183 184q-25 25 -25 47q0 16 13 30l38 38q14 14 30 14q22 0 47 -26l184 -183l183 183q25 25 46 25q16 0 30 -14l38 -37q14 -14 14 -30q0 -22 -26 -47l-183 -183l183 -183q25 -25 25 -47q0 -16 -13 -30l-38 -38q-14 -14 -30 -14q-22 0 -47 26 l-183 183l-183 -183q-25 -25 -47 -25q-16 0 -30 13l-37 38q-14 14 -14 30z" />
<glyph unicode="&#xd8;" horiz-adv-x="1610" d="M48 669q0 18 1 37q12 348 227 552t557 208h10q322 0 548 -191l177 168q14 12 30 12q18 0 33 -13l35 -38q13 -11 13 -26q0 -13 -13 -26l-182 -172q136 -172 136 -420q0 -28 -2 -56q-22 -351 -246 -546t-540 -213q-23 -1 -47 -1q-250 0 -450 149l-141 -133q-13 -13 -32 -13 q-18 0 -33 15l-35 36q-11 11 -11 25t12 26l140 132q-187 194 -187 488zM307 702q0 -208 91 -366l841 796l-6 10q-123 196 -400 196q-292 -1 -409 -186t-117 -450zM476 227q142 -159 357 -161h5q225 0 372 194q148 197 148 436v6q-1 163 -57 305z" />
<glyph unicode="&#xd9;" horiz-adv-x="1554" d="M134 1383q0 41 46 41h339q45 0 45 -41q0 -39 -49 -55.5t-49 -67.5v-539q0 -152 10 -268.5t50 -194.5q38 -75 116.5 -113.5t221.5 -38.5q247 0 334 195q66 142 66 420v536q0 51 -50 69t-50 57q0 41 46 41h255q45 0 45 -41q0 -39 -49.5 -57t-49.5 -69v-669 q-1 -151 -28 -277t-101 -214q-135 -156 -418 -156q-175 0 -301 33.5t-203 123.5q-126 146 -126 490v670q0 51 -50 68.5t-50 56.5zM549 1776q0 94 99 94q31 0 56 -18l379 -260q12 -14 12 -28q0 -37 -43 -37q-11 0 -31 10q-5 0 -411 152q-61 22 -61 87z" />
<glyph unicode="&#xda;" horiz-adv-x="1554" d="M134 1383q0 41 46 41h339q45 0 45 -41q0 -39 -49 -55.5t-49 -67.5v-539q0 -152 10 -268.5t50 -194.5q38 -75 116.5 -113.5t221.5 -38.5q247 0 334 195q66 142 66 420v536q0 51 -50 69t-50 57q0 41 46 41h255q45 0 45 -41q0 -39 -49.5 -57t-49.5 -69v-669 q-1 -151 -28 -277t-101 -214q-135 -156 -418 -156q-175 0 -301 33.5t-203 123.5q-126 146 -126 490v670q0 51 -50 68.5t-50 56.5zM549 1564q0 14 12 28l379 260q25 18 56 18q99 0 99 -94q0 -65 -61 -87q-406 -152 -411 -152q-20 -10 -31 -10q-43 0 -43 37z" />
<glyph unicode="&#xdb;" horiz-adv-x="1554" d="M134 1383q0 41 46 41h339q45 0 45 -41q0 -39 -49 -55.5t-49 -67.5v-539q0 -152 10 -268.5t50 -194.5q38 -75 116.5 -113.5t221.5 -38.5q247 0 334 195q66 142 66 420v536q0 51 -50 69t-50 57q0 41 46 41h255q45 0 45 -41q0 -39 -49.5 -57t-49.5 -69v-669 q-1 -151 -28 -277t-101 -214q-135 -156 -418 -156q-175 0 -301 33.5t-203 123.5q-126 146 -126 490v670q0 51 -50 68.5t-50 56.5zM493 1526l257 387h145l256 -387h-110l-219 199l-218 -199h-111z" />
<glyph unicode="&#xdc;" horiz-adv-x="1554" d="M134 1383q0 41 46 41h339q45 0 45 -41q0 -39 -49 -55.5t-49 -67.5v-539q0 -152 10 -268.5t50 -194.5q38 -75 116.5 -113.5t221.5 -38.5q247 0 334 195q66 142 66 420v536q0 51 -50 69t-50 57q0 41 46 41h255q45 0 45 -41q0 -39 -49.5 -57t-49.5 -69v-669 q-1 -151 -28 -277t-101 -214q-135 -156 -418 -156q-175 0 -301 33.5t-203 123.5q-126 146 -126 490v670q0 51 -50 68.5t-50 56.5zM452 1740q0 130 135 130t135 -130q0 -131 -135 -131t-135 131zM922 1740q0 130 135 130t135 -130q0 -131 -135 -131t-135 131z" />
<glyph unicode="&#xdd;" horiz-adv-x="1366" d="M47 1394v5q4 25 35 25h339q19 0 35 -10q14 -10 23 -22q6 -10 6 -19q0 -13 -11 -26q-7 -9 -15 -17.5t-9 -16.5v-5q0 -17 13 -36l315 -499l237 360q27 41 31 70q1 3 1 7q0 26 -21 69l-43 86l162 71q13 5 25 5q28 0 46 -27l61 -102q13 -23 13 -46q0 -41 -39 -81 q-52 -55 -111 -140l-266 -388q-16 -24 -21 -70.5t-5 -89.5v-351q0 -52 50 -69.5t50 -55.5q0 -41 -46 -41h-339q-46 0 -46 41q0 38 50 55.5t50 69.5v427q0 54 -26 96l-348 580q-20 30 -69 60q-26 13 -52 23t-44 21q-15 8 -24 20q-7 11 -7 21zM396 1564q0 14 12 28l379 260 q25 18 56 18q99 0 99 -94q0 -65 -61 -87q-406 -152 -411 -152q-20 -10 -31 -10q-43 0 -43 37z" />
<glyph unicode="&#xde;" horiz-adv-x="1151" d="M71 21q0 38 50 55.5t50 69.5v1111q0 51 -50 69t-50 57q0 41 46 41h338q46 0 46 -41q0 -39 -50 -57t-50 -69v-149h285q108 0 226.5 -38.5t184.5 -151.5q50 -89 50 -212q-2 -118 -68 -213q-58 -82 -164 -122t-193 -40h-321v-185q0 -52 50 -69.5t50 -55.5q0 -41 -46 -41 h-339q-45 0 -45 41zM401 441h186q65 0 130.5 18.5t112.5 65.5q74 71 74 191q-2 116 -77 191q-81 78 -220 78h-206v-544z" />
<glyph unicode="&#xdf;" horiz-adv-x="1269" d="M107 21q0 38 50 55.5t50 69.5v881q0 92 23.5 180.5t82.5 154.5q108 124 267 124q35 0 72 -6q187 -33 276 -208q34 -68 34 -132q0 -100 -84 -190q-56 -60 -117 -102.5t-73 -99.5q-5 -21 -5 -37q0 -52 44 -73q68 -34 159 -55q132 -29 245 -81.5t123 -220.5v-12 q0 -79 -61 -156q-66 -86 -191 -129q-77 -26 -170 -29h-28q-126 0 -255 37l-11 30v-1q0 -41 -46 -41h-339q-46 0 -46 41zM438 146q0 -52 50 -69q27 -10 39 -25l-63 173l2 23q2 34 43 34h5q25 -5 41 -37q44 -94 104.5 -131.5t153.5 -40.5h12q66 0 146 31q78 31 81 112v6 q0 94 -85 118q-106 30 -186 53q-103 28 -194 90q-95 64 -95 189v3q0 107 69.5 160.5t131.5 111.5q60 55 72 148q2 19 2 38q0 68 -35 118q-40 56 -127 65q-11 1 -22 1q-68 0 -105 -49q-31 -42 -35.5 -108t-4.5 -133v-881z" />
<glyph unicode="&#xe0;" horiz-adv-x="1155" d="M62 440q0 53 10 122.5t52 137t87 101t76 47.5q342 128 365 128h6q68 -3 120 -20t80 -28.5t43 -11.5q14 0 35 29q13 17 29 17t39.5 -8.5t23.5 -33.5v-774q0 -52 50 -69.5t50 -56.5q0 -40 -46 -40h-243q-42 0 -42 33v43l-240 -88q-37 -13 -63 -13h-42q-154 8 -264 124 q-126 133 -126 361zM293 500q0 -182 70 -276q95 -129 230 -129q34 0 79 16t125 47v604q-32 30 -94.5 60t-108.5 32h-3q-16 0 -76.5 -23t-88 -33.5t-38.5 -22.5q-58 -62 -76.5 -141.5t-18.5 -101.5v-32zM322 1326q0 94 99 94q31 0 56 -18l379 -260q12 -14 12 -28 q0 -37 -43 -37q-11 0 -31 10q-5 0 -411 152q-61 22 -61 87z" />
<glyph unicode="&#xe1;" horiz-adv-x="1155" d="M62 440q0 53 10 122.5t52 137t87 101t76 47.5q342 128 365 128h6q68 -3 120 -20t80 -28.5t43 -11.5q14 0 35 29q13 17 29 17t39.5 -8.5t23.5 -33.5v-774q0 -52 50 -69.5t50 -56.5q0 -40 -46 -40h-243q-42 0 -42 33v43l-240 -88q-37 -13 -63 -13h-42q-154 8 -264 124 q-126 133 -126 361zM293 500q0 -182 70 -276q95 -129 230 -129q34 0 79 16t125 47v604q-32 30 -94.5 60t-108.5 32h-3q-16 0 -76.5 -23t-88 -33.5t-38.5 -22.5q-58 -62 -76.5 -141.5t-18.5 -101.5v-32zM322 1114q0 14 12 28l379 260q25 18 56 18q99 0 99 -94q0 -65 -61 -87 q-406 -152 -411 -152q-20 -10 -31 -10q-43 0 -43 37z" />
<glyph unicode="&#xe2;" horiz-adv-x="1155" d="M62 440q0 53 10 122.5t52 137t87 101t76 47.5q342 128 365 128h6q68 -3 120 -20t80 -28.5t43 -11.5q14 0 35 29q13 17 29 17t39.5 -8.5t23.5 -33.5v-774q0 -52 50 -69.5t50 -56.5q0 -40 -46 -40h-243q-42 0 -42 33v43l-240 -88q-37 -13 -63 -13h-42q-154 8 -264 124 q-126 133 -126 361zM266 1076l257 387h145l256 -387h-110l-219 199l-218 -199h-111zM293 500q0 -182 70 -276q95 -129 230 -129q34 0 79 16t125 47v604q-32 30 -94.5 60t-108.5 32h-3q-16 0 -76.5 -23t-88 -33.5t-38.5 -22.5q-58 -62 -76.5 -141.5t-18.5 -101.5v-32z" />
<glyph unicode="&#xe3;" horiz-adv-x="1155" d="M62 440q0 53 10 122.5t52 137t87 101t76 47.5q342 128 365 128h6q68 -3 120 -20t80 -28.5t43 -11.5q14 0 35 29q13 17 29 17t39.5 -8.5t23.5 -33.5v-774q0 -52 50 -69.5t50 -56.5q0 -40 -46 -40h-243q-42 0 -42 33v43l-240 -88q-37 -13 -63 -13h-42q-154 8 -264 124 q-126 133 -126 361zM253 1177v3q0 21 20 63l53 117q40 90 135 90q94 0 192 -95q38 -39 74 -39q31 0 65 29q34 28 61 97q10 27 38 27q5 0 11 -1q34 -9 35 -33v-8q0 -18 -4 -26q-42 -116 -87.5 -175t-104.5 -59q-90 0 -191 91q-40 39 -76 39q-27 0 -56 -23l-20 -17 q-36 -34 -64 -96q-12 -23 -40 -23q-39 9 -41 39zM293 500q0 -182 70 -276q95 -129 230 -129q34 0 79 16t125 47v604q-32 30 -94.5 60t-108.5 32h-3q-16 0 -76.5 -23t-88 -33.5t-38.5 -22.5q-58 -62 -76.5 -141.5t-18.5 -101.5v-32z" />
<glyph unicode="&#xe4;" horiz-adv-x="1155" d="M62 440q0 53 10 122.5t52 137t87 101t76 47.5q342 128 365 128h6q68 -3 120 -20t80 -28.5t43 -11.5q14 0 35 29q13 17 29 17t39.5 -8.5t23.5 -33.5v-774q0 -52 50 -69.5t50 -56.5q0 -40 -46 -40h-243q-42 0 -42 33v43l-240 -88q-37 -13 -63 -13h-42q-154 8 -264 124 q-126 133 -126 361zM225 1290q0 130 135 130t135 -130q0 -131 -135 -131t-135 131zM293 500q0 -182 70 -276q95 -129 230 -129q34 0 79 16t125 47v604q-32 30 -94.5 60t-108.5 32h-3q-16 0 -76.5 -23t-88 -33.5t-38.5 -22.5q-58 -62 -76.5 -141.5t-18.5 -101.5v-32z M695 1290q0 130 135 130t135 -130q0 -131 -135 -131t-135 131z" />
<glyph unicode="&#xe5;" horiz-adv-x="1155" d="M62 440q0 53 10 122.5t52 137t87 101t76 47.5q342 128 365 128h6q68 -3 120 -20t80 -28.5t43 -11.5q14 0 35 29q13 17 29 17t39.5 -8.5t23.5 -33.5v-774q0 -52 50 -69.5t50 -56.5q0 -40 -46 -40h-243q-42 0 -42 33v43l-240 -88q-37 -13 -63 -13h-42q-154 8 -264 124 q-126 133 -126 361zM293 500q0 -182 70 -276q95 -129 230 -129q34 0 79 16t125 47v604q-32 30 -94.5 60t-108.5 32h-3q-16 0 -76.5 -23t-88 -33.5t-38.5 -22.5q-58 -62 -76.5 -141.5t-18.5 -101.5v-32zM375 1314q0 89 63.5 154.5t156.5 65.5t156.5 -65.5t63.5 -154.5 q0 -90 -63.5 -154.5t-156.5 -64.5t-156.5 64.5t-63.5 154.5zM501 1315q3 -66 35 -109t68 -43q35 0 58 36q28 55 28 107q0 61 -38 120q-30 40 -65 40t-58 -37q-28 -43 -28 -102v-12z" />
<glyph unicode="&#xe6;" horiz-adv-x="1762" d="M62 447q0 46 10 115.5t52 137t87 101t76 47.5q81 30 161.5 60t132 49t71.5 19h6q68 -3 164 -34q111 -41 160 -65q114 101 313 103h4q209 0 319.5 -120t110.5 -309q0 -41 -4 -67t-64 -26h-613q4 -137 78.5 -237.5t183.5 -122.5q32 -7 65 -7q89 0 169 43t102 43q21 0 30 -9 t9 -24t-16.5 -46t-36.5 -48q-116 -101 -313 -101q-260 2 -390 149l-372 -130q-37 -13 -63 -13h-42q-154 8 -262 122q-109 116 -124 281q-4 42 -4 89zM293 510q0 -45 2 -68q11 -139 74 -225.5t155 -111.5q34 -10 57 -10t38 1.5t39.5 10t73.5 27t65 24.5v604q-32 30 -94.5 60 t-108.5 32h-3q-15 0 -40.5 -9.5t-61 -23t-63 -24t-38.5 -22.5q-58 -62 -76.5 -141.5t-18.5 -123.5zM1049 571h477q0 98 -50 189.5t-175 91.5h-11q-125 -4 -181.5 -94.5t-59.5 -186.5z" />
<glyph unicode="&#xe7;" horiz-adv-x="925" d="M79 446q0 56 8 119q45 230 240 342q110 63 252 69h22q172 0 326 -99l-18 -180q-5 -31 -37 -31h-3q-29 2 -43 34q-37 82 -95 116t-142 34h-23q-99 -5 -148 -53q-101 -95 -101 -278q0 -28 3 -60q10 -144 77 -235q88 -116 191 -132q17 -2 35 -2q91 0 165 44t95 45 q22 0 44 -4q7 -19 7 -33q0 -15 -16 -43t-37 -48q-119 -96 -315 -96q-14 0 -28 1q-10 -27 -10 -39q0 -28 23 -49q29 -27 69 -60q64 -53 64 -139v-7q-5 -100 -148 -111h-11q-70 0 -166 33l-30 138q92 -70 128 -70q27 0 53 16q21 13 21 38q0 26 -40 64t-67 85q-13 23 -13 47 q0 31 19 58q0 4 10 8q-116 24 -205 96q-156 132 -156 382z" />
<glyph unicode="&#xe8;" horiz-adv-x="1004" d="M62 441q0 54 9 112q29 191 155 308t332 119h4q209 0 319.5 -120t110.5 -309q-1 -41 -4 -67t-65 -26h-612q3 -137 77.5 -237.5t184.5 -122.5q32 -7 65 -7q88 0 167.5 43t100.5 43t31.5 -8.5t10.5 -23.5q0 -16 -14 -43t-22.5 -36t-15.5 -16q-117 -101 -315 -101 q-276 2 -413 176q-106 134 -106 316zM254 1326q0 94 99 94q31 0 56 -18l379 -260q12 -14 12 -28q0 -37 -43 -37q-11 0 -31 10q-5 0 -411 152q-61 22 -61 87zM312 571h476q0 98 -49.5 189.5t-174.5 91.5h-11q-125 -4 -181.5 -94.5t-59.5 -186.5z" />
<glyph unicode="&#xe9;" horiz-adv-x="1004" d="M62 441q0 54 9 112q29 191 155 308t332 119h4q209 0 319.5 -120t110.5 -309q-1 -41 -4 -67t-65 -26h-612q3 -137 77.5 -237.5t184.5 -122.5q32 -7 65 -7q88 0 167.5 43t100.5 43t31.5 -8.5t10.5 -23.5q0 -16 -14 -43t-22.5 -36t-15.5 -16q-117 -101 -315 -101 q-276 2 -413 176q-106 134 -106 316zM254 1114q0 14 12 28l379 260q25 18 56 18q99 0 99 -94q0 -65 -61 -87q-406 -152 -411 -152q-20 -10 -31 -10q-43 0 -43 37zM312 571h476q0 98 -49.5 189.5t-174.5 91.5h-11q-125 -4 -181.5 -94.5t-59.5 -186.5z" />
<glyph unicode="&#xea;" horiz-adv-x="1004" d="M62 441q0 54 9 112q29 191 155 308t332 119h4q209 0 319.5 -120t110.5 -309q-1 -41 -4 -67t-65 -26h-612q3 -137 77.5 -237.5t184.5 -122.5q32 -7 65 -7q88 0 167.5 43t100.5 43t31.5 -8.5t10.5 -23.5q0 -16 -14 -43t-22.5 -36t-15.5 -16q-117 -101 -315 -101 q-276 2 -413 176q-106 134 -106 316zM198 1076l257 387h145l256 -387h-110l-219 199l-218 -199h-111zM312 571h476q0 98 -49.5 189.5t-174.5 91.5h-11q-125 -4 -181.5 -94.5t-59.5 -186.5z" />
<glyph unicode="&#xeb;" horiz-adv-x="1004" d="M62 441q0 54 9 112q29 191 155 308t332 119h4q209 0 319.5 -120t110.5 -309q-1 -41 -4 -67t-65 -26h-612q3 -137 77.5 -237.5t184.5 -122.5q32 -7 65 -7q88 0 167.5 43t100.5 43t31.5 -8.5t10.5 -23.5q0 -16 -14 -43t-22.5 -36t-15.5 -16q-117 -101 -315 -101 q-276 2 -413 176q-106 134 -106 316zM157 1290q0 130 135 130t135 -130q0 -131 -135 -131t-135 131zM312 571h476q0 98 -49.5 189.5t-174.5 91.5h-11q-125 -4 -181.5 -94.5t-59.5 -186.5zM627 1290q0 130 135 130t135 -130q0 -131 -135 -131t-135 131z" />
<glyph unicode="&#xec;" horiz-adv-x="593" d="M54 1326q0 94 99 94q31 0 56 -18l379 -260q12 -14 12 -28q0 -37 -43 -37q-11 0 -31 10q-5 0 -411 152q-61 22 -61 87zM112 20q0 39 50 56.5t50 69.5v640q0 50 -50 68t-50 57q0 41 45 41q62 3 124.5 20t160.5 50v-876q0 -52 50 -69.5t50 -56.5q0 -40 -45 -40h-339 q-46 0 -46 40z" />
<glyph unicode="&#xed;" horiz-adv-x="593" d="M54 1114q0 14 12 28l379 260q25 18 56 18q99 0 99 -94q0 -65 -61 -87q-406 -152 -411 -152q-20 -10 -31 -10q-43 0 -43 37zM112 20q0 39 50 56.5t50 69.5v640q0 50 -50 68t-50 57q0 41 45 41q62 3 124.5 20t160.5 50v-876q0 -52 50 -69.5t50 -56.5q0 -40 -45 -40h-339 q-46 0 -46 40z" />
<glyph unicode="&#xee;" horiz-adv-x="593" d="M-2 1076l257 387h145l256 -387h-110l-219 199l-218 -199h-111zM112 20q0 39 50 56.5t50 69.5v640q0 50 -50 68t-50 57q0 41 45 41q62 3 124.5 20t160.5 50v-876q0 -52 50 -69.5t50 -56.5q0 -40 -45 -40h-339q-46 0 -46 40z" />
<glyph unicode="&#xef;" horiz-adv-x="593" d="M-43 1290q0 130 135 130t135 -130q0 -131 -135 -131t-135 131zM112 20q0 39 50 56.5t50 69.5v640q0 50 -50 68t-50 57q0 41 45 41q62 3 124.5 20t160.5 50v-876q0 -52 50 -69.5t50 -56.5q0 -40 -45 -40h-339q-46 0 -46 40zM427 1290q0 130 135 130t135 -130 q0 -131 -135 -131t-135 131z" />
<glyph unicode="&#xf0;" horiz-adv-x="1105" d="M68 458v3q1 231 172 389q23 21 63 35t114 43q44 16 97 35q55 20 91 20h4q122 -5 157 -25q-14 26 -61.5 101t-92.5 123q-115 -66 -295 -131q-19 29 -28.5 44t-29.5 48q159 62 267 125q-70 63 -193 129q-31 18 -31 38q0 8 5 15q7 12 19 34q17 30 50 30q15 0 33 -8 q153 -91 242 -162q109 72 237 186q30 -32 41.5 -45t35.5 -37q-118 -115 -221 -183q156 -142 255 -341.5t102 -462.5v-6q0 -211 -147 -357q-150 -152 -369 -158h-13q-207 0 -355 153q-149 154 -149 365zM311 474q0 -172 84 -298q81 -121 192 -126h12q102 0 178 105 q85 116 86 291q0 173 -83 297.5t-194 129.5h-11q-103 0 -179 -105q-85 -117 -85 -290v-4z" />
<glyph unicode="&#xf1;" horiz-adv-x="1191" d="M82 20q0 39 50 56.5t50 69.5v640q0 50 -50 68t-50 57q0 41 45 41q62 3 124.5 20t160.5 50v-137q20 7 62 23t109 39.5t125 29t72 5.5q94 0 177 -63q129 -99 129 -413v-360q0 -52 50 -69.5t50 -56.5q0 -40 -45 -40h-243q-42 0 -42 33v493q0 212 -85 295q-51 50 -123 50 q-43 0 -80 -12.5t-70.5 -25t-58.5 -22.5q-23 -8 -27 -10v-635q0 -52 50 -69.5t50 -56.5q0 -40 -45 -40h-339q-46 0 -46 40zM292 1177v3q0 21 20 63l53 117q40 90 135 90q94 0 192 -95q38 -39 74 -39q31 0 65 29q34 28 61 97q10 27 38 27q5 0 11 -1q34 -9 35 -33v-8 q0 -18 -4 -26q-42 -116 -87.5 -175t-104.5 -59q-90 0 -191 91q-40 39 -76 39q-27 0 -56 -23l-20 -17q-36 -34 -64 -96q-12 -23 -40 -23q-39 9 -41 39z" />
<glyph unicode="&#xf2;" horiz-adv-x="1107" d="M62 462v3q1 226 171 381q23 21 63 35t99 35.5t113 40.5t91 19h4q207 -8 348 -157t144 -354v-6q0 -207 -149 -352.5t-368 -151.5h-16q-204 0 -352 150.5t-148 356.5zM304 481q0 -170 82.5 -291.5t193.5 -126.5h13q102 0 182.5 108.5t80.5 278.5t-83 291.5t-193 127.5h-11 q-103 0 -184 -109t-81 -279zM306 1326q0 94 99 94q31 0 56 -18l379 -260q12 -14 12 -28q0 -37 -43 -37q-11 0 -31 10q-5 0 -411 152q-61 22 -61 87z" />
<glyph unicode="&#xf3;" horiz-adv-x="1107" d="M62 462v3q1 226 171 381q23 21 63 35t99 35.5t113 40.5t91 19h4q207 -8 348 -157t144 -354v-6q0 -207 -149 -352.5t-368 -151.5h-16q-204 0 -352 150.5t-148 356.5zM304 481q0 -170 82.5 -291.5t193.5 -126.5h13q102 0 182.5 108.5t80.5 278.5t-83 291.5t-193 127.5h-11 q-103 0 -184 -109t-81 -279zM306 1114q0 14 12 28l379 260q25 18 56 18q99 0 99 -94q0 -65 -61 -87q-406 -152 -411 -152q-20 -10 -31 -10q-43 0 -43 37z" />
<glyph unicode="&#xf4;" horiz-adv-x="1107" d="M62 462v3q1 226 171 381q23 21 63 35t99 35.5t113 40.5t91 19h4q207 -8 348 -157t144 -354v-6q0 -207 -149 -352.5t-368 -151.5h-16q-204 0 -352 150.5t-148 356.5zM250 1076l257 387h145l256 -387h-110l-219 199l-218 -199h-111zM304 481q0 -170 82.5 -291.5 t193.5 -126.5h13q102 0 182.5 108.5t80.5 278.5t-83 291.5t-193 127.5h-11q-103 0 -184 -109t-81 -279z" />
<glyph unicode="&#xf5;" horiz-adv-x="1107" d="M62 462v3q1 226 171 381q23 21 63 35t99 35.5t113 40.5t91 19h4q207 -8 348 -157t144 -354v-6q0 -207 -149 -352.5t-368 -151.5h-16q-204 0 -352 150.5t-148 356.5zM237 1177v3q0 21 20 63l53 117q40 90 135 90q94 0 192 -95q38 -39 74 -39q31 0 65 29q34 28 61 97 q10 27 38 27q5 0 11 -1q34 -9 35 -33v-8q0 -18 -4 -26q-42 -116 -87.5 -175t-104.5 -59q-90 0 -191 91q-40 39 -76 39q-27 0 -56 -23l-20 -17q-36 -34 -64 -96q-12 -23 -40 -23q-39 9 -41 39zM304 481q0 -170 82.5 -291.5t193.5 -126.5h13q102 0 182.5 108.5t80.5 278.5 t-83 291.5t-193 127.5h-11q-103 0 -184 -109t-81 -279z" />
<glyph unicode="&#xf6;" horiz-adv-x="1107" d="M62 462v3q1 226 171 381q23 21 63 35t99 35.5t113 40.5t91 19h4q207 -8 348 -157t144 -354v-6q0 -207 -149 -352.5t-368 -151.5h-16q-204 0 -352 150.5t-148 356.5zM209 1290q0 130 135 130t135 -130q0 -131 -135 -131t-135 131zM304 481q0 -170 82.5 -291.5 t193.5 -126.5h13q102 0 182.5 108.5t80.5 278.5t-83 291.5t-193 127.5h-11q-103 0 -184 -109t-81 -279zM679 1290q0 130 135 130t135 -130q0 -131 -135 -131t-135 131z" />
<glyph unicode="&#xf7;" d="M163 605v53q0 46 62 46h664q62 0 62 -46v-53q0 -46 -62 -46h-664q-62 0 -62 46zM422 333q0 130 135 130t135 -130q0 -131 -135 -131t-135 131zM422 930q0 130 135 130t135 -130q0 -131 -135 -131t-135 131z" />
<glyph unicode="&#xf8;" horiz-adv-x="1107" d="M41 8q0 15 13 24l118 116q-110 136 -110 314v3q1 226 171 381q23 21 63 35q40 13 99 35t113 41t91 19h4q173 -7 300 -112l119 117q10 11 28 11q17 0 28 -11l37 -39q10 -10 10 -20t-11 -20l-127 -125q106 -135 108 -312v-6q0 -207 -149 -353t-368 -151h-16 q-172 0 -305 107l-114 -112q-11 -12 -27 -12t-26 10l-38 38q-11 11 -11 22zM304 481q0 -97 27 -178l444 436q-1 1 -2 3q-83 122 -193 127h-11q-103 0 -184 -109t-81 -279zM387 189q82 -121 193 -126h13q103 1 183 109t80 278q0 94 -26 174z" />
<glyph unicode="&#xf9;" horiz-adv-x="1239" d="M85 911q0 41 45 41q62 3 124.5 20t161.5 50v-597q0 -213 85 -295q51 -50 123 -50q43 0 97 18q19 6 53 19t57 22q6 2 17 6l11 4v637q0 50 -50 68t-50 57q0 41 45 41q62 3 124.5 20t161.5 50v-876q0 -52 50 -69.5t50 -55.5q0 -41 -46 -41h-243q-42 0 -42 33v33 q-19 -7 -62 -23.5t-81 -29.5q-95 -32 -196 -42q-16 -1 -30 -1q-93 0 -175 61q-130 99 -130 414v361q0 50 -50 68t-50 57zM365 1326q0 94 99 94q31 0 56 -18l379 -260q12 -14 12 -28q0 -37 -43 -37q-11 0 -31 10q-5 0 -411 152q-61 22 -61 87z" />
<glyph unicode="&#xfa;" horiz-adv-x="1239" d="M85 911q0 41 45 41q62 3 124.5 20t161.5 50v-597q0 -213 85 -295q51 -50 123 -50q43 0 97 18q19 6 53 19t57 22q6 2 17 6l11 4v637q0 50 -50 68t-50 57q0 41 45 41q62 3 124.5 20t161.5 50v-876q0 -52 50 -69.5t50 -55.5q0 -41 -46 -41h-243q-42 0 -42 33v33 q-19 -7 -62 -23.5t-81 -29.5q-95 -32 -196 -42q-16 -1 -30 -1q-93 0 -175 61q-130 99 -130 414v361q0 50 -50 68t-50 57zM365 1114q0 14 12 28l379 260q25 18 56 18q99 0 99 -94q0 -65 -61 -87q-406 -152 -411 -152q-20 -10 -31 -10q-43 0 -43 37z" />
<glyph unicode="&#xfb;" horiz-adv-x="1239" d="M85 911q0 41 45 41q62 3 124.5 20t161.5 50v-597q0 -213 85 -295q51 -50 123 -50q43 0 97 18q19 6 53 19t57 22q6 2 17 6l11 4v637q0 50 -50 68t-50 57q0 41 45 41q62 3 124.5 20t161.5 50v-876q0 -52 50 -69.5t50 -55.5q0 -41 -46 -41h-243q-42 0 -42 33v33 q-19 -7 -62 -23.5t-81 -29.5q-95 -32 -196 -42q-16 -1 -30 -1q-93 0 -175 61q-130 99 -130 414v361q0 50 -50 68t-50 57zM309 1076l257 387h145l256 -387h-110l-219 199l-218 -199h-111z" />
<glyph unicode="&#xfc;" horiz-adv-x="1239" d="M85 911q0 41 45 41q62 3 124.5 20t161.5 50v-597q0 -213 85 -295q51 -50 123 -50q43 0 97 18q19 6 53 19t57 22q6 2 17 6l11 4v637q0 50 -50 68t-50 57q0 41 45 41q62 3 124.5 20t161.5 50v-876q0 -52 50 -69.5t50 -55.5q0 -41 -46 -41h-243q-42 0 -42 33v33 q-19 -7 -62 -23.5t-81 -29.5q-95 -32 -196 -42q-16 -1 -30 -1q-93 0 -175 61q-130 99 -130 414v361q0 50 -50 68t-50 57zM268 1290q0 130 135 130t135 -130q0 -131 -135 -131t-135 131zM738 1290q0 130 135 130t135 -130q0 -131 -135 -131t-135 131z" />
<glyph unicode="&#xfd;" horiz-adv-x="1036" d="M30 933q0 18 38 18h328q36 0 45 -19.5t9 -26.5q0 -23 -21.5 -34t-25.5 -22.5t-4 -19.5t5 -18l238 -582l206 494q8 18 8 41t-24 51l-44 53l104 81q12 13 30 13t34 -16l56 -57q22 -23 22 -48t-11.5 -60t-43.5 -100l-494 -1102q-31 -66 -58.5 -115.5t-81.5 -49.5l-85 3 q-41 7 -41 39l-7 133l76 2q51 2 73 46l156 324q4 0 4 2q0 3 -5 8q-9 10 -14 24.5t-7 19.5l-327 779q-14 32 -39 48.5t-56 29t-37 28t-6 33.5zM259 1114q0 14 12 28l379 260q25 18 56 18q99 0 99 -94q0 -65 -61 -87q-406 -152 -411 -152q-20 -10 -31 -10q-43 0 -43 37z" />
<glyph unicode="&#xfe;" horiz-adv-x="1180" d="M112 -446q0 39 50.5 57t50.5 69v1577q0 51 -50.5 69t-50.5 57q0 41 46 41q62 3 124.5 19.5t160.5 49.5v-617l231 87q35 12 53 13q12 1 21 1h8q11 -1 23 -1q154 -8 262 -125t124 -279q4 -41 4 -88q0 -48 -10.5 -117.5t-53.5 -138t-87.5 -101t-73.5 -45.5 q-82 -30 -162.5 -60t-131.5 -48.5t-72 -18.5h-6q-68 3 -129 31v-542q-98 33 -160.5 50t-124.5 20q-46 0 -46 40zM443 162q32 -30 90 -57.5t103 -28.5h6q11 0 37 9.5t62 22.5t63 23.5t39 23.5q57 61 75.5 141.5t18.5 126.5t-1 65q-11 138 -75 225q-89 122 -221 122 q-11 0 -28 -1.5t-40.5 -10.5t-67.5 -28t-61 -25v-608z" />
<glyph unicode="&#xff;" horiz-adv-x="1036" d="M30 933q0 18 38 18h328q36 0 45 -19.5t9 -26.5q0 -23 -21.5 -34t-25.5 -22.5t-4 -19.5t5 -18l238 -582l206 494q8 18 8 41t-24 51l-44 53l104 81q12 13 30 13t34 -16l56 -57q22 -23 22 -48t-11.5 -60t-43.5 -100l-494 -1102q-31 -66 -58.5 -115.5t-81.5 -49.5l-85 3 q-41 7 -41 39l-7 133l76 2q51 2 73 46l156 324q4 0 4 2q0 3 -5 8q-9 10 -14 24.5t-7 19.5l-327 779q-14 32 -39 48.5t-56 29t-37 28t-6 33.5zM162 1290q0 130 135 130t135 -130q0 -131 -135 -131t-135 131zM632 1290q0 130 135 130t135 -130q0 -131 -135 -131t-135 131z" />
<glyph unicode="&#x152;" horiz-adv-x="2044" d="M69 669q0 18 1 37q12 347 227 551.5t558 208.5h8q173 0 292 -42h876v-277q0 -41 -46 -41q-25 0 -59 50q-49 68 -81.5 101.5t-79.5 33.5h-403v-503h205q46 0 65.5 51.5t63.5 51.5q46 0 46 -41v-254q0 -41 -46 -41q-43 0 -66 51t-70 51h-198v-543h403q79 0 140 67t94 107 q26 31 49 31q46 0 46 -41q0 -15 -3 -25l-77 -273h-942q-105 -29 -219 -35q-23 -1 -47 -1q-289 0 -511 199q-226 202 -226 526zM328 702q0 -265 147.5 -449.5t378.5 -186.5h6q152 0 271 95l1 1100q-112 77 -278 77q-292 -1 -409 -186t-117 -450z" />
<glyph unicode="&#x153;" horiz-adv-x="1899" d="M62 462v3q1 226 171 381q23 21 63 35q40 13 99 35t113 41t91 19h4q207 -8 348 -157q41 -43 70 -90q38 75 100 132q126 117 332 119h4q209 0 319 -120t111 -309q-1 -41 -4 -67t-65 -26h-612q4 -138 78 -238t184 -122q32 -7 65 -7q87 0 167 43t101 43q21 -1 31 -9t11 -23 q0 -16 -14 -43q-15 -27 -23 -36t-15 -16q-117 -101 -315 -101q-276 2 -413 176q-26 33 -45 68q-30 -47 -72 -87q-149 -146 -368 -151h-16q-204 1 -352 151t-148 356zM304 481q0 -169 82 -291t194 -127h13q103 1 183 109t80 278t-83 292t-193 127h-11q-103 0 -184 -109 t-81 -279zM1207 571h476v4q0 95 -49 185q-50 92 -175 92h-11q-126 -4 -182 -94t-59 -187z" />
<glyph unicode="&#x178;" horiz-adv-x="1366" d="M47 1394v5q4 25 35 25h339q19 0 35 -10q14 -10 23 -22q6 -10 6 -19q0 -13 -11 -26q-7 -9 -15 -17.5t-9 -16.5v-5q0 -17 13 -36l315 -499l237 360q27 41 31 70q1 3 1 7q0 26 -21 69l-43 86l162 71q13 5 25 5q28 0 46 -27l61 -102q13 -23 13 -46q0 -41 -39 -81 q-52 -55 -111 -140l-266 -388q-16 -24 -21 -70.5t-5 -89.5v-351q0 -52 50 -69.5t50 -55.5q0 -41 -46 -41h-339q-46 0 -46 41q0 38 50 55.5t50 69.5v427q0 54 -26 96l-348 580q-20 30 -69 60q-26 13 -52 23t-44 21q-15 8 -24 20q-7 11 -7 21zM299 1740q0 130 135 130 t135 -130q0 -131 -135 -131t-135 131zM769 1740q0 130 135 130t135 -130q0 -131 -135 -131t-135 131z" />
<glyph unicode="&#x2c6;" horiz-adv-x="1000" d="M212 1076l257 387h145l256 -387h-110l-219 199l-218 -199h-111z" />
<glyph unicode="&#x2dc;" horiz-adv-x="1000" d="M185 1177v3q0 21 20 63l53 117q40 90 135 90q94 0 192 -95q38 -39 74 -39q31 0 65 29q34 28 61 97q10 27 38 27q5 0 11 -1q34 -9 35 -33v-8q0 -18 -4 -26q-42 -116 -87.5 -175t-104.5 -59q-90 0 -191 91q-40 39 -76 39q-27 0 -56 -23l-20 -17q-36 -34 -64 -96 q-12 -23 -40 -23q-39 9 -41 39z" />
<glyph unicode="&#x2000;" horiz-adv-x="992" />
<glyph unicode="&#x2001;" horiz-adv-x="1984" />
<glyph unicode="&#x2002;" horiz-adv-x="992" />
<glyph unicode="&#x2003;" horiz-adv-x="1984" />
<glyph unicode="&#x2004;" horiz-adv-x="661" />
<glyph unicode="&#x2005;" horiz-adv-x="496" />
<glyph unicode="&#x2006;" horiz-adv-x="330" />
<glyph unicode="&#x2007;" horiz-adv-x="330" />
<glyph unicode="&#x2008;" horiz-adv-x="248" />
<glyph unicode="&#x2009;" horiz-adv-x="396" />
<glyph unicode="&#x200a;" horiz-adv-x="110" />
<glyph unicode="&#x2010;" d="M163 605v53q0 46 62 46h664q62 0 62 -46v-53q0 -46 -62 -46h-664q-62 0 -62 46z" />
<glyph unicode="&#x2011;" d="M163 605v53q0 46 62 46h664q62 0 62 -46v-53q0 -46 -62 -46h-664q-62 0 -62 46z" />
<glyph unicode="&#x2012;" d="M163 605v53q0 46 62 46h664q62 0 62 -46v-53q0 -46 -62 -46h-664q-62 0 -62 46z" />
<glyph unicode="&#x2013;" horiz-adv-x="1024" d="M0 416v159h1078v-159h-1078z" />
<glyph unicode="&#x2014;" horiz-adv-x="2048" d="M266 417v158h1574v-158h-1574z" />
<glyph unicode="&#x2018;" horiz-adv-x="429" d="M107 1049v9l5 86q1 19 16.5 59.5t18.5 45.5q52 118 179 194q43 25 63 25h16q54 -7 54 -49q-3 -19 -19 -33.5t-47 -30.5q-91 -48 -106 -110h-29q132 -10 132 -110v-7l-6 -85q-5 -87 -126 -103q-7 0 -20 1q-131 11 -131 108z" />
<glyph unicode="&#x2019;" horiz-adv-x="433" d="M106 987q1 34 66 66q90 48 107 112q-103 7 -103 106v9l5 85q10 100 145 102q133 -10 133 -111v-7l-6 -86q-11 -54 -33 -103q-53 -119 -180 -195q-41 -25 -70 -25h-4q-30 2 -45 16q-15 15 -15 31z" />
<glyph unicode="&#x201a;" horiz-adv-x="463" d="M164 -239q0 15 12 29q18 22 48 39q87 54 100 119h28q-139 0 -139 108l-1 85q0 109 138 111q140 0 140 -110l1 -84q0 -22 -11 -56q-5 -14 -9 -25.5t-7 -23.5q-45 -124 -165 -207q-48 -30 -78 -30q-26 0 -45 17q-12 15 -12 28z" />
<glyph unicode="&#x201c;" horiz-adv-x="837" d="M107 1049v9l5 86q1 19 17 60q51 156 195 238q35 27 70 27q28 -2 55 -21q8 -15 8 -26q0 -18 -14 -32q-16 -17 -49 -35q-92 -48 -108 -112q104 -7 104 -108v-7l-6 -85q-9 -97 -144 -102q-133 9 -133 108zM496 1049v9l5 86q1 19 14 55l20 49q53 119 178 194q35 27 71 27 q29 -2 54 -21q9 -15 9 -27q0 -17 -16 -33q-15 -15 -48 -33q-92 -48 -108 -112q104 -7 104 -107v-7l-5 -86q-9 -103 -131 -103q-9 1 -14 1q-133 0 -133 108z" />
<glyph unicode="&#x201d;" horiz-adv-x="842" d="M107 986v5q18 42 67 62q89 48 106 112q-103 7 -103 106v9l5 85q10 100 145 102q133 -10 133 -111v-7l-6 -86q-11 -54 -33 -103q-53 -119 -179 -194q-35 -27 -70 -27q-27 0 -50 17q-15 15 -15 30zM496 986v5q18 42 67 62q89 48 106 112q-103 5 -103 106v9l5 85 q9 103 126 103q11 0 21 -1q131 -17 131 -111v-7l-6 -86q-11 -54 -33 -103q-53 -119 -179 -195q-37 -25 -71 -25q-26 0 -50 16q-14 16 -14 30z" />
<glyph unicode="&#x201e;" horiz-adv-x="842" d="M123 -219q0 17 16 30q18 21 50 35q90 47 108 112q-104 8 -104 104v9l5 86q10 100 145 102q133 -10 133 -111v-7l-6 -85q-2 -27 -13 -51.5t-20 -51.5q-53 -119 -180 -195q-40 -26 -69 -26q-14 0 -15 2q-23 1 -38 19q-12 14 -12 28zM512 -219q0 17 16 30q18 21 50 35 q90 47 107 112q-103 7 -103 104v9l5 86q9 103 126 103q11 0 21 -1q131 -17 131 -111v-7l-6 -85q-2 -27 -13 -51.5t-20 -51.5q-53 -118 -179 -195q-43 -26 -71 -26q-13 0 -14 2q-22 1 -39 19q-11 14 -11 28z" />
<glyph unicode="&#x2022;" horiz-adv-x="1241" d="M273 700q0 154 110.5 265t269.5 111t270 -111t111 -265t-111 -264.5t-270 -110.5t-269.5 110.5t-110.5 264.5z" />
<glyph unicode="&#x2026;" horiz-adv-x="1914" d="M313 122q0 57 42 99.5t105 42.5t105 -42.5t42 -99.5q0 -58 -42 -100t-105 -42t-105 42t-42 100zM920 122q0 57 42 99.5t105 42.5t105 -42.5t42 -99.5q0 -58 -42 -100t-105 -42t-105 42t-42 100zM1527 122q0 57 42 99.5t105 42.5t105 -42.5t42 -99.5q0 -58 -42 -100 t-105 -42t-105 42t-42 100z" />
<glyph unicode="&#x202f;" horiz-adv-x="396" />
<glyph unicode="&#x2039;" horiz-adv-x="678" d="M161 626q0 11 8 24q62 74 169.5 173.5t181.5 176.5q12 12 27 12t23 -8l37 -26q11 -11 11 -21q0 -9 -7 -15l-245 -313l249 -318q4 -7 4 -12q0 -15 -14 -24l-35 -24q-8 -8 -23 -8t-26 12q-85 84 -175 172t-174 176q-11 9 -11 23z" />
<glyph unicode="&#x203a;" horiz-adv-x="678" d="M161 297q0 10 7 16l247 316l-246 313q-7 6 -7 15q0 10 11 21l37 26q8 8 23 8t27 -12q74 -77 181 -176.5t169 -172.5q10 -12 10 -24q0 -14 -12 -24q-85 -88 -174.5 -176t-174.5 -172q-11 -12 -26 -12t-23 8l-35 24q-14 9 -14 22z" />
<glyph unicode="&#x205f;" horiz-adv-x="496" />
<glyph unicode="&#x20ac;" horiz-adv-x="1141" d="M45 541v103h123v37q0 70 4 105h-127v104h143q44 234 203 384.5t366 150.5q87 0 185.5 -26t195.5 -109l-19 -213q-4 -37 -38 -37q-9 0 -12 2q-22 2 -34 41q-45 129 -108.5 169.5t-169.5 40.5q-125 0 -232 -100.5t-139 -302.5h670v-104h-683q-4 -40 -4 -105q0 -28 1 -37 h686v-103h-673q26 -159 131 -304t245 -154q16 -1 32 -1q83 0 136 34q63 40 108 169q11 35 38 43h5q37 0 41 -37l2 -26l-66 -247q-81 -46 -156 -60t-142 -14q-213 0 -381 163.5t-199 433.5h-132z" />
<glyph unicode="&#x2122;" horiz-adv-x="2290" d="M64 1187v122q0 41 17 66.5t83 25.5h624q70 0 85.5 -25t15.5 -67v-122q0 -34 -29 -34q-30 0 -59.5 40t-50 61t-47.5 21h-115v-679q0 -52 50 -69.5t50 -56.5q0 -40 -46 -40h-332q-46 0 -46 40q0 39 50 56.5t50 69.5v679h-114q-29 0 -48.5 -21t-49.5 -61t-59 -40t-29 34z M972 471q0 38 50 55.5t50 69.5v639q0 51 -50 69t-50 57q0 40 46 40h282l328 -672l318 672h282q46 0 46 -40q0 -39 -50 -57t-50 -69v-639q0 -52 50 -69.5t50 -55.5q0 -41 -46 -41h-333q-45 0 -45 41q0 38 50 55.5t50 69.5v502l-324 -698h-81l-327 686v-490q0 -52 50 -69.5 t50 -55.5q0 -41 -45 -41h-255q-46 0 -46 41z" />
<glyph unicode="&#x25fc;" horiz-adv-x="955" d="M0 0v955h955v-955h-955z" />
<glyph unicode="&#xfb01;" horiz-adv-x="1129" d="M68 860v2q0 27 32 42q18 9 58 30t52 26q5 2 5 3q0 2 -8 2v62q0 129 20 197q19 68 43 98t56 41l258 96l43 6h3q31 0 59 -19q29 -20 38 -37t9 -33t-2 -51t-33 -44h-7q-20 0 -54 23t-65 23q-30 0 -52 -9q-71 -30 -80 -121q-5 -37 -5 -81v-89v-58l214 4q33 0 39 -21h2 q63 3 125 20t160 50v-876q0 -52 50 -70t50 -56q0 -40 -45 -40h-339q-46 0 -46 40q0 38 50 56t50 70v640q0 50 -50 68q-11 4 -19 9q-18 -37 -61 -37l-180 1v-681q0 -52 50 -70t50 -56q0 -40 -46 -40h-339q-46 0 -46 40q0 38 50 56t50 70v678l-93 -4q-44 0 -46 40z" />
<glyph unicode="&#xfb02;" horiz-adv-x="1133" d="M68 860v2q0 27 32 42q18 9 58 30t52 26q5 2 5 3q0 2 -8 2v62q0 129 20 197q19 68 43 98t56 41l258 96l43 6h3q31 0 59 -19q15 -10 24 -20q47 6 95 18q62 16 160 49v-1347q0 -52 50 -70t50 -55q0 -41 -45 -41h-339q-46 0 -46 41q0 37 50 55t50 70v1111q0 25 -12 42 q-8 -13 -25 -18h-7q-20 0 -54 23t-65 23q-30 0 -52 -9q-71 -30 -80 -121q-5 -37 -5 -81v-89v-58l214 4q40 0 40 -30q0 -31 -4 -53q-14 -64 -70 -64l-180 1v-681q0 -52 50 -70t50 -56q0 -40 -46 -40h-339q-46 0 -46 40q0 38 50 56t50 70v678l-93 -4q-44 0 -46 40z" />
<glyph unicode="&#xfb03;" horiz-adv-x="1665" d="M68 860v2q0 27 32 42q18 9 58 30t52 26q5 2 5 3q0 2 -8 2v62q0 129 20 197q19 68 43 98t56 41l258 96l43 6h3q31 0 59 -19q29 -20 38 -37t9 -33t-2 -51t-33 -44h-7q-20 0 -54 23t-65 23q-30 0 -52 -9q-71 -30 -80 -121q-5 -37 -5 -81v-89v-58l214 4q40 0 40 -30v-10 q0 1 2 1q40 21 52 26q5 2 5 3q0 2 -8 2v62q0 129 20 197q19 68 43 98t56 41l258 96l43 6h3q31 0 59 -19q29 -20 38 -37t9 -33t-2 -51t-33 -44h-7q-20 0 -54 23t-65 23q-30 0 -52 -9q-71 -30 -80 -121q-5 -37 -5 -81v-89v-58l214 4q33 0 39 -21h2q63 3 125 20t160 50v-876 q0 -52 50 -70t50 -56q0 -40 -45 -40h-339q-46 0 -46 40q0 38 50 56t50 70v640q0 50 -50 68q-11 4 -19 9q-18 -37 -61 -37l-180 1v-681q0 -52 50 -70t50 -56q0 -40 -46 -40h-339q-46 0 -46 40q0 38 50 56t50 70v678l-93 -4q-17 0 -28 6h-4l-180 1v-681q0 -52 50 -70t50 -56 q0 -40 -46 -40h-339q-46 0 -46 40q0 38 50 56t50 70v678l-93 -4q-44 0 -46 40z" />
<glyph unicode="&#xfb04;" horiz-adv-x="1669" d="M68 860v2q0 27 32 42q18 9 58 30t52 26q5 2 5 3q0 2 -8 2v62q0 129 20 197q19 68 43 98t56 41l258 96l43 6h3q31 0 59 -19q29 -20 38 -37t9 -33t-2 -51t-33 -44h-7q-20 0 -54 23t-65 23q-30 0 -52 -9q-71 -30 -80 -121q-5 -37 -5 -81v-89v-58l214 4q40 0 40 -30v-10 q0 1 2 1q40 21 52 26q5 2 5 3q0 2 -8 2v62q0 129 20 197q19 68 43 98t56 41l258 96l43 6h3q31 0 59 -19q15 -10 24 -20q47 6 95 18q62 16 160 49v-1347q0 -52 50 -70t50 -55q0 -41 -45 -41h-339q-46 0 -46 41q0 37 50 55t50 70v1111q0 25 -12 42q-8 -13 -25 -18h-7 q-20 0 -54 23t-65 23q-30 0 -52 -9q-71 -30 -80 -121q-5 -37 -5 -81v-89v-58l214 4q40 0 40 -30q0 -31 -4 -53q-14 -64 -70 -64l-180 1v-681q0 -52 50 -70t50 -56q0 -40 -46 -40h-339q-46 0 -46 40q0 38 50 56t50 70v678l-93 -4q-17 0 -28 6h-4l-180 1v-681q0 -52 50 -70 t50 -56q0 -40 -46 -40h-339q-46 0 -46 40q0 38 50 56t50 70v678l-93 -4q-44 0 -46 40z" />
</font>
</defs>
</svg>
