<?xml version="1.0" standalone="no"?>
<!DOCTYPE svg PUBLIC "-//W3C//DTD SVG 1.1//EN" "http://www.w3.org/Graphics/SVG/1.1/DTD/svg11.dtd" >
<svg xmlns="http://www.w3.org/2000/svg">
<metadata></metadata>
<defs>
<font id="caudexitalic" horiz-adv-x="1100" >
<font-face units-per-em="2048" ascent="1638" descent="-410" />
<missing-glyph horiz-adv-x="550" />
<glyph horiz-adv-x="0" />
<glyph unicode="&#xd;" horiz-adv-x="550" />
<glyph unicode=" "  horiz-adv-x="550" />
<glyph unicode="&#x09;" horiz-adv-x="550" />
<glyph unicode="&#xa0;" horiz-adv-x="550" />
<glyph unicode="!" horiz-adv-x="550" d="M158 37q0 11 3 24l19 82q20 87 130 87q93 0 93 -62q0 -11 -3 -25l-19 -82q-20 -86 -130 -86q-93 0 -93 62zM310 367q0 4 1 8l150 955l2 10q15 64 88 64h63q62 0 62 -45q0 -9 -3 -20l-2 -9l-290 -955q-6 -24 -31 -24h-21q-19 0 -19 16z" />
<glyph unicode="&#x22;" horiz-adv-x="799" d="M394 969l49 440l1 4q7 30 61 30h47q48 0 48 -23q0 -3 -1 -6l-1 -5l-152 -440q-3 -12 -22 -12h-15q-18 0 -15 12zM767 969l49 440l1 4q7 30 61 30h47q48 0 48 -23q0 -3 -1 -6l-1 -5l-152 -440q-3 -12 -22 -12h-15q-18 0 -15 12z" />
<glyph unicode="#" d="M107 389q1 2 1 3l34 85q4 10 18 10h279l112 275h-279q-14 0 -11 10l35 85q4 10 18 10h279l147 363q7 17 17 17h85q10 0 3 -17l-147 -363h187l147 363q7 17 18 17h84q11 0 4 -17l-147 -363h278q12 0 12 -6q0 -2 -1 -4l-35 -85q-3 -10 -18 -10h-278l-112 -275h278 q15 0 11 -10l-34 -85q-3 -10 -19 -10h-278l-147 -363q-7 -18 -18 -18h-84q-11 0 -4 18l147 363h-187l-147 -363q-7 -18 -17 -18h-85q-10 0 -3 18l147 363h-279q-11 0 -11 7zM544 487h187l112 275h-187z" />
<glyph unicode="$" d="M127 264q-1 4 1 12t12 20q11 12 23 11q11 -3 18 -29q33 -139 111 -182t201 -43h11l139 601q-14 2 -29 3q-107 12 -191 57q-84 44 -109 126q-13 44 -13 91q0 42 10 87q43 188 204 310q139 105 311 119l24 104q5 23 27 23h46q24 0 19 -23l-23 -102q214 -12 344 -111 l-73 -210q-6 -18 -23 -18h-4q-13 1 -18 28q-22 90 -90 154q-66 62 -157 67l-125 -539q39 -6 85 -14q62 -10 136 -34q74 -25 106 -72q31 -46 44 -104q5 -23 4 -48q0 -40 -11 -89q-49 -214 -256 -356q-108 -73 -213 -105q-49 -15 -90 -24l-27 -117q-5 -23 -29 -23h-46 q-22 0 -17 23l24 106q-47 -2 -65 -2q-139 0 -257 39zM487 1018q0 -12 1 -24q5 -68 43 -100t72 -41t67 -15q7 -1 15 -3l120 519q-48 -8 -86 -24q-66 -28 -99 -56t-60 -66q-27 -37 -43 -75q-17 -38 -25 -72q-5 -22 -5 -43zM598 59q48 9 115 39q83 38 146 110q64 74 88 180 l2 11q6 28 6 53q0 75 -52 120q-32 28 -106 50q-30 9 -65 17z" />
<glyph unicode="%" horiz-adv-x="1300" d="M159 -32l1261 1452h92l-1261 -1452h-92zM260 899q0 28 7 59l60 257q20 86 88.5 148t168 62t131.5 -51.5t32 -102.5q0 -26 -6 -56l-60 -257q-20 -87 -94.5 -148.5t-171.5 -61.5t-126 51t-29 100zM349 855q0 -74 71 -74t113.5 55.5t60.5 132.5l54 235q10 43 10 79 q0 29 -10.5 69t-72.5 40h-1q-86 -1 -117.5 -70.5t-42.5 -117.5l-54 -235q-11 -47 -11 -114zM885 139q0 28 7 59l59 257q20 86 89 148t168.5 62t131.5 -51.5t32 -102.5q0 -26 -7 -56l-59 -257q-20 -87 -95 -148.5t-172 -61.5t-125.5 51t-28.5 100zM973 95q0 -74 71.5 -74 t113.5 55.5t60 132.5l55 235q9 39 9 72v7q0 29 -10 69t-72 40h-1q-86 -1 -117.5 -70.5t-42.5 -117.5l-55 -235q-11 -47 -11 -114z" />
<glyph unicode="&#x26;" horiz-adv-x="1292" d="M160 165q0 36 8 75q3 12 7 24q34 120 122 214q84 92 261 194q-42 82 -57 163q-6 30 -6 62q0 41 10 85q3 13 7 27q35 132 136 214q98 79 228 79q127 0 179 -64q33 -40 33 -97q0 -30 -7 -62l-4 -17q-31 -105 -111 -187q-85 -86 -237 -169l187 -351l160 209q12 16 18 33 q2 6 3 11q2 10 2 19q-1 12 -6 20t-6 17q0 4 1 7l1 3q0 1 3 7q11 19 26 19h258q10 0 13 -6l1 -2q0 -1 -1 -2v-2q-1 -3 -3 -7q-9 -11 -40 -25q-17 -7 -36.5 -15t-38.5 -19q-85 -48 -155 -126t-169 -194l85 -147q34 -64 129 -114q24 -12 29 -24q1 -6 0 -9q-3 -4 -3 -5 q-6 -5 -15 -5h-244q-35 0 -63 68q-21 51 -47 92q-104 -99 -205 -145q-102 -45 -217 -45q-136 0 -199 81q-37 50 -37 116zM336 244q0 -57 25 -102q43 -80 137 -80q81 0 154.5 44t137.5 108l-210 401q-183 -114 -229 -278q-3 -10 -6 -21q-9 -38 -9 -72zM647 958q0 -99 55 -199 q103 54 161 122q56 67 88 170l3 15q8 36 8 67q0 27 -6 50q-16 53 -103 53q-68 0 -117 -45q-51 -48 -74 -129q-4 -11 -6 -21q-9 -37 -9 -75v-8z" />
<glyph unicode="'" horiz-adv-x="426" d="M394 969l49 440l1 4q7 30 61 30h47q48 0 48 -23q0 -3 -1 -6l-1 -5l-152 -440q-3 -12 -22 -12h-15q-18 0 -15 12z" />
<glyph unicode="(" horiz-adv-x="628" d="M179 291v8q0 136 31 269q54 234 207 481t502 418q8 4 13 4q2 0 3 -1t1 -4q0 -7 -4 -24l-7 -30q-278 -201 -385.5 -380.5t-173.5 -463.5q-48 -207 -48 -358q0 -57 16 -171t201 -315l-7 -30q-6 -25 -9 -28q-2 -1 -4 -1q-5 0 -11 4q-270 171 -297.5 346t-27.5 276z" />
<glyph unicode=")" horiz-adv-x="628" d="M4 -330q0 7 4 24l7 30q278 201 385.5 380t173.5 464q48 207 48 358q0 57 -15.5 171t-201.5 315l7 30q6 25 9 28q2 1 5 1q5 0 11 -4q270 -171 297.5 -346.5t27.5 -276.5q-1 -140 -32 -276q-54 -235 -207 -481.5t-501 -417.5q-8 -4 -13 -4q-2 0 -4 1q-1 1 -1 4z" />
<glyph unicode="*" d="M311 462q0 17 28 33l243 137l-180 136q-26 20 -7 42l39 45q19 21 46 1l168 -128l55 236q8 36 34 36h52q26 0 18 -36l-55 -236l228 128q36 20 44 -1l19 -45q2 -4 2 -9q0 -17 -29 -33l-242 -136l179 -137q26 -20 8 -42l-40 -45q-19 -21 -45 -1l-168 128l-55 -235 q-9 -38 -35 -38h-52q-26 0 -17 38l55 235l-228 -128q-36 -20 -45 1l-18 45q-2 4 -2 9z" />
<glyph unicode="+" d="M302 598q0 3 1 7l12 53q6 26 43 26h280l65 280q8 36 34 36h52q26 0 18 -36l-65 -280h280q32 0 32 -19q0 -3 -1 -7l-12 -53q-6 -26 -43 -26h-280l-65 -279q-9 -38 -35 -38h-52q-26 0 -17 38l65 279h-280q-32 0 -32 19z" />
<glyph unicode="," horiz-adv-x="480" d="M45 -229q0 11 16.5 25.5t44.5 28.5q106 57 145 150q-93 0 -93 62q0 11 3 24l19 82q20 87 130 87q93 0 93 -62q0 -11 -3 -25l-19 -82q-67 -187 -245 -287q-34 -23 -59 -23q-16 0 -28 9q-4 5 -4 11z" />
<glyph unicode="-" d="M302 598q0 3 1 7l12 53q6 26 43 26h664q32 0 32 -19q0 -3 -1 -7l-12 -53q-6 -26 -43 -26h-664q-32 0 -32 19z" />
<glyph unicode="." horiz-adv-x="480" d="M158 37q0 11 3 24l19 82q20 87 130 87q93 0 93 -62q0 -11 -3 -25l-19 -82q-20 -86 -130 -86q-93 0 -93 62z" />
<glyph unicode="/" d="M42 -70l1200 1544h140l-1198 -1544h-142z" />
<glyph unicode="0" d="M183 303q0 61 16 128l128 558q43 188 193 322.5t366.5 134.5t287 -112t70.5 -225q0 -57 -15 -120l-128 -558q-44 -189 -207.5 -322.5t-373.5 -133.5t-273.5 110t-63.5 218zM377 203q0 -3 0.5 -80t155 -77t246 120t130.5 288l118 512q22 94 22 174q0 62 -22 148t-158 86 h-2q-189 -3 -256.5 -154t-91.5 -254l-118 -512q-24 -102 -24 -251z" />
<glyph unicode="1" d="M416 14q0 3 1 7v2q4 22 59 40t70 83l255 1106h-204l11 47l422 164l-304 -1317q-4 -16 -4 -30q0 -40 40.5 -55t34.5 -39v-1q-5 -21 -25 -21h-340q-16 0 -16 14z" />
<glyph unicode="2" d="M152 0l18 78q20 87 86 152t206 185q81 63 162 135.5t174 159t147 174t64.5 133.5t10.5 73t-7 51q-30 99 -121 138q-53 22 -108.5 22t-108.5 -12q-126 -30 -228 -142q-32 -36 -51 -67h-4l30 130q16 28 31 47q58 68 143.5 120.5t194.5 68.5q43 6 84 6q133 0 238 -67 q103 -67 103 -201q0 -44 -11 -94l-1 -4q-32 -137 -133.5 -259t-228.5 -234t-258 -229.5t-210 -213.5h370q129 0 255 42l-32 -150q-65 -35 -132 -38.5t-124 -3.5h-559z" />
<glyph unicode="3" d="M181 42l33 167h6q38 -104 172 -136q48 -12 112 -12t141 36q115 54 176 156q33 55 43.5 100.5t10.5 81.5q0 11 -1 21q-8 102 -91.5 177.5t-254.5 78.5l5 28q74 22 172 61.5t158 112.5t75 139q4 19 6 39v14q0 76 -47 139.5t-148 63.5q-9 0 -17 -1q-115 -7 -207 -94 q-42 -40 -66 -86h-4l36 155q105 92 203.5 127.5t181.5 35.5q227 -3 261 -184q4 -22 4 -45q0 -30 -7 -60q-30 -128 -192 -254q-34 -27 -78 -55q128 -71 157 -155.5t29 -148.5q0 -43 -10 -86q-3 -15 -8 -30q-68 -216 -307 -363q-126 -77 -289 -93q-26 -3 -50 -3 q-128 0 -205 73z" />
<glyph unicode="4" d="M164 415l26 114l784 875h180l-196 -848h202l-32 -141h-202l-62 -269q-3 -12 -3 -22q0 -45 58.5 -61t58.5 -37q0 -26 -26 -26h-424q-23 1 -16 23.5t82 40t90 82.5l62 269h-582zM324 556h454l160 690z" />
<glyph unicode="5" d="M124 70l44 189h4q29 -89 121 -134q89 -44 186 -44q20 -1 38 1q116 10 221 102q125 102 166 266l6 27l4 12q4 15 3 34q0 30 -9 68q-17 96 -105 150q-70 35 -142 35q-114 0 -232 -88q-38 -35 -85 -35q-10 0 -21 2q-14 0 -27.5 1t-6.5 31l158 684q6 26 11.5 29.5t41.5 3.5 h494q35 0 109 -3.5t120 -37.5l-40 -174q-101 41 -229 41h-444l-108 -468q106 58 197 90q91 34 171 34q43 0 83 -10q117 -28 183 -107q76 -81 76 -205q0 -53 -14 -114q-6 -26 -15 -54q-64 -171 -209 -284q-168 -132 -424 -136q-202 0 -326 94z" />
<glyph unicode="6" d="M162 342q0 59 15 124l2 9q77 321 268 548t478 397q31 18 45 24.5t46 6.5l69 -1q43 0 41.5 -7t-19.5 -15q-195 -117 -330.5 -230.5t-264.5 -283.5q112 57 238 57q32 0 65 -4q161 -18 246 -117q94 -109 94 -253q0 -54 -13 -113l-1 -3q-49 -213 -224 -359 q-176 -148 -369 -148h-15q-207 6 -289 125t-82 243zM325 322q0 -91 47 -185t164 -94h12q125 6 243.5 137.5t159.5 310.5q17 74 17 137q0 91 -47 185t-164 94h-12q-126 -7 -244 -138.5t-147 -257.5t-29 -189z" />
<glyph unicode="7" d="M158 1q1 15 4 24q15 53 44 98q42 63 76 109q107 144 417 524q237 291 387 474h-398q-130 0 -247 -41l40 174q60 33 126 37q65 4 121 4h494q36 0 40 -4q2 -1 2 -7q0 -10 -6 -35q-17 -69 -60 -130q-196 -269 -390.5 -537.5t-388.5 -537.5q-55 -74 -91 -153z" />
<glyph unicode="8" d="M128 284q0 54 15 118q38 161 152.5 260t270.5 135q-194 49 -194 218v7q0 37 10 80q42 176 186.5 261t353.5 85t289 -99q52 -65 52 -158q0 -43 -11 -91q-1 -6 -3 -12q-60 -236 -335 -292q131 -35 195 -132q44 -62 44 -158q0 -59 -17 -132v-2q-44 -190 -207 -289 q-166 -103 -394 -103h-2q-227 0 -332 108q-73 75 -73 196zM332 265q0 -84 46 -147.5t192.5 -63.5t242.5 78.5t141 272.5q17 76 17 134q0 91 -56 154t-181 63q-126 0 -233 -82q-108 -83 -151 -268q0 -2 -1 -4q-17 -78 -17 -137zM557 1004q0 -53 17 -96q31 -82 181 -82l1 -1 q149 0 217.5 82t87.5 162.5t19 121.5q0 62 -33 127t-164.5 65t-208.5 -82t-104 -197q-1 -4 -2 -9q-11 -48 -11 -91z" />
<glyph unicode="9" d="M273 828q0 54 13 113l1 3q49 213 224 359q176 148 369 148h15q207 -6 289 -125t82 -243q0 -59 -15 -124l-2 -9q-77 -321 -268 -548t-478 -397q-31 -18 -45 -24.5t-46 -6.5l-69 1q-43 0 -41.5 7t19.5 15q195 117 330.5 230.5t264.5 283.5q-112 -57 -238 -57q-32 0 -65 4 q-161 18 -246 117q-94 109 -94 253zM460 797q0 -91 47 -185t164 -94h12q126 7 244 138.5t147 257.5t29 189q0 91 -47 185t-164 94h-12q-125 -6 -243.5 -137.5t-159.5 -310.5q-17 -74 -17 -137z" />
<glyph unicode=":" horiz-adv-x="480" d="M158 37q0 11 3 24l19 82q20 87 130 87q93 0 93 -62q0 -11 -3 -25l-19 -82q-20 -86 -130 -86q-93 0 -93 62zM324 754q0 11 3 24l19 82q20 87 130 87q93 0 93 -62q0 -11 -3 -25l-19 -82q-20 -86 -130 -86q-93 0 -93 62z" />
<glyph unicode=";" horiz-adv-x="480" d="M45 -229q0 11 13 23q20 18 48 31q106 57 145 150q-93 0 -93 62q0 11 3 24l19 82q20 87 130 87q93 0 93 -62q0 -11 -3 -25l-19 -82q-67 -187 -245 -287q-34 -23 -59 -23q-16 0 -28 9q-3 5 -4 11zM299 754q0 11 3 24l19 82q20 87 130 87q93 0 93 -62q0 -11 -3 -25l-19 -82 q-20 -86 -130 -86q-93 0 -93 62z" />
<glyph unicode="&#x3c;" d="M319 623v6q2 15 29 36l757 603q24 19 40 19q12 0 20 -10l37 -49q3 -6 3 -15q0 -3 -1 -7q-3 -16 -26 -36l-676 -539l427 -538q12 -18 10 -37q-2 -11 -13 -21l-59 -48q-12 -10 -24 -10q-16 0 -32 19l-487 611q-5 7 -5 16z" />
<glyph unicode="=" d="M267 448q0 3 1 7l12 53q6 26 43 26h664q37 0 31 -26l-12 -53q-6 -26 -43 -26h-664q-32 0 -32 19zM336 748q0 3 1 7l13 53q6 26 43 26h664q31 0 31 -18v-8l-13 -53q-6 -26 -43 -26h-664q-32 0 -32 19z" />
<glyph unicode="&#x3e;" d="M186 49q0 4 1 7q6 19 26 37l677 538l-428 539q-14 20 -10 36q4 13 14 22l59 49q12 10 24 10q16 0 32 -19l479 -603q12 -15 12 -27q0 -6 -1 -9q-4 -13 -15 -22l-769 -611q-24 -19 -40 -19q-12 0 -20 10l-37 48q-4 7 -4 14z" />
<glyph unicode="?" horiz-adv-x="784" d="M277 37q0 11 3 24l19 82q20 87 130 87q93 0 93 -62q0 -11 -3 -25l-19 -82q-20 -86 -130 -86q-93 0 -93 62zM337 1109q0 12 2 23q31 133 136 211q105 77 254 77q154 0 226 -75q48 -51 48 -129q0 -38 -9 -77q-38 -164 -229 -268q-21 -11 -49 -26q-70 -39 -94 -72 q-25 -31 -45 -105l-43 -172q-12 -53 -30 -83q-17 -26 -36 -26q-17 0 -20 30q-1 8 -1 17q0 26 9 63l71 307q144 88 207 160q64 74 87 174q11 48 11 86q0 48 -18 79q-33 54 -123 54q-79 0 -127 -50q-49 -52 -90 -183q-7 -23 -28 -35q-21 -13 -54 -13q-34 0 -48 13q-7 7 -7 20z " />
<glyph unicode="@" horiz-adv-x="2119" d="M109 157q0 109 29 231q103 444 494 750q391 304 858 304q374 0 571 -202q141 -147 142 -360q0 -84 -22 -178q-67 -289 -301 -524q-66 -66 -145.5 -122t-163.5 -87q-98 -38 -184 -38q-64 0 -121 21q-69 26 -69 95q0 19 5 40l1 4l-332 -105q-36 -11 -58 -11h-41 q-140 7 -191 116q-24 50 -24 114q0 44 11 95q26 111 97 223t153 188q47 44 132 92q27 15 62 27l188 60t189 60q19 6 36 6h5q62 -3 139 -32q6 -2 8 -4q18 -9 46 -20q11 -4 21 -4q16 0 32 9q30 18 44 30q8 7 16 7q4 0 9 -2q16 -8 14 -18l-1 -2l-333 -721q-18 -40 -25 -71 q-5 -20 -5 -37q0 -55 52 -69q17 -5 36 -5q38 0 86 18q74 26 141 77q109 82 205 238q96 158 140 349q25 107 25 197q0 197 -120 310q-174 164 -478 164q-227 0 -473 -113q-247 -112 -438 -345q-191 -231 -260 -525q-27 -119 -27 -227q0 -99 23 -189q48 -186 202 -291 q151 -104 398 -104q208 0 410 73q183 67 338 175q5 4 10 4q6 0 12 -7q5 -7 3 -17q-2 -9 -10 -19q-17 -24 -33 -37q-178 -136 -379.5 -195.5t-414.5 -59.5q-400 0 -598 252q-136 174 -136 412zM765 270q0 -35 9 -63q26 -93 112 -121q34 -11 72 -11q12 0 26 1q23 2 59 13 q24 7 80.5 25.5t96.5 30.5l288 624q-23 38 -75.5 70.5t-103.5 34.5h-4q-20 0 -43 -8q-42 -13 -84 -26.5t-84 -26.5q-28 -9 -52 -26q-92 -66 -157.5 -160t-100.5 -186q-19 -47 -29 -89q-10 -44 -10 -82z" />
<glyph unicode="A" horiz-adv-x="1593" d="M54 9q0 5 3 12q8 18 41 31t76 31q44 27 69 63l862 1281h62q23 -118 57 -289t71 -352t71 -352t58 -288q6 -37 34.5 -59.5t48.5 -32.5t30 -18t11 -12.5t1 -6.5q0 -5 -4 -11t-13 -6h-338q-9 0 -17 6.5t-8.5 12t0.5 11.5t14 15.5t28 19.5t22.5 22.5t10.5 26.5q3 15 0 33 l-69 342h-583q-56 -86 -111 -171.5t-90 -138t-38.5 -64t-5.5 -20t-1.5 -19.5t5.5 -19.5t5 -17t-1 -11.5t-3 -7q-12 -21 -27 -21h-258q-13 0 -13 9zM644 570h515l-121 609q-99 -153 -197.5 -305t-196.5 -304z" />
<glyph unicode="B" horiz-adv-x="1240" d="M117 14q0 3 1 7q6 25 60 43t69 82l256 1112q4 15 4 28q0 40 -37.5 54.5t-37.5 36.5v6q5 21 26 21h570q98 0 196.5 -34.5t132.5 -134.5q14 -41 14 -91q0 -48 -13 -103q-27 -108 -106 -192q-58 -63 -157 -104q131 -46 171 -159q15 -45 15 -99q0 -53 -14 -115 q-29 -119 -117 -212q-76 -81 -189 -120.5t-200 -39.5h-627q-17 0 -17 14zM410 73h226q73 0 152.5 21.5t145.5 74.5q102 81 132 214q9 39 9 74q0 80 -46 140q-73 90 -230 90h-247zM572 774h276q121 13 209 82q92 73 119 194q8 36 9 69q0 73 -43 125q-66 81 -207 81h-236z" />
<glyph unicode="C" horiz-adv-x="1405" d="M205 510q0 89 24 191q78 337 355.5 540.5t597.5 203.5q115 0 238.5 -25.5t223.5 -100.5l-73 -210q-8 -18 -24 -18h-3q-12 1 -20 28q-29 125 -131 184q-96 53 -218 53h-21q-273 -12 -472 -216q-179 -183 -230 -405q-6 -25 -10 -50q-11 -63 -11 -122q0 -159 90.5 -322.5 t341.5 -175.5q24 -1 46 -1q128 0 220 39q107 46 203 185q19 28 39 28q4 0 8 -1q15 -6 10 -23q-2 -8 -8 -18l-143 -243q-105 -40 -207.5 -54t-191.5 -14q-307 0 -470.5 167t-163.5 380z" />
<glyph unicode="D" horiz-adv-x="1585" d="M110 6q0 4 3.5 18t57.5 32t69 83l259 1123q4 16 4 28q0 40 -37.5 54.5t-37.5 36.5v6q5 21 26 21q42 -1 85 -1l314 6q153 0 320 -9.5t295 -71.5t190 -188q39 -80 39 -197q0 -97 -27 -220q-38 -166 -139 -311t-257 -247q-264 -172 -587 -176h-80q-58 0 -108 1h-117 q-83 0 -126 3h-24q-40 0 -105 -6q-17 0 -17 15zM422 100q120 -24 235 -24q43 0 85 3q357 30 562 301q106 140 156 356l8 33q16 87 16 159q0 191 -112 288q-130 118 -387 118h-26q-123 0 -257 -21z" />
<glyph unicode="E" horiz-adv-x="1251" d="M159 13q0 4 1 8q6 25 60 42.5t69 82.5l256 1111q4 16 4 29q0 40 -37.5 54.5t-37.5 36.5v6q5 21 26 21h928l-59 -257q-5 -21 -26 -21q-10 0 -28 40q-34 69 -61.5 107t-87.5 38h-427l-126 -543h229q64 0 96 51.5t58 51.5q20 0 15 -21l-58 -254q-5 -21 -25 -21 q-26 0 -37.5 51t-75.5 51h-223l-134 -583h427q93 0 174 71.5t123 111.5q23 22 33 22q21 0 16 -21q-3 -13 -7 -21l-132 -257h-919q-14 0 -14 13z" />
<glyph unicode="F" horiz-adv-x="1139" d="M159 13q0 3 1 8q3 12 27 25q17 10 40.5 23t41.5 35q15 20 20 42l256 1111q4 16 4 29q0 40 -37.5 54.5t-37.5 36.5v6q5 21 26 21h928l-59 -257q-5 -21 -26 -21q-10 0 -28 40q-34 69 -61.5 107t-87.5 38h-427l-126 -543h229q42 0 83 37q23 22 39 44t32 22q20 0 15 -21 l-58 -254q-5 -21 -25 -21q-18 0 -24.5 25.5t-22.5 49.5q-22 28 -59 28h-229l-123 -532q-6 -28 1 -49q8 -18 23.5 -29.5t28.5 -20.5q20 -14 17 -26q-1 -6 -3 -9q-10 -12 -22 -12h-341q-15 0 -15 13z" />
<glyph unicode="G" horiz-adv-x="1563" d="M205 510q0 89 24 191q78 337 355.5 540.5t597.5 203.5q115 0 238.5 -25.5t223.5 -100.5l-73 -210q-8 -18 -24 -18h-3q-12 1 -20 28q-33 139 -118.5 185t-245.5 46q-223 0 -433 -155t-288 -494q-15 -66 -15 -131q0 -149 98 -321t341 -184q24 -1 46 -1q114 0 199 30 q101 36 189 146l44 188q5 31 -21 48q-24 14 -69 34.5t-45 39.5q0 25 27 25h401q17 0 17 -14q0 -3 -1 -7q-6 -26 -60 -44t-69 -82l-90 -389q-156 -7 -307 -43q-76 -19 -148 -26t-137 -7q-307 0 -470.5 167t-163.5 380z" />
<glyph unicode="H" horiz-adv-x="1638" d="M159 14q0 3 1 7q6 25 60 42.5t69 82.5l256 1111q4 16 4 28q0 40 -37.5 55t-37.5 37v6q5 21 26 21h339q20 0 15 -21q-6 -26 -60 -44t-69 -82l-108 -468h845l108 468q4 16 4 28q0 40 -37.5 55t-37.5 37v6q5 21 26 21h339q17 0 17 -14q0 -3 -1 -7q-6 -26 -60.5 -44 t-69.5 -82l-256 -1111q-4 -16 -4 -29q0 -40 38 -54.5t38 -36.5v-5q-5 -21 -26 -21h-339q-21 0 -16 21q6 25 60 42.5t69 82.5l127 551h-845l-127 -551q-4 -16 -4 -29q0 -40 40.5 -55.5t34.5 -40.5q-5 -21 -25 -21h-339q-17 0 -17 14z" />
<glyph unicode="I" horiz-adv-x="690" d="M159 14q0 3 1 7q6 25 60 42.5t69 82.5l256 1111q4 16 4 29q0 40 -37.5 54.5t-37.5 36.5v6q5 21 26 21h338q17 0 17 -14q0 -3 -1 -7q-6 -26 -60 -43.5t-69 -82.5l-256 -1110q-4 -16 -4 -30q0 -40 40.5 -55.5t34.5 -40.5q-5 -21 -26 -21h-339q-16 0 -16 14z" />
<glyph unicode="J" horiz-adv-x="682" d="M18 -399l11 50q45 24 87.5 61.5t75.5 98.5q21 41 39 115t58 248l250 1084q4 16 4 28q0 40 -37.5 55t-37.5 37q0 3 1 6q5 20 25 20h339q17 0 17 -13v-7q-6 -26 -60.5 -44t-69.5 -82l-248 -1078q-45 -197 -94 -293t-130 -164q-111 -92 -230 -122z" />
<glyph unicode="K" horiz-adv-x="1487" d="M159 15q0 4 3.5 17.5t57.5 31t69 82.5l256 1111q4 16 4 28q0 40 -37.5 55t-37.5 37v6q5 21 26 21h339q20 0 15 -21q-6 -26 -60 -44t-69 -82l-118 -511l638 495q95 73 150 117.5t82 44.5t43 -9l94 -52q13 -9 13 -17q0 -9 -8 -20l-85 -146l-63 29q-35 16 -77.5 16 t-90.5 -39l-494 -393l592 -694q16 -21 37 -31.5t18 -25.5q-5 -21 -25 -21h-339q-21 0 -16 21q2 7 20 21q13 10 16 22q6 20 -20 47l-497 582l-126 -547q-4 -16 -4 -29q0 -40 40.5 -55.5t35 -38.5t-25.5 -23h-339q-17 0 -17 15z" />
<glyph unicode="L" horiz-adv-x="1251" d="M159 14q0 3 1 7q6 25 60 42.5t69 82.5l256 1111q4 16 4 28q0 40 -37.5 55t-37.5 37v6q5 21 26 21h339q20 0 15 -21q-6 -26 -60 -44t-69 -82l-267 -1163h427q93 0 174 71.5t123 111.5q23 22 33 22q17 0 17 -14q0 -3 -1 -7q-3 -13 -7 -21l-132 -257h-916q-17 0 -17 14z" />
<glyph unicode="M" horiz-adv-x="1908" d="M138 14q0 3 1 7q6 25 60 42.5t69 82.5l256 1111q4 16 4 28q0 40 -37.5 55t-37.5 37v6q5 21 26 21h266l288 -1122l789 1122h279q17 0 17 -14q0 -3 -1 -7q-6 -26 -60.5 -44t-69.5 -82l-256 -1111q-4 -16 -4 -29q0 -40 38 -54.5t38 -36.5v-5q-5 -21 -26 -21h-339 q-21 0 -16 21q6 25 60 42.5t69 82.5l247 1071l-865 -1247h-39l-294 1200l-236 -1024q-4 -16 -4 -29q0 -40 40.5 -55.5t34.5 -40.5q-5 -21 -26 -21h-254q-17 0 -17 14z" />
<glyph unicode="N" horiz-adv-x="1644" d="M138 14q0 3 1 7q6 25 60 42.5t69 82.5l256 1111q4 16 4 28q0 40 -37.5 55t-37.5 37v6q5 21 26 21h257l680 -1201l243 1054q4 16 4 29q0 40 -37 54.5t-37 36.5v6q5 21 25 21h255q17 0 17 -14q0 -3 -1 -7q-6 -26 -60 -44t-69 -82l-301 -1300l-167 43l-683 1189l-241 -1043 q-4 -16 -4 -29q0 -40 40.5 -55.5t34.5 -40.5q-5 -21 -26 -21h-254q-17 0 -17 14z" />
<glyph unicode="O" horiz-adv-x="1610" d="M181 492q0 83 21 177q4 18 10 36q91 341 345 539t585 202h10q323 0 499 -198q115 -130 115 -318q0 -80 -21 -170q-6 -27 -14 -55q-100 -344 -361.5 -533.5t-571.5 -206.5q-23 -1 -46 -1q-278 0 -448 192q-123 138 -123 336zM396 515q0 -154 89 -310.5t334 -158.5h5 q239 0 440 204q199 202 255 446l1 6q23 101 23 195q0 137 -64.5 299t-356.5 162q-307 -1 -474 -193.5t-229 -462.5q-23 -99 -23 -187z" />
<glyph unicode="P" horiz-adv-x="1237" d="M138 14q0 3 1 7q6 25 59 42.5t68 82.5l258 1111q4 16 4 28q0 40 -37.5 55t-37.5 37v6q5 21 26 21h590q103 0 206.5 -36.5t140.5 -141.5q14 -43 14 -95q0 -50 -13 -109q-28 -113 -112 -203q-72 -77 -180 -114.5t-190 -37.5h-367l-120 -521q-4 -16 -4 -29q0 -40 40.5 -55.5 t34.5 -40.5q-5 -21 -25 -21h-339q-17 0 -17 14zM584 737h232q69 0 144.5 20t138.5 71q98 77 127 204q9 37 9 71q0 76 -45 133q-69 85 -219 85h-252z" />
<glyph unicode="Q" horiz-adv-x="1610" d="M181 492q0 83 21 177q4 18 10 36q92 341 345 539q254 198 585 202h10q323 0 499 -198q115 -130 115 -318q0 -80 -21 -170q-6 -27 -14 -55q-99 -343 -361 -533q-250 -182 -547 -205q77 -18 184 -71q161 -80 255 -80q34 0 104 19l-12 -50q-110 -56 -166 -105 q-120 16 -299 98q-177 81 -245 81h-2q-38 0 -167 -74l15 63q125 82 169 105q16 8 32 13q-237 19 -387 190q-123 138 -123 336zM396 516q0 -154 69 -276q109 -192 354 -194h5q239 0 440 204q199 202 255 446l1 6q22 101 22 194q0 137 -48 258q-80 204 -372 204 q-307 -2 -474 -194q-166 -192 -229 -462q-23 -98 -23 -186z" />
<glyph unicode="R" horiz-adv-x="1368" d="M138 14q0 3 1 7q6 25 60 42.5t69 82.5l256 1111q4 16 4 28q0 40 -37.5 55t-37.5 37v6q5 21 26 21h590q103 0 206.5 -36.5t140.5 -141.5q14 -43 14 -95q0 -50 -13 -109q-28 -113 -112 -203q-66 -71 -164 -108.5t-179 -42.5l318 -596q23 -23 66 -27q27 -3 24 -21l-1 -3 q-8 -21 -26 -21h-267q-9 0 -50 78t-94 186t-109 221t-95 182h-160l-120 -521q-4 -16 -4 -29q0 -40 40.5 -55.5t34.5 -40.5q-5 -21 -25 -21h-339q-17 0 -17 14zM584 737h232q69 0 144.5 20t138.5 71q98 77 127 204q9 37 9 71q0 76 -45 133q-69 85 -219 85h-252z" />
<glyph unicode="S" horiz-adv-x="1075" d="M127 264q-1 5 1 12.5t12 19t23 11.5q11 -3 18 -29q32 -139 110.5 -182t201.5 -43q26 0 81.5 3.5t138.5 41t146.5 111t87.5 179.5l2 11q6 28 6 53q0 75 -52 120q-32 28 -106.5 50.5t-182.5 34.5t-191.5 57t-102.5 107.5t-19 109.5q0 42 10 87q43 188 204 309.5t365 121.5 h30q221 -10 353 -111l-73 -210q-6 -18 -23 -18h-4q-13 1 -18 28q-22 90 -89.5 153.5t-161.5 67.5h-16q-92 0 -158 -28.5t-100 -57t-60.5 -65.5t-43 -75t-23 -66t-6.5 -49q0 -12 1 -24q6 -67 43.5 -99.5t71 -41.5t68 -15.5t80.5 -14t107.5 -17t135.5 -34.5t106 -72t40 -87 t8 -66q0 -40 -11 -88q-49 -214 -256 -356q-107 -74 -213 -105.5t-167.5 -34t-82.5 -2.5q-139 0 -257 39z" />
<glyph unicode="T" horiz-adv-x="1255" d="M307 1140q0 3 1 7l43 185q12 54 33 65.5t98 11.5h944q83 0 93 -7.5t10 -24.5t-6 -45l-43 -185q-5 -21 -26 -21q-9 0 -29 40q-35 69 -62.5 107t-87.5 38h-251l-269 -1165q-4 -16 -4 -29q0 -40 37.5 -55t37.5 -36v-6q-5 -20 -25 -20h-339q-21 0 -16 20q6 25 60 43t69 83 l269 1165h-255q-60 0 -106.5 -38t-112.5 -107q-37 -40 -46 -40q-17 0 -17 14z" />
<glyph unicode="U" horiz-adv-x="1554" d="M333 316q1 115 37 272l154 670q4 16 4 28q0 40 -37.5 54.5t-37.5 36.5v6q5 21 26 21h339q20 0 15 -21q-6 -26 -58.5 -42.5t-67.5 -80.5l-125 -539q-35 -153 -47 -237t-12 -128q0 -59 13 -105q22 -81 97.5 -123t225.5 -42q264 0 406 208q101 146 165 427l124 536 q4 16 4 28q0 40 -37.5 55t-37.5 37v6q5 21 26 21h255q16 0 16 -14q0 -3 -1 -7q-6 -26 -59.5 -44t-68.5 -82l-154 -669q-35 -149 -90.5 -272.5t-145.5 -207.5q-161 -147 -431 -147q-171 0 -283.5 32t-165.5 116q-48 75 -48 207z" />
<glyph unicode="V" horiz-adv-x="1479" d="M378 1389q0 5 4 9q5 6 13 6h339q9 0 17 -6q7 -8 8 -15v-5q-2 -10 -15 -20q-12 -9 -27 -19.5t-25 -25.5q-6 -10 -9 -21q-3 -14 1 -29l173 -1086l669 930q19 26 23 47q4 18 -1 32q-12 30 -41 78l-36 57l146 94q10 7 18 7q10 0 20 -10l63 -84q13 -18 13 -40q0 -14 -3 -26 q-5 -22 -18 -47q-40 -71 -110 -167l-725 -1016q-11 -17 -20 -26q-9 -6 -17 -6h-151q-10 0 -14 8q-2 3 -5 23t-4 29l-136 1050q-16 106 -24 148q-9 37 -43 67q-21 15 -41 24.5t-32 19.5q-8 5 -9 14q-1 3 -1 6z" />
<glyph unicode="W" horiz-adv-x="2069" d="M378 1389q0 5 4 9q5 6 13 6h339q9 0 17 -6q7 -8 8 -15v-5q-2 -10 -15 -20q-12 -10 -27 -20q-14 -10 -25 -25q-6 -10 -9 -21q-3 -14 1 -29l173 -1086l324 450l-63 483q-16 106 -24 148q-9 37 -43 67q-22 15 -41 25q-20 10 -32 19q-8 5 -9 14q-2 4 -1 9q1 3 4 6q5 6 13 6 h339q9 0 17 -6q7 -8 8 -15v-5q-2 -10 -15 -20q-12 -10 -27 -20q-14 -10 -25 -25q-6 -10 -9 -21q-3 -14 1 -29l66 -414l186 258q19 26 23 47q4 18 -1 32q-12 30 -41 78l-36 57l146 94q10 7 18 7q10 0 20 -10l63 -84q14 -19 13 -43q0 -11 -3 -23q-5 -22 -18 -47 q-40 -71 -110 -167l-238 -335l85 -536l669 930q19 26 23 47q4 18 -1 32q-12 30 -41 78l-36 57l146 94q10 7 18 7q10 0 20 -10l63 -84q13 -18 13 -40q0 -14 -3 -26q-5 -22 -18 -47q-40 -71 -110 -167l-725 -1016q-11 -17 -20 -26q-9 -6 -17 -6h-151q-10 0 -14 8q-2 3 -6 23 q-3 20 -3 29l-55 426l-324 -454q-11 -17 -20 -26q-9 -6 -17 -6h-151q-10 0 -14 8q-2 3 -6 23q-3 20 -3 29l-136 1050q-16 106 -24 148q-9 37 -43 67q-22 15 -41 25q-20 10 -32 19q-8 5 -9 14q-1 3 -1 6z" />
<glyph unicode="X" horiz-adv-x="1366" d="M37 6l2 5q4 16 38 30l57 21q82 32 133 84l521 552l-234 560q-26 58 -108 92q-23 8 -36 16q-21 14 -17 28l1 4q2 6 11 6h339q17 0 25 -13t7 -19t-10.5 -14.5t-21.5 -19t-17 -25.5l-1 -5q-5 -23 6 -45l181 -432l353 373q91 96 152 151t103 55q10 0 19 -3l92 -31 q13 -6 13 -14t-6 -21l-82 -170l-61 15q-51 12 -84 14h-3q-32 0 -75 -47l-384 -411l250 -596q20 -51 108 -92q22 -10 34 -18q23 -15 21 -25q-3 -11 -14 -11h-339q-9 0 -19 6q-17 10 -14 21t24 31t26 33l2 7q5 20 -3 43l-200 468l-431 -462q-39 -41 -45 -69v-39 q-3 -12 -16 -25.5t-27 -13.5h-258q-12 0 -12 6z" />
<glyph unicode="Y" horiz-adv-x="1366" d="M368 1390q0 2 1 4l1 4q2 6 11 6h339q10 0 18 -6q9 -7 13 -15q2 -5 1 -10q-2 -7 -10 -15q-9 -9 -21.5 -19.5t-17.5 -25.5l-1 -5q-5 -22 6 -45l213 -534l350 395q39 44 52 76q2 5 3 10q2 10 3 23q0 24 -9 55l-18 68l157 62q8 3 14 3q13 0 20 -16l37 -101q4 -11 4 -23 q0 -8 -2 -15q-8 -34 -50 -69q-66 -56 -146 -143l-355 -388q-24 -27 -41 -76t-27 -93l-81 -351q-4 -16 -4 -29q0 -40 40.5 -55.5t34.5 -40.5q-5 -21 -26 -21h-339q-21 0 -16 21q6 25 60 42.5t69 82.5l98 427q6 25 6 48q0 30 -10 56l-215 581q-15 34 -61 67q-25 15 -48 24.5 t-37 19.5q-10 6 -14 14q-2 4 -2 7z" />
<glyph unicode="Z" horiz-adv-x="1366" d="M36 25q0 15 26 36l1261 1251l-608 -1q-60 0 -106 -38t-97.5 -92.5t-61.5 -54.5q-21 0 -16 21l43 185q12 54 33.5 65.5t97.5 11.5h924q84 0 93 -12q6 -9 6 -20q0 -4 -1 -8q-3 -17 -23 -37l-1267 -1234l781 1q60 0 105.5 37.5t97.5 92t61 54.5q21 0 16 -21l-42 -185 q-13 -58 -31 -67.5t-100 -9.5h-1071q-83 0 -104 6q-17 7 -17 19z" />
<glyph unicode="[" horiz-adv-x="682" d="M127 -407q0 3 1 7l424 1836q7 30 27 30h247q8 0 8 -12q0 -6 -2 -16q-7 -29 -24 -29h-145l-410 -1776h145q17 0 11 -27q-6 -26 -18 -26h-247q-17 0 -17 13z" />
<glyph unicode="\" d="M398 1474h140l488 -1544h-142z" />
<glyph unicode="]" horiz-adv-x="682" d="M127 -408q0 6 2 14q6 27 23 27h145l410 1776h-145q-17 0 -10 29q6 28 18 28h247q16 0 16 -17q0 -6 -1 -13l-424 -1836q-5 -20 -26 -20h-247q-8 0 -8 12z" />
<glyph unicode="^" d="M395 912l431 518h108l193 -518h-56l-218 400l-404 -400h-54z" />
<glyph unicode="_" d="M-78 -336l28 118h1100l-28 -118h-1100z" />
<glyph unicode="`" horiz-adv-x="1000" d="M555 1305q0 10 3 21q17 74 91 74q22 0 37 -13l317 -258q3 -5 3 -10q0 -2 -1 -5q-4 -17 -22 -17q-4 0 -6 1l-389 159q-33 13 -33 48z" />
<glyph unicode="a" horiz-adv-x="1155" d="M145 294q0 67 19 146q12 52 37 119t79.5 131.5t104.5 96t80 43.5q365 126 383 126h5q63 -3 109 -19t73 -28.5t51.5 -12.5t62.5 39q7 7 13 7t17.5 -4.5t11.5 -13.5q0 -2 -1 -4l-178 -774q-4 -16 -4 -29q0 -40 40.5 -55.5t35 -38.5t-26.5 -23h-243q-17 0 -14 13l17 74 l-298 -101q-35 -11 -56 -11h-41q-140 7 -218 116q-59 82 -59 203zM338 346q0 -79 27 -132q71 -139 220 -139q39 0 90.5 17t155.5 54l144 623q-32 38 -92 70.5t-111 34.5h-4q-21 0 -89.5 -24t-102 -35.5t-51.5 -27.5q-77 -66 -115.5 -148.5t-43.5 -106.5l-6 -27q-1 -3 -2 -5 q-20 -87 -20 -154z" />
<glyph unicode="b" horiz-adv-x="1139" d="M165 11l287 1246q4 16 4 28q0 40 -37.5 55t-37.5 37v6q5 21 26 21q67 3 135.5 20t138.5 39l-143 -620l298 102q31 10 55 12q9 0 19.5 -0.5t22.5 -0.5q140 -7 217 -116q60 -87 60 -202q0 -32 -5 -67q-6 -42 -15 -82q-12 -52 -30 -101q-32 -85 -104 -169q-40 -47 -111 -92 q-27 -17 -56 -27q-88 -30 -175 -60t-173 -59q-20 -6 -36 -6h-4q-62 3 -148 31q-5 2 -8 4q-21 9 -50 20q-13 4 -24 4q-15 0 -28 -9q-26 -19 -37 -29q-7 -7 -15 -7q-5 0 -9 2q-20 8 -17 20zM380 161q31 -39 90 -71.5t113 -33.5h6q16 0 39 8l78 26t78 27q24 8 46 26 q76 65 120 159q33 73 49 146q5 21 9 41q7 46 7 87q0 85 -31 147q-46 91 -140 121q-38 11 -79 11q-11 0 -22 -1q-24 -3 -55 -13q-25 -9 -78 -27t-86 -29z" />
<glyph unicode="c" horiz-adv-x="925" d="M164 304q0 65 18 142q13 55 35 117q94 221 305 328q118 59 254 65h21q163 0 279 -88l-56 -169q-5 -13 -15 -13h-2q-12 1 -15 20q-20 87 -75.5 125.5t-147.5 38.5h-24q-111 -6 -180 -60q-130 -101 -174 -291q-7 -29 -11 -61q-8 -49 -8 -93q0 -88 32 -151q64 -124 176 -142 q20 -2 38 -2q99 0 183 44.5t100.5 44.5t20.5 -1q1 -5 -1.5 -16t-21.5 -35.5t-42 -41.5q-132 -90 -318 -90t-289 103q-82 86 -82 226z" />
<glyph unicode="d" horiz-adv-x="1231" d="M164 290q0 33 5 69q6 42 15 81q12 52 30 101q32 85 105 170q36 44 110 92q25 15 56 27l174 60t175 60q18 6 34 6h5q63 -3 147 -32q7 -3 9 -4l78 337q4 16 4 28q0 40 -37.5 55t-37.5 37v6q5 21 26 21q67 3 135.5 20t138.5 39l-304 -1317q-4 -16 -4 -29q0 -40 40.5 -55.5 t34.5 -40.5q-5 -21 -26 -21h-243q-17 0 -14 13l17 74l-298 -101q-35 -11 -56 -11h-41q-140 7 -218 116q-60 84 -60 199zM360 353q0 -85 31 -146q46 -93 140 -121q35 -11 74 -11q12 0 26 1q22 2 55 13q25 8 78 26.5t87 30.5l144 624q-36 41 -94.5 71.5t-108.5 32.5h-4 q-20 0 -42 -8q-39 -13 -77.5 -26.5t-77.5 -26.5q-27 -10 -46 -26q-77 -66 -120 -160q-33 -71 -50 -141q-5 -22 -8 -45q-7 -47 -7 -88z" />
<glyph unicode="e" horiz-adv-x="1004" d="M149 320q0 57 15 121q12 53 34 110q71 185 216 296t341 113h4q197 0 261 -93t64 -196q0 -56 -15 -120q-10 -40 -16 -56.5t-45 -16.5h-637q-13 -63 -13 -117q0 -86 44 -172t158 -110q33 -8 69 -8q95 0 184.5 43t102 43t15 -2.5t0.5 -12t-20 -33.5t-27.5 -32t-16.5 -14 q-131 -94 -318 -94q-262 2 -354 168q-46 82 -46 183zM388 551h527q13 58 14 111q0 58 -24 134t-165 76h-11q-142 -4 -225.5 -102t-115.5 -219z" />
<glyph unicode="f" horiz-adv-x="683" d="M111 15q0 4 3.5 17.5t57.5 31t69 82.5l161 699l-120 -5q-19 0 -15 20v2q4 16 25 25q22 9 66 30t53 24.5t14 3.5l19 82q29 127 63.5 192.5t60.5 91t54 34.5l276 95l40 5q22 0 41 -15.5t22.5 -25.5t3.5 -18q0 -6 -2.5 -16t-10.5 -38t-20 -31h-3q-11 0 -40 23t-66.5 23 t-67.5 -11q-92 -36 -125 -137q-13 -38 -23.5 -82t-21.5 -90l-18 -79l240 5q15 0 10.5 -20t-13.5 -40q-21 -47 -56 -47l-204 1l-162 -701q-4 -16 -4 -29q0 -40 40.5 -55.5t35 -38.5t-26.5 -23h-339q-17 0 -17 15z" />
<glyph unicode="g" horiz-adv-x="1103" d="M24 -315q95 34 194 67q6 -51 27 -92q47 -92 140 -121q36 -10 72 -10q14 0 27 1q22 2 55 12q13 5 34 12t44 15q54 24 87 97t38 97l74 324l-297 -101q-35 -11 -56 -11h-41q-140 7 -218 116q-60 84 -60 199q0 33 5 69q6 42 15 81q12 52 30 101q32 85 105 170q36 44 110 92 q25 15 56 27l174 60t175 60q18 6 34 6h5q63 -3 147 -32q7 -3 9 -4q20 -9 50 -20q12 -4 23 -4q16 0 30 9q25 18 37 30q7 7 14 7q5 0 10 -2q20 -8 17 -20l-254 -1100q-38 -165 -94.5 -206t-150.5 -73l-299 -103q-35 -11 -55 -11q-26 0 -41 1q-140 5 -218 116q-40 59 -54 141z M340 353q0 -85 31 -146q46 -93 140 -121q35 -11 74 -11q12 0 26 1q22 2 55 13q25 8 77.5 26t85.5 30l13 54h1l132 570q-32 38 -92 70.5t-111 34.5h-4q-20 0 -42 -8q-39 -13 -77.5 -26.5t-77.5 -26.5q-27 -10 -46 -26q-77 -66 -120 -160q-33 -71 -50 -141q-5 -22 -8 -45 q-7 -47 -7 -88z" />
<glyph unicode="h" horiz-adv-x="1207" d="M86 15q0 4 3.5 17.5t57.5 31t69 82.5l256 1111q4 16 4 28q0 40 -37.5 55t-37.5 37v6q5 21 26 21q67 3 135.5 20t137.5 39l-141 -610q60 21 105.5 37t116 38.5t127 28t69.5 5.5q84 0 147 -57q58 -54 58 -182q0 -90 -29 -217l-83 -360q-4 -16 -4 -29q0 -40 40.5 -55.5 t35 -38.5t-25.5 -23h-243q-17 0 -14 13l114 493q21 92 21 160q0 96 -41 148q-45 57 -129 57q-48 0 -90.5 -13.5t-79 -26t-62.5 -21.5t-47 -16l-149 -648q-4 -16 -4 -29q0 -40 40.5 -55.5t35 -38.5t-25.5 -23h-339q-17 0 -17 15z" />
<glyph unicode="i" horiz-adv-x="593" d="M116 15q0 4 1 8q5 23 60 41q54 18 69 82l147 640q4 15 4 28q0 40 -35 53q-41 16 -40 38v6q5 21 26 21q67 2 136 20q68 18 137 40l-195 -846q-4 -16 -4 -28q0 -40 35 -54q46 -18 40 -41q-5 -23 -25 -23h-339q-17 0 -17 15zM465 1252q0 17 5 38q25 110 135 110q89 0 90 -73 q0 -17 -5 -37q-26 -111 -136 -111q-89 0 -89 73z" />
<glyph unicode="j" horiz-adv-x="487" d="M-109 -567l12 50q108 57 164 160q22 41 39 115t57 248l180 780q4 15 4 28q0 40 -35 53q-41 16 -40 38v6q5 21 26 21q67 2 136 20q68 18 138 40l-226 -980q-46 -197 -95 -293q-48 -96 -129 -164q-115 -95 -231 -122zM465 1252q0 17 5 38q25 110 135 110q89 0 90 -73 q0 -17 -5 -37q-26 -111 -136 -111q-89 0 -89 73z" />
<glyph unicode="k" horiz-adv-x="1163" d="M106 14q0 3 1 7q6 25 60 42.5t69 82.5l256 1111q4 16 4 28q0 40 -37.5 55t-37.5 37v6q5 21 26 21q67 3 135.5 20t137.5 39l-211 -912l420 283q73 50 126 79q31 16 54 16q18 0 33 -9l64 -46q8 -7 8 -14t-6 -14l-71 -105l-44 26q-27 15 -54 15q-34 0 -70 -22 q-170 -109 -301 -195l270 -340q84 -105 112 -119q20 -11 45 -11q10 0 21 2q8 2 16 2q20 0 23 -15q1 -6 0 -10q-2 -10 -13 -14l-71 -31q-57 -23 -103 -23q-29 0 -52 11q-59 26 -101 79l-295 371q-10 -8 -36 -24l-68 -297q-4 -16 -4 -29q0 -40 40.5 -55.5t34.5 -40.5 q-5 -21 -25 -21h-339q-17 0 -17 14z" />
<glyph unicode="l" horiz-adv-x="597" d="M106 14q0 3 1 7q6 25 60 42.5t69 82.5l256 1111q4 16 4 28q0 40 -37.5 55t-37.5 37v6q5 21 26 21q67 3 135.5 20t137.5 39l-304 -1317q-4 -16 -4 -29q0 -40 40.5 -55.5t34.5 -40.5q-5 -21 -25 -21h-339q-17 0 -17 14z" />
<glyph unicode="m" horiz-adv-x="1797" d="M103 15q0 4 3.5 17.5t57.5 31t69 82.5l147 640q4 15 4 28q0 40 -37.5 54.5t-37.5 36.5v6q5 21 26 21q67 3 135.5 20.5t137.5 39.5l-30 -131q51 18 91.5 32t109 36t125 27.5t69.5 5.5q84 0 147 -57q21 -21 32 -42q49 17 88.5 30.5t107.5 35.5t124.5 27.5t69.5 5.5 q83 0 146 -57q59 -55 59 -183q0 -90 -29 -216l-83 -360q-4 -16 -4 -29q0 -40 40.5 -55.5t35 -38.5t-26.5 -23h-243q-16 0 -13 13l114 493q21 92 21 160q0 96 -41 148q-45 57 -129 57q-48 0 -89.5 -13t-72.5 -23.5t-57 -19.5q9 -37 9 -86q0 -90 -30 -223l-83 -360 q-4 -16 -4 -29q0 -40 40.5 -55.5t35 -38.5t-25.5 -23h-339q-21 0 -15.5 23t59.5 40.5t69 82.5l83 360q21 92 21 160q0 96 -41 148q-45 57 -129 57q-48 0 -97.5 -15.5t-86 -28.5t-72.5 -25l-151 -656q-4 -16 -4 -29q0 -40 40.5 -55.5t35 -38.5t-25.5 -23h-339q-17 0 -17 15z " />
<glyph unicode="n" horiz-adv-x="1191" d="M86 15q0 4 3.5 17.5t57.5 31t69 82.5l147 640q4 15 4 28q0 40 -37.5 54.5t-37.5 36.5v6q5 21 26 21q67 3 135.5 20.5t137.5 39.5l-32 -139q60 21 105.5 37t116 38.5t127 28t69.5 5.5q84 0 147 -57q58 -54 58 -182q0 -90 -29 -217l-83 -360q-4 -16 -4 -29 q0 -40 40.5 -55.5t35 -38.5t-25.5 -23h-243q-17 0 -14 13l114 493q21 92 21 160q0 96 -41 148q-45 57 -129 57q-48 0 -90.5 -13.5t-79 -26t-62.5 -21.5t-47 -16l-149 -648q-4 -16 -4 -29q0 -40 40.5 -55.5t35 -38.5t-25.5 -23h-339q-17 0 -17 15z" />
<glyph unicode="o" horiz-adv-x="1107" d="M155 348q0 54 14 114v3q52 219 250 368q23 18 63.5 31t104.5 34.5t120 39.5t88 18h3q193 -8 280 -129.5t87 -249.5q0 -54 -13 -112l-1 -6q-46 -200 -220.5 -339t-383.5 -145h-16q-192 0 -284 122.5t-92 250.5zM348 345q0 -92 46 -194t170 -108h14q116 0 228.5 116 t153.5 291q16 68 16 128v7q0 92 -46 194.5t-169 109.5h-12q-117 0 -230.5 -116.5t-153.5 -291.5q-17 -72 -17 -136z" />
<glyph unicode="p" horiz-adv-x="1197" d="M-20 -574q0 3 1 7q6 26 60 44t69 82l283 1227q4 15 4 28q0 40 -37.5 54.5t-37.5 36.5v6q5 21 26 21q67 3 135.5 20.5t137.5 39.5l-33 -144l285 97q31 10 47.5 11t26.5 0.5t22 -0.5q140 -6 218 -116q60 -87 60 -202q0 -32 -5 -67q-5 -41 -16 -87.5t-36.5 -113.5 t-80.5 -131.5t-104 -96t-79 -42.5q-190 -66 -279 -95.5t-105 -29.5h-4q-58 3 -145 30l-103 -446q-4 -16 -3 -28q0 -40 37.5 -55t37.5 -37q0 -3 -1 -6q-5 -20 -25 -20h-339q-17 0 -17 13zM427 150q34 -36 88.5 -64.5t104.5 -29.5h6q16 0 47 10.5t69.5 23.5t70.5 24t54 29 q75 65 113.5 147.5t49.5 129.5t14 69q7 46 7 87q0 86 -39 162.5t-132 105.5q-37 11 -63 11t-43.5 -2t-44.5 -11t-73 -24.5t-82 -27.5z" />
<glyph unicode="q" horiz-adv-x="1173" d="M164 289q0 34 5 70q6 43 16.5 88.5t35 112t80.5 132t104.5 96.5t107.5 51.5t145.5 50.5t140.5 48t70 18h4q64 -3 106.5 -18t45 -16.5t5.5 -1.5v-2q21 -9 40.5 -15.5t32 -6.5t31.5 13.5t28 23t15.5 9.5t18 -4.5t11.5 -13.5q0 -2 -1 -4l-314 -1361q-4 -16 -3 -28 q0 -40 37.5 -55t37.5 -37q0 -3 -1 -6q-5 -20 -26 -20h-339q-21 0 -16 20q6 26 60 44t69 82l122 527l-295 -100q-33 -11 -55 -11h-42q-141 7 -209 103.5t-68 210.5zM359 352q0 -85 38 -161t133 -105q36 -11 61.5 -11t43.5 1.5t45.5 11t79 27t86.5 29.5l145 628 q-33 37 -91.5 68.5t-108.5 33.5h-4q-20 0 -50 -10.5t-69 -24t-71 -24.5t-53 -28q-77 -66 -115.5 -148.5t-49 -128.5t-13.5 -69q-7 -47 -7 -89z" />
<glyph unicode="r" horiz-adv-x="831" d="M126 14q0 3 1 7q6 25 60 42.5t69 82.5l147 640q4 15 4 28q0 40 -37.5 54.5t-37.5 36.5v6q5 21 26 21q67 3 135.5 20.5t138.5 39.5l-30 -132l151 53q84 29 130 43q14 4 32 4q37 0 89 -20l-80 -251h-46q-5 146 -116 146q-11 0 -22 -1q-78 -9 -127 -77.5t-73 -161.5 l-103 -449q-4 -16 -4 -29q0 -40 40 -55.5t34 -40.5q-5 -21 -25 -21h-339q-17 0 -17 14z" />
<glyph unicode="s" horiz-adv-x="884" d="M129 229l7 20q4 15 22 15h2q10 -2 15 -24q23 -99 80 -140.5t159 -44.5h12q71 0 167.5 34.5t121.5 128.5l2 6q5 22 5 41q0 73 -87.5 99.5t-171 51.5t-147 75.5t-63.5 123.5q0 26 7 57l1 5q37 155 165.5 218.5t260.5 63.5q12 0 24 -1q145 -8 258 -89l-62 -175 q-5 -15 -19 -15h-3q-12 1 -17 24q-19 75 -76 125.5t-136 53.5h-4q-62 0 -130 -31.5t-97 -97.5q-10 -22 -14 -40q-3 -13 -3 -25q0 -45 50.5 -73t156 -53t189.5 -68.5t84 -147.5q0 -29 -6 -63l-2 -10q-17 -74 -94.5 -151t-180 -109.5t-191.5 -35.5h-27q-123 0 -228 32z" />
<glyph unicode="t" horiz-adv-x="682" d="M251 144q0 45 14 106l137 595l-120 -5q-19 0 -15 20v2q4 16 25 25q22 9 66 30t53 24.5t14 3.5l40 171q12 50 36.5 69.5t80.5 43.5t72 24q23 0 17 -26l-64 -279l240 5q11 0 11 -12q0 -4 -2.5 -16t-11.5 -32q-21 -47 -56 -47l-204 1l-145 -627q-6 -26 -6 -48 q0 -56 45.5 -94.5t89.5 -44.5l-8 -32q-149 0 -229 23.5t-80 119.5z" />
<glyph unicode="u" horiz-adv-x="1239" d="M254 208q0 90 29 217l83 361q4 15 4 28q0 40 -37.5 54.5t-37.5 36.5v6q5 21 26 21q67 3 135.5 20.5t138.5 39.5l-131 -567q-21 -92 -21 -161q0 -96 41 -147q45 -57 129 -57q48 0 109 19q23 7 60 20t63 22q5 2 17.5 6t28.5 10l149 649q4 15 4 28q0 40 -37.5 54.5 t-37.5 36.5v6q5 21 26 21q67 3 135.5 20.5t138.5 39.5l-195 -846q-4 -16 -4 -29q0 -40 40.5 -55.5t34.5 -40.5q-5 -21 -26 -21h-243q-17 0 -14 13l15 65q-60 -21 -106 -37.5t-85 -28.5q-100 -31 -201 -41q-14 -1 -27 -1q-83 0 -145 56q-59 54 -59 182z" />
<glyph unicode="v" horiz-adv-x="1036" d="M243 913v7q1 3 3 6q4 5 12 5h328q7 0 15 -5q6 -7 8 -13v-5q-2 -9 -15 -18q-41 -31 -46 -41q-5 -9 -7 -19q-3 -12 0 -25l114 -639l358 551q14 21 18 41q2 10 2 20q0 25 -14 48l-24 39l106 71q7 6 12 6q7 0 14 -8l42 -57q9 -12 9 -28q0 -7 -2 -16q-3 -15 -13 -33 q-27 -48 -73 -112l-466 -686q-7 -10 -13 -16q-6 -5 -12 -5h-84q-7 0 -10 6q-2 3 -4 15.5t-2 18.5l-147 779q-8 38 -35 60q-18 13 -36.5 22t-28.5 18q-6 4 -9 13z" />
<glyph unicode="w" horiz-adv-x="1647" d="M243 918q0 4 3 8q4 5 12 5h328q7 0 15 -5q6 -7 7 -11.5t0 -10t-28 -25.5t-32 -29.5t-7.5 -20.5t0.5 -24l114 -639l331 510l-23 124q-8 38 -30.5 55.5t-41 26.5t-28 16.5t-9.5 13v8.5q1 3 3 6q4 5 12 5h328q7 0 15 -5q6 -7 7 -11.5t0 -10t-28 -25.5t-32 -29.5t-7.5 -20.5 t0.5 -24l114 -639l358 551q14 21 20 48.5t-14 60.5l-24 39l105 71q6 5 13 5t14 -7l42 -57q9 -13 10 -28q0 -5 -3 -18t-21.5 -46t-64.5 -97l-466 -686q-7 -10 -13 -15.5t-12 -5.5h-84q-7 0 -9.5 4.5t-4.5 17t-3 18.5l-103 544l-382 -563q-7 -10 -13 -15.5t-12 -5.5h-84 q-7 0 -9.5 4.5t-4.5 17t-2 18.5l-147 779q-8 38 -30.5 55.5t-41 26.5t-26.5 15.5t-9.5 12t-1.5 8.5z" />
<glyph unicode="x" horiz-adv-x="1098" d="M25 4q0 4 6 10q17 16 62.5 27t91.5 56l367 350l-176 385q-10 24 -44 44q-17 10 -33 16.5t-26 13.5q-20 13 -19 18t16 5h322q15 0 22 -14q2 -4 1 -9q-1 -6 -11 -11q-17 -9 -23 -27q-3 -15 5 -32l114 -249l218 209q117 111 146 133q11 8 27 8q24 0 58 -20l56 -34 q6 -4 6 -10t-6 -15l-75 -104q-32 20 -60 35q-7 4 -15 4q-24 0 -60 -35l-260 -248l189 -413q11 -29 49 -46q13 -7 27 -13.5t27 -14.5q20 -13 19 -18t-16 -5h-322q-15 0 -22 13q-2 5 -1 9q1 6 12 12q16 8 22 26v2q3 14 -5 31l-126 277l-287 -273q-25 -26 -28 -42l-1 -3 q-3 -13 0 -20v-6q-1 -6 -8 -12q-12 -14 -22 -14h-208q-9 0 -9 4z" />
<glyph unicode="y" horiz-adv-x="1036" d="M93 -544l21 114l51 1q67 2 109 59l250 351q-15 0 -18 4.5t-5 17t-2 18.5l-147 779q-8 38 -33 57t-49.5 30t-26 21t0 16.5t14.5 6.5h328q19 0 21.5 -11t1.5 -15q-3 -12 -24.5 -22t-31.5 -26.5t-12.5 -27.5t0.5 -24l114 -639l358 551q14 21 20 48.5t-14 60.5l-24 39l106 71 q7 6 13 6t13 -8l42 -57q9 -13 10 -28q0 -5 -3 -18t-21.5 -46t-64.5 -97l-750 -1102q-45 -66 -79 -109t-71 -43l-82 3q-15 2 -15 14v5z" />
<glyph unicode="z" horiz-adv-x="1019" d="M55 18q0 11 24 33l819 810h-352q-52 0 -91.5 -33t-95.5 -92q-33 -33 -40 -33q-19 0 -15 17l37 159q10 45 28.5 55.5t84.5 10.5h622q82 0 82 -27v-5q-4 -14 -23 -33l-823 -801h434q51 2 94 35t100 93q33 34 40 34q18 0 13 -18l-36 -158q-11 -49 -26 -57t-86 -8l-685 -1 q-72 1 -95 9q-9 2 -10 10z" />
<glyph unicode="{" horiz-adv-x="1024" d="M277 634q0 4 1 9q1 4 4 9q7 18 31 21q155 13 225 73q41 36 66 97t38 118l49 212q17 72 49 148.5t89 121.5q91 73 295 73q20 0 26 -9q5 -11 5 -19q0 -3 -1 -6q-4 -16 -34 -16q-133 -2 -192 -55q-39 -33 -61.5 -93.5t-34.5 -113.5l-33 -143q-18 -77 -49 -165.5t-79 -140.5 q-76 -82 -237 -113q146 -31 185 -113q17 -37 17 -92q0 -23 -6.5 -79.5t-24.5 -134.5l-33 -143q-17 -72 -17 -122v-5q0 -52 18 -79q36 -52 167 -54q16 0 19 -15q1 -6 -1 -12q-2 -8 -9 -16q-9 -8 -28 -8q-202 0 -261 73q-34 42 -34 110q0 6 1.5 46.5t18.5 113.5l49 211 q13 57 14.5 91.5t1.5 41.5q0 52 -21 85q-27 36 -81.5 52t-108.5 20q-16 1 -20 11q-3 4 -3 10z" />
<glyph unicode="|" horiz-adv-x="1024" d="M398 -227l396 1717h141l-396 -1717h-141z" />
<glyph unicode="}" horiz-adv-x="1024" d="M88 -207q1 6 5 12q9 15 25 15q132 2 193 54q60 53 95 206l33 143q18 78 49 166t79 140q77 82 237 113q-147 31 -185 113q-17 37 -17 92q0 23 6.5 80t24.5 134l33 143q12 53 15.5 89t3.5 46q0 45 -19 72q-35 53 -168 55q-30 0 -26 16q2 10 16 25q10 9 30 9q204 0 261 -73 q34 -41 34 -110q0 -6 -2 -47t-18 -113l-49 -212q-13 -57 -15 -91.5t-2 -41.5q0 -51 21 -82q42 -60 191 -73q22 -3 23 -19q0 -6 -2 -11q-3 -12 -10 -19q-8 -10 -24 -11q-56 -4 -118.5 -20t-105.5 -52q-42 -38 -67 -99.5t-38 -118.5l-49 -211q-17 -73 -49 -149t-89 -121 q-93 -73 -295 -73q-19 0 -24 8q-3 6 -3 11v5z" />
<glyph unicode="~" horiz-adv-x="1024" d="M174 501q0 2 1 5q2 10 13 23q64 72 130 148t168 76q126 0 235 -87q58 -47 126 -47q59 0 125 35q62 32 121 107q10 12 23 12q3 0 6 -1q17 -3 17 -19v-8q-2 -7 -8 -16q-87 -113 -154 -164q-73 -55 -137 -55q-113 0 -229 84q-64 46 -131 46q-52 0 -106 -29 q-14 -8 -33.5 -18.5t-43.5 -28.5q-43 -33 -78 -73q-9 -10 -19 -10q-8 0 -17 6t-9 14z" />
<glyph unicode="&#xa1;" horiz-adv-x="550" d="M51 -456q0 9 2 20l3 10l290 955q6 24 30 24h21q20 0 20 -16q0 -4 -1 -8l-150 -955l-2 -9q-15 -65 -89 -65h-63q-61 0 -61 44zM320 736q0 11 3 25l19 82q20 86 129 86q93 0 94 -62q0 -11 -3 -24l-19 -82q-20 -87 -130 -87q-93 0 -93 62z" />
<glyph unicode="&#xa2;" horiz-adv-x="925" d="M164 304q0 65 18 142q13 55 35 117q94 221 305 328q105 53 226 63l37 161h84l-37 -160q140 -9 244 -87l-56 -169q-5 -13 -15 -13h-2q-12 1 -15 20q-21 88 -76 126q-41 28 -100 35l-184 -797q90 2 168 44q84 44 101 45q16 0 21 -1q1 -5 -1 -16q-3 -12 -23 -36t-41 -41 q-106 -72 -246 -86l-44 -191h-84l43 187q-176 3 -276 103q-82 86 -82 226zM368 365q0 -88 32 -151q55 -107 146 -135l183 790q-103 -8 -168 -59q-130 -101 -174 -291q-7 -29 -11 -61q-8 -49 -8 -93z" />
<glyph unicode="&#xa3;" horiz-adv-x="1024" d="M26 63q0 13 4 27q6 24 21 53q30 58 70 85q57 38 97 38h6q41 -3 98 -7q18 50 28 98l7 30q11 62 24 124q13 74 26 173h-185q-15 0 -12 15l17 70q3 15 18 15h176q10 78 25 144q13 57 30 105q40 119 105 205q154 205 390 205q70 0 128 -35t76 -100q4 -18 4 -38q0 -16 -2 -33 l-2 -7q-8 -35 -39 -60q-33 -27 -61 -27q-25 0 -47 22q-18 16 -18 50q0 7 2.5 32.5t5.5 54.5v7q0 63 -72 74q-18 2 -33 2q-55 0 -97 -30q-75 -54 -108.5 -126t-51.5 -150q-17 -75 -27.5 -148.5t-21.5 -146.5h261q15 0 12 -15l-17 -70q-3 -15 -18 -15h-255q-6 -34 -14 -69 t-18 -70q-25 -82 -61 -156t-70 -152q50 -19 99.5 -37.5t102.5 -32.5q58 -15 109 -15q42 0 81 10q81 21 140 87q19 21 27 43t36 22q20 0 15 -23q-8 -33 -26 -62.5t-36 -58.5q-59 -95 -153 -153q-83 -48 -162 -48q-11 0 -21 1q-89 7 -154 59q-16 13 -62.5 47.5t-63.5 52.5 q-76 -86 -156 -139q-35 -22 -70 -22q-20 0 -40 7q-54 20 -65 70q-2 9 -2 18zM93 77q0 -48 49 -48q56 0 89 45.5t57 89.5q-28 37 -68 37q-102 0 -123 -93q-4 -18 -4 -31z" />
<glyph unicode="&#xa4;" horiz-adv-x="1024" d="M114 110q0 6 8 13l178 144q-31 59 -32 129q0 39 10 80q27 116 118 209l-110 145q-5 5 -4 10t7 10l57 46q6 5 11 5t10 -6l110 -144q110 71 226 71t193 -71l178 144q7 6 12 6t8 -5l36 -46q2 -4 2 -7q0 -7 -7 -13l-179 -145q32 -60 32 -130q0 -38 -9 -79q-27 -118 -119 -209 l111 -144q4 -6 3 -11t-6 -10l-58 -46q-6 -5 -11 -5t-9 6l-111 144q-109 -70 -226 -70t-193 70l-177 -144q-7 -6 -12 -6t-9 5l-35 46q-3 4 -3 8zM358 415q0 -68 49.5 -132t156.5 -64q105 0 197.5 75t117.5 181q7 31 7 60q0 68 -49.5 132.5t-154.5 64.5q-107 0 -199.5 -75.5 t-116.5 -181.5q-7 -32 -8 -60z" />
<glyph unicode="&#xa5;" horiz-adv-x="1366" d="M368 1390q0 2 1 4l1 4q2 6 11 6h339q10 0 18 -6q9 -7 13 -15q2 -5 1 -10q-2 -7 -10 -15q-9 -10 -22 -20q-12 -10 -17 -25l-1 -5q-5 -22 6 -45l213 -534l350 395q39 44 52 76q2 5 3 10q2 10 3 23q0 24 -9 55l-18 68l157 62q8 3 14 3q13 0 20 -16l37 -101q4 -11 4 -23 q0 -8 -2 -15q-8 -34 -50 -69q-66 -56 -146 -143l-305 -333h274l-18 -79h-324q-12 -22 -23 -52q-16 -47 -27 -90h341l-18 -79h-341l-63 -275q-4 -16 -4 -28q0 -40 35 -54q41 -16 40 -37v-6q-5 -21 -26 -21h-339q-21 0 -16 21q6 25 60 43t69 82l63 275h-302l18 79h302l17 73 q6 26 6 50q0 10 -1 19h-291l18 79h248l-199 537q-15 34 -61 67q-24 15 -47 25q-24 10 -38 19q-10 6 -14 14q-2 4 -2 7z" />
<glyph unicode="&#xa6;" horiz-adv-x="1024" d="M289 -223l156 676h132l-156 -676h-132zM528 813l156 677h132l-156 -677h-132z" />
<glyph unicode="&#xa7;" horiz-adv-x="1024" d="M26 -163q2 10 12 19q9 11 18 11h3q10 -1 17 -26q30 -128 111 -171q65 -37 178 -37q25 0 50 2q76 6 153 40t134 101q59 70 82 166l2 11q5 25 5 48q0 69 -47 110q-30 26 -77 41q-92 27 -191 38t-180 56q-73 39 -91 96.5t-18 100.5q0 39 10 81q39 168 178 278 q-67 62 -67 163q0 40 11 86q40 173 185 284q152 115 339 115q14 0 28 -1q204 -9 327 -102l-68 -194q-6 -18 -19 -18q-3 0 -6 1q-13 1 -17 26q-20 83 -83 141.5t-149 62.5h-15q-85 0 -158 -31q-47 -20 -81 -49q-31 -25 -57 -64q-24 -34 -39 -70q-13 -30 -19 -58 q-6 -25 -6 -48q0 -9 1 -17q5 -62 44 -96q26 -25 70 -37q23 -6 54.5 -11.5t66.5 -11.5q50 -9 106.5 -18t108.5 -25q87 -31 119 -79q25 -35 36 -83q4 -24 5 -50q0 -40 -11 -84q-38 -163 -175 -282q13 -12 24 -27q25 -38 36 -84q4 -24 4 -50q0 -40 -10 -84q-45 -195 -237 -328 q-97 -66 -207 -101q-82 -25 -181 -31q-19 -1 -38 -1q-130 0 -240 37l-31 245v5v4zM359 519q0 -9 1 -17q5 -63 45 -95q25 -26 69 -37q34 -9 121 -24q50 -9 107 -18t108 -25q3 -1 5.5 -2.5t5.5 -1.5l2 2q59 69 82 167l3 11q5 26 5 49q0 69 -48 110q-33 27 -76 41 q-78 22 -161.5 32.5t-158.5 37.5q-25 -22 -45 -53q-24 -33 -40 -71q-13 -30 -19 -58q-6 -25 -6 -48z" />
<glyph unicode="&#xa8;" horiz-adv-x="1000" d="M473 1252q0 17 5 38q25 110 135 110q89 0 90 -73q0 -17 -5 -37q-26 -111 -136 -111q-89 0 -89 73zM893 1252q0 17 5 38q25 110 135 110q89 0 90 -73q0 -17 -5 -37q-26 -111 -136 -111q-89 0 -89 73z" />
<glyph unicode="&#xa9;" horiz-adv-x="1532" d="M162 532q0 84 21 176q71 308 340.5 526t578.5 218t453 -185.5t144 -383.5q0 -83 -22 -175q-71 -309 -340 -526.5t-578 -217.5t-453 185t-144 383zM245 551q0 -177 128 -342t404 -165t516.5 194t303.5 470q19 82 19 156q0 177 -128 342.5t-404 165.5t-516 -194.5 t-304 -469.5q-19 -82 -19 -157zM541 576q0 56 15 123q11 47 30 100q81 190 263 282q101 51 218 56h18q140 0 241 -75l-49 -146q-5 -11 -12 -11h-2q-10 1 -13 17q-17 75 -65 108t-128 33h-20q-96 -5 -154 -51q-112 -87 -150 -250q-6 -25 -9 -53q-7 -43 -7 -80q0 -75 27 -130 q55 -107 151 -122q17 -2 34 -2q85 0 156.5 38.5t86 38.5t18.5 -1q1 -4 -1 -13.5t-19 -30.5t-36 -36q-113 -77 -273 -77t-250 88q-70 74 -70 194z" />
<glyph unicode="&#xaa;" d="M302 598q0 3 1 7l12 53q6 26 43 26h664q37 0 31 -26l-12 -53q-6 -26 -43 -26h-664q-32 0 -32 19zM410 968q0 49 12 101q8 34 24 78t52.5 87t69 63.5t52.5 28.5q241 83 253 83h3q42 -2 72 -12.5t48 -18.5t34 -8t42 25q4 5 8 5t12.5 -3.5t6.5 -11.5l-118 -510 q-2 -11 -2 -19q0 -27 26.5 -37t23 -25.5t-17.5 -15.5h-160q-11 0 -9 9l11 49l-197 -67q-23 -7 -37 -7h-27q-93 5 -144 76q-38 53 -38 130zM537 1007q0 -52 17 -87q47 -92 146 -92q26 0 59.5 11t102.5 36l95 411q-21 25 -60.5 46.5t-73.5 22.5h-3q-14 0 -59.5 -16t-67 -23.5 t-33.5 -17.5q-51 -44 -76.5 -98.5t-28.5 -70.5l-4 -17q0 -2 -1 -4q-13 -57 -13 -101z" />
<glyph unicode="&#xab;" horiz-adv-x="1024" d="M241 623q0 7 9 17q77 72 206 171q130 99 223 177q5 4 8 4t5 -2l31 -26q2 -2 2 -4q0 -4 -3 -7l-329 -324l181 -327q1 -2 0 -3q-1 -5 -7 -8l-43 -26q-2 -2 -5 -2t-6 4q-66 84 -136 172t-133 177q-3 3 -3 7zM652 626q1 6 8 14q77 72 206 171q130 99 223 177q5 4 8 4t5 -2 l31 -26q2 -2 2 -4q0 -4 -3 -7l-329 -324l181 -327q1 -2 0 -3q-1 -5 -7 -8l-43 -26q-2 -2 -5 -2t-6 4q-66 84 -136 172t-133 177q-4 4 -2 10z" />
<glyph unicode="&#xac;" d="M245 775l26 112h968l-126 -546h-117l100 434h-851z" />
<glyph unicode="&#xad;" horiz-adv-x="680" d="M221 430q0 3 1 7l19 83q7 29 48 29h356q35 0 35 -21q0 -3 -1 -8l-19 -83q-6 -28 -47 -28h-358q-34 0 -34 21z" />
<glyph unicode="&#xae;" horiz-adv-x="1532" d="M162 532q0 84 21 176q71 308 340.5 526t578.5 218t453 -185.5t144 -383.5q0 -83 -22 -175q-71 -309 -340 -526.5t-578 -217.5t-453 185t-144 383zM245 551q0 -177 128 -342t404 -165t516.5 194t303.5 470q19 82 19 156q0 177 -128 342.5t-404 165.5t-516 -194.5 t-304 -469.5q-19 -82 -19 -157zM497 289q0 18 34.5 29t43.5 50l154 667q9 38 -18.5 49t-24.5 27q3 12 14 12h2h354q62 0 124 -22t84 -85q8 -23 8 -52v-6q0 -30 -8 -64q-17 -68 -67 -122q-40 -43 -98.5 -65t-107.5 -25l191 -358q14 -14 40 -16q17 -2 14 -13v-2 q-5 -12 -15 -12h-1h-160q-5 0 -30 46.5t-57 111.5t-65 133t-57 109h-96l-72 -313q-9 -39 18.5 -49.5t24.5 -25.5q-3 -12 -13 -12h-2h-203q-11 0 -11 8zM765 723h139q41 0 86.5 12t83.5 43q59 46 76 122q5 23 5 43q0 45 -26 79q-41 51 -132 51h-151z" />
<glyph unicode="&#xaf;" horiz-adv-x="1000" d="M478 1247q0 2 1 4l20 86q2 10 12 10h600q10 0 8 -10l-20 -86q-3 -11 -13 -11h-600q-8 0 -8 7z" />
<glyph unicode="&#xb0;" horiz-adv-x="819" d="M337 1005q0 35 9 73q30 128 140.5 218.5t239.5 90.5q128 0 187.5 -77t59.5 -159q0 -35 -9 -73q-30 -128 -141 -218.5t-239 -90.5q-129 0 -188 77t-59 159zM422 1024q0 -60 43.5 -116t137.5 -56q93 0 174.5 66t103.5 160q6 28 6 53q0 60 -43.5 117t-136.5 57 q-94 0 -175.5 -67t-102.5 -160q-6 -28 -7 -54z" />
<glyph unicode="&#xb1;" d="M199 152q0 3 1 7l12 53q6 26 43 26h664q32 0 32 -19q0 -3 -1 -7l-12 -53q-6 -26 -43 -26h-664q-32 0 -32 19zM331 727l12 53q6 26 43 26h280l65 280q8 36 34 36h52q26 0 18 -36l-65 -280h280q32 0 32 -19q0 -3 -1 -7l-12 -53q-6 -26 -43 -26h-280l-65 -279 q-9 -38 -34 -38h-52q-26 0 -18 38l65 279h-280q-37 0 -31 26z" />
<glyph unicode="&#xb2;" horiz-adv-x="880" d="M226 450l12 51q13 57 63 101q51 43 159 122q63 42 125.5 89.5t134 104.5t112 115t47 86.5t6.5 43.5q0 21 -7 40q-27 65 -101 91q-43 15 -88 15t-87 -8q-100 -20 -177 -94q-25 -24 -39 -44h-4l20 86q12 18 24 31q44 45 111 79.5t153 44.5q35 4 67 4q106 0 192 -44 q89 -47 89 -142q0 -25 -6 -53l-1 -2q-21 -90 -98 -171t-175 -155t-199 -151.5t-161 -140.5h296q103 0 203 28l-21 -99q-51 -23 -104.5 -25.5t-98.5 -2.5h-447z" />
<glyph unicode="&#xb3;" horiz-adv-x="880" d="M247 478l22 110h5q34 -69 141 -90q39 -8 90 -8t112 24q90 36 135 103q24 36 31 64t7 49q0 11 -2 21q-11 67 -79.5 117t-205.5 52l4 18q58 15 135 41t122.5 74t55.5 92q4 17 4 28q0 54 -41.5 97.5t-121.5 43.5q-7 0 -14 -1q-91 -5 -162 -62q-32 -26 -50 -57h-3l23 103 q81 61 158.5 84t144.5 23q182 -2 215 -121q5 -19 5 -37q0 -16 -4 -32q-19 -84 -146 -168q-26 -18 -61 -36q104 -47 131.5 -105.5t27.5 -105.5q0 -24 -5 -47q-2 -10 -6 -20q-47 -143 -233 -239q-98 -51 -228 -61q-22 -2 -41 -2q-102 0 -166 48z" />
<glyph unicode="&#xb4;" horiz-adv-x="1000" d="M508 1108q0 2 1 6q2 8 10 15l435 258q21 13 43 13q60 0 60 -49q0 -11 -3 -25q-12 -52 -62 -69l-463 -159q-2 -1 -6 -1q-15 0 -15 11z" />
<glyph unicode="&#xb5;" horiz-adv-x="1325" d="M71 -539q0 3 1 7l310 1343q-18 24 -44.5 36t-22.5 30q5 21 26 21q60 3 120 18q38 7 73.5 18.5t74.5 23.5l-123 -534q-17 -74 -17 -134q0 -84 33 -141q48 -82 146 -82q51 0 117 22l158 54l141 609q3 15 3 27q0 40 -38.5 55t-38.5 37v6q5 21 26 21q55 2 119 17 q72 15 156 43l-188 -816q-4 -16 -4 -28q0 -41 39.5 -53.5t39.5 -34.5v-5q-5 -21 -26 -21h-263l20 87l-226 -81q-65 -23 -124 -23q-16 0 -31 2q-73 8 -122 39q-78 49 -99 115q-12 -54 -22 -117l-81 -554v-2q-4 -19 -25 -19h-92q-16 0 -16 14z" />
<glyph unicode="&#xb6;" horiz-adv-x="1266" d="M342 -283q0 4 2 8q7 31 73 53t84 100l212 919q-52 -16 -100 -16q-124 0 -179.5 77.5t-55.5 157.5q0 37 9 77q30 128 138 219t231 92h749q21 0 21 -17q0 -4 -1 -8q-7 -31 -73 -53t-84 -100l-311 -1348q-4 -19 -5 -35q0 -49 46 -67t46 -44v-7q-6 -25 -32 -25h-748 q-21 0 -22 17zM623 -234h260l363 1571h-260z" />
<glyph unicode="&#xb7;" horiz-adv-x="512" d="M272 589q0 14 7.5 46.5t51.5 68.5t95 36t74 -30.5t23 -62.5q0 -14 -7.5 -47t-51 -68.5t-94.5 -35.5t-74.5 30t-23.5 63z" />
<glyph unicode="&#xb8;" horiz-adv-x="1000" d="M276 -402l1 68q37 -34 82 -34q35 0 74 20q35 20 42 54l2 12q0 27 -29.5 64t-45.5 81q-7 19 -2 39q7 26 32 53h56q-13 -20 -17 -38q-2 -9 -2 -17q0 -25 18 -45q23 -27 54 -61q33 -34 34 -84q0 -19 -5 -41q-1 -3 -2 -7q-23 -82 -145 -91h-10q-65 0 -137 27z" />
<glyph unicode="&#xb9;" horiz-adv-x="880" d="M436 462q0 1 1 2v1q2 15 45.5 26.5t53.5 54.5l169 730h-164l7 31l333 109l-201 -870q-2 -9 -2 -17q0 -29 33.5 -39t29.5 -25v-1q-3 -14 -19 -14h-272q-13 0 -13 10q-1 1 -1 2z" />
<glyph unicode="&#xba;" d="M302 598q0 3 1 7l12 53q6 26 43 26h664q37 0 31 -26l-12 -53q-6 -26 -43 -26h-664q-32 0 -32 19zM410 1008q0 36 9 75v2q34 145 166 243q16 12 42 20.5t68.5 22.5t79 26t57.5 12h2q128 -5 185.5 -85t57.5 -165q0 -35 -9 -74v-4q-30 -132 -145.5 -223.5t-253.5 -95.5h-10 q-127 0 -188 81t-61 165zM538 1005q0 -60 30 -127t112 -71h9q77 0 151.5 76.5t100.5 191.5q11 48 11 90q0 61 -30.5 128t-111.5 72h-8q-77 0 -151.5 -77t-101.5 -192q-11 -48 -11 -91z" />
<glyph unicode="&#xbb;" horiz-adv-x="1024" d="M166 297q0 2 2 5l331 327l-179 324q-2 2 -1 4q1 3 6 7l43 26q2 2 5 2t6 -4q57 -78 141 -177t128 -171q3 -8 2 -14q-2 -6 -8 -10q-105 -89 -215 -177t-214 -172q-5 -4 -8 -4t-5 2l-31 26q-3 2 -3 6zM576 297q0 2 2 5l331 327l-179 324q-2 2 -1 4q1 3 6 7l43 26q2 2 5 2 t6 -4q57 -78 141 -177t128 -171q2 -6 2 -10q0 -9 -8 -14q-105 -89 -215 -177t-214 -172q-5 -4 -8 -4t-5 2l-31 26q-3 2 -3 6z" />
<glyph unicode="&#xbc;" horiz-adv-x="1300" d="M159 -32l1261 1452h92l-1261 -1452h-92zM368 770v1q2 10 27 18t32 38l117 509h-94l6 22l193 75l-140 -606q-7 -30 14 -38t19 -19q-2 -10 -12 -10h-156q-8 0 -6 10zM875 191l12 52l361 403h83l-90 -390h93l-15 -65h-93l-29 -124q-7 -29 24 -37.5t29 -19t-12 -10.5h-195 q-11 0 -7.5 10.5t37.5 18.5t41 38l29 124h-268zM949 256h209l73 317z" />
<glyph unicode="&#xbd;" horiz-adv-x="1300" d="M159 -32l1261 1452h92l-1261 -1452h-92zM368 770v1q2 10 27 18t32 38l117 509h-94l6 22l193 75l-140 -606q-7 -30 14 -38t19 -19q-2 -10 -12 -10h-156q-8 0 -6 10zM870 0l8 36q9 40 39 70t95 85q37 29 74.5 62.5t80 73t67.5 80t31.5 68.5t0.5 50q-13 46 -55 63 q-25 10 -50.5 10t-50.5 -5q-58 -14 -104 -65q-15 -17 -23 -31h-2l14 60q8 13 13 21q26 31 66 55.5t90 31.5q20 3 38 3q61 0 110 -31q47 -31 47 -92q0 -20 -5 -44l-1 -1q-15 -63 -61 -119.5t-104.5 -108t-119 -105.5t-96.5 -98h170q59 0 117 19l-15 -69q-30 -16 -60.5 -17.5 t-56.5 -1.5h-257z" />
<glyph unicode="&#xbe;" horiz-adv-x="1300" d="M159 -32l1261 1452h92l-1261 -1452h-92zM259 779l15 77h3q18 -48 78 -62q22 -6 52 -6t66 17q53 25 80 71q15 25 20.5 49t4.5 45q-4 47 -42.5 81.5t-117.5 36.5l3 12q34 10 79 28.5t72.5 52t34.5 63.5q2 9 2 18q0 3 1 6q0 35 -22 64.5t-68 29.5h-8q-53 -3 -95 -44 q-19 -18 -30 -39h-2l17 71q49 42 93.5 58.5t82.5 16.5q105 -1 121 -84q4 -24 -2 -49q-14 -59 -88 -117q-16 -12 -37 -25q58 -33 72.5 -72t14.5 -68q0 -19 -5 -39l-4 -14q-31 -99 -141 -167q-58 -35 -134 -43q-11 -1 -22 -1q-59 0 -94 33zM875 191l12 52l361 403h83l-90 -390 h93l-15 -65h-93l-29 -124q-7 -29 24 -37.5t29 -19t-12 -10.5h-195q-11 0 -7.5 10.5t37.5 18.5t41 38l29 124h-268zM949 256h209l73 317z" />
<glyph unicode="&#xbf;" horiz-adv-x="784" d="M16 -291q1 36 10 75q38 164 229 268q21 12 49 26q70 40 93 72q25 30 46 104l43 172q12 54 29 84q17 26 36 26q17 0 21 -30q1 -7 1 -16q0 -25 -9 -64l-71 -308q-146 -89 -207 -160q-63 -73 -87 -174q-11 -47 -11 -85q0 -48 18 -79q33 -54 123 -54q79 0 127 50 q49 52 89 182q7 24 28 36t54 12q34 0 48 -12q12 -14 5 -44q-31 -132 -135 -210q-105 -78 -254 -78q-154 0 -226 76q-49 53 -49 131zM498 755q0 11 3 25l19 82q20 86 130 86q93 0 93 -62q0 -11 -3 -24l-19 -82q-20 -88 -130 -88q-93 0 -93 63z" />
<glyph unicode="&#xc0;" horiz-adv-x="1593" d="M54 9q0 5 3 12q8 18 41 31t76 31q44 27 69 63l862 1281h62q23 -118 58 -289t70 -352q36 -181 71 -352t58 -288q5 -38 34 -60t48 -32q20 -10 31 -18t12 -14q1 -2 1 -4q0 -6 -5 -13q-3 -5 -13 -5h-338q-8 0 -17 6t-9 12q-1 6 1 12q1 6 14 16q12 10 28 19q17 11 23 23 q7 12 10 26q3 15 0 33l-69 342h-583q-55 -85 -111 -171t-89 -138q-34 -52 -39 -64q-4 -12 -6 -20t-1 -20q0 -12 5 -20t5 -16t-1 -12q-1 -3 -3 -7q-12 -21 -27 -21h-258q-13 0 -13 9zM644 570h515l-121 609q-99 -153 -198 -305t-196 -304zM958 1755q0 10 3 21q17 74 91 74 q22 0 37 -13l317 -258q4 -7 2 -15q-4 -17 -22 -17q-4 0 -6 1l-389 159q-33 13 -33 48z" />
<glyph unicode="&#xc1;" horiz-adv-x="1593" d="M54 9q0 5 3 12q8 18 41 31t76 31q44 27 69 63l862 1281h62q23 -118 58 -289t70 -352q36 -181 71 -352t58 -288q5 -38 34 -60t48 -32q20 -10 31 -18t12 -14q1 -2 1 -4q0 -6 -5 -13q-3 -5 -13 -5h-338q-8 0 -17 6t-9 12q-1 6 1 12q1 6 14 16q12 10 28 19q17 11 23 23 q7 12 10 26q3 15 0 33l-69 342h-583q-55 -85 -111 -171t-89 -138q-34 -52 -39 -64q-4 -12 -6 -20t-1 -20q0 -12 5 -20t5 -16t-1 -12q-1 -3 -3 -7q-12 -21 -27 -21h-258q-13 0 -13 9zM644 570h515l-121 609q-99 -153 -198 -305t-196 -304zM912 1564q2 8 10 15l435 258 q21 13 43 13q60 0 60 -49q0 -11 -3 -25q-12 -52 -62 -69l-463 -159q-2 -1 -6 -1q-18 0 -14 17z" />
<glyph unicode="&#xc2;" horiz-adv-x="1593" d="M54 9q0 5 3 12q8 18 41 31t76 31q44 27 69 63l862 1281h62q23 -118 58 -289t70 -352q36 -181 71 -352t58 -288q5 -38 34 -60t48 -32q20 -10 31 -18t12 -14q1 -2 1 -4q0 -6 -5 -13q-3 -5 -13 -5h-338q-8 0 -17 6t-9 12q-1 6 1 12q1 6 14 16q12 10 28 19q17 11 23 23 q7 12 10 26q3 15 0 33l-69 342h-583q-55 -85 -111 -171t-89 -138q-34 -52 -39 -64q-4 -12 -6 -20t-1 -20q0 -12 5 -20t5 -16t-1 -12q-1 -3 -3 -7q-12 -21 -27 -21h-258q-13 0 -13 9zM644 570h515l-121 609q-99 -153 -198 -305t-196 -304zM868 1546l310 347h116l149 -347h-57 l-182 209l-278 -209h-58z" />
<glyph unicode="&#xc3;" horiz-adv-x="1593" d="M54 9q0 5 3 12q8 18 41 31t76 31q44 27 69 63l862 1281h62q23 -118 58 -289t70 -352q36 -181 71 -352t58 -288q5 -38 34 -60t48 -32q20 -10 31 -18t12 -14q1 -2 1 -4q0 -6 -5 -13q-3 -5 -13 -5h-338q-8 0 -17 6t-9 12q-1 6 1 12q1 6 14 16q12 10 28 19q17 11 23 23 q7 12 10 26q3 15 0 33l-69 342h-583q-55 -85 -111 -171t-89 -138q-34 -52 -39 -64q-4 -12 -6 -20t-1 -20q0 -12 5 -20t5 -16t-1 -12q-1 -3 -3 -7q-12 -21 -27 -21h-258q-13 0 -13 9zM644 570h515l-121 609q-99 -153 -198 -305t-196 -304zM858 1628q2 16 31 58l80 118 q52 76 132 76t150 -87q35 -47 83 -47q41 0 91 35q45 32 92 106q7 12 18 12h3q12 -2 13 -13q0 -3 -1 -6q-4 -16 -9 -24q-69 -113 -121 -166t-97 -53q-79 0 -154 84q-36 46 -83 46q-38 0 -81 -29l-25 -18q-48 -37 -92 -102q-8 -10 -16 -10q-17 4 -14 20z" />
<glyph unicode="&#xc4;" horiz-adv-x="1593" d="M54 9q0 5 3 12q8 18 41 31t76 31q44 27 69 63l862 1281h62q23 -118 58 -289t70 -352q36 -181 71 -352t58 -288q5 -38 34 -60t48 -32q20 -10 31 -18t12 -14q1 -2 1 -4q0 -6 -5 -13q-3 -5 -13 -5h-338q-8 0 -17 6t-9 12q-1 6 1 12q1 6 14 16q12 10 28 19q17 11 23 23 q7 12 10 26q3 15 0 33l-69 342h-583q-55 -85 -111 -171t-89 -138q-34 -52 -39 -64q-4 -12 -6 -20t-1 -20q0 -12 5 -20t5 -16t-1 -12q-1 -3 -3 -7q-12 -21 -27 -21h-258q-13 0 -13 9zM644 570h515l-121 609q-99 -153 -198 -305t-196 -304zM876 1702q0 17 5 38q25 110 135 110 q89 0 89 -73q0 -17 -4 -37q-26 -111 -136 -111q-89 0 -89 73zM1296 1702q0 17 5 38q25 110 135 110q89 0 89 -73q0 -17 -4 -37q-26 -111 -136 -111q-89 0 -89 73z" />
<glyph unicode="&#xc5;" horiz-adv-x="1593" d="M54 9q0 5 3 12q8 18 41 31t76 31q44 27 69 63l862 1281h62q23 -118 58 -289t70 -352q36 -181 71 -352t58 -288q5 -38 34 -60t48 -32q20 -10 31 -18t12 -14q1 -2 1 -4q0 -6 -5 -13q-3 -5 -13 -5h-338q-8 0 -17 6t-9 12q-1 6 1 12q1 6 14 16q12 10 28 19q17 11 23 23 q7 12 10 26q3 15 0 33l-69 342h-583q-55 -85 -111 -171t-89 -138q-34 -52 -39 -64q-4 -12 -6 -20t-1 -20q0 -12 5 -20t5 -16t-1 -12q-1 -3 -3 -7q-12 -21 -27 -21h-258q-13 0 -13 9zM644 570h515l-121 609q-99 -153 -198 -305t-196 -304zM1006 1716q0 23 5 48q19 82 90 141 q70 59 151 59t125 -59q30 -41 30 -93q0 -23 -6 -48q-19 -82 -89 -141q-70 -58 -152 -58q-81 0 -124 58q-30 41 -30 93zM1082 1717q0 -41 17 -74q26 -50 77 -50q50 0 92 48q44 59 56 115q6 24 6 48q0 42 -17 82q-26 50 -76 50t-90 -48q-42 -47 -57 -111q-1 -6 -3 -12 q-5 -26 -5 -48z" />
<glyph unicode="&#xc6;" horiz-adv-x="1933" d="M-92 6l2 5q1 4 5 10q11 11 43 26q19 7 39 15.5t42 20.5q46 26 78 63l975 1190q-37 9 -66.5 19t-25.5 28q5 21 26 21h1055l-59 -257q-5 -21 -26 -21q-10 0 -28 40q-34 69 -61.5 107t-86.5 38h-428l-126 -543h229q64 0 96 51.5t58 51.5q20 0 15 -21l-58 -254 q-5 -21 -25 -21q-26 0 -37.5 51t-75.5 51h-223l-134 -583h428q92 0 173 71.5t123 111.5q23 22 33 22q21 0 16 -21q-3 -13 -7 -21l-132 -257h-919q-18 0 -13 21q6 25 60 42.5t69 82.5l79 343h-505q-68 -86 -136 -171.5t-136 -170.5q-13 -16 -23 -36q-7 -11 -10 -23 q-1 -5 -1 -10q-1 -13 2 -21.5t3 -17.5v-6q0 -2 -3 -5q-1 -2 -2.5 -4t-1.5 -3q-16 -21 -30 -21h-257q-11 0 -13 6zM581 570h462l172 755h-29q-121 -152 -303 -377.5t-302 -377.5z" />
<glyph unicode="&#xc7;" horiz-adv-x="1405" d="M205 510q0 89 24 191q79 337 356 541q276 203 593 203h4h8q110 0 230 -25q124 -26 224 -101l-73 -210q-8 -18 -24 -18h-3q-12 1 -20 28q-29 125 -131 184q-96 53 -218 53h-21q-273 -12 -472 -216q-179 -183 -230 -405q-6 -25 -10 -50q-11 -63 -11 -122q0 -159 76 -297 q104 -189 356 -201q24 -1 46 -1q128 0 220 39q107 46 203 185q19 28 39 28q4 0 8 -1q15 -6 10 -23q-2 -8 -8 -18l-143 -243q-105 -40 -207 -54q-103 -14 -192 -14q-307 0 -498 196q-135 138 -136 351zM479 -402l1 68q37 -34 82 -34q35 0 74 20q35 20 42 54q1 6 1 12 q0 27 -26 60q-33 40 -48 85q-7 19 -2 39q7 26 32 53h56q-13 -20 -17 -38q-2 -9 -2 -17q0 -25 18 -45q23 -27 54 -61q33 -34 34 -84q0 -19 -5 -41q-1 -3 -2 -7q-23 -82 -145 -91h-10q-65 0 -137 27z" />
<glyph unicode="&#xc8;" horiz-adv-x="1251" d="M159 13q0 4 1 8q6 25 60 43t69 82l256 1111q4 16 4 29q0 40 -35 54q-41 16 -40 37v6q5 21 26 21h928l-59 -257q-5 -21 -26 -21q-10 0 -28 40q-34 69 -61 107t-88 38h-427l-126 -543h229q64 0 96 52q31 51 57 51h1q20 0 15 -21l-58 -254q-5 -21 -25 -21q-26 0 -37 51 t-76 51h-223l-134 -583h427q93 0 173 72q81 72 124 111q23 22 33 22q21 0 16 -21q-3 -13 -7 -21l-132 -257h-919q-14 0 -14 13zM820 1755q0 10 3 21q17 74 91 74q22 0 37 -13l317 -258q4 -7 2 -15q-4 -17 -22 -17q-4 0 -6 1l-389 159q-33 13 -33 48z" />
<glyph unicode="&#xc9;" horiz-adv-x="1251" d="M159 13q0 4 1 8q6 25 60 43t69 82l256 1111q4 16 4 29q0 40 -35 54q-41 16 -40 37v6q5 21 26 21h928l-59 -257q-5 -21 -26 -21q-10 0 -28 40q-34 69 -61 107t-88 38h-427l-126 -543h229q64 0 96 52q31 51 57 51h1q20 0 15 -21l-58 -254q-5 -21 -25 -21q-26 0 -37 51 t-76 51h-223l-134 -583h427q93 0 173 72q81 72 124 111q23 22 33 22q21 0 16 -21q-3 -13 -7 -21l-132 -257h-919q-14 0 -14 13zM774 1564q2 8 10 15l435 258q21 13 43 13q60 0 60 -49q0 -11 -3 -25q-12 -52 -62 -69l-463 -159q-2 -1 -6 -1q-18 0 -14 17z" />
<glyph unicode="&#xca;" horiz-adv-x="1251" d="M159 13q0 4 1 8q6 25 60 43t69 82l256 1111q4 16 4 29q0 40 -35 54q-41 16 -40 37v6q5 21 26 21h928l-59 -257q-5 -21 -26 -21q-10 0 -28 40q-34 69 -61 107t-88 38h-427l-126 -543h229q64 0 96 52q31 51 57 51h1q20 0 15 -21l-58 -254q-5 -21 -25 -21q-26 0 -37 51 t-76 51h-223l-134 -583h427q93 0 173 72q81 72 124 111q23 22 33 22q21 0 16 -21q-3 -13 -7 -21l-132 -257h-919q-14 0 -14 13zM730 1546l310 347h116l149 -347h-57l-182 209l-278 -209h-58z" />
<glyph unicode="&#xcb;" horiz-adv-x="1251" d="M159 13q0 4 1 8q6 25 60 43t69 82l256 1111q4 16 4 29q0 40 -35 54q-41 16 -40 37v6q5 21 26 21h928l-59 -257q-5 -21 -26 -21q-10 0 -28 40q-34 69 -61 107t-88 38h-427l-126 -543h229q64 0 96 52q31 51 57 51h1q20 0 15 -21l-58 -254q-5 -21 -25 -21q-26 0 -37 51 t-76 51h-223l-134 -583h427q93 0 173 72q81 72 124 111q23 22 33 22q21 0 16 -21q-3 -13 -7 -21l-132 -257h-919q-14 0 -14 13zM738 1702q0 17 5 38q25 110 135 110q89 0 89 -73q0 -17 -4 -37q-26 -111 -136 -111q-89 0 -89 73zM1158 1702q0 17 5 38q25 110 135 110 q89 0 89 -73q0 -17 -4 -37q-26 -111 -136 -111q-89 0 -89 73z" />
<glyph unicode="&#xcc;" horiz-adv-x="690" d="M159 14q0 3 1 7q6 25 60 43t69 82l256 1111q4 16 4 29q0 40 -35 54q-41 16 -40 37v6q5 21 26 21h338q17 0 17 -14q0 -3 -1 -7q-6 -25 -60 -43t-69 -83l-256 -1110q-4 -16 -4 -29q0 -40 35 -54q41 -16 40 -37v-6q-5 -21 -26 -21h-339q-16 0 -16 14zM504 1755q0 10 3 21 q17 74 91 74q22 0 37 -13l317 -258q3 -5 3 -10q0 -2 -1 -5q-4 -17 -22 -17q-4 0 -6 1l-389 159q-33 13 -33 48z" />
<glyph unicode="&#xcd;" horiz-adv-x="690" d="M159 14q0 3 1 7q6 25 60 43t69 82l256 1111q4 16 4 29q0 40 -35 54q-41 16 -40 37v6q5 21 26 21h338q17 0 17 -14q0 -3 -1 -7q-6 -25 -60 -43t-69 -83l-256 -1110q-4 -16 -4 -29q0 -40 35 -54q41 -16 40 -37v-6q-5 -21 -26 -21h-339q-16 0 -16 14zM458 1564q2 8 10 15 l435 258q21 13 43 13q60 0 60 -49q0 -11 -3 -25q-12 -52 -62 -69l-463 -159q-2 -1 -6 -1q-18 0 -14 17z" />
<glyph unicode="&#xce;" horiz-adv-x="690" d="M159 14q0 3 1 7q6 25 60 43t69 82l256 1111q4 16 4 29q0 40 -35 54q-41 16 -40 37v6q5 21 26 21h338q17 0 17 -14q0 -3 -1 -7q-6 -25 -60 -43t-69 -83l-256 -1110q-4 -16 -4 -29q0 -40 35 -54q41 -16 40 -37v-6q-5 -21 -26 -21h-339q-16 0 -16 14zM414 1546l310 347h116 l149 -347h-57l-182 209l-278 -209h-58z" />
<glyph unicode="&#xcf;" horiz-adv-x="690" d="M159 14q0 3 1 7q6 25 60 43t69 82l256 1111q4 16 4 29q0 40 -35 54q-41 16 -40 37v6q5 21 26 21h338q17 0 17 -14q0 -3 -1 -7q-6 -25 -60 -43t-69 -83l-256 -1110q-4 -16 -4 -29q0 -40 35 -54q41 -16 40 -37v-6q-5 -21 -26 -21h-339q-16 0 -16 14zM422 1702q0 17 5 38 q25 110 135 110q89 0 89 -73q0 -17 -4 -37q-26 -111 -136 -111q-89 0 -89 73zM842 1702q0 17 5 38q25 110 135 110q89 0 89 -73q0 -17 -4 -37q-26 -111 -136 -111q-89 0 -89 73z" />
<glyph unicode="&#xd0;" horiz-adv-x="1585" d="M110 5q0 4 1 9q6 24 60 42t69 83l126 546h-162q-21 0 -16 19l9 39q5 20 25 20h162l115 499q4 16 4 28q0 40 -35 54q-41 16 -40 37v6q5 21 26 21q42 -1 85 -1l314 6h28q140 0 292 -9q167 -10 295 -72t190 -188q39 -80 39 -197q0 -97 -27 -220q-38 -166 -140 -311 q-101 -145 -256 -247q-264 -172 -587 -176h-80q-58 0 -108 1h-117q-83 0 -126 3h-24q-40 0 -105 -6h-2q-15 0 -15 14zM422 100q120 -24 235 -24q43 0 85 3q357 30 562 301q106 140 156 356l8 33q16 87 16 159q0 191 -112 288q-130 118 -387 118h-26q-123 0 -257 -21 l-127 -550h317q20 0 16 -20l-9 -39q-4 -19 -25 -19h-317z" />
<glyph unicode="&#xd1;" horiz-adv-x="1644" d="M138 14q0 3 1 7q6 25 60 43t69 82l256 1111q4 16 4 28q0 40 -35 54q-41 16 -40 38v6q5 21 26 21h257l680 -1201l243 1054q4 16 4 30q0 39 -34 52q-41 16 -40 38v6q5 21 25 21h255q17 0 17 -14q0 -3 -1 -7q-6 -26 -60 -44t-69 -82l-301 -1300l-167 43l-683 1189 l-241 -1043q-4 -16 -4 -28q0 -40 35 -54q41 -16 40 -37v-6q-5 -21 -26 -21h-254q-17 0 -17 14zM909 1628q2 16 31 58l80 118q52 76 132 76t150 -87q35 -47 83 -47q41 0 91 35q45 32 92 106q7 12 18 12h3q14 -3 11 -19q-4 -16 -8 -24q-68 -113 -120 -166t-98 -53 q-79 0 -154 84q-36 46 -83 46q-38 0 -81 -29l-25 -18q-48 -37 -92 -102q-8 -10 -16 -10q-17 4 -14 20z" />
<glyph unicode="&#xd2;" horiz-adv-x="1610" d="M181 492q0 83 21 177q4 18 10 36q92 341 345 539q254 198 585 202h10q323 0 499 -198q115 -130 115 -318q0 -80 -21 -170q-6 -27 -14 -55q-99 -343 -361 -533t-572 -207q-23 -1 -46 -1q-278 0 -448 192q-123 138 -123 336zM396 516q0 -154 69 -276q109 -192 354 -194h5 q239 0 440 204q199 202 255 446l1 6q22 101 22 194q0 137 -48 258q-80 204 -372 204q-307 -2 -474 -194q-166 -192 -229 -462q-23 -98 -23 -186zM968 1755q0 10 3 21q17 74 91 74q22 0 37 -13l317 -258q4 -7 2 -15q-4 -17 -22 -17q-4 0 -6 1l-389 159q-33 13 -33 48z" />
<glyph unicode="&#xd3;" horiz-adv-x="1610" d="M181 492q0 83 21 177q4 18 10 36q92 341 345 539q254 198 585 202h10q323 0 499 -198q115 -130 115 -318q0 -80 -21 -170q-6 -27 -14 -55q-99 -343 -361 -533t-572 -207q-23 -1 -46 -1q-278 0 -448 192q-123 138 -123 336zM396 516q0 -154 69 -276q109 -192 354 -194h5 q239 0 440 204q199 202 255 446l1 6q22 101 22 194q0 137 -48 258q-80 204 -372 204q-307 -2 -474 -194q-166 -192 -229 -462q-23 -98 -23 -186zM922 1564q2 8 10 15l435 258q21 13 43 13q60 0 60 -49q0 -11 -3 -25q-12 -52 -62 -69l-463 -159q-2 -1 -6 -1q-18 0 -14 17z " />
<glyph unicode="&#xd4;" horiz-adv-x="1610" d="M181 492q0 83 21 177q4 18 10 36q92 341 345 539q254 198 585 202h10q323 0 499 -198q115 -130 115 -318q0 -80 -21 -170q-6 -27 -14 -55q-99 -343 -361 -533t-572 -207q-23 -1 -46 -1q-278 0 -448 192q-123 138 -123 336zM396 516q0 -154 69 -276q109 -192 354 -194h5 q239 0 440 204q199 202 255 446l1 6q22 101 22 194q0 137 -48 258q-80 204 -372 204q-307 -2 -474 -194q-166 -192 -229 -462q-23 -98 -23 -186zM878 1546l310 347h116l149 -347h-57l-182 209l-278 -209h-58z" />
<glyph unicode="&#xd5;" horiz-adv-x="1610" d="M181 492q0 83 21 177q4 18 10 36q92 341 345 539q254 198 585 202h10q323 0 499 -198q115 -130 115 -318q0 -80 -21 -170q-6 -27 -14 -55q-99 -343 -361 -533t-572 -207q-23 -1 -46 -1q-278 0 -448 192q-123 138 -123 336zM396 516q0 -154 69 -276q109 -192 354 -194h5 q239 0 440 204q199 202 255 446l1 6q22 101 22 194q0 137 -48 258q-80 204 -372 204q-307 -2 -474 -194q-166 -192 -229 -462q-23 -98 -23 -186zM868 1628q2 16 31 58l80 118q52 76 132 76t150 -87q35 -47 83 -47q41 0 91 35q45 32 92 106q7 12 18 12h3q15 -3 12 -19 q-4 -16 -9 -24q-69 -113 -121 -166t-97 -53q-79 0 -154 84q-36 46 -83 46q-38 0 -81 -29l-25 -18q-48 -37 -92 -102q-8 -10 -16 -10q-17 4 -14 20z" />
<glyph unicode="&#xd6;" horiz-adv-x="1610" d="M181 492q0 83 21 177q4 18 10 36q92 341 345 539q254 198 585 202h10q323 0 499 -198q115 -130 115 -318q0 -80 -21 -170q-6 -27 -14 -55q-99 -343 -361 -533t-572 -207q-23 -1 -46 -1q-278 0 -448 192q-123 138 -123 336zM396 516q0 -154 69 -276q109 -192 354 -194h5 q239 0 440 204q199 202 255 446l1 6q22 101 22 194q0 137 -48 258q-80 204 -372 204q-307 -2 -474 -194q-166 -192 -229 -462q-23 -98 -23 -186zM886 1702q0 17 5 38q25 110 135 110q89 0 89 -73q0 -17 -4 -37q-26 -111 -136 -111q-89 0 -89 73zM1306 1702q0 17 5 38 q25 110 135 110q89 0 89 -73q0 -17 -4 -37q-26 -111 -136 -111q-89 0 -89 73z" />
<glyph unicode="&#xd7;" d="M338 401q0 14 22 33l244 198l-152 198q-19 25 3 44l44 36q9 8 18 8q12 0 24 -15l153 -198l243 198q19 15 32 15q9 0 15 -7l29 -37q4 -6 4 -12q0 -14 -22 -33l-243 -198l151 -197q21 -27 -2 -46l-45 -36q-9 -7 -18 -7q-13 0 -26 15l-151 197l-244 -198q-18 -15 -31 -15 q-9 0 -16 8l-28 37q-4 5 -4 12z" />
<glyph unicode="&#xd8;" horiz-adv-x="1610" d="M88 19q0 9 9 17l187 145q-103 131 -103 312q0 83 21 176q4 18 10 36q92 341 345 539q254 198 585 202h10q323 0 499 -198q2 -1 2 -3l238 185q7 5 13 5q7 0 13 -6l26 -38q4 -5 4 -10q0 -8 -10 -16l-236 -184q65 -107 65 -247q0 -85 -21 -174q-6 -27 -14 -55 q-99 -343 -361 -533t-572 -207q-23 -1 -46 -1q-252 0 -416 158l-192 -149q-7 -6 -15 -6q-6 0 -11 7l-27 36q-3 4 -3 9zM396 514q0 -117 40 -215l1068 830q-4 13 -10 25q-80 204 -372 204q-307 -2 -474 -194q-166 -192 -229 -462q-23 -99 -23 -188zM473 228 q109 -180 346 -182h5q239 0 440 204q199 202 255 446l1 6q23 102 23 196q0 77 -15 149z" />
<glyph unicode="&#xd9;" horiz-adv-x="1554" d="M333 316q1 115 37 272l154 670q4 16 4 28q0 40 -35 54q-41 16 -40 37v6q5 21 26 21h339q20 0 15 -21q-6 -27 -59 -43t-67 -80l-125 -539q-35 -153 -52 -271q-7 -50 -7 -94q0 -59 13 -105q22 -81 98 -123q75 -42 225 -42q264 0 406 208q101 146 165 427l124 536q4 16 4 28 q0 40 -35 54q-41 16 -40 38v6q5 21 26 21h255q16 0 16 -14q0 -3 -1 -7q-6 -26 -60 -44t-68 -82l-154 -669q-35 -148 -90 -272t-146 -208q-161 -147 -431 -147q-171 0 -284 32t-165 116q-48 75 -48 207zM956 1755q0 10 3 21q17 74 91 74q22 0 37 -13l317 -258q4 -7 2 -15 q-4 -17 -22 -17q-4 0 -6 1l-389 159q-33 13 -33 48z" />
<glyph unicode="&#xda;" horiz-adv-x="1554" d="M333 316q1 115 37 272l154 670q4 16 4 28q0 40 -35 54q-41 16 -40 37v6q5 21 26 21h339q20 0 15 -21q-6 -27 -59 -43t-67 -80l-125 -539q-35 -153 -52 -271q-7 -50 -7 -94q0 -59 13 -105q22 -81 98 -123q75 -42 225 -42q264 0 406 208q101 146 165 427l124 536q4 16 4 28 q0 40 -35 54q-41 16 -40 38v6q5 21 26 21h255q16 0 16 -14q0 -3 -1 -7q-6 -26 -60 -44t-68 -82l-154 -669q-35 -148 -90 -272t-146 -208q-161 -147 -431 -147q-171 0 -284 32t-165 116q-48 75 -48 207zM910 1564q2 8 10 15l435 258q21 13 43 13q60 0 60 -49q0 -11 -3 -25 q-12 -52 -62 -69l-463 -159q-2 -1 -6 -1q-18 0 -14 17z" />
<glyph unicode="&#xdb;" horiz-adv-x="1554" d="M333 316q1 115 37 272l154 670q4 16 4 28q0 40 -35 54q-41 16 -40 37v6q5 21 26 21h339q20 0 15 -21q-6 -27 -59 -43t-67 -80l-125 -539q-35 -153 -52 -271q-7 -50 -7 -94q0 -59 13 -105q22 -81 98 -123q75 -42 225 -42q264 0 406 208q101 146 165 427l124 536q4 16 4 28 q0 40 -35 54q-41 16 -40 38v6q5 21 26 21h255q16 0 16 -14q0 -3 -1 -7q-6 -26 -60 -44t-68 -82l-154 -669q-35 -148 -90 -272t-146 -208q-161 -147 -431 -147q-171 0 -284 32t-165 116q-48 75 -48 207zM866 1546l310 347h116l149 -347h-57l-182 209l-278 -209h-58z" />
<glyph unicode="&#xdc;" horiz-adv-x="1554" d="M333 316q1 115 37 272l154 670q4 16 4 28q0 40 -35 54q-41 16 -40 37v6q5 21 26 21h339q20 0 15 -21q-6 -27 -59 -43t-67 -80l-125 -539q-35 -153 -52 -271q-7 -50 -7 -94q0 -59 13 -105q22 -81 98 -123q75 -42 225 -42q264 0 406 208q101 146 165 427l124 536q4 16 4 28 q0 40 -35 54q-41 16 -40 38v6q5 21 26 21h255q16 0 16 -14q0 -3 -1 -7q-6 -26 -60 -44t-68 -82l-154 -669q-35 -148 -90 -272t-146 -208q-161 -147 -431 -147q-171 0 -284 32t-165 116q-48 75 -48 207zM874 1702q0 17 5 38q25 110 135 110q89 0 89 -73q0 -17 -4 -37 q-26 -111 -136 -111q-89 0 -89 73zM1294 1702q0 17 5 38q25 110 135 110q89 0 89 -73q0 -17 -4 -37q-26 -111 -136 -111q-89 0 -89 73z" />
<glyph unicode="&#xdd;" horiz-adv-x="1366" d="M368 1390q0 2 1 4l1 4q2 6 11 6h339q10 0 18 -6q9 -7 13 -15q2 -5 1 -10q-2 -7 -10 -15q-9 -10 -22 -20q-12 -10 -17 -25l-1 -5q-5 -22 6 -45l213 -534l350 395q39 44 52 76q2 5 3 10q2 10 3 23q0 24 -9 55l-18 68l157 62q8 3 14 3q13 0 20 -16l37 -101q4 -11 4 -23 q0 -8 -2 -15q-8 -34 -50 -69q-66 -56 -146 -143l-355 -388q-23 -27 -41 -76q-17 -49 -27 -93l-81 -351q-4 -16 -4 -28q0 -40 35 -54q41 -16 40 -37v-6q-5 -21 -26 -21h-339q-21 0 -16 21q6 25 60 43t69 82l98 427q6 25 6 48q0 30 -10 56l-215 581q-15 34 -61 67 q-24 15 -47 25q-24 10 -38 19q-10 6 -14 14q-2 4 -2 7zM757 1564q2 8 10 15l435 258q21 13 43 13q60 0 60 -49q0 -11 -3 -25q-12 -52 -62 -69l-463 -159q-2 -1 -6 -1q-18 0 -14 17z" />
<glyph unicode="&#xde;" horiz-adv-x="1151" d="M75 14q0 3 1 7q6 25 60 42.5t69 82.5l256 1111q4 16 4 28q0 40 -37.5 55t-37.5 37v6q5 21 26 21h338q21 0 16 -21q-6 -26 -60 -44t-69 -82l-39 -169h310q103 0 206.5 -36.5t140.5 -141.5q14 -43 15 -95q0 -50 -14 -109q-28 -113 -112 -203q-72 -77 -180 -114.5 t-190 -37.5h-346l-47 -205q-4 -16 -4 -29q0 -40 40.5 -55.5t34.5 -40.5q-5 -21 -26 -21h-339q-16 0 -16 14zM448 421h211q69 0 144.5 20t138.5 71q98 77 127 204q8 37 8 69q0 78 -44 135q-69 85 -219 85h-231z" />
<glyph unicode="&#xdf;" horiz-adv-x="1269" d="M111 14q0 3 1 7q6 25 60 42.5t69 82.5l203 881q21 90 63 175.5t113 148.5q128 115 273 115q32 0 66 -6q167 -30 213 -195q9 -36 9 -70q0 -28 -6 -55q-22 -94 -120 -178q-67 -58 -141 -102.5t-103 -108.5q-10 -22 -14 -40q-3 -14 -3 -27q0 -42 38 -63q63 -36 152 -57 q122 -29 206.5 -72.5t84.5 -146.5q0 -29 -6 -64l-3 -12q-17 -73 -91 -146q-80 -80 -207 -121q-79 -24 -168 -27h-27q-122 0 -227 32l-30 220l7 20q4 15 21 15h2q10 -2 16 -24q23 -99 80 -140.5t158 -44.5h12q72 0 165 33q100 36 125 130l1 6q5 22 5 41q0 73 -75 96 q-99 30 -174 53q-93 27 -166 86q-53 42 -53 116q0 27 7 58l1 3q23 99 100.5 149.5t154.5 109.5q79 60 114 159q7 20 12 40q7 29 6 55q0 39 -15 73q-32 65 -129 75q-13 1 -24 1q-82 0 -140 -59q-46 -46 -66 -115t-36 -136l-203 -881q-4 -16 -4 -29q0 -40 40.5 -55.5 t34.5 -40.5q-5 -21 -26 -21h-339q-17 0 -17 14z" />
<glyph unicode="&#xe0;" horiz-adv-x="1155" d="M145 294q0 67 19 146q12 52 37 119t79 131q56 64 105 96t80 44q365 126 383 126h5q63 -3 109 -19q46 -17 73 -29q28 -12 52 -12t62 39q7 7 12 7q6 0 19 -5q11 -4 11 -13q0 -2 -1 -4l-178 -774q-4 -16 -4 -28q0 -40 35 -54q46 -18 40 -41q-5 -23 -26 -23h-243 q-17 0 -14 13l17 74l-298 -101q-35 -11 -56 -11h-41q-140 7 -218 116q-59 82 -59 203zM338 346q0 -79 27 -132q71 -139 220 -139q38 0 90 17t156 54l144 623q-32 39 -92 71t-111 34h-4q-21 0 -90 -24q-70 -24 -102 -36q-33 -12 -51 -27q-77 -67 -116 -149q-38 -82 -43 -106 l-6 -27q-1 -3 -2 -5q-20 -87 -20 -154zM625 1305q0 10 3 21q17 74 91 74q22 0 37 -13l317 -258q4 -7 2 -15q-4 -17 -22 -17q-4 0 -6 1l-389 159q-33 13 -33 48z" />
<glyph unicode="&#xe1;" horiz-adv-x="1155" d="M145 294q0 67 19 146q12 52 37 119t79 131q56 64 105 96t80 44q365 126 383 126h5q63 -3 109 -19q46 -17 73 -29q28 -12 52 -12t62 39q7 7 12 7q6 0 19 -5q11 -4 11 -13q0 -2 -1 -4l-178 -774q-4 -16 -4 -28q0 -40 35 -54q46 -18 40 -41q-5 -23 -26 -23h-243 q-17 0 -14 13l17 74l-298 -101q-35 -11 -56 -11h-41q-140 7 -218 116q-59 82 -59 203zM338 346q0 -79 27 -132q71 -139 220 -139q38 0 90 17t156 54l144 623q-32 39 -92 71t-111 34h-4q-21 0 -90 -24q-70 -24 -102 -36q-33 -12 -51 -27q-77 -67 -116 -149q-38 -82 -43 -106 l-6 -27q-1 -3 -2 -5q-20 -87 -20 -154zM579 1114q2 8 10 15l435 258q21 13 43 13q60 0 60 -49q0 -11 -3 -25q-12 -52 -62 -69l-463 -159q-2 -1 -6 -1q-18 0 -14 17z" />
<glyph unicode="&#xe2;" horiz-adv-x="1155" d="M145 294q0 67 19 146q12 52 37 119t79 131q56 64 105 96t80 44q365 126 383 126h5q63 -3 109 -19q46 -17 73 -29q28 -12 52 -12t62 39q7 7 12 7q6 0 19 -5q11 -4 11 -13q0 -2 -1 -4l-178 -774q-4 -16 -4 -28q0 -40 35 -54q46 -18 40 -41q-5 -23 -26 -23h-243 q-17 0 -14 13l17 74l-298 -101q-35 -11 -56 -11h-41q-140 7 -218 116q-59 82 -59 203zM338 346q0 -79 27 -132q71 -139 220 -139q38 0 90 17t156 54l144 623q-32 39 -92 71t-111 34h-4q-21 0 -90 -24q-70 -24 -102 -36q-33 -12 -51 -27q-77 -67 -116 -149q-38 -82 -43 -106 l-6 -27q-1 -3 -2 -5q-20 -87 -20 -154zM535 1096l310 347h116l149 -347h-57l-182 209l-278 -209h-58z" />
<glyph unicode="&#xe3;" horiz-adv-x="1155" d="M145 294q0 67 19 146q12 52 37 119t79 131q56 64 105 96t80 44q365 126 383 126h5q63 -3 109 -19q46 -17 73 -29q28 -12 52 -12t62 39q7 7 12 7q6 0 19 -5q11 -4 11 -13q0 -2 -1 -4l-178 -774q-4 -16 -4 -28q0 -40 35 -54q46 -18 40 -41q-5 -23 -26 -23h-243 q-17 0 -14 13l17 74l-298 -101q-35 -11 -56 -11h-41q-140 7 -218 116q-59 82 -59 203zM338 346q0 -79 27 -132q71 -139 220 -139q38 0 90 17t156 54l144 623q-32 39 -92 71t-111 34h-4q-21 0 -90 -24q-70 -24 -102 -36q-33 -12 -51 -27q-77 -67 -116 -149q-38 -82 -43 -106 l-6 -27q-1 -3 -2 -5q-20 -87 -20 -154zM525 1178q2 16 31 58l81 118q52 76 131 76q80 0 150 -87q35 -47 83 -47q41 0 91 35q45 32 92 106q7 12 18 12h4q11 -2 11 -13q0 -3 -1 -6q-4 -16 -7 -24q-68 -113 -121 -166q-52 -53 -98 -53q-79 0 -154 84q-36 46 -83 46 q-38 0 -81 -29l-25 -18q-48 -37 -92 -102q-8 -10 -16 -10q-17 4 -14 20z" />
<glyph unicode="&#xe4;" horiz-adv-x="1155" d="M145 294q0 67 19 146q12 52 37 119t79 131q56 64 105 96t80 44q365 126 383 126h5q63 -3 109 -19q46 -17 73 -29q28 -12 52 -12t62 39q7 7 12 7q6 0 19 -5q11 -4 11 -13q0 -2 -1 -4l-178 -774q-4 -16 -4 -28q0 -40 35 -54q46 -18 40 -41q-5 -23 -26 -23h-243 q-17 0 -14 13l17 74l-298 -101q-35 -11 -56 -11h-41q-140 7 -218 116q-59 82 -59 203zM338 346q0 -79 27 -132q71 -139 220 -139q38 0 90 17t156 54l144 623q-32 39 -92 71t-111 34h-4q-21 0 -90 -24q-70 -24 -102 -36q-33 -12 -51 -27q-77 -67 -116 -149q-38 -82 -43 -106 l-6 -27q-1 -3 -2 -5q-20 -87 -20 -154zM543 1252q0 17 5 38q25 110 135 110q89 0 90 -73q0 -17 -5 -37q-26 -111 -136 -111q-89 0 -89 73zM963 1252q0 17 5 38q25 110 135 110q89 0 90 -73q0 -17 -5 -37q-26 -111 -136 -111q-89 0 -89 73z" />
<glyph unicode="&#xe5;" horiz-adv-x="1155" d="M145 294q0 67 19 146q12 52 37 119t79 131q56 64 105 96t80 44q365 126 383 126h5q63 -3 109 -19q46 -17 73 -29q28 -12 52 -12t62 39q7 7 12 7q6 0 19 -5q11 -4 11 -13q0 -2 -1 -4l-178 -774q-4 -16 -4 -28q0 -40 35 -54q41 -16 41 -36q0 -3 -1 -5q-5 -23 -26 -23h-243 q-14 0 -14 9v4l17 74l-298 -101q-35 -11 -56 -11h-41q-140 7 -218 116q-59 82 -59 203zM338 346q0 -79 27 -132q71 -139 220 -139q38 0 90 17t156 54l144 623q-32 39 -92 71t-111 34h-4q-21 0 -90 -24q-70 -24 -102 -36q-33 -12 -51 -27q-77 -67 -116 -149q-38 -82 -43 -106 l-6 -27q-1 -3 -2 -5q-20 -87 -20 -154zM673 1266q0 23 5 48q19 82 90 141t152 59t124 -59q30 -41 30 -93q0 -23 -6 -48q-19 -82 -89 -141q-70 -58 -152 -58q-81 0 -124 58q-30 41 -30 93zM750 1269q0 -43 17 -76q26 -50 76 -50t92 48q44 59 57 115q5 21 5 41v7v5 q0 39 -16 77q-25 50 -76 50q-50 0 -91 -48q-42 -47 -57 -111l-2 -12q-5 -24 -5 -46z" />
<glyph unicode="&#xe6;" horiz-adv-x="1762" d="M144 290q0 33 5 69q6 42 16.5 87.5t35.5 112.5t79.5 131.5t104.5 96t80 43.5l174 60t140.5 48t68.5 18h5q63 -3 147 -32q101 -41 159 -72q144 106 333 108h4q197 0 261 -93t64 -196q0 -56 -15 -120q-9 -40 -15.5 -56.5t-44.5 -16.5h-638q-12 -58 -12 -107v-8 q0 -87 44 -173.5t157 -110.5q33 -8 69 -8q96 0 186 43t102 43t14 -2.5t0 -12t-23 -37t-41 -42.5q-131 -94 -317 -94q-247 2 -347 154l-421 -137q-35 -11 -56 -11h-41q-140 7 -218 116q-60 84 -60 199zM340 353q0 -85 38 -162t133 -105q35 -11 60.5 -11t43.5 1.5t46.5 11 t82 28t87.5 30.5l144 623q-32 38 -92 70.5t-111 34.5h-4q-20 0 -50.5 -10.5t-69 -24t-72 -25t-51.5 -27.5q-77 -66 -115.5 -148.5t-49 -128.5t-13.5 -69q-7 -47 -7 -88zM1125 551h528q13 58 13 110q0 59 -24 135t-165 76h-11q-142 -4 -225.5 -102t-115.5 -219z" />
<glyph unicode="&#xe7;" horiz-adv-x="925" d="M164 304q0 65 18 142q13 55 35 117q94 221 305 328q118 59 254 65h21q163 0 279 -88l-56 -169q-5 -13 -15 -13h-2q-12 1 -15 20q-21 88 -76 126t-147 38h-24q-111 -6 -180 -60q-130 -101 -174 -291q-7 -29 -11 -61q-8 -49 -8 -93q0 -88 32 -151q64 -124 176 -142 q20 -2 38 -2q98 0 182 44t101 45q16 0 21 -1q1 -5 -1 -16q-3 -12 -23 -36t-41 -41q-132 -90 -318 -90t-289 103q-82 86 -82 226zM258 -402l1 68q37 -34 82 -34q35 0 74 20q35 20 42 54q2 7 2 13q0 27 -26 59q-33 40 -49 85q-7 19 -2 39q7 26 32 53h56q-13 -20 -17 -38 q-2 -9 -2 -17q0 -25 18 -45q23 -27 54 -61q33 -34 34 -84q0 -19 -5 -41q-1 -3 -2 -7q-23 -82 -145 -91h-10q-65 0 -137 27z" />
<glyph unicode="&#xe8;" horiz-adv-x="1004" d="M149 320q0 57 15 121q12 53 34 110q70 185 216 296t341 113h4q197 0 275 -113q50 -72 50 -172q0 -60 -15 -124q-10 -41 -16 -57t-45 -16h-637q-13 -63 -13 -117q0 -86 33 -151q55 -106 169 -131q33 -8 69 -8q95 0 185 43t102 43q12 -1 15 -3t0 -12q-2 -10 -20 -33 q-18 -24 -27 -32q-10 -8 -17 -14q-131 -94 -318 -94q-262 2 -354 168q-46 82 -46 183zM388 551h527q13 57 13 110q0 58 -16 111q-31 100 -172 100h-11q-142 -4 -225 -102q-84 -98 -116 -219zM557 1305q0 10 3 21q17 74 91 74q22 0 37 -13l317 -258q4 -7 2 -15 q-4 -17 -22 -17q-4 0 -6 1l-389 159q-33 13 -33 48z" />
<glyph unicode="&#xe9;" horiz-adv-x="1004" d="M149 320q0 57 15 121q12 53 34 110q70 185 216 296t341 113h4q197 0 275 -113q50 -72 50 -172q0 -60 -15 -124q-10 -41 -16 -57t-45 -16h-637q-13 -63 -13 -117q0 -86 33 -151q55 -106 169 -131q33 -8 69 -8q95 0 185 43t102 43q12 -1 15 -3t0 -12q-2 -10 -20 -33 q-18 -24 -27 -32q-10 -8 -17 -14q-131 -94 -318 -94q-262 2 -354 168q-46 82 -46 183zM388 551h527q13 57 13 110q0 58 -16 111q-31 100 -172 100h-11q-142 -4 -225 -102q-84 -98 -116 -219zM511 1114q2 8 10 15l435 258q21 13 43 13q60 0 60 -49q0 -11 -3 -25 q-12 -52 -62 -69l-463 -159q-2 -1 -6 -1q-18 0 -14 17z" />
<glyph unicode="&#xea;" horiz-adv-x="1004" d="M149 320q0 57 15 121q12 53 34 110q70 185 216 296t341 113h4q197 0 275 -113q50 -72 50 -172q0 -60 -15 -124q-10 -41 -16 -57t-45 -16h-637q-13 -63 -13 -117q0 -86 33 -151q55 -106 169 -131q33 -8 69 -8q95 0 185 43t102 43q12 -1 15 -3t0 -12q-2 -10 -20 -33 q-18 -24 -27 -32q-10 -8 -17 -14q-131 -94 -318 -94q-262 2 -354 168q-46 82 -46 183zM388 551h527q13 57 13 110q0 58 -16 111q-31 100 -172 100h-11q-142 -4 -225 -102q-84 -98 -116 -219zM467 1096l310 347h116l149 -347h-57l-182 209l-278 -209h-58z" />
<glyph unicode="&#xeb;" horiz-adv-x="1004" d="M149 320q0 57 15 121q12 53 34 110q70 185 216 296t341 113h4q197 0 275 -113q50 -72 50 -172q0 -60 -15 -124q-10 -41 -16 -57t-45 -16h-637q-13 -63 -13 -117q0 -86 33 -151q55 -106 169 -131q33 -8 69 -8q95 0 185 43t102 43q12 -1 15 -3t0 -12q-2 -10 -20 -33 q-18 -24 -27 -32q-10 -8 -17 -14q-131 -94 -318 -94q-262 2 -354 168q-46 82 -46 183zM388 551h527q13 57 13 110q0 58 -16 111q-31 100 -172 100h-11q-142 -4 -225 -102q-84 -98 -116 -219zM475 1252q0 17 5 38q25 110 135 110q89 0 90 -73q0 -17 -5 -37 q-26 -111 -136 -111q-89 0 -89 73zM895 1252q0 17 5 38q25 110 135 110q89 0 90 -73q0 -17 -5 -37q-26 -111 -136 -111q-89 0 -89 73z" />
<glyph unicode="&#xec;" horiz-adv-x="593" d="M116 15q0 4 1 8q5 23 60 41q54 18 69 82l147 640q4 15 4 28q0 40 -35 53q-41 16 -40 38v6q5 21 26 21q67 2 136 20q68 18 137 40l-195 -846q-4 -16 -4 -28q0 -40 35 -54q46 -18 40 -41q-5 -23 -25 -23h-339q-17 0 -17 15zM357 1305q0 10 3 21q17 74 91 74q22 0 37 -13 l317 -258q3 -5 3 -10q0 -2 -1 -5q-4 -17 -22 -17q-4 0 -6 1l-389 159q-33 13 -33 48z" />
<glyph unicode="&#xed;" horiz-adv-x="593" d="M116 15q0 4 1 8q5 23 60 41q54 18 69 82l147 640q4 15 4 28q0 40 -35 53q-41 16 -40 38v6q5 21 26 21q67 2 136 20q68 18 137 40l-195 -846q-4 -16 -4 -28q0 -40 35 -54q46 -18 40 -41q-5 -23 -25 -23h-339q-17 0 -17 15zM311 1114q2 8 10 15l435 258q21 13 43 13 q60 0 60 -49q0 -11 -3 -25q-12 -52 -62 -69l-463 -159q-2 -1 -6 -1q-18 0 -14 17z" />
<glyph unicode="&#xee;" horiz-adv-x="593" d="M116 15q0 4 1 8q5 23 60 41q54 18 69 82l147 640q4 15 4 28q0 40 -35 53q-41 16 -40 38v6q5 21 26 21q67 2 136 20q68 18 137 40l-195 -846q-4 -16 -4 -28q0 -40 35 -54q46 -18 40 -41q-5 -23 -25 -23h-339q-17 0 -17 15zM267 1096l310 347h116l149 -347h-57l-182 209 l-278 -209h-58z" />
<glyph unicode="&#xef;" horiz-adv-x="593" d="M116 15q0 4 1 8q5 23 60 41q54 18 69 82l147 640q4 15 4 28q0 40 -35 53q-41 16 -40 38v6q5 21 26 21q67 2 136 20q68 18 137 40l-195 -846q-4 -16 -4 -28q0 -40 35 -54q46 -18 40 -41q-5 -23 -25 -23h-339q-17 0 -17 15zM275 1252q0 17 5 38q25 110 135 110q89 0 90 -73 q0 -17 -5 -37q-26 -111 -136 -111q-89 0 -89 73zM695 1252q0 17 5 38q25 110 135 110q89 0 90 -73q0 -17 -5 -37q-26 -111 -136 -111q-89 0 -89 73z" />
<glyph unicode="&#xf0;" horiz-adv-x="1105" d="M160 337q0 59 14 121v3q53 224 253 376q23 18 63.5 31t121.5 42l105 35q54 18 85 18h3q114 -5 201 -62q-27 91 -58 167t-76 142q-150 -77 -320 -133l-12 28t-11 29q151 54 301 131q-72 81 -182 149q-17 11 -15 21q1 3 4 6q11 13 28 35q14 18 31 18q9 0 19 -5 q129 -89 213 -172q148 85 279 182q9 -13 17.5 -26t17.5 -25q-127 -101 -266 -181q134 -154 172.5 -299.5t38.5 -253.5q0 -118 -30 -253l-1 -6q-47 -204 -221 -345q-176 -144 -384 -150h-13q-195 0 -302 145q-76 103 -76 232zM353 334q0 -92 34 -167q58 -131 181 -137h13 q116 0 226 115q116 121 159 301q17 74 17 140q0 93 -45.5 197t-169.5 110h-12q-117 0 -227 -115q-116 -122 -158 -300l-1 -4q-17 -74 -17 -140z" />
<glyph unicode="&#xf1;" horiz-adv-x="1191" d="M86 15q0 4 1 8q5 23 60 41q54 18 69 82l147 640q4 15 4 28q0 40 -35 53q-41 16 -40 38v6q5 21 26 21q67 2 136 20q68 18 137 40l-32 -139q60 21 105 37q46 16 116 38q69 22 127 28q57 6 70 6q84 0 147 -57q58 -54 58 -182q0 -90 -29 -217l-83 -360q-4 -16 -4 -28 q0 -40 35 -54q46 -18 40 -41q-5 -23 -25 -23h-243q-17 0 -14 13l114 493q21 92 21 160q0 96 -41 148q-45 57 -129 57h-6q-43 0 -84 -13q-43 -14 -80 -26t-62 -22q-26 -9 -47 -16l-149 -648q-4 -16 -4 -28q0 -40 35 -54q46 -18 40 -41q-5 -23 -25 -23h-339q-17 0 -17 15z M564 1178q2 16 31 58l81 118q52 76 131 76q80 0 150 -87q35 -47 83 -47q41 0 91 35q45 32 92 106q7 12 18 12h4q12 -2 12 -13q0 -3 -1 -6q-4 -16 -8 -24q-69 -113 -122 -166q-52 -53 -97 -53q-79 0 -154 84q-36 46 -83 46q-38 0 -81 -29l-25 -18q-48 -37 -92 -102 q-8 -10 -16 -10q-17 4 -14 20z" />
<glyph unicode="&#xf2;" horiz-adv-x="1107" d="M155 349q0 54 14 113v3q52 219 250 368q23 18 64 31q41 12 104 34t120 40q56 18 88 18h3q193 -8 295 -150q72 -100 72 -228q0 -54 -13 -113l-1 -6q-47 -200 -221 -339t-383 -145h-16q-191 0 -300 144q-76 101 -76 230zM349 346q0 -92 34 -168q58 -128 181 -135h14 q116 0 229 116t153 291q17 72 17 136q0 92 -35 168q-58 128 -181 135h-12q-118 -1 -231 -117t-153 -291q-16 -68 -16 -128v-7zM609 1305q0 10 3 21q17 74 91 74q22 0 37 -13l317 -258q4 -7 2 -15q-4 -17 -22 -17q-4 0 -6 1l-389 159q-33 13 -33 48z" />
<glyph unicode="&#xf3;" horiz-adv-x="1107" d="M155 349q0 54 14 113v3q52 219 250 368q23 18 64 31q41 12 104 34t120 40q56 18 88 18h3q193 -8 295 -150q72 -100 72 -228q0 -54 -13 -113l-1 -6q-47 -200 -221 -339t-383 -145h-16q-191 0 -300 144q-76 101 -76 230zM349 346q0 -92 34 -168q58 -128 181 -135h14 q116 0 229 116t153 291q17 72 17 136q0 92 -35 168q-58 128 -181 135h-12q-118 -1 -231 -117t-153 -291q-16 -68 -16 -128v-7zM563 1114q2 8 10 15l435 258q21 13 43 13q60 0 60 -49q0 -11 -3 -25q-12 -52 -62 -69l-463 -159q-2 -1 -6 -1q-18 0 -14 17z" />
<glyph unicode="&#xf4;" horiz-adv-x="1107" d="M155 349q0 54 14 113v3q52 219 250 368q23 18 64 31q41 12 104 34t120 40q56 18 88 18h3q193 -8 295 -150q72 -100 72 -228q0 -54 -13 -113l-1 -6q-47 -200 -221 -339t-383 -145h-16q-191 0 -300 144q-76 101 -76 230zM349 346q0 -92 34 -168q58 -128 181 -135h14 q116 0 229 116t153 291q17 72 17 136q0 92 -35 168q-58 128 -181 135h-12q-118 -1 -231 -117t-153 -291q-16 -68 -16 -128v-7zM519 1096l310 347h116l149 -347h-57l-182 209l-278 -209h-58z" />
<glyph unicode="&#xf5;" horiz-adv-x="1107" d="M155 349q0 54 14 113v3q52 219 250 368q23 18 64 31q41 12 104 34t120 40q56 18 88 18h3q193 -8 295 -150q72 -100 72 -228q0 -54 -13 -113l-1 -6q-47 -200 -221 -339t-383 -145h-16q-191 0 -300 144q-76 101 -76 230zM349 346q0 -92 34 -168q58 -128 181 -135h14 q116 0 229 116t153 291q17 72 17 136q0 92 -35 168q-58 128 -181 135h-12q-118 -1 -231 -117t-153 -291q-16 -68 -16 -128v-7zM509 1178q2 16 31 58l81 118q52 76 131 76q80 0 150 -87q35 -47 83 -47q41 0 91 35q45 32 92 106q7 12 18 12h4q11 -2 11 -13q0 -3 -1 -6 q-4 -16 -7 -24q-68 -113 -121 -166q-52 -53 -98 -53q-79 0 -154 84q-36 46 -83 46q-38 0 -81 -29l-25 -18q-48 -37 -92 -102q-8 -10 -16 -10q-17 4 -14 20z" />
<glyph unicode="&#xf6;" horiz-adv-x="1107" d="M155 349q0 54 14 113v3q52 219 250 368q23 18 64 31q41 12 104 34t120 40q56 18 88 18h3q193 -8 295 -150q72 -100 72 -228q0 -54 -13 -113l-1 -6q-47 -200 -221 -339t-383 -145h-16q-191 0 -300 144q-76 101 -76 230zM349 346q0 -92 34 -168q58 -128 181 -135h14 q116 0 229 116t153 291q17 72 17 136q0 92 -35 168q-58 128 -181 135h-12q-118 -1 -231 -117t-153 -291q-16 -68 -16 -128v-7zM527 1252q0 17 5 38q25 110 135 110q89 0 90 -73q0 -17 -5 -37q-26 -111 -136 -111q-89 0 -89 73zM947 1252q0 17 5 38q25 110 135 110 q89 0 90 -73q0 -17 -5 -37q-26 -111 -136 -111q-89 0 -89 73z" />
<glyph unicode="&#xf7;" d="M302 598q0 3 1 7l12 53q6 26 43 26h664q32 0 32 -19q0 -3 -1 -7l-12 -53q-6 -26 -43 -26h-664q-32 0 -32 19zM494 295q0 17 5 38q25 110 135 110q89 0 90 -73q0 -17 -5 -37q-26 -111 -136 -111q-89 0 -89 73zM632 892q0 17 5 38q25 110 135 110q89 0 89 -73q0 -17 -4 -37 q-26 -111 -136 -111q-89 0 -89 73z" />
<glyph unicode="&#xf8;" horiz-adv-x="1107" d="M43 6q0 7 8 12l161 129q-57 91 -57 201q0 54 14 114v3q52 219 250 368q23 18 64 31q41 12 104 34t120 40q56 18 88 18h3q173 -7 273 -122l169 135q3 3 8 3q6 0 9 -3l28 -39q3 -4 3 -7t-7 -9l-170 -136q54 -91 54 -202q0 -53 -13 -111l-1 -6q-47 -200 -221 -339t-383 -145 h-16q-173 0 -278 117l-163 -130q-5 -4 -9 -4t-7 4l-29 38q-2 3 -2 6zM349 346q0 -44 7 -84l593 475q-3 9 -7 17q-58 128 -181 135h-12q-118 -1 -231 -117t-153 -291q-16 -71 -16 -135zM377 191q3 -7 6 -13q58 -128 181 -135h14q116 0 229 116t153 291q16 68 16 129v7 q0 41 -6 79z" />
<glyph unicode="&#xf9;" horiz-adv-x="1239" d="M254 208q0 90 29 217l83 361q4 15 4 28q0 40 -35 53q-41 16 -40 38v6q5 21 26 21q66 2 135 20q68 18 139 40l-131 -567q-21 -92 -21 -161q0 -96 41 -147q45 -57 129 -57q48 0 109 19q23 7 60 20t63 22q5 2 18 6t28 10l149 649q4 15 4 28q0 40 -35 53q-41 16 -40 38v6 q5 21 26 21q66 2 135 20q68 18 139 40l-195 -846q-4 -16 -4 -28q0 -40 35 -54q41 -16 40 -37v-6q-5 -21 -26 -21h-243q-17 0 -14 13l15 65q-60 -22 -106 -38t-85 -28q-100 -31 -201 -41q-14 -1 -27 -1q-83 0 -145 56q-59 54 -59 182zM668 1305q0 10 3 21q17 74 91 74 q22 0 37 -13l317 -258q4 -7 2 -15q-4 -17 -22 -17q-4 0 -6 1l-389 159q-33 13 -33 48z" />
<glyph unicode="&#xfa;" horiz-adv-x="1239" d="M254 208q0 90 29 217l83 361q4 15 4 28q0 40 -35 53q-41 16 -40 38v6q5 21 26 21q66 2 135 20q68 18 139 40l-131 -567q-21 -92 -21 -161q0 -96 41 -147q45 -57 129 -57q48 0 109 19q23 7 60 20t63 22q5 2 18 6t28 10l149 649q4 15 4 28q0 40 -35 53q-41 16 -40 38v6 q5 21 26 21q66 2 135 20q68 18 139 40l-195 -846q-4 -16 -4 -28q0 -40 35 -54q41 -16 40 -37v-6q-5 -21 -26 -21h-243q-17 0 -14 13l15 65q-60 -22 -106 -38t-85 -28q-100 -31 -201 -41q-14 -1 -27 -1q-83 0 -145 56q-59 54 -59 182zM622 1114q2 8 10 15l435 258 q21 13 43 13q60 0 60 -49q0 -11 -3 -25q-12 -52 -62 -69l-463 -159q-2 -1 -6 -1q-18 0 -14 17z" />
<glyph unicode="&#xfb;" horiz-adv-x="1239" d="M254 208q0 90 29 217l83 361q4 15 4 28q0 40 -35 53q-41 16 -40 38v6q5 21 26 21q66 2 135 20q68 18 139 40l-131 -567q-21 -92 -21 -161q0 -96 41 -147q45 -57 129 -57q48 0 109 19q23 7 60 20t63 22q5 2 18 6t28 10l149 649q4 15 4 28q0 40 -35 53q-41 16 -40 38v6 q5 21 26 21q66 2 135 20q68 18 139 40l-195 -846q-4 -16 -4 -28q0 -40 35 -54q41 -16 40 -37v-6q-5 -21 -26 -21h-243q-17 0 -14 13l15 65q-60 -22 -106 -38t-85 -28q-100 -31 -201 -41q-14 -1 -27 -1q-83 0 -145 56q-59 54 -59 182zM578 1096l310 347h116l149 -347h-57 l-182 209l-278 -209h-58z" />
<glyph unicode="&#xfc;" horiz-adv-x="1239" d="M254 208q0 90 29 217l83 361q4 15 4 28q0 40 -35 53q-41 16 -40 38v6q5 21 26 21q66 2 135 20q68 18 139 40l-131 -567q-21 -92 -21 -161q0 -96 41 -147q45 -57 129 -57q48 0 109 19q23 7 60 20t63 22q5 2 18 6t28 10l149 649q4 15 4 28q0 40 -35 53q-41 16 -40 38v6 q5 21 26 21q66 2 135 20q68 18 139 40l-195 -846q-4 -16 -4 -28q0 -40 35 -54q41 -16 40 -37v-6q-5 -21 -26 -21h-243q-17 0 -14 13l15 65q-60 -22 -106 -38t-85 -28q-100 -31 -201 -41q-14 -1 -27 -1q-83 0 -145 56q-59 54 -59 182zM586 1252q0 17 5 38q25 110 135 110 q89 0 90 -73q0 -17 -5 -37q-26 -111 -136 -111q-89 0 -89 73zM1006 1252q0 17 5 38q25 110 135 110q89 0 90 -73q0 -17 -5 -37q-26 -111 -136 -111q-89 0 -89 73z" />
<glyph unicode="&#xfd;" horiz-adv-x="1036" d="M93 -544l21 114l51 1q67 2 109 59l250 351q-15 1 -18 5q-4 4 -6 16q-1 12 -1 19l-147 779q-8 38 -33 57t-49 30t-26 21t-1 16t15 7h328q19 0 21 -11t2 -15q-3 -12 -25 -22q-23 -11 -31 -27q-10 -16 -13 -27t1 -24l114 -639l358 551q14 21 20 49t-14 60l-24 39l106 71 q7 6 13 6t13 -8l42 -57q9 -14 10 -28q0 -5 -2 -11q-5 -20 -23 -53q-19 -33 -64 -97l-750 -1102q-45 -66 -79 -109t-71 -43l-82 3q-15 2 -15 14v5zM516 1114q2 8 10 15l435 258q21 13 43 13q60 0 60 -49q0 -11 -3 -25q-12 -52 -62 -69l-463 -159q-2 -1 -6 -1q-18 0 -14 17z " />
<glyph unicode="&#xfe;" horiz-adv-x="1180" d="M8 -452q0 3 1 6q6 26 60.5 44t69.5 82l364 1577q4 15 4 28q0 40 -38 55t-38 37v6q5 21 27 21q67 3 135.5 20t137.5 39l-143 -618l289 100q33 10 48.5 11t26 0.5t22.5 -0.5q140 -7 208.5 -106t68.5 -214v-11q0 -26 -4 -54q-5 -41 -16 -87.5t-36.5 -113.5t-81.5 -132.5 t-104.5 -96t-77.5 -41.5q-88 -30 -175.5 -60t-140 -47.5t-68.5 -17.5h-5q-63 3 -147 31h-1l-122 -532q-59 22 -119.5 39.5t-126.5 20.5q-18 0 -18 14zM429 155q32 -38 87.5 -68t107.5 -31h6q16 0 47 10.5t70 23.5t71.5 24.5t52.5 28.5q76 65 114.5 148.5t49 130.5t14.5 67 q7 46 7 87q0 85 -31 147q-67 132 -213 132q-13 0 -33 -2t-47.5 -11.5t-76 -28.5t-81.5 -31z" />
<glyph unicode="&#xff;" horiz-adv-x="1036" d="M93 -544l21 114l51 1q67 2 109 59l250 351q-15 1 -18 5q-4 4 -6 16q-1 12 -1 19l-147 779q-8 38 -33 57t-49 30t-26 21t-1 16t15 7h328q19 0 21 -11t2 -15q-3 -12 -25 -22q-23 -11 -31 -27q-10 -16 -13 -27t1 -24l114 -639l358 551q14 21 20 49t-14 60l-24 39l106 71 q7 6 13 6t13 -8l42 -57q9 -14 10 -28q0 -5 -2 -11q-5 -20 -23 -53q-19 -33 -64 -97l-750 -1102q-45 -66 -79 -109t-71 -43l-82 3q-15 2 -15 14v5zM480 1252q0 17 5 38q25 110 135 110q89 0 90 -73q0 -17 -5 -37q-26 -111 -136 -111q-89 0 -89 73zM900 1252q0 17 5 38 q25 110 135 110q89 0 90 -73q0 -17 -5 -37q-26 -111 -136 -111q-89 0 -89 73z" />
<glyph unicode="&#x152;" horiz-adv-x="2044" d="M202 492q0 83 21 177q4 18 10 36q91 341 345 539t586 202h8q168 0 277 -42h856l-59 -257q-5 -21 -26 -21q-10 0 -28 40q-34 69 -62 107t-87 38h-428l-126 -543h230q64 0 95.5 51.5t57.5 51.5q21 0 16 -21l-58 -254q-5 -21 -26 -21q-26 0 -37.5 51t-75.5 51h-223 l-134 -583h428q92 0 173.5 71.5t123.5 111.5q23 22 33 22q21 0 16 -21q-3 -13 -7 -21l-132 -257h-926q-113 -29 -224 -35q-23 -1 -46 -1q-278 0 -448 192q-123 138 -123 336zM417 515q0 -154 89 -310.5t334 -158.5h6q162 0 320 107l255 1104q3 11 3 15q-106 86 -281 86 q-307 -1 -474 -193.5t-229 -462.5q-23 -99 -23 -187z" />
<glyph unicode="&#x153;" horiz-adv-x="1849" d="M155 349q0 54 14 113v3q52 219 250 368q23 18 64 31q41 12 104 34t120 40q56 18 88 18h3q193 -8 295 -150q28 -39 44 -82q52 70 123 123q146 111 340 113h4q197 0 275 -113q50 -72 50 -172q0 -61 -15 -124q-10 -41 -16 -57t-45 -16h-637q-13 -63 -13 -117q0 -86 33 -151 q55 -106 169 -131q33 -8 69 -8q94 0 184 43t102 43q12 -1 16 -3q3 -2 0 -12t-21 -33q-18 -24 -27 -32q-10 -8 -16 -14q-131 -94 -318 -94q-262 2 -354 168q-16 29 -27 60q-37 -41 -83 -77q-174 -139 -383 -145h-16q-191 0 -300 144q-76 101 -76 230zM349 346q0 -92 34 -168 q58 -128 181 -135h14q116 0 229 116t153 291q17 72 17 136q0 92 -35 168q-58 128 -181 135h-12q-118 -1 -231 -117t-153 -291q-16 -68 -16 -128v-7zM1233 551h527q13 57 13 110q0 58 -16 111q-31 100 -172 100h-11q-142 -4 -225 -102q-84 -98 -116 -219z" />
<glyph unicode="&#x178;" horiz-adv-x="1366" d="M368 1390q0 2 1 4l1 4q2 6 11 6h339q10 0 18 -6q9 -7 13 -15q2 -5 1 -10q-2 -7 -10 -15q-9 -10 -22 -20q-12 -10 -17 -25l-1 -5q-5 -22 6 -45l213 -534l350 395q39 44 52 76q2 5 3 10q2 10 3 23q0 24 -9 55l-18 68l157 62q8 3 14 3q13 0 20 -16l37 -101q4 -11 4 -23 q0 -8 -2 -15q-8 -34 -50 -69q-66 -56 -146 -143l-355 -388q-23 -27 -41 -76q-17 -49 -27 -93l-81 -351q-4 -16 -4 -28q0 -40 35 -54q41 -16 40 -37v-6q-5 -21 -26 -21h-339q-21 0 -16 21q6 25 60 43t69 82l98 427q6 25 6 48q0 30 -10 56l-215 581q-15 34 -61 67 q-24 15 -47 25q-24 10 -38 19q-10 6 -14 14q-2 4 -2 7zM721 1702q0 17 5 38q25 110 135 110q89 0 89 -73q0 -17 -4 -37q-26 -111 -136 -111q-89 0 -89 73zM1141 1702q0 17 5 38q25 110 135 110q89 0 89 -73q0 -17 -4 -37q-26 -111 -136 -111q-89 0 -89 73z" />
<glyph unicode="&#x2c6;" horiz-adv-x="1000" d="M465 1096l310 347h116l149 -347h-57l-182 209l-278 -209h-58z" />
<glyph unicode="&#x2dc;" horiz-adv-x="1000" d="M455 1172q0 18 31 64l81 118q52 76 131.5 76t149.5 -87q35 -47 83 -47q41 0 91 35q45 32 92 106q7 12 18 12h4q11 -3 11 -12q0 -3 -2 -13t-6 -18q-68 -113 -121 -166t-98 -53q-79 0 -154 84q-36 46 -83 46q-38 0 -81 -29l-25 -18q-48 -37 -92 -102q-8 -10 -16 -10 q-14 3 -14 14z" />
<glyph unicode="&#x2000;" horiz-adv-x="982" />
<glyph unicode="&#x2001;" horiz-adv-x="1964" />
<glyph unicode="&#x2002;" horiz-adv-x="982" />
<glyph unicode="&#x2003;" horiz-adv-x="1964" />
<glyph unicode="&#x2004;" horiz-adv-x="654" />
<glyph unicode="&#x2005;" horiz-adv-x="491" />
<glyph unicode="&#x2006;" horiz-adv-x="327" />
<glyph unicode="&#x2007;" horiz-adv-x="327" />
<glyph unicode="&#x2008;" horiz-adv-x="245" />
<glyph unicode="&#x2009;" horiz-adv-x="392" />
<glyph unicode="&#x200a;" horiz-adv-x="109" />
<glyph unicode="&#x2010;" d="M302 598q0 3 1 7l12 53q6 26 43 26h664q32 0 32 -19q0 -3 -1 -7l-12 -53q-6 -26 -43 -26h-664q-32 0 -32 19z" />
<glyph unicode="&#x2011;" d="M302 598q0 3 1 7l12 53q6 26 43 26h664q32 0 32 -19q0 -3 -1 -7l-12 -53q-6 -26 -43 -26h-664q-32 0 -32 19z" />
<glyph unicode="&#x2012;" d="M302 598q0 3 1 7l12 53q6 26 43 26h664q32 0 32 -19q0 -3 -1 -7l-12 -53q-6 -26 -43 -26h-664q-32 0 -32 19z" />
<glyph unicode="&#x2013;" horiz-adv-x="1024" d="M101 436l27 119h1028l-27 -119h-1028z" />
<glyph unicode="&#x2014;" horiz-adv-x="2048" d="M367 437l27 118h1524l-27 -118h-1524z" />
<glyph unicode="&#x2018;" horiz-adv-x="429" d="M347 1027q0 10 2 22l2 9l25 85q5 17 29 56t27 43q76 113 212 185q42 21 54 21h14q25 -3 26 -21q0 -3 -1 -7q-5 -12 -19.5 -23t-45.5 -25q-112 -53 -158 -147h1q90 -7 90 -67q0 -11 -3 -23l-1 -6l-26 -85q-20 -71 -122 -84q-4 0 -16 1q-90 8 -90 66z" />
<glyph unicode="&#x2019;" horiz-adv-x="433" d="M333 983q0 2 1 4q6 23 65 49q111 53 159 147q-91 6 -91 66q0 10 2 22l3 9l24 84q27 81 138 83q91 -7 91 -68q0 -10 -3 -23l-1 -6l-26 -85q-22 -51 -55 -98q-76 -114 -214 -186q-39 -21 -59 -21h-3q-19 1 -26 10q-5 6 -5 13z" />
<glyph unicode="&#x201a;" horiz-adv-x="463" d="M108 -243q0 10 13 22q19 19 50 34q109 59 150 155h-1q-97 0 -97 63q0 11 3 25l19 85q21 89 134 91q97 0 97 -65q0 -12 -3 -25l-19 -84q-5 -20 -21 -51q-8 -14 -15 -26t-13 -23q-70 -118 -202 -197q-46 -25 -68 -25q-15 0 -23 9q-4 7 -4 12z" />
<glyph unicode="&#x201c;" horiz-adv-x="837" d="M346 1026q0 11 3 23l2 9l25 85q5 17 29 56q83 149 239 228q34 22 59 22q19 -1 32 -13q2 -7 0 -14q-3 -11 -13 -20q-16 -14 -50 -30q-112 -53 -158 -147q91 -6 91 -67q0 -11 -3 -23l-1 -6l-26 -85q-25 -79 -138 -83q-90 6 -91 65zM735 1023q0 12 3 26l2 9l25 85 q5 17 24 50l32 49q76 113 212 185q34 22 60 22q19 -1 31 -13q2 -5 2 -10q0 -2 -1 -5q-2 -10 -13 -19q-17 -14 -51 -30q-112 -53 -158 -147q91 -6 91 -66q0 -11 -3 -23l-1 -7l-25 -85q-26 -84 -123 -84q-9 1 -16 1q-91 0 -91 62z" />
<glyph unicode="&#x201d;" horiz-adv-x="842" d="M334 982q0 2 1 4v2q20 31 65 48q111 53 159 147q-91 6 -91 66q0 10 2 22l3 9l24 84q27 81 138 83q91 -7 91 -68q0 -10 -3 -23l-1 -6l-26 -85q-22 -51 -55 -98q-76 -114 -214 -186q-34 -22 -59 -22q-17 0 -29 11q-5 6 -5 12zM723 981q0 2 1 5v2q20 31 65 48 q111 53 159 147q-91 5 -91 64q0 13 2 24l3 9l24 84q26 84 120 84q9 0 17 -1q92 -12 92 -70q0 -10 -3 -21l-1 -6l-26 -85q-22 -51 -55 -98q-76 -114 -213 -186q-36 -21 -60 -21q-17 0 -30 10q-4 6 -4 11z" />
<glyph unicode="&#x201e;" horiz-adv-x="842" d="M72 -223q0 11 14 21q20 19 52 31q111 52 158 147q-91 7 -91 64q0 11 2 22l2 9l25 85q27 81 138 83q91 -7 91 -68q0 -10 -3 -23l-1 -6l-26 -85q-8 -24 -23.5 -47.5t-30.5 -50.5q-76 -113 -214 -185q-39 -22 -59 -22q-2 0 -3 1q-21 1 -26 11q-5 7 -5 13zM461 -219 q2 9 14 17q20 19 52 31q111 52 158 147q-91 6 -91 64q0 11 2 22l2 9l25 85q26 84 120 84q9 0 17 -1q92 -12 92 -70q0 -10 -3 -21l-1 -6l-26 -85q-8 -24 -23.5 -47.5t-30.5 -50.5q-76 -112 -213 -185q-41 -22 -61 -22q-1 0 -2 1q-21 1 -27 11q-4 7 -4 13v4z" />
<glyph unicode="&#x2022;" horiz-adv-x="1241" d="M424 616q0 40 11 84q34 147 162 251.5t275 104.5t215.5 -89t68.5 -183q0 -40 -10 -84q-34 -147 -162.5 -251t-275.5 -104t-215.5 88.5t-68.5 182.5z" />
<glyph unicode="&#x2026;" horiz-adv-x="1814" d="M337 92q0 14 4 30q11 50 55 86t95 36t79 -36q19 -25 19 -56q0 -14 -4 -30q-11 -50 -55 -86t-95 -36t-79 36q-19 25 -19 56zM895 91q0 16 3 31q12 50 56 86t94 36t78 -36q20 -25 20 -58q0 -13 -4 -28q-12 -50 -56 -86t-94 -36t-78 36q-19 24 -19 55zM1451 92q0 14 4 30 q11 50 55 86t95 36t79 -36q19 -25 19 -56q0 -14 -4 -30q-11 -50 -55 -86t-95 -36t-79 36q-19 25 -19 56z" />
<glyph unicode="&#x202f;" horiz-adv-x="392" />
<glyph unicode="&#x2039;" horiz-adv-x="678" d="M305 623q0 7 9 17q77 72 206.5 171t222.5 177q5 4 8 4t5 -2l31 -26q2 -2 2 -4q0 -4 -3 -7l-329 -324l181 -327q1 -2 0 -3q-1 -5 -7 -8l-43 -26q-2 -2 -5 -2t-6 4q-66 84 -135.5 172t-133.5 177q-3 3 -3 7z" />
<glyph unicode="&#x203a;" horiz-adv-x="678" d="M229 296q0 3 4 6l331 327l-180 324q-2 2 -1 4q1 3 6 7l43 26q2 2 5 2t6 -4q57 -78 140.5 -177t128.5 -171q3 -5 3 -10q0 -8 -9 -14q-107 -89 -216 -177t-213 -172q-5 -4 -8 -4t-5 2l-31 26q-4 3 -4 5z" />
<glyph unicode="&#x205f;" horiz-adv-x="491" />
<glyph unicode="&#x20ac;" horiz-adv-x="1141" d="M175 561l14 63h124q3 19 12 57q16 69 36 125h-130l15 64h140q103 246 288.5 390.5t381.5 144.5q83 0 171 -24.5t156 -97.5l-65 -205q-6 -18 -17 -18q-2 0 -4 1q-10 1 -12 27q-16 135 -75.5 180t-174.5 45q-136 0 -274 -106.5t-227 -336.5h673l-15 -64h-681 q-20 -59 -35 -125q-7 -29 -10 -57h684l-14 -63h-676q-2 -27 -2 -53q0 -154 69 -294.5t220 -150.5q17 -1 33 -1q92 0 160 38q80 45 159 180q14 25 24 28h1q14 0 12 -18l-4 -24l-117 -236q-78 -39 -152.5 -52.5t-138.5 -13.5q-201 0 -313.5 141t-112.5 344q0 53 7 112h-130z " />
<glyph unicode="&#x2122;" horiz-adv-x="2240" d="M337 1181q0 3 1 6l28 122q8 36 25 54q16 18 67 18h624q55 0 61 -17q3 -7 3 -19q0 -15 -5 -36l-28 -122q-3 -14 -13 -14q-10 -1 -28 35t-37 62q-18 25 -55 25h-3h-140l-161 -699q-4 -16 -4 -28q0 -40 35 -54q46 -18 40 -41q-5 -23 -26 -23h-332q-21 0 -16 23t60 41 q54 18 69 82l161 699h-139h-3q-39 0 -68 -25q-30 -26 -64 -62t-44 -35q-8 0 -8 8zM1031 471q6 25 60 43t69 82l147 639q4 16 4 28q0 40 -35 54q-41 16 -40 38v6q5 20 26 20h265l181 -708l499 708h265q17 0 17 -13q0 -3 -1 -7q-6 -26 -60 -44t-69 -82l-147 -639 q-4 -16 -4 -28q0 -40 35 -54q41 -16 40 -37v-6q-5 -21 -26 -21h-333q-20 0 -15 21q6 25 60 43t69 82l141 613l-548 -789h-47l-190 775l-138 -599q-4 -16 -4 -28q0 -40 35 -54q41 -16 40 -37v-6q-5 -21 -25 -21h-255q-21 0 -16 21z" />
<glyph unicode="&#x25fc;" horiz-adv-x="935" d="M0 0v935h935v-935h-935z" />
<glyph unicode="&#xfb01;" horiz-adv-x="1079" d="M111 15q0 4 1 8q5 23 60 41q54 18 69 82l161 699l-120 -5q-19 0 -15 20v2q4 16 25 25q22 9 66 30q45 21 53 25q9 4 14 3l19 82q29 127 64 193t60 90q26 26 54 35l276 95l40 5h2q21 0 39 -15q19 -16 23 -29t1 -27t-11 -42t-20 -31h-3q-11 0 -39 23q-29 23 -67 23t-68 -11 q-92 -36 -125 -137q-14 -38 -24 -82t-21 -90l-18 -79l240 5q15 0 10 -20q55 5 113 19q68 18 137 40l-195 -846q-4 -16 -4 -28q0 -40 35 -54q46 -18 40 -41q-5 -23 -25 -23h-339q-21 0 -16 23t60 41q54 18 69 82l147 640q4 15 4 28q0 40 -35 53q-8 3 -14 7q-18 -28 -46 -28 l-204 1l-162 -701q-4 -16 -4 -28q0 -40 35 -54q46 -18 40 -41q-5 -23 -26 -23h-339q-17 0 -17 15z" />
<glyph unicode="&#xfb02;" horiz-adv-x="1083" d="M111 15q0 4 1 8q5 23 60 41q54 18 69 82l161 699l-120 -5q-19 0 -15 20v2q4 16 25 25q22 9 66 30q45 21 53 25q9 4 14 3l19 82q29 127 64 193t60 90q26 26 54 35l276 95l40 5q22 1 41 -15q13 -10 19 -20q35 5 71 14q68 17 137 39l-304 -1317q-4 -16 -4 -28q0 -40 35 -54 q41 -16 40 -37v-6q-5 -21 -25 -21h-339q-21 0 -16 21q6 25 60 43t69 82l256 1111q7 29 1 48q-3 -3 -7 -4h-3q-11 0 -39 23q-29 23 -67 23t-68 -11q-92 -36 -125 -137q-14 -38 -24 -82t-21 -90l-18 -79l240 5q15 0 10 -20t-13 -40q-21 -47 -56 -47l-204 1l-162 -701 q-4 -16 -4 -28q0 -40 35 -54q46 -18 40 -41q-5 -23 -26 -23h-339q-17 0 -17 15z" />
<glyph unicode="&#xfb03;" horiz-adv-x="1565" d="M111 15q0 4 1 8q5 23 60 41q54 18 69 82l161 699l-120 -5q-19 0 -15 20v2q4 16 25 25q22 9 66 30q45 21 53 25q9 4 14 3l19 82q29 127 64 193t60 90q26 26 54 35l276 95l40 5h2q21 0 39 -15q19 -16 23 -29t1 -27t-11 -42t-20 -31h-3q-11 0 -39 23q-29 23 -67 23t-68 -11 q-92 -36 -125 -137q-14 -38 -24 -82t-21 -90l-18 -79l240 5q15 0 10 -20q-1 -5 -2 -11q34 16 42 20q9 4 14 3l19 82q29 127 64 193t60 90q26 26 54 35l276 95l40 5h2q21 0 39 -15q19 -16 23 -29t1 -27t-11 -42t-20 -31h-3q-11 0 -39 23q-29 23 -67 23t-68 -11 q-92 -36 -125 -137q-14 -38 -24 -82t-21 -90l-18 -79l240 5q15 0 10 -20q55 5 113 19q68 18 137 40l-195 -846q-4 -16 -4 -28q0 -40 35 -54q46 -18 40 -41q-5 -23 -25 -23h-339q-21 0 -16 23t60 41q54 18 69 82l147 640q4 15 4 28q0 40 -35 53q-8 3 -14 7q-18 -28 -46 -28 l-204 1l-162 -701q-4 -16 -4 -28q0 -40 35 -54q46 -18 40 -41q-5 -23 -26 -23h-339q-21 0 -16 23t60 41q54 18 69 82l161 699l-120 -5q-11 0 -15 6q-85 0 -169 1l-162 -701q-4 -16 -4 -28q0 -40 35 -54q46 -18 40 -41q-5 -23 -26 -23h-339q-17 0 -17 15z" />
<glyph unicode="&#xfb04;" horiz-adv-x="1569" d="M111 15q0 4 1 8q5 23 60 41q54 18 69 82l161 699l-120 -5q-19 0 -15 20v2q4 16 25 25q22 9 66 30q45 21 53 25q9 4 14 3l19 82q29 127 64 193t60 90q26 26 54 35l276 95l40 5q22 1 41 -15t23 -29t1 -27t-11 -42t-20 -31h-3q-11 0 -39 23q-29 23 -67 23t-68 -11 q-92 -36 -125 -137q-14 -38 -24 -82t-21 -90l-18 -79l240 5q15 0 10 -20q-1 -5 -2 -11q34 16 42 20q9 4 14 3l19 82q29 127 64 193t60 90q26 26 54 35l276 95l40 5q22 1 41 -15q13 -10 19 -20q35 5 71 14q68 17 137 39l-304 -1317q-4 -16 -4 -28q0 -40 35 -54q41 -16 40 -37 v-6q-5 -21 -25 -21h-339q-21 0 -16 21q6 25 60 43t69 82l256 1111q7 29 1 48q-3 -3 -7 -4h-3q-11 0 -39 23q-29 23 -67 23t-68 -11q-92 -36 -125 -137q-14 -38 -24 -82t-21 -90l-18 -79l240 5q15 0 10 -20t-13 -40q-21 -47 -56 -47l-204 1l-162 -701q-4 -16 -4 -28 q0 -40 35 -54q46 -18 40 -41q-5 -23 -26 -23h-339q-21 0 -16 23t60 41q54 18 69 82l161 699l-120 -5q-11 0 -15 6q-85 0 -169 1l-162 -701q-4 -16 -4 -28q0 -40 35 -54q46 -18 40 -41q-5 -23 -26 -23h-339q-17 0 -17 15z" />
</font>
</defs>
</svg>
